<svg id="Capa_1" enable-background="new 0 0 512 512" height="512" viewBox="0 0 512 512" width="512" xmlns="http://www.w3.org/2000/svg"><g><g fill="#bed8fb"><path d="m144.167 113.383h-60.811v-13.651c0-4.151-3.364-7.515-7.515-7.515s-7.515 3.364-7.515 7.515v13.651h-60.811c-4.15 0-7.515 3.364-7.515 7.515s3.365 7.515 7.515 7.515h60.812v39.457c0 4.151 3.365 7.515 7.515 7.515s7.515-3.364 7.515-7.515v-39.457h60.812c4.15 0 7.515-3.364 7.515-7.515-.002-4.151-3.366-7.515-7.517-7.515z"/><path d="m504.485 113.383h-60.812v-13.651c0-4.151-3.365-7.515-7.515-7.515s-7.515 3.364-7.515 7.515v13.651h-60.812c-4.15 0-7.515 3.364-7.515 7.515s3.365 7.515 7.515 7.515h60.812v39.457c0 4.151 3.365 7.515 7.515 7.515s7.515-3.364 7.515-7.515v-39.457h60.812c4.15 0 7.515-3.364 7.515-7.515s-3.365-7.515-7.515-7.515z"/></g><path d="m438.186 419.783h-24.392c-4.15 0-7.515-3.364-7.515-7.515 0-51.956-16.063-94.249-47.742-125.702-22.926-22.763-45.755-31.07-47.038-31.523-35.736-11.332-73.567-11.501-109.403-.489l-1.617.496c-1.502.541-24.705 9.153-47.521 32.018-31.345 31.413-47.238 73.536-47.238 125.201 0 4.151-3.364 7.515-7.515 7.515h-24.391c-4.15 0-7.515-3.364-7.515-7.515s3.365-7.515 7.515-7.515h16.988c1.947-65.459 29.132-106.077 52.071-128.853 25.912-25.729 51.744-34.731 52.831-35.102.073-.024.146-.049.22-.071l1.76-.54c38.804-11.924 79.768-11.73 118.461.562.05.017.1.033.15.05 1.087.371 26.919 9.373 52.831 35.102 22.939 22.776 50.124 63.394 52.071 128.853h16.988c4.15 0 7.515 3.364 7.515 7.515s-3.364 7.513-7.514 7.513z" fill="#c8c5c9"/><g><path d="m410.199 174.139h-308.398l-9.018 6.229 9.018 6.005 9.018 9.018h35.743c20.061 0 38.005 12.48 44.985 31.288 7.297 19.662 26.055 32.708 47.027 32.708h34.853c20.972 0 39.73-13.047 47.027-32.708 6.98-18.808 24.924-31.288 44.985-31.288h35.743l9.018-9.018 9.018-5.601z" fill="#dad8db"/><path d="m410.199 186.374h-44.76c-20.061 0-47.023 12.48-54.003 31.288-7.297 19.661-17.038 32.708-38.01 32.708h-34.853c-20.972 0-30.713-13.047-38.01-32.708-6.98-18.808-33.941-31.288-54.003-31.288h-44.76l-9.018 8.563 9.018 9.472h44.76c20.061 0 38.005 12.48 44.985 31.288 7.297 19.661 26.055 32.708 47.027 32.708h9.912v48.882c0 4.151 3.364 7.515 7.515 7.515s7.515-3.364 7.515-7.515v-48.882h9.912c20.972 0 39.73-13.047 47.027-32.708 6.98-18.808 24.924-31.288 44.985-31.288h44.76l9.018-9.472z" fill="#c8c5c9"/><path d="m436.159 224.267c21.692 0 25.96-20.64 25.96-34.978v-25.428c0-2.767-2.243-5.01-5.01-5.01h-41.901c-2.767 0-5.01 2.243-5.01 5.01v25.428c.001 14.338 4.541 34.978 25.961 34.978z" fill="#eceaec"/><path d="m436.159 215.249c-14.337 0-25.96-11.623-25.96-25.96v18.035c0 14.338 11.623 25.96 25.96 25.96 14.337 0 25.96-11.623 25.96-25.96v-18.035c0 14.338-11.623 25.96-25.96 25.96z" fill="#dad8db"/><path d="m75.841 224.267c21.692 0 25.96-20.64 25.96-34.978v-25.428c0-2.767-2.243-5.01-5.01-5.01h-41.9c-2.767 0-5.01 2.243-5.01 5.01v25.428c0 14.338 4.54 34.978 25.96 34.978z" fill="#eceaec"/><path d="m75.841 215.249c-14.338 0-25.96-11.623-25.96-25.96v18.035c0 14.338 11.623 25.96 25.96 25.96 14.337 0 25.96-11.623 25.96-25.96v-18.035c0 14.338-11.623 25.96-25.96 25.96z" fill="#dad8db"/><path d="m225.482 377.83h61.036c16.287 0 20.039-17.989 20.039-29.057v-20.464c0-11.067-8.972-20.039-20.039-20.039h-61.036c-11.067 0-20.039 8.972-20.039 20.039v20.464c0 11.067 3.305 29.057 20.039 29.057z" fill="#df667c"/><path d="m286.518 368.812h-61.036c-11.067 0-20.039-8.972-20.039-20.039v18.035c0 11.067 8.972 20.039 20.039 20.039h61.036c11.067 0 20.039-8.972 20.039-20.039v-18.035c0 11.067-8.972 20.039-20.039 20.039z" fill="#dc4857"/></g><g><path d="m273.939 345.543c0-4.159-3.371-7.529-7.529-7.529h-19.64c-4.158 0-7.529 3.371-7.529 7.529 0 4.159 3.371 7.529 7.529 7.529h19.64c4.158 0 7.529-3.37 7.529-7.529z" fill="#eceaec"/></g></g></svg>