<svg id="Capa_1" enable-background="new 0 0 512 512" height="512" viewBox="0 0 512 512" width="512" xmlns="http://www.w3.org/2000/svg"><g><g><path d="m371.233 37.104c-11.869-3.177-25.06-.12-34.372 9.193l-336.861 336.861 12.921 9.29 11.865-9.29 21.16-7.679 322.123-323.662z" fill="#dad8db"/><path d="m24.786 383.158 10.85 9.29 14.655-9.29 332.897-332.898c2.242-2.242 1.977-5.992-.608-7.827-3.499-2.485-7.348-4.259-11.346-5.329z" fill="#c8c5c9"/><path d="m0 383.158h50.29v14.139l-25.145 9.29-25.145-9.29z" fill="#454d58"/><path d="m0 415.878 25.145 9.29 25.145-9.29v-18.581h-50.29z" fill="#3c434c"/><path d="m485.167 397.297v-8.977c0-2.851-2.311-5.161-5.161-5.161h-384.374c-2.851 0-5.161 2.311-5.161 5.161v8.977l197.348 9.29z" fill="#bed8fb"/><path d="m90.471 415.878 197.348 9.29 197.348-9.29v-18.581h-394.696z" fill="#a3caf7"/><path d="m30.968 466.82h450.065c26.329 0 30.968-23.155 30.968-40.258v-5.523c0-2.851-2.311-5.161-5.161-5.161h-506.84v10.684c0 17.103 4.821 40.258 30.968 40.258z" fill="#dad8db"/><path d="m481.032 457.529h-450.064c-17.103 0-30.968-13.864-30.968-30.967v18.581c0 17.103 13.865 30.968 30.968 30.968h450.065c17.103 0 30.968-13.865 30.968-30.968v-18.581c-.001 17.103-13.866 30.967-30.969 30.967z" fill="#c8c5c9"/></g><g><path d="m459.485 454.113c4.285 0 7.757-3.473 7.757-7.757 0-4.285-3.472-7.757-7.757-7.757h-26.414c-4.285 0-7.757 3.473-7.757 7.757s3.473 7.757 7.757 7.757z" fill="#df667c"/><path d="m394.329 454.113c4.285 0 7.757-3.473 7.757-7.757 0-4.285-3.472-7.757-7.757-7.757h-26.415c-4.285 0-7.757 3.473-7.757 7.757s3.472 7.757 7.757 7.757z" fill="#eacc73"/></g></g></svg>