<svg id="Capa_1" enable-background="new 0 0 512 512" height="512" viewBox="0 0 512 512" width="512" xmlns="http://www.w3.org/2000/svg"><g><g><path d="m35.697 141.996c-3.484 0-6.648-2.368-7.513-5.902-1.018-4.153 1.524-8.344 5.677-9.361l347.034-85.007c4.144-1.023 8.344 1.524 9.361 5.677 1.018 4.153-1.524 8.344-5.677 9.361l-347.035 85.007c-.618.152-1.238.225-1.847.225z" fill="#3c434c"/><path d="m30.968 461.21h450.065c25.842 0 30.968-23.155 30.968-40.258v-266.377c0-17.103-13.865-30.968-30.968-30.968h-450.065c-17.103 0-30.968 13.865-30.968 30.968v266.377c0 17.103 7.026 40.258 30.968 40.258z" fill="#454d58"/><path d="m475.268 414.245-219.268 9.29-219.268-9.29v-247.802c0-2.851 2.311-5.161 5.161-5.161h428.213c2.851 0 5.161 2.311 5.161 5.161v247.802z" fill="#a6aec4"/><path d="m41.893 432.826h428.213c2.851 0 5.161-2.311 5.161-5.161v-13.419h-438.535v13.419c0 2.85 2.311 5.161 5.161 5.161z" fill="#959db0"/><path d="m314.036 233.406c0 6.885 1.827 21.757 12.466 21.757h91.253c12.057 0 12.466-14.872 12.466-21.757v-19.004c0-6.885-5.581-12.466-12.466-12.466h-91.253c-6.885 0-12.466 5.581-12.466 12.466z" fill="#df667c"/><path d="m316.175 361.422c0 7.126 3.26 21.451 19.312 21.451 14.248 0 19.312-13.7 19.312-21.451-3.465-7.188-10.798-12.161-19.312-12.161s-15.848 4.973-19.312 12.161c-.001.001-.001 0 0 0z" fill="#eacc73"/><path d="m481.032 451.92h-450.064c-17.103 0-30.968-13.865-30.968-30.968v18.581c0 17.103 13.865 30.967 30.968 30.967h450.065c17.103 0 30.968-13.865 30.968-30.968v-18.581c-.001 17.104-13.866 30.969-30.969 30.969z" fill="#3c434c"/><path d="m417.755 245.873h-91.253c-6.885 0-12.466-5.581-12.466-12.466v18.581c0 6.885 5.581 12.466 12.466 12.466h91.253c6.885 0 12.466-5.581 12.466-12.466v-18.581c0 6.884-5.581 12.466-12.466 12.466z" fill="#dc4857"/><path d="m335.487 373.583c-8.514 0-15.848-4.973-19.313-12.161-1.356 2.814-2.139 5.957-2.139 9.29 0 11.847 9.604 21.451 21.451 21.451s21.451-9.604 21.451-21.451c0-3.333-.782-6.476-2.139-9.29-3.463 7.189-10.797 12.161-19.311 12.161z" fill="#e3bd57"/><path d="m389.691 361.422c0 7.126 3.26 21.451 19.312 21.451 14.248 0 19.312-13.7 19.312-21.451-3.465-7.188-10.799-12.161-19.312-12.161-8.514 0-15.847 4.973-19.312 12.161z" fill="#b3e59f"/><path d="m409.004 373.583c-8.514 0-15.848-4.973-19.313-12.161-1.357 2.814-2.139 5.957-2.139 9.29 0 11.847 9.604 21.451 21.451 21.451s21.451-9.604 21.451-21.451c0-3.333-.782-6.476-2.139-9.29-3.464 7.189-10.797 12.161-19.311 12.161z" fill="#95d6a4"/></g><g><g fill="#434d59"><path d="m71.054 297.125c0 4.285 3.473 7.757 7.757 7.757h190.6c4.285 0 7.757-3.473 7.757-7.757 0-4.285-3.472-7.757-7.757-7.757h-190.6c-4.284 0-7.757 3.472-7.757 7.757z"/><path d="m76.798 264.464c0 4.285 3.473 7.757 7.757 7.757h179.112c4.285 0 7.757-3.472 7.757-7.757s-3.472-7.757-7.757-7.757h-179.112c-4.284 0-7.757 3.472-7.757 7.757z"/><path d="m96.965 231.803c0 4.285 3.473 7.757 7.757 7.757h138.78c4.285 0 7.757-3.472 7.757-7.757s-3.472-7.757-7.757-7.757h-138.78c-4.285-.001-7.757 3.472-7.757 7.757z"/><path d="m84.555 337.542h179.112c4.285 0 7.757-3.472 7.757-7.757s-3.472-7.757-7.757-7.757h-179.112c-4.285 0-7.757 3.473-7.757 7.757s3.473 7.757 7.757 7.757z"/><path d="m104.721 370.204h138.776c4.285 0 7.757-3.473 7.757-7.757s-3.473-7.757-7.757-7.757h-138.776c-4.285 0-7.757 3.473-7.757 7.757s3.472 7.757 7.757 7.757z"/><path d="m202.579 209.582c4.285 0 7.757-3.473 7.757-7.757 0-4.285-3.473-7.757-7.757-7.757h-56.936c-4.285 0-7.757 3.473-7.757 7.757 0 4.285 3.473 7.757 7.757 7.757z"/><path d="m145.643 384.668c-4.285 0-7.757 3.473-7.757 7.757s3.473 7.757 7.757 7.757h56.936c4.285 0 7.757-3.473 7.757-7.757s-3.473-7.757-7.757-7.757z"/></g><path d="m314.149 321.863h21.259c4.285 0 7.757-3.472 7.757-7.757s-3.473-7.757-7.757-7.757h-21.259c-4.285 0-7.757 3.473-7.757 7.757s3.472 7.757 7.757 7.757z" fill="#454d58"/><path d="m390.742 314.106c0-4.285-3.473-7.757-7.757-7.757h-21.258c-4.285 0-7.757 3.473-7.757 7.757s3.473 7.757 7.757 7.757h21.258c4.285 0 7.757-3.472 7.757-7.757z" fill="#454d58"/><path d="m430.563 321.863c4.285 0 7.757-3.472 7.757-7.757s-3.473-7.757-7.757-7.757h-21.259c-4.285 0-7.757 3.473-7.757 7.757s3.473 7.757 7.757 7.757z" fill="#454d58"/></g></g></svg>