<svg id="Capa_1" enable-background="new 0 0 512 512" height="512" viewBox="0 0 512 512" width="512" xmlns="http://www.w3.org/2000/svg"><g><path d="m335.171 95.358c-11.605-16.915-24.744-41.203-31.102-70.905-3.053-14.269-15.681-24.453-30.273-24.453h-65.487c-14.584 0-27.218 10.172-30.269 24.434-6.355 29.708-19.499 54.002-31.11 70.924l94.113 9.29z" fill="#a4acc2"/><path d="m388.226 246.71c14.864 0 15.487-16.224 15.487-24.778v-14.513c0-8.553-6.934-15.487-15.487-15.487h-14.401l-9.29 25.157 9.29 20.331v9.29z" fill="#ebc764"/><path d="m388.226 237.419h-14.401l-9.29 9.29 9.29 9.29h14.401c8.553 0 15.487-6.934 15.487-15.487v-18.581c0 8.554-6.934 15.488-15.487 15.488z" fill="#e5b73d"/><path d="m332.525 398.061h-182.938c-9.206 0-17.706-3.015-24.574-8.108s40.245 37.863 53.027 97.613c3.051 14.262 15.685 24.434 30.269 24.434h65.488c14.592 0 27.219-10.184 30.273-24.453 12.718-59.419 52.575-97.171 53.003-97.575-6.863 5.081-15.353 8.089-24.548 8.089z" fill="#a4acc2"/><path d="m178.04 487.566c.44 2.056 1.085 4.023 1.9 5.891l61.116 9.29 61.106-9.29c.819-1.874 1.466-3.848 1.908-5.91 12.718-59.419 52.575-97.171 53.003-97.575l-232.06-.018s40.245 37.862 53.027 97.612z" fill="#a4acc2"/><path d="m332.525 398.061h-182.938c-22.809 0-41.3-18.491-41.3-41.3v-201.523c0-22.809 18.49-41.3 41.3-41.3h182.938c22.809 0 41.3 18.49 41.3 41.3v201.523c0 22.81-18.491 41.3-41.3 41.3z" fill="#434d59"/><path d="m332.525 398.061h-182.938c-22.809 0-41.3-18.491-41.3-41.3v-201.523c0-22.809 18.49-41.3 41.3-41.3h182.938c22.809 0 41.3 18.49 41.3 41.3v201.523c0 22.81-18.491 41.3-41.3 41.3z" fill="#434d59"/><path d="m149.587 95.358c-.917 0-1.823.04-2.725.099-11.714 17.052-21.849 26.589-21.849 26.589l232.06-.019s-10.251-9.71-21.833-26.571c-.898-.058-1.802-.099-2.715-.099h-182.938z" fill="#939bae"/><path d="m149.587 388.771h182.938c33.606 0 41.3-27.781 41.3-50.59v-182.943c0-22.809-18.491-41.3-41.3-41.3h-182.938c-22.809 0-41.3 18.491-41.3 41.3v182.943c0 22.809 7.258 50.59 41.3 50.59z" fill="#434d59"/><path d="m188.694 237.596c0 26.416 40.545 56.308 49.941 61.35 1.514.812 3.329.812 4.843 0 9.396-5.043 49.941-34.034 49.941-61.35-7.391-30.087-46.043-26.132-52.362-5.966-6.321-20.166-44.972-24.121-52.363 5.966z" fill="#dd667c"/><path d="m300.936 493.419h-119.75c-.425 0-.846-.01-1.269-.015 4.828 11.118 15.89 18.596 28.392 18.596h65.487c12.502 0 23.556-7.48 28.388-18.595-.415.004-.83.014-1.248.014z" fill="#939bae"/><path d="m332.525 379.481h-182.938c-22.809 0-41.3-18.491-41.3-41.3v18.581c0 22.809 18.49 41.3 41.3 41.3h182.938c22.809 0 41.3-18.491 41.3-41.3v-18.581c0 22.809-18.491 41.3-41.3 41.3z" fill="#3b434d"/><path d="m293.418 237.596c-6.688 27.183-40.537 47.012-49.937 52.058-1.516.813-3.334.813-4.85 0-9.401-5.046-43.249-24.875-49.937-52.058-.324 1.318-.61 2.677-.808 4.127-4.715 34.469 39.734 60.602 50.741 66.51 1.519.815 3.341.815 4.859 0 11.007-5.908 55.456-32.04 50.741-66.51-.199-1.45-.485-2.809-.809-4.127z" fill="#db4858"/></g></svg>