<svg id="Capa_1" enable-background="new 0 0 512 512" height="512" viewBox="0 0 512 512" width="512" xmlns="http://www.w3.org/2000/svg"><g><g><g><path d="m460.387 370.201h-41.949l-9.29-9.29-9.29-109.556 9.29-118.846h51.239c28.505 0 51.613 23.108 51.613 51.613v125.175c0 28.506-23.108 60.904-51.613 60.904z" fill="#a4ccff"/><path d="m512 309.297v18.581c0 28.505-23.108 51.613-51.613 51.613h-51.239l-9.29-9.29 9.29-9.29h51.239c28.505 0 51.613-23.108 51.613-51.614z" fill="#8bb3ea"/></g><path d="m51.613 370.201h41.949l9.29-9.29 9.29-109.556-9.29-118.846h-51.239c-28.505-.001-51.613 23.108-51.613 51.613v125.175c0 28.506 23.108 60.904 51.613 60.904z" fill="#eacc73"/><path d="m0 309.297v18.581c0 28.505 23.108 51.613 51.613 51.613h51.239l9.29-9.29-9.29-9.29h-51.239c-28.505 0-51.613-23.108-51.613-51.614z" fill="#e3bd57"/><path d="m409.147 360.911-153.147 9.29-153.147-9.29v-228.403h306.294z" fill="#454d58"/><path d="m102.853 360.911h306.295v18.581h-306.295z" fill="#3c434c"/><path d="m377.973 328.836-121.973 9.291-121.973-9.29v-159.093c0-2.85 2.311-5.161 5.161-5.161h233.624c2.85 0 5.161 2.311 5.161 5.161z" fill="#bed8fb"/><path d="m139.188 347.417h233.624c2.85 0 5.161-2.311 5.161-5.161v-13.419h-243.946v13.419c0 2.85 2.31 5.161 5.161 5.161z" fill="#a3caf7"/><path d="m33.899 197.412c0 7.291 0 20.433 18.183 20.433s18.183-13.142 18.183-20.433c-3.384-6.609-10.247-11.143-18.183-11.143s-14.799 4.533-18.183 11.143z" fill="#454d58"/><path d="m52.082 208.554c-7.936 0-14.799-4.533-18.183-11.142-1.428 2.79-2.25 5.941-2.25 9.29 0 11.285 9.148 20.433 20.433 20.433s20.433-9.148 20.433-20.433c0-3.349-.822-6.501-2.25-9.29-3.384 6.609-10.247 11.142-18.183 11.142z" fill="#3c434c"/><g><path d="m443.046 197.412c0 7.291 0 20.433 18.183 20.433s18.183-13.142 18.183-20.433c-3.384-6.609-10.247-11.143-18.183-11.143-7.935 0-14.799 4.533-18.183 11.143z" fill="#454d58"/><path d="m461.229 208.554c-7.936 0-14.799-4.533-18.183-11.142-1.428 2.79-2.25 5.941-2.25 9.29 0 11.285 9.148 20.433 20.433 20.433s20.433-9.148 20.433-20.433c0-3.349-.822-6.501-2.25-9.29-3.384 6.609-10.247 11.142-18.183 11.142z" fill="#3c434c"/></g><g><path d="m443.046 296.008c0 7.291 0 20.433 18.183 20.433s18.183-13.142 18.183-20.433c-3.384-6.609-10.247-11.142-18.183-11.142-7.935-.001-14.799 4.532-18.183 11.142z" fill="#454d58"/><path d="m461.229 307.15c-7.936 0-14.799-4.533-18.183-11.142-1.428 2.789-2.25 5.941-2.25 9.29 0 11.285 9.148 20.433 20.433 20.433s20.433-9.148 20.433-20.433c0-3.349-.821-6.501-2.25-9.29-3.384 6.609-10.247 11.142-18.183 11.142z" fill="#3c434c"/></g><g><path d="m36.149 296.008c0 7.291 0 20.433 18.183 20.433s18.183-13.142 18.183-20.433c-3.384-6.609-10.247-11.142-18.183-11.142-7.936-.001-14.799 4.532-18.183 11.142z" fill="#454d58"/><path d="m54.332 307.15c-7.936 0-14.799-4.533-18.183-11.142-1.428 2.789-2.25 5.941-2.25 9.29 0 11.285 9.148 20.433 20.433 20.433s20.433-9.148 20.433-20.433c0-3.349-.821-6.501-2.25-9.29-3.384 6.609-10.248 11.142-18.183 11.142z" fill="#3c434c"/></g></g></g></svg>