<svg id="Capa_1" enable-background="new 0 0 512 512" height="512" viewBox="0 0 512 512" width="512" xmlns="http://www.w3.org/2000/svg"><g><g><path d="m185.183 77.034c-1.705-6.561-7.651-11.412-14.745-11.412h-81.239c-7.094 0-13.04 4.851-14.745 11.412l55.364 9.29z" fill="#a6aec4"/><path d="m74.454 77.034c-.319 1.229-.507 2.511-.507 3.84v14.74l55.871 9.29 55.871-9.29v-14.74c0-1.329-.188-2.611-.507-3.84z" fill="#959db0"/><path d="m50.84 437.087h396.329c40.166 0 50.84-32.052 50.84-60.13v-230.503c0-28.078-22.762-50.84-50.84-50.84h-396.329c-28.078.001-50.84 22.762-50.84 50.84v230.503c0 28.078 14.735 60.13 50.84 60.13z" fill="#454d58"/><path d="m75.992 314.32h107.652c12.333 0 15.252-16.119 15.252-24.542v-89.072c0-8.423-6.829-15.252-15.252-15.252h-107.652c-8.424 0-15.252 6.829-15.252 15.252v89.072c0 8.423 3.462 24.542 15.252 24.542z" fill="#bed8fb"/><path d="m311.137 321.994h150.023c33.571 0 50.84-32.052 50.84-60.13v-131.442c0-28.078-22.762-50.84-50.84-50.84h-150.023c-28.078 0-50.84 22.762-50.84 50.84v131.443c0 28.077 16.855 60.129 50.84 60.129z" fill="#df667c"/><path d="m312.79 287.499h146.717c15.752 0 17.998-17.348 17.998-27.288v-128.137c0-9.94-8.058-17.998-17.998-17.998h-146.717c-9.94 0-17.998 8.058-17.998 17.998v128.137c0 9.94 1.766 27.288 17.998 27.288z" fill="#454d58"/><path d="m332.461 196.143c0 24.75 26.761 54.493 53.688 54.493 26.926 0 53.688-28.737 53.688-54.493-4.411-25.668-26.761-45.203-53.688-45.203-26.927.001-49.277 19.536-53.688 45.203z" fill="#eceaec"/><path d="m368.468 196.143c0 7.058 10.002 19.979 17.68 19.979s17.68-13.16 17.68-19.979c-3.345-6.352-10.002-10.689-17.68-10.689-7.677 0-14.334 4.337-17.68 10.689z" fill="#dad8db"/><path d="m183.645 305.03h-107.653c-8.424 0-15.252-6.829-15.252-15.252v18.581c0 8.423 6.828 15.252 15.252 15.252h107.652c8.423 0 15.252-6.829 15.252-15.252v-18.581c.001 8.423-6.828 15.252-15.251 15.252z" fill="#a3caf7"/><path d="m447.169 427.797h-396.329c-28.078 0-50.84-22.762-50.84-50.84v18.581c0 28.078 22.762 50.84 50.84 50.84h396.33c28.078 0 50.84-22.762 50.84-50.84v-18.581c-.001 28.078-22.762 50.84-50.841 50.84z" fill="#3c434c"/><path d="m461.16 312.704h-150.023c-28.078 0-50.84-22.762-50.84-50.84v18.581c0 28.078 22.762 50.84 50.84 50.84h150.023c28.078 0 50.84-22.762 50.84-50.84v-18.581c0 28.078-22.762 50.84-50.84 50.84z" fill="#dc4857"/><path d="m459.507 278.209h-146.717c-9.94 0-17.998-8.058-17.998-17.998v18.581c0 9.94 8.058 17.998 17.998 17.998h146.717c9.94 0 17.998-8.058 17.998-17.998v-18.581c0 9.94-8.058 17.998-17.998 17.998z" fill="#3c434c"/><path d="m386.148 241.345c-26.927 0-49.276-19.535-53.688-45.202-.519 3.021-.805 6.121-.805 9.29 0 30.096 24.397 54.493 54.493 54.493 30.095 0 54.493-24.397 54.493-54.493 0-3.169-.286-6.27-.805-9.29-4.411 25.667-26.761 45.202-53.688 45.202z" fill="#dad8db"/><path d="m386.148 206.832c-7.678 0-14.335-4.337-17.68-10.689-1.462 2.777-2.299 5.934-2.299 9.29 0 11.034 8.945 19.979 19.979 19.979s19.979-8.945 19.979-19.979c0-3.356-.837-6.514-2.299-9.29-3.345 6.352-10.002 10.689-17.68 10.689z" fill="#c8c5c9"/></g><g fill="#a6aec4"><path d="m369.522 383.204h33.762c4.284 0 7.757-3.473 7.757-7.757 0-4.285-3.473-7.757-7.757-7.757h-33.762c-4.284 0-7.757 3.473-7.757 7.757 0 4.285 3.473 7.757 7.757 7.757z"/><path d="m369.522 410.45h33.762c4.284 0 7.757-3.473 7.757-7.757 0-4.285-3.473-7.757-7.757-7.757h-33.762c-4.284 0-7.757 3.473-7.757 7.757s3.473 7.757 7.757 7.757z"/><path d="m95.324 378.269c-4.284 0-7.757 3.472-7.757 7.757s3.473 7.757 7.757 7.757h67.699c4.284 0 7.757-3.473 7.757-7.757s-3.473-7.757-7.757-7.757z"/></g></g></svg>