<svg id="Capa_1" enable-background="new 0 0 512 512" height="512" viewBox="0 0 512 512" width="512" xmlns="http://www.w3.org/2000/svg"><g><g><path d="m142.334 502.71h227.332c25.492 0 30.044-22.742 30.044-39.335v-143.944c0-16.593-13.451-30.044-30.044-30.044h-227.332c-16.593 0-30.045 13.451-30.045 30.044v143.944c0 16.593 6.176 39.335 30.045 39.335z" fill="#454d58"/><path d="m369.666 493.419h-227.332c-16.593 0-30.045-13.451-30.045-30.044v18.581c0 16.593 13.451 30.044 30.045 30.044h227.332c16.593 0 30.044-13.451 30.044-30.044v-18.581c.001 16.593-13.451 30.044-30.044 30.044z" fill="#3c434c"/><path d="m193.362 445.748h125.276c22.188 0 31.156-23.24 31.156-40.447v-374.145c0-17.207-13.949-31.156-31.156-31.156h-125.276c-17.207 0-31.156 13.949-31.156 31.156v374.145c0 17.207 8.968 40.447 31.156 40.447z" fill="#eceaec"/><path d="m213.015 171.124h85.969c10.385 0 10.385-13.94 10.385-19.676v-63.267c0-5.736-4.65-10.386-10.385-10.386h-85.969c-5.736 0-10.385 4.65-10.385 10.386v63.267c0 5.736 0 19.676 10.385 19.676z" fill="#bed8fb"/><path d="m256 248.777c10.734 0 24.149-13.865 24.149-24.841v.001c-4.176-9.172-13.414-15.552-24.149-15.552s-19.973 6.38-24.149 15.551c0 10.934 13.414 24.841 24.149 24.841z" fill="#a6aec4"/><path d="m318.638 436.457h-125.276c-17.207 0-31.156-13.949-31.156-31.156v18.581c0 17.207 13.949 31.156 31.156 31.156h125.276c17.207 0 31.156-13.949 31.156-31.156v-18.581c0 17.207-13.949 31.156-31.156 31.156z" fill="#dad8db"/><path d="m256 239.486c-10.735 0-19.973-6.38-24.149-15.551-1.523 3.346-2.379 7.06-2.379 10.977 0 14.651 11.877 26.528 26.528 26.528s26.528-11.877 26.528-26.528c0-3.916-.856-7.63-2.379-10.977-4.176 9.172-13.415 15.551-24.149 15.551z" fill="#959db0"/><path d="m298.984 161.834h-85.969c-5.736 0-10.385-4.65-10.385-10.385v18.581c0 5.736 4.65 10.385 10.385 10.385h85.969c5.736 0 10.385-4.65 10.385-10.385v-18.581c.001 5.735-4.649 10.385-10.385 10.385z" fill="#a3caf7"/></g><g fill="#a6aec4"><path d="m274.986 48.865c4.285 0 7.757-3.472 7.757-7.757s-3.472-7.757-7.757-7.757h-37.971c-4.284 0-7.757 3.472-7.757 7.757s3.473 7.757 7.757 7.757z"/><path d="m190.548 234.87c0 4.285 3.473 7.757 7.757 7.757h12.038c4.284 0 7.757-3.473 7.757-7.757 0-4.285-3.473-7.757-7.757-7.757h-12.038c-4.284 0-7.757 3.472-7.757 7.757z"/><path d="m321.452 234.87c0-4.285-3.473-7.757-7.757-7.757h-12.038c-4.284 0-7.757 3.472-7.757 7.757s3.473 7.757 7.757 7.757h12.038c4.284 0 7.757-3.472 7.757-7.757z"/><path d="m219.122 285.411h-12.81c-4.284 0-7.757 3.473-7.757 7.757 0 4.285 3.473 7.757 7.757 7.757h12.81c4.284 0 7.757-3.473 7.757-7.757-.001-4.284-3.473-7.757-7.757-7.757z"/><path d="m262.405 285.411h-12.81c-4.284 0-7.757 3.473-7.757 7.757 0 4.285 3.473 7.757 7.757 7.757h12.81c4.285 0 7.757-3.473 7.757-7.757s-3.473-7.757-7.757-7.757z"/><path d="m305.689 285.411h-12.81c-4.285 0-7.757 3.473-7.757 7.757 0 4.285 3.472 7.757 7.757 7.757h12.81c4.285 0 7.757-3.473 7.757-7.757s-3.473-7.757-7.757-7.757z"/><path d="m219.122 318.298h-12.81c-4.284 0-7.757 3.473-7.757 7.757 0 4.285 3.473 7.757 7.757 7.757h12.81c4.284 0 7.757-3.473 7.757-7.757-.001-4.284-3.473-7.757-7.757-7.757z"/><path d="m262.405 318.298h-12.81c-4.284 0-7.757 3.473-7.757 7.757 0 4.285 3.473 7.757 7.757 7.757h12.81c4.285 0 7.757-3.473 7.757-7.757s-3.473-7.757-7.757-7.757z"/><path d="m305.689 318.298h-12.81c-4.285 0-7.757 3.473-7.757 7.757 0 4.285 3.472 7.757 7.757 7.757h12.81c4.285 0 7.757-3.473 7.757-7.757s-3.473-7.757-7.757-7.757z"/><path d="m219.122 351.184h-12.81c-4.284 0-7.757 3.473-7.757 7.757 0 4.285 3.473 7.757 7.757 7.757h12.81c4.284 0 7.757-3.472 7.757-7.757-.001-4.285-3.473-7.757-7.757-7.757z"/><path d="m262.405 351.184h-12.81c-4.284 0-7.757 3.473-7.757 7.757 0 4.285 3.473 7.757 7.757 7.757h12.81c4.285 0 7.757-3.472 7.757-7.757s-3.473-7.757-7.757-7.757z"/><path d="m305.689 351.184h-12.81c-4.285 0-7.757 3.473-7.757 7.757 0 4.285 3.472 7.757 7.757 7.757h12.81c4.285 0 7.757-3.472 7.757-7.757s-3.473-7.757-7.757-7.757z"/><path d="m219.122 384.07h-12.81c-4.284 0-7.757 3.473-7.757 7.757 0 4.285 3.473 7.757 7.757 7.757h12.81c4.284 0 7.757-3.473 7.757-7.757-.001-4.285-3.473-7.757-7.757-7.757z"/><path d="m262.405 384.07h-12.81c-4.284 0-7.757 3.473-7.757 7.757 0 4.285 3.473 7.757 7.757 7.757h12.81c4.285 0 7.757-3.473 7.757-7.757 0-4.285-3.473-7.757-7.757-7.757z"/><path d="m305.689 384.07h-12.81c-4.285 0-7.757 3.473-7.757 7.757 0 4.285 3.472 7.757 7.757 7.757h12.81c4.285 0 7.757-3.473 7.757-7.757 0-4.285-3.473-7.757-7.757-7.757z"/></g></g></svg>