<svg id="Capa_1" enable-background="new 0 0 512 512" height="512" viewBox="0 0 512 512" width="512" xmlns="http://www.w3.org/2000/svg"><g><g><path d="m119.534 502.71h272.933c30.968 0 30.968-23.155 30.968-40.258v-431.484c-.001-17.103-13.866-30.968-30.969-30.968h-272.932c-17.103 0-30.968 13.865-30.968 30.968v431.484c0 17.102 3.368 40.258 30.968 40.258z" fill="#dad8db"/><path d="m392.466 512h-272.932c-17.103 0-30.968-13.865-30.968-30.968v-450.064c0-17.103 13.865-30.968 30.968-30.968h272.933c17.103 0 30.968 13.865 30.968 30.968v450.064c-.001 17.103-13.866 30.968-30.969 30.968z" fill="#a6aec4"/><path d="m256 188.064c47.162 0 71.869-33.502 71.869-72.482-4.563-35.64-34.988-63.192-71.869-63.192s-67.306 27.552-71.869 63.192c0 33.493 26.138 72.482 71.869 72.482z" fill="#dad8db"/><path d="m145.372 339.302c0 57.639 52.443 111.018 110.628 111.018s110.628-52.997 110.628-111.018c-4.72-56.965-52.443-101.728-110.628-101.728s-105.907 44.763-110.628 101.728z" fill="#dad8db"/><path d="m218.143 115.582c0 18.834 19.532 38.98 37.857 38.98s37.857-21.658 37.857-38.98c-4.168-17.041-19.531-29.69-37.857-29.69s-33.689 12.649-37.857 29.69z" fill="#454d58"/><path d="m179.146 339.302c0 38.507 37.238 77.429 76.854 77.429s76.854-39.679 76.854-77.429c-4.593-38.379-37.238-68.138-76.854-68.138s-72.262 29.759-76.854 68.138z" fill="#454d58"/><path d="m256 369.44c20.97 0 28.672-16.435 28.672-30.138-3.917-12.097-15.27-20.847-28.672-20.847s-24.755 8.751-28.672 20.847c0 13.036 9.735 30.138 28.672 30.138z" fill="#dad8db"/><path d="m392.466 493.419h-272.932c-17.103 0-30.968-13.865-30.968-30.968v18.581c0 17.103 13.865 30.968 30.968 30.968h272.933c17.103 0 30.968-13.865 30.968-30.968v-18.581c-.001 17.104-13.866 30.968-30.969 30.968z" fill="#959db0"/><path d="m256 145.272c-18.325 0-33.689-12.649-37.857-29.69-.729 2.978-1.123 6.087-1.123 9.29 0 21.528 17.452 38.98 38.98 38.98s38.98-17.452 38.98-38.98c0-3.203-.395-6.312-1.123-9.29-4.168 17.041-19.532 29.69-37.857 29.69z" fill="#3c434c"/><path d="m256 178.774c-36.881 0-67.306-27.552-71.869-63.192-.39 3.044-.613 6.14-.613 9.29 0 40.031 32.452 72.482 72.482 72.482s72.482-32.451 72.482-72.482c0-3.15-.223-6.246-.613-9.29-4.563 35.64-34.988 63.192-71.869 63.192z" fill="#c8c5c9"/><path d="m256 360.15c-13.402 0-24.755-8.751-28.672-20.848-.948 2.927-1.466 6.048-1.466 9.29 0 16.645 13.493 30.138 30.138 30.138s30.138-13.493 30.138-30.138c0-3.243-.518-6.363-1.466-9.29-3.917 12.097-15.27 20.848-28.672 20.848z" fill="#c8c5c9"/><path d="m256 407.44c-39.616 0-72.262-29.759-76.854-68.138-.365 3.048-.574 6.144-.574 9.29 0 42.763 34.666 77.429 77.429 77.429s77.429-34.666 77.429-77.429c0-3.146-.21-6.242-.574-9.29-4.594 38.379-37.24 68.138-76.856 68.138z" fill="#3c434c"/><path d="m256 441.03c-58.184 0-105.907-44.762-110.628-101.728-.254 3.064-.39 6.161-.39 9.29 0 61.314 49.704 111.018 111.018 111.018s111.018-49.704 111.018-111.018c0-3.129-.136-6.226-.39-9.29-4.721 56.965-52.444 101.728-110.628 101.728z" fill="#c8c5c9"/></g></g></svg>