<svg id="Capa_1" enable-background="new 0 0 512 512" height="512" viewBox="0 0 512 512" width="512" xmlns="http://www.w3.org/2000/svg"><g><g><path d="m384.219 466.323h96.813c22.107 0 30.968-23.155 30.968-40.258v-358.71c0-17.103-13.865-30.968-30.968-30.968h-96.813c-17.103 0-30.968 13.865-30.968 30.968v358.71c0 17.102 6.925 40.258 30.968 40.258z" fill="#454d58"/><path d="m32 406.71h256c24.514 0 32-23.617 32-41.29v-237.42c0-17.673-14.327-32-32-32h-256c-17.673 0-32 14.327-32 32v237.419c0 17.673 0 41.291 32 41.291z" fill="#eceaec"/><path d="m432.626 314.355c14.071 0 29.934-18.591 29.934-31.335-3.959-12.77-15.863-22.045-29.934-22.045s-25.975 9.275-29.934 22.044c0 12.811 15.863 31.336 29.934 31.336z" fill="#bed8fb"/><path d="m288 397.419h-256c-17.673 0-32-14.327-32-32v18.581c0 17.673 14.327 32 32 32h256c17.673 0 32-14.327 32-32v-18.581c0 17.673-14.327 32-32 32z" fill="#dad8db"/><path d="m481.032 457.032h-96.813c-17.103 0-30.968-13.865-30.968-30.968v18.581c0 17.103 13.865 30.968 30.968 30.968h96.813c17.103 0 30.968-13.865 30.968-30.968v-18.581c0 17.103-13.865 30.968-30.968 30.968z" fill="#3c434c"/><path d="m432.626 305.065c-14.071 0-25.975-9.275-29.934-22.045-.91 2.936-1.401 6.056-1.401 9.29 0 17.306 14.029 31.335 31.335 31.335s31.335-14.029 31.335-31.335c0-3.235-.491-6.355-1.401-9.29-3.959 12.77-15.863 22.045-29.934 22.045z" fill="#a3caf7"/></g><g><path d="m388.001 88.055h11.593c4.285 0 7.757-3.473 7.757-7.757s-3.473-7.757-7.757-7.757h-11.593c-4.285 0-7.757 3.473-7.757 7.757s3.472 7.757 7.757 7.757z" fill="#df667c"/><path d="m477.942 72.541h-11.593c-4.284 0-7.757 3.473-7.757 7.757s3.473 7.757 7.757 7.757h11.593c4.285 0 7.757-3.473 7.757-7.757s-3.473-7.757-7.757-7.757z" fill="#b3e59f"/><g fill="#dad8db"><path d="m388.001 141.842h11.593c4.285 0 7.757-3.473 7.757-7.757s-3.473-7.757-7.757-7.757h-11.593c-4.285 0-7.757 3.473-7.757 7.757s3.472 7.757 7.757 7.757z"/><path d="m427.174 141.842h11.594c4.285 0 7.757-3.473 7.757-7.757s-3.472-7.757-7.757-7.757h-11.594c-4.285 0-7.757 3.473-7.757 7.757s3.472 7.757 7.757 7.757z"/><path d="m477.942 126.328h-11.593c-4.284 0-7.757 3.473-7.757 7.757s3.473 7.757 7.757 7.757h11.593c4.285 0 7.757-3.473 7.757-7.757s-3.473-7.757-7.757-7.757z"/><path d="m388.001 172.047h11.593c4.285 0 7.757-3.473 7.757-7.757s-3.473-7.757-7.757-7.757h-11.593c-4.285 0-7.757 3.473-7.757 7.757s3.472 7.757 7.757 7.757z"/><path d="m427.174 172.047h11.594c4.285 0 7.757-3.473 7.757-7.757s-3.472-7.757-7.757-7.757h-11.594c-4.285 0-7.757 3.473-7.757 7.757s3.472 7.757 7.757 7.757z"/><path d="m477.942 156.533h-11.593c-4.284 0-7.757 3.473-7.757 7.757s3.473 7.757 7.757 7.757h11.593c4.285 0 7.757-3.473 7.757-7.757s-3.473-7.757-7.757-7.757z"/><path d="m399.594 346.31h-11.593c-4.285 0-7.757 3.473-7.757 7.757s3.472 7.757 7.757 7.757h11.593c4.285 0 7.757-3.473 7.757-7.757 0-4.285-3.472-7.757-7.757-7.757z"/><path d="m477.942 346.31h-11.593c-4.284 0-7.757 3.473-7.757 7.757s3.473 7.757 7.757 7.757h11.593c4.285 0 7.757-3.473 7.757-7.757 0-4.285-3.473-7.757-7.757-7.757z"/><path d="m399.594 382.511h-11.593c-4.285 0-7.757 3.473-7.757 7.757s3.472 7.757 7.757 7.757h11.593c4.285 0 7.757-3.473 7.757-7.757s-3.472-7.757-7.757-7.757z"/><path d="m438.768 382.511h-11.594c-4.285 0-7.757 3.473-7.757 7.757s3.473 7.757 7.757 7.757h11.594c4.285 0 7.757-3.473 7.757-7.757s-3.472-7.757-7.757-7.757z"/><path d="m477.942 382.511h-11.593c-4.284 0-7.757 3.473-7.757 7.757s3.473 7.757 7.757 7.757h11.593c4.285 0 7.757-3.473 7.757-7.757s-3.473-7.757-7.757-7.757z"/><path d="m399.594 412.716h-11.593c-4.285 0-7.757 3.473-7.757 7.757s3.472 7.757 7.757 7.757h11.593c4.285 0 7.757-3.473 7.757-7.757s-3.472-7.757-7.757-7.757z"/><path d="m438.768 412.716h-11.594c-4.285 0-7.757 3.473-7.757 7.757s3.473 7.757 7.757 7.757h11.594c4.285 0 7.757-3.473 7.757-7.757s-3.472-7.757-7.757-7.757z"/><path d="m477.942 412.716h-11.593c-4.284 0-7.757 3.473-7.757 7.757s3.473 7.757 7.757 7.757h11.593c4.285 0 7.757-3.473 7.757-7.757s-3.473-7.757-7.757-7.757z"/><path d="m388.001 202.252h11.593c4.285 0 7.757-3.473 7.757-7.757s-3.473-7.757-7.757-7.757h-11.593c-4.285 0-7.757 3.473-7.757 7.757s3.472 7.757 7.757 7.757z"/><path d="m427.174 202.252h11.594c4.285 0 7.757-3.473 7.757-7.757s-3.472-7.757-7.757-7.757h-11.594c-4.285 0-7.757 3.473-7.757 7.757s3.472 7.757 7.757 7.757z"/><path d="m477.942 186.738h-11.593c-4.284 0-7.757 3.473-7.757 7.757s3.473 7.757 7.757 7.757h11.593c4.285 0 7.757-3.473 7.757-7.757s-3.473-7.757-7.757-7.757z"/><path d="m388.001 232.457h11.593c4.285 0 7.757-3.473 7.757-7.757s-3.473-7.757-7.757-7.757h-11.593c-4.285 0-7.757 3.473-7.757 7.757s3.472 7.757 7.757 7.757z"/><path d="m427.174 232.457h11.594c4.285 0 7.757-3.473 7.757-7.757s-3.472-7.757-7.757-7.757h-11.594c-4.285 0-7.757 3.473-7.757 7.757s3.472 7.757 7.757 7.757z"/><path d="m477.942 216.943h-11.593c-4.284 0-7.757 3.473-7.757 7.757s3.473 7.757 7.757 7.757h11.593c4.285 0 7.757-3.473 7.757-7.757s-3.473-7.757-7.757-7.757z"/></g><path d="m229.975 203.949c-4.066-1.353-8.456.85-9.807 4.916l-21.605 65.036-22.662-65.286c-1.405-4.048-5.826-6.188-9.872-4.785-4.047 1.405-6.189 5.825-4.785 9.872l28.367 81.723c1.363 3.838 5.004 6.405 9.073 6.405.022 0 .044-.001.066-.001 4.095-.028 7.732-2.651 9.068-6.58l27.073-81.494c1.351-4.065-.85-8.455-4.916-9.806z" fill="#454d58"/><path d="m145.641 211.158c0-4.284-3.473-7.757-7.757-7.757h-45.79c-4.284 0-7.757 3.473-7.757 7.757s3.473 7.757 7.757 7.757h15.046v75.158c0 4.284 3.473 7.757 7.757 7.757s7.757-3.473 7.757-7.757v-75.158h15.23c4.284 0 7.757-3.472 7.757-7.757z" fill="#454d58"/><path d="m114.842 363.189c-4.284 0-7.757 3.473-7.757 7.757s3.473 7.757 7.757 7.757h11.593c4.284 0 7.757-3.473 7.757-7.757s-3.473-7.757-7.757-7.757z" fill="#c8c5c9"/><path d="m146.258 370.946c0 4.284 3.473 7.757 7.757 7.757h11.593c4.284 0 7.757-3.473 7.757-7.757s-3.473-7.757-7.757-7.757h-11.593c-4.284 0-7.757 3.473-7.757 7.757z" fill="#c8c5c9"/><path d="m193.189 363.189c-4.284 0-7.757 3.473-7.757 7.757s3.473 7.757 7.757 7.757h11.593c4.284 0 7.757-3.473 7.757-7.757s-3.473-7.757-7.757-7.757z" fill="#c8c5c9"/><path d="m57.4 142.46c4.284 0 7.757-3.473 7.757-7.757s-3.473-7.757-7.757-7.757h-11.594c-4.284 0-7.757 3.473-7.757 7.757s3.473 7.757 7.757 7.757z" fill="#c8c5c9"/><path d="m279.485 142.46c4.285 0 7.757-3.473 7.757-7.757s-3.472-7.757-7.757-7.757h-11.593c-4.285 0-7.757 3.473-7.757 7.757s3.473 7.757 7.757 7.757z" fill="#c8c5c9"/></g></g></svg>