<svg id="Capa_1" enable-background="new 0 0 512 512" height="512" viewBox="0 0 512 512" width="512" xmlns="http://www.w3.org/2000/svg"><g><g><path d="m26.769 339.914v2.892c0 8.551 6.932 15.484 15.484 15.484h30.101c8.551 0 15.484-6.933 15.484-15.484v-2.892l-30.534-9.29z" fill="#454d58"/><path d="m26.769 321.334v18.58h61.069v-18.58l-30.534-9.29z" fill="#3c434c"/><path d="m424.162 339.914v2.892c0 8.551 6.932 15.484 15.484 15.484h30.101c8.552 0 15.484-6.933 15.484-15.484v-2.892l-30.535-9.29z" fill="#454d58"/><path d="m424.162 321.334v18.58h61.069v-18.58l-30.535-9.29z" fill="#3c434c"/><path d="m20.645 312.043h470.71c17.24 0 20.645-18.533 20.645-29.935v-81.723c0-11.402-9.243-20.645-20.645-20.645h-470.71c-11.402 0-20.645 9.243-20.645 20.645v81.723c0 11.402 3.405 29.935 20.645 29.935z" fill="#a6aec4"/><path d="m491.355 302.753h-470.71c-11.402 0-20.645-9.243-20.645-20.645v18.581c0 11.402 9.243 20.645 20.645 20.645h470.71c11.402 0 20.645-9.243 20.645-20.645v-18.581c0 11.402-9.243 20.645-20.645 20.645z" fill="#959db0"/><path d="m348.571 338.067c50.34 0 96.378-48.009 96.378-96.823-4.676-49.115-46.038-87.533-96.378-87.533s-91.701 38.418-96.378 87.533c.001 49.55 46.039 96.823 96.378 96.823z" fill="#eceaec"/><path d="m348.572 328.776c-50.34 0-91.701-38.418-96.378-87.533-.291 3.058-.446 6.156-.446 9.29 0 53.474 43.349 96.824 96.824 96.824 53.474 0 96.824-43.349 96.824-96.824 0-3.134-.155-6.232-.446-9.29-4.677 49.115-46.039 87.533-96.378 87.533z" fill="#dad8db"/><path d="m287.528 241.243c0 30.11 30.103 61.741 61.043 61.741s61.044-31.63 61.044-61.741c-4.481-29.69-30.103-52.45-61.044-52.45-30.94 0-56.562 22.76-61.043 52.45z" fill="#bed8fb"/><path d="m348.572 293.693c-30.94 0-56.562-22.76-61.043-52.45-.457 3.03-.697 6.132-.697 9.29 0 34.098 27.642 61.741 61.741 61.741s61.741-27.642 61.741-61.741c0-3.158-.24-6.26-.697-9.29-4.483 29.69-30.105 52.45-61.045 52.45z" fill="#a3caf7"/></g><g fill="#b3e59f"><path d="m57.822 229.692c0 4.284 3.473 7.757 7.757 7.757h24.999c4.284 0 7.757-3.473 7.757-7.757s-3.473-7.757-7.757-7.757h-24.999c-4.284-.001-7.757 3.473-7.757 7.757z"/><path d="m90.579 263.596h-25c-4.284 0-7.757 3.473-7.757 7.757s3.473 7.757 7.757 7.757h24.999c4.284 0 7.757-3.473 7.757-7.757.001-4.284-3.472-7.757-7.756-7.757z"/><path d="m123.786 237.449h24.999c4.284 0 7.757-3.473 7.757-7.757s-3.473-7.757-7.757-7.757h-24.999c-4.284 0-7.757 3.473-7.757 7.757s3.473 7.757 7.757 7.757z"/><path d="m123.786 279.111h24.999c4.284 0 7.757-3.473 7.757-7.757s-3.473-7.757-7.757-7.757h-24.999c-4.284 0-7.757 3.473-7.757 7.757s3.473 7.757 7.757 7.757z"/><path d="m206.992 221.934h-24.999c-4.284 0-7.757 3.473-7.757 7.757s3.473 7.757 7.757 7.757h24.999c4.284 0 7.757-3.473 7.757-7.757 0-4.283-3.473-7.757-7.757-7.757z"/><path d="m206.992 263.596h-24.999c-4.284 0-7.757 3.473-7.757 7.757s3.473 7.757 7.757 7.757h24.999c4.284 0 7.757-3.473 7.757-7.757s-3.473-7.757-7.757-7.757z"/></g></g></svg>