<svg id="Capa_1" enable-background="new 0 0 512 512" height="512" viewBox="0 0 512 512" width="512" xmlns="http://www.w3.org/2000/svg"><g><g><path d="m256 502.71c80.428 0 145.627-56.286 145.627-154.917v-202.167c0-77.832-61.059-141.402-137.888-145.424l-7.739 9.088-7.494-9.101c-76.945 3.9-138.133 67.523-138.133 145.437v202.166c0 97.294 65.2 154.918 145.627 154.918z" fill="#eceaec"/><path d="m263.738 159.45 14.972-26.897.269-13.327.001.001v-.001-26.086c0-9.977-6.358-18.466-15.242-21.644v-71.291c-2.563-.134-5.142-.205-7.738-.205-2.599 0-5.181.071-7.746.205v71.291c-8.884 3.178-15.242 11.667-15.242 21.644v26.086l.269 13.327 14.973 26.897v62.896c0 4.276 3.466 7.742 7.742 7.742s7.742-3.466 7.742-7.742z" fill="#454d58"/><path d="m255.997 142.21c-12.694 0-22.984-10.29-22.984-22.984v18.581c0 12.694 10.29 22.984 22.984 22.984 12.694 0 22.984-10.29 22.984-22.984v-18.581c-.001 12.694-10.291 22.984-22.984 22.984z" fill="#3c434c"/><path d="m256 493.419c-80.428 0-145.627-65.199-145.627-145.627v18.581c0 80.428 65.199 145.627 145.627 145.627 80.427 0 145.626-65.199 145.626-145.626v-18.581c0 80.427-65.199 145.626-145.626 145.626z" fill="#dad8db"/></g></g></svg>