<svg id="Capa_1" enable-background="new 0 0 512 512" height="512" viewBox="0 0 512 512" width="512" xmlns="http://www.w3.org/2000/svg"><g><g><path d="m30.968 436.473h450.065c26.531 0 30.968-23.155 30.968-40.258v-299.01c0-17.103-13.865-30.968-30.968-30.968h-450.065c-17.103 0-30.968 13.865-30.968 30.968v299.01c0 17.103 4.473 40.258 30.968 40.258z" fill="#dad8db"/><path d="m198.418 398.086c80.482 0 151.084-71.043 151.084-151.376-4.801-79.275-70.602-142.086-151.084-142.086s-146.283 62.811-151.084 142.086c0 78.315 70.602 151.376 151.084 151.376z" fill="#454d58"/><path d="m198.418 308.608c31.028 0 61.203-31.499 61.203-61.898-4.482-29.778-30.175-52.608-61.203-52.608s-56.72 22.831-61.203 52.609c0 28.049 30.175 61.897 61.203 61.897z" fill="#eceaec"/><path d="m182.134 246.71c0 5.865 9.307 18.76 16.284 18.76s16.284-12.895 16.284-18.76c-3.232-5.652-9.307-9.469-16.284-9.469-6.977-.001-13.052 3.817-16.284 9.469z" fill="#454d58"/><path d="m369.584 369.146c-1.906 0-3.816-.7-5.312-2.11-3.11-2.933-3.253-7.834-.32-10.944l35.604-37.747v-213.721c0-4.276 3.466-7.742 7.742-7.742s7.742 3.466 7.742 7.742v216.795c0 1.975-.755 3.875-2.11 5.312l-37.714 39.985c-1.522 1.615-3.576 2.43-5.632 2.43z" fill="#454d58"/><path d="m407.298 163.612c8.529 0 19.341-13 19.341-21.477-3.467-7.203-10.812-12.186-19.341-12.186s-15.874 4.984-19.341 12.186c.001 7.831 10.813 21.477 19.341 21.477z" fill="#bed8fb"/><path d="m335.523 395.648 30.089-16.692 10.562-23.959-4.582-4.582c-3.931-3.931-10.305-3.931-14.237 0l-26.415 26.415c-3.931 3.931-3.931 10.305 0 14.236z" fill="#a6aec4"/><path d="m445.353 245.766c0 4.645 2.573 16.338 13.431 16.338 12.247 0 13.432-11.693 13.432-16.338 0 0 0 .001.001.001-2.949-4.256-7.862-7.049-13.432-7.049s-10.483 2.792-13.432 7.048z" fill="#b3e59f"/><path d="m376.174 354.997-40.651 40.651 4.318 4.318c3.931 3.931 10.305 3.931 14.236 0l26.415-26.415c3.931-3.931 3.931-10.305 0-14.236z" fill="#959db0"/><path d="m481.032 427.182h-450.064c-17.103 0-30.968-13.864-30.968-30.967v18.581c0 17.103 13.865 30.968 30.968 30.968h450.065c17.103 0 30.968-13.865 30.968-30.968v-18.581c-.001 17.103-13.866 30.967-30.969 30.967z" fill="#c8c5c9"/><path d="m198.418 388.795c-80.482 0-146.283-62.811-151.084-142.086-.186 3.074-.292 6.17-.292 9.29 0 83.603 67.773 151.376 151.376 151.376s151.376-67.772 151.376-151.375c0-3.121-.106-6.216-.292-9.29-4.801 79.274-70.602 142.085-151.084 142.085z" fill="#3c434c"/><path d="m198.418 299.318c-31.028 0-56.72-22.83-61.203-52.608-.456 3.031-.696 6.132-.696 9.29 0 34.186 27.713 61.899 61.899 61.899s61.899-27.713 61.899-61.899c0-3.158-.24-6.26-.696-9.29-4.483 29.777-30.175 52.608-61.203 52.608z" fill="#dad8db"/><path d="m198.418 256.179c-6.977 0-13.052-3.817-16.284-9.469-1.567 2.741-2.476 5.907-2.476 9.29 0 10.361 8.399 18.76 18.76 18.76s18.76-8.399 18.76-18.76c0-3.383-.909-6.549-2.476-9.29-3.232 5.651-9.307 9.469-16.284 9.469z" fill="#3c434c"/><path d="m407.298 154.322c-8.529 0-15.874-4.984-19.341-12.186-1.355 2.815-2.136 5.957-2.136 9.29 0 11.861 9.616 21.477 21.477 21.477s21.477-9.615 21.477-21.477c0-3.333-.781-6.476-2.136-9.29-3.467 7.202-10.812 12.186-19.341 12.186z" fill="#a3caf7"/><path d="m458.784 252.814c-5.569 0-10.482-2.792-13.431-7.048-1.829 2.639-2.907 5.837-2.907 9.29 0 9.023 7.315 16.338 16.338 16.338 9.024 0 16.338-7.315 16.338-16.338 0-3.454-1.078-6.652-2.907-9.29-2.948 4.255-7.861 7.048-13.431 7.048z" fill="#95d6a4"/><path d="m445.353 309.896c0 4.645 2.573 16.338 13.431 16.338 12.247 0 13.432-11.693 13.432-16.338 0 0 0 0 .001.001-2.949-4.256-7.862-7.049-13.432-7.049s-10.483 2.793-13.432 7.048z" fill="#eacc73"/><path d="m458.784 316.944c-5.569 0-10.482-2.792-13.431-7.048-1.829 2.639-2.907 5.837-2.907 9.29 0 9.023 7.315 16.338 16.338 16.338 9.024 0 16.338-7.315 16.338-16.338 0-3.453-1.078-6.652-2.907-9.29-2.948 4.256-7.861 7.048-13.431 7.048z" fill="#e7b93e"/><path d="m445.353 374.024c0 4.645 2.573 16.338 13.431 16.338 12.247 0 13.432-11.693 13.432-16.338 0 0 0 0 .001.001-2.949-4.256-7.862-7.048-13.432-7.048s-10.483 2.792-13.432 7.047c0 .001 0 .001 0 0z" fill="#df667c"/><path d="m458.784 381.072c-5.569 0-10.482-2.792-13.431-7.048-1.829 2.638-2.907 5.837-2.907 9.29 0 9.023 7.315 16.338 16.338 16.338 9.024 0 16.338-7.315 16.338-16.338 0-3.453-1.078-6.652-2.907-9.29-2.948 4.256-7.861 7.048-13.431 7.048z" fill="#dc4857"/></g></g></svg>