<svg id="Capa_1" enable-background="new 0 0 512 512" height="512" viewBox="0 0 512 512" width="512" xmlns="http://www.w3.org/2000/svg"><g><path d="m452.27 490.928c-19.681 0-35.693-16.012-35.693-35.693v-145.556c0-15.395-12.524-27.919-27.919-27.919l-18.653.025c-.003 0-.007 0-.01 0-4.271 0-7.736-3.459-7.742-7.732-.006-4.275 3.456-7.746 7.732-7.752l18.663-.025c23.943 0 43.413 19.471 43.413 43.403v145.556c0 11.143 9.066 20.209 20.209 20.209s20.209-9.066 20.209-20.209v-316.225c0-4.276 3.466-7.742 7.742-7.742s7.742 3.466 7.742 7.742v316.226c0 19.68-16.012 35.692-35.693 35.692z" fill="#c8c5c9"/><g><path d="m388.658 270.74v-9.93c0-2.851-2.311-5.161-5.161-5.161h-32.446l-8.827 7.706 9.735 7.385 18.036 9.29z" fill="#eceaec"/><g><path d="m351.332 289.321h32.165c2.85 0 5.161-2.311 5.161-5.161v-13.42h-36.699l-9.604 9.29z" fill="#dad8db"/></g><g fill="#c8c5c9"><path d="m498.225 69.173c-4.276 0-7.742-3.466-7.742-7.742v-32.618c0-4.276 3.466-7.742 7.742-7.742s7.742 3.466 7.742 7.742v32.618c0 4.277-3.466 7.742-7.742 7.742z"/><path d="m462.24 69.173c-4.276 0-7.742-3.466-7.742-7.742v-32.618c0-4.276 3.466-7.742 7.742-7.742s7.742 3.466 7.742 7.742v32.618c0 4.277-3.466 7.742-7.742 7.742z"/></g><path d="m480.221 106.881c25.746 0 31.779-23.518 31.779-41.069v-3.363c0-2.85-2.311-5.161-5.161-5.161h-53.236c-2.851 0-5.161 2.311-5.161 5.161v3.363c-.001 17.551 6.056 41.069 31.779 41.069z" fill="#454d58"/><path d="m.244 264.719c4.831 92.883 58.452 176.001 175.757 176.001 113.89 0 170.926-83.117 175.757-176-4.831-92.884-81.671-166.711-175.757-166.711-94.086-.001-170.926 73.826-175.757 166.71z" fill="#454d58"/><path d="m176.001 394.995c68.825 0 129.942-63.991 129.942-130.276-4.765-67.613-61.117-120.986-129.942-120.986s-125.178 53.373-129.943 120.986c0 69.783 61.118 130.276 129.943 130.276z" fill="#eacc73"/><path d="m480.221 116.172c-5.587 0-10.834-1.446-15.396-3.978v30.946c0 2.85 2.311 5.161 5.161 5.161h20.469c2.85 0 5.161-2.311 5.161-5.161v-30.946c-4.561 2.531-9.808 3.978-15.395 3.978z" fill="#eceaec"/><path d="m464.825 130.774v12.365c0 2.851 2.311 5.161 5.161 5.161h20.469c2.851 0 5.161-2.311 5.161-5.161v-12.365l-15.396-5.312z" fill="#eceaec"/><path d="m480.221 106.881-15.396 5.312v18.581c4.562 2.531 9.809 3.978 15.396 3.978s10.834-1.447 15.396-3.978v-18.581z" fill="#dad8db"/><path d="m480.221 97.591c-17.551 0-31.779-14.228-31.779-31.779v18.581c0 17.551 14.228 31.779 31.779 31.779 17.551 0 31.779-14.228 31.779-31.779v-18.581c0 17.551-14.228 31.779-31.779 31.779z" fill="#3c434c"/><path d="m176.001 385.704c-68.825 0-125.178-53.373-129.943-120.986-.216 3.069-.333 6.166-.333 9.29 0 71.949 58.327 130.276 130.276 130.276s130.276-58.327 130.276-130.276c0-3.124-.117-6.221-.333-9.29-4.766 67.613-61.118 120.986-129.943 120.986z" fill="#e3bd57"/><path d="m176.001 431.43c-94.086 0-170.926-73.827-175.757-166.711-.16 3.077-.244 6.174-.244 9.29 0 97.203 78.798 176.001 176.001 176.001 97.202 0 176.001-78.798 176.001-176.001 0-3.117-.084-6.214-.244-9.29-4.831 92.883-81.671 166.711-175.757 166.711z" fill="#3c434c"/></g><g><path d="m162.895 316.771c3.562 2.277 8.396 1.257 10.707-2.389l22.979-36.178c3.32-4.968-.576-12.056-6.548-11.916h-14.262l15.411-24.262c2.297-3.617 1.227-8.411-2.389-10.707-3.615-2.296-8.41-1.228-10.707 2.389l-22.979 36.179c-3.32 4.967.576 12.056 6.548 11.916h14.262l-15.411 24.262c-2.297 3.615-1.227 8.409 2.389 10.706z" fill="#454d58"/></g></g></svg>