<svg id="Capa_1" enable-background="new 0 0 512 512" height="512" viewBox="0 0 512 512" width="512" xmlns="http://www.w3.org/2000/svg"><g><g><path d="m82.165 365.43c22.793 22.792 92.287 51.55 173.835 51.55s147.118-24.834 173.834-51.55v-255.177c0-37.171-21.094-71.018-53.966-85.781-28.679-12.88-68.703-24.472-119.868-24.472-50.615 0-90.328 11.345-118.94 24.058-33.268 14.782-54.895 48.647-54.895 86.202z" fill="#eceaec"/><path d="m136.132 478.237c28.509 13.253 68.703 24.473 119.868 24.473s91.1-11.792 119.868-24.473c44.482-19.607 53.631-57.384 53.952-94.218.005-.003.01-.006.015-.009 0 0-92.287 32.969-173.834 32.969-81.548 0-173.835-32.97-173.835-32.97.005.003.01.006.015.009.32 36.835 11.773 74.613 53.951 94.219z" fill="#dad8db"/><path d="m256 407.689c-81.548 0-138.508-21.916-173.835-42.26v17.736c0 .285.013.568.015.853 35.328 20.342 92.284 42.252 173.82 42.252s138.491-21.91 173.819-42.251c.002-.285.015-.568.015-.853v-17.736c-35.326 20.343-92.286 42.259-173.834 42.259z" fill="#dad8db"/><path d="m375.868 468.947c-28.679 12.88-68.703 24.473-119.868 24.473s-91.189-11.593-119.868-24.473c-32.621-14.65-53.631-48.094-53.951-84.928-.005-.003-.01-.006-.015-.009v17.736c0 37.171 21.094 71.018 53.966 85.781 28.679 12.88 68.703 24.473 119.868 24.473s91.189-11.593 119.868-24.472c32.872-14.763 53.966-48.61 53.966-85.781v-17.737c-.005.003-.01.006-.015.009-.32 36.834-21.33 70.278-53.951 84.928z" fill="#c8c5c9"/></g><g><path d="m360.108 49.151c0-4.284-3.473-7.757-7.757-7.757-4.285 0-7.757 3.473-7.757 7.757 0 1.145-4.026 6.942-22.628 12.347-17.514 5.089-40.942 7.891-65.966 7.891s-48.452-2.803-65.965-7.891c-18.602-5.405-22.628-11.202-22.628-12.347 0-4.284-3.473-7.757-7.757-7.757-4.285 0-7.757 3.473-7.757 7.757 0 24.564 53.966 35.753 104.108 35.753s104.107-11.189 104.107-35.753z" fill="#dad8db"/><g fill="#454d58"><path d="m231.1 458.631h-5.602v-5.602c0-4.284-3.472-7.757-7.757-7.757s-7.757 3.473-7.757 7.757v5.602h-5.602c-4.285 0-7.757 3.473-7.757 7.757s3.473 7.757 7.757 7.757h5.602v5.602c0 4.284 3.473 7.757 7.757 7.757 4.285 0 7.757-3.473 7.757-7.757v-5.602h5.602c4.285 0 7.757-3.473 7.757-7.757s-3.473-7.757-7.757-7.757z"/><path d="m307.625 458.631h-26.717c-4.285 0-7.757 3.473-7.757 7.757s3.472 7.757 7.757 7.757h26.717c4.285 0 7.757-3.473 7.757-7.757s-3.472-7.757-7.757-7.757z"/></g></g></g></svg>