<svg id="Capa_1" enable-background="new 0 0 512 512" height="512" viewBox="0 0 512 512" width="512" xmlns="http://www.w3.org/2000/svg"><g><g><path d="m409.649 31.255v-8.361c0-2.808-2.276-5.084-5.084-5.084h-20.883c-2.808 0-5.084 2.276-5.084 5.084v8.361l15.526 9.152z" fill="#dad8db"/><path d="m334.165 512c-37.266 0-67.585-30.318-67.585-67.584v-21.117c0-4.212 3.414-7.627 7.627-7.627 4.212 0 7.627 3.415 7.627 7.627v21.117c0 28.855 23.476 52.331 52.332 52.331s52.332-23.476 52.332-52.331v-286.197c0-4.212 3.414-7.627 7.627-7.627s7.627 3.415 7.627 7.627v286.197c-.002 37.266-30.321 67.584-67.587 67.584z" fill="#c8c5c9"/><path d="m248.789 399.919v27.447c0 2.808 2.276 5.084 5.084 5.084h40.666c2.808 0 5.084-2.276 5.084-5.084v-27.447l-25.418-9.152z" fill="#eceaec"/><path d="m378.597 49.559 15.526 9.152 15.526-9.152v-18.304h-31.052z" fill="#c8c5c9"/><path d="m381.082 149.581v12.706c0 2.808 2.277 5.084 5.084 5.084h15.913c2.808 0 5.085-2.276 5.085-5.084v-12.706l-13.04-9.152z" fill="#dad8db"/><path d="m381.082 131.277v18.304h26.081v-18.304l-13.04-9.152z" fill="#c8c5c9"/><path d="m248.789 381.615v18.304h50.835v-18.304l-25.417-9.152z" fill="#dad8db"/><path d="m419.208 112.973v-58.329c0-2.808-2.276-5.084-5.084-5.084h-40.002c-2.808 0-5.084 2.276-5.084 5.084v58.329l25.085 9.152z" fill="#eceaec"/><path d="m374.122 131.277h40.002c2.808 0 5.084-2.276 5.084-5.084v-13.219h-50.171v13.219c0 2.808 2.277 5.084 5.085 5.084z" fill="#dad8db"/><path d="m108.045 372.463h210.44c13.981 0 15.253-15.981 15.253-24.405v-332.805c0-8.424-6.829-15.253-15.253-15.253h-210.44c-8.424 0-15.253 6.829-15.253 15.253v332.806c.001 8.424 0 24.404 15.253 24.404z" fill="#df667c"/><path d="m142.609 153.564c0 34.449 34.403 71.262 70.656 71.262 36.254 0 70.657-36.354 70.657-71.262-4.494-35.031-34.403-62.11-70.657-62.11s-66.162 27.079-70.656 62.11z" fill="#eacc73"/><path d="m318.485 363.311h-210.44c-8.424 0-15.253-6.829-15.253-15.253v18.304c0 8.424 6.829 15.253 15.253 15.253h210.44c8.424 0 15.253-6.829 15.253-15.253v-18.304c0 8.424-6.829 15.253-15.253 15.253z" fill="#dc4857"/><path d="m213.265 215.674c-36.253 0-66.162-27.079-70.656-62.11-.385 2.999-.605 6.049-.605 9.152 0 39.357 31.905 71.262 71.262 71.262s71.262-31.905 71.262-71.262c0-3.103-.22-6.153-.605-9.152-4.496 35.031-34.404 62.11-70.658 62.11z" fill="#e3bd57"/></g><g><path d="m226.566 154.899h-12.863l14.221-22.39c5.129-8.729-7.186-16.542-12.901-8.194l-21.677 34.128c-3.271 4.894.568 11.876 6.45 11.738h12.863l-14.221 22.39c-5.124 8.703 7.16 16.557 12.901 8.194l21.677-34.128c3.271-4.893-.567-11.875-6.45-11.738z" fill="#454d58"/><g fill="#eceaec"><path d="m148.971 320.04c-4.221 0-7.642 3.421-7.642 7.642 0 4.22 3.421 7.642 7.642 7.642h17.329c4.221 0 7.642-3.421 7.642-7.642 0-4.22-3.421-7.642-7.642-7.642z"/><path d="m204.517 320.04c-4.221 0-7.642 3.421-7.642 7.642 0 4.22 3.421 7.642 7.642 7.642h17.329c4.221 0 7.642-3.421 7.642-7.642 0-4.22-3.421-7.642-7.642-7.642z"/><path d="m260.064 320.04c-4.221 0-7.642 3.421-7.642 7.642 0 4.22 3.421 7.642 7.642 7.642h17.329c4.221 0 7.642-3.421 7.642-7.642 0-4.22-3.421-7.642-7.642-7.642z"/></g></g></g></svg>