<svg id="Capa_1" enable-background="new 0 0 512 512" height="512" viewBox="0 0 512 512" width="512" xmlns="http://www.w3.org/2000/svg"><g><g><path d="m276.175 164.053v-10.069c0-5.736-4.65-10.386-10.385-10.386h-9.169c-5.736 0-10.385 4.65-10.385 10.386v10.069l14.97 9.29z" fill="#454d58"/><path d="m246.235 164.053v18.58l14.97 9.29 14.97-9.29v-18.58z" fill="#3c434c"/><path d="m218.712 164.053-5.912-149.863c-.312-7.926-6.828-14.19-14.761-14.19-7.932 0-14.448 6.264-14.761 14.19l-5.911 149.862 20.941 9.29z" fill="#454d58"/><path d="m176.634 182.633 21.405 9.29 21.405-9.29-.732-18.58h-41.345z" fill="#3c434c"/><path d="m331.549 164.053v-10.069c0-5.736-4.65-10.386-10.385-10.386h-9.169c-5.736 0-10.385 4.65-10.385 10.386v10.069l14.97 9.29z" fill="#df667c"/><path d="m301.609 164.053v18.58l14.97 9.29 14.97-9.29v-18.58z" fill="#dc4857"/><path d="m331.801 182.633h-151.602c-18.061 0-32.703 14.642-32.703 32.703v89.75c0 22.877 4.687 45.511 13.771 66.507 9.085 20.996 13.771 43.63 13.771 66.507v22.617c0 18.061 5.283 41.993 32.703 41.993h96.517c28.883 0 32.703-23.932 32.703-41.993v-22.617c0-22.877 4.687-45.511 13.771-66.507 9.084-20.996 13.771-43.63 13.771-66.507v-89.75c.001-18.061-14.641-32.703-32.702-32.703z" fill="#a6aec4"/><g><path d="m304.258 493.419h-96.517c-18.061 0-32.703-14.642-32.703-32.703v18.581c0 18.061 14.641 32.703 32.703 32.703h96.517c18.061 0 32.703-14.642 32.703-32.703v-18.581c0 18.062-14.641 32.703-32.703 32.703z" fill="#959db0"/></g><path d="m208.631 376.474h93.109c10.323 0 10.323-13.912 10.323-19.613v-4.871c0-5.701-4.622-10.323-10.323-10.323h-93.109c-5.701 0-10.323 4.622-10.323 10.323v4.871c0 5.701 0 19.613 10.323 19.613z" fill="#b3e59f"/><path d="m301.74 367.184h-93.109c-5.701 0-10.323-4.622-10.323-10.323v18.581c0 5.701 4.622 10.323 10.323 10.323h93.109c5.701 0 10.323-4.622 10.323-10.323v-18.581c0 5.701-4.622 10.323-10.323 10.323z" fill="#95d6a4"/></g><g><path d="m293.556 239.486c4.284 0 7.757-3.473 7.757-7.757 0-4.285-3.473-7.757-7.757-7.757h-76.743c-4.284 0-7.757 3.473-7.757 7.757 0 4.285 3.473 7.757 7.757 7.757z" fill="#454d58"/><path d="m190.438 266.585c0 4.285 3.473 7.757 7.757 7.757h113.977c4.284 0 7.757-3.472 7.757-7.757s-3.473-7.757-7.757-7.757h-113.976c-4.285 0-7.758 3.473-7.758 7.757z" fill="#454d58"/><path d="m216.813 293.684c-4.284 0-7.757 3.473-7.757 7.757 0 4.285 3.473 7.757 7.757 7.757h76.743c4.284 0 7.757-3.473 7.757-7.757s-3.473-7.757-7.757-7.757z" fill="#454d58"/><g fill="#eceaec"><path d="m238.651 415.452h-20.792c-4.284 0-7.757 3.473-7.757 7.757 0 4.285 3.473 7.757 7.757 7.757h20.792c4.284 0 7.757-3.472 7.757-7.757s-3.473-7.757-7.757-7.757z"/><path d="m294.525 415.452h-20.792c-4.284 0-7.757 3.473-7.757 7.757 0 4.285 3.473 7.757 7.757 7.757h20.792c4.284 0 7.757-3.472 7.757-7.757s-3.473-7.757-7.757-7.757z"/><path d="m238.651 444.935h-20.792c-4.284 0-7.757 3.473-7.757 7.757 0 4.285 3.473 7.757 7.757 7.757h20.792c4.284 0 7.757-3.473 7.757-7.757s-3.473-7.757-7.757-7.757z"/><path d="m294.525 444.935h-20.792c-4.284 0-7.757 3.473-7.757 7.757 0 4.285 3.473 7.757 7.757 7.757h20.792c4.284 0 7.757-3.473 7.757-7.757s-3.473-7.757-7.757-7.757z"/></g></g></g></svg>