<svg id="Capa_1" enable-background="new 0 0 512 512" height="512" viewBox="0 0 512 512" width="512" xmlns="http://www.w3.org/2000/svg"><g><g><path d="m493.571 497.776c6.786 0 15.898-10.575 15.898-18.429-3.199-5.461-9.112-9.139-15.898-9.139h-22.344l-9.29 9.139 9.29 9.139v9.29z" fill="#454d58"/><path d="m493.571 488.485h-22.343l-9.29 9.29 9.29 9.29h22.343c10.178 0 18.429-8.251 18.429-18.429 0-3.393-.932-6.56-2.531-9.29-3.199 5.461-9.112 9.139-15.898 9.139z" fill="#3c434c"/><path d="m50.256 502.71h411.681l9.29-9.29v-22.985c0-2.85-2.311-5.161-5.161-5.161h-264.881l-75.464 9.29-75.465-9.29-30.244 14.073z" fill="#a4ccff"/><path d="m481.032 0h-450.064c-17.103 0-30.968 13.865-30.968 30.968v44.117l256 9.29 256-9.29v-44.117c0-17.103-13.865-30.968-30.968-30.968z" fill="#a4ccff"/><path d="m0 93.665 256 9.291 256-9.291v-18.58h-512z" fill="#8bb3ea"/><path d="m30.968 402.843h450.065c26.956 0 30.968-23.155 30.968-40.258v-268.92h-512.001v268.92c0 17.103 3.413 40.258 30.968 40.258z" fill="#dad8db"/><path d="m20.012 479.346-9.909 4.611c-3.978 1.851-3.978 7.508 0 9.359l40.153 18.684 75.465-9.29 75.464 9.29h264.881c2.85 0 5.161-2.311 5.161-5.161v-13.419h-420.971z" fill="#8bb3ea"/><g><path d="m50.256 465.273h150.929v28.146l-75.465 9.291-75.464-9.291z" fill="#454d58"/><path d="m50.256 493.419h150.929v18.581h-150.929z" fill="#3c434c"/></g><path d="m53.262 37.542c0 5.255 8.633 17.617 14.948 17.617h46.329c6.315 0 14.948-12.026 14.948-17.617-3.11-4.993-8.633-8.327-14.948-8.327h-15.423l-7.742 9.29-7.742-9.29h-15.422c-6.316 0-11.839 3.335-14.948 8.327-.001.001 0 0 0 0z" fill="#454d58"/><path d="m114.539 45.869h-46.329c-6.315 0-11.839-3.334-14.948-8.327-1.681 2.699-2.669 5.876-2.669 9.29 0 9.73 7.888 17.617 17.617 17.617h15.422l7.742-9.29 7.742 9.29h15.423c9.73 0 17.617-7.887 17.617-17.617 0-3.414-.987-6.591-2.669-9.29-3.11 4.993-8.633 8.327-14.948 8.327z" fill="#3c434c"/><path d="m83.632 29.215h15.484v35.234h-15.484z" fill="#dad8db"/><path d="m477.482 358.49v-227.647c0-2.851-2.311-5.161-5.161-5.161h-432.642c-2.85 0-5.161 2.311-5.161 5.161v227.647l221.482 9.29z" fill="#454d58"/><path d="m39.68 377.07h432.64c2.85 0 5.161-2.311 5.161-5.161v-13.419h-442.963v13.419c0 2.85 2.311 5.161 5.162 5.161z" fill="#3c434c"/><path d="m481.032 393.553h-450.064c-17.103 0-30.968-13.865-30.968-30.968v18.581c0 17.103 13.865 30.968 30.968 30.968h450.065c17.103 0 30.968-13.865 30.968-30.968v-18.581c-.001 17.103-13.866 30.968-30.969 30.968z" fill="#c8c5c9"/><path d="m382.513 37.542c0 5.255 8.633 17.617 14.948 17.617h46.329c6.315 0 14.948-12.026 14.948-17.617-3.11-4.993-8.633-8.327-14.948-8.327h-15.423l-7.742 9.29-7.742-9.29h-15.422c-6.315 0-11.839 3.335-14.948 8.327z" fill="#454d58"/><path d="m443.79 45.869h-46.329c-6.315 0-11.839-3.334-14.948-8.327-1.681 2.699-2.669 5.876-2.669 9.29 0 9.73 7.888 17.617 17.617 17.617h15.422l7.742-9.29 7.742 9.29h15.423c9.73 0 17.617-7.887 17.617-17.617 0-3.414-.987-6.591-2.669-9.29-3.109 4.993-8.633 8.327-14.948 8.327z" fill="#3c434c"/><path d="m412.884 29.215h15.484v35.234h-15.484z" fill="#dad8db"/></g><g fill="#eceaec"><path d="m73.953 189.014c4.285 0 7.757-3.473 7.757-7.757v-9.342h9.342c4.285 0 7.757-3.473 7.757-7.757s-3.472-7.757-7.757-7.757h-17.099c-4.285 0-7.757 3.473-7.757 7.757v17.099c0 4.284 3.472 7.757 7.757 7.757z"/><path d="m420.948 171.915h9.342v9.342c0 4.284 3.473 7.757 7.757 7.757 4.285 0 7.757-3.473 7.757-7.757v-17.099c0-4.284-3.473-7.757-7.757-7.757h-17.099c-4.284 0-7.757 3.473-7.757 7.757s3.473 7.757 7.757 7.757z"/><path d="m73.953 346.333h17.099c4.285 0 7.757-3.473 7.757-7.757s-3.472-7.757-7.757-7.757h-9.342v-9.342c0-4.284-3.472-7.757-7.757-7.757s-7.757 3.473-7.757 7.757v17.099c0 4.284 3.472 7.757 7.757 7.757z"/><path d="m420.948 346.333h17.099c4.285 0 7.757-3.473 7.757-7.757v-17.099c0-4.284-3.473-7.757-7.757-7.757-4.285 0-7.757 3.473-7.757 7.757v9.342h-9.342c-4.284 0-7.757 3.473-7.757 7.757s3.473 7.757 7.757 7.757z"/></g></g></svg>