<svg id="Capa_1" enable-background="new 0 0 512 512" height="512" viewBox="0 0 512 512" width="512" xmlns="http://www.w3.org/2000/svg"><g><g><path d="m371.261 376.176s-20.787 7.644-20.787 7.644l-18.205 24.121-13.124 15.696 5.62 15.026 20.738-3.84c8.169-1.513 14.635-7.774 16.41-15.891z" fill="#a6aec4"/><path d="m381.784 327.948-24.745 26.097-17.932 25.898-12.331 17.811 5.492 10.187c14.474-8.707 27.597-19.425 38.992-31.765l10.545-48.23z" fill="#959db0"/><path d="m110.858 376.176s20.787 7.644 20.787 7.644l18.205 24.121 13.124 15.696-5.62 15.026-20.738-3.84c-8.169-1.513-14.635-7.774-16.41-15.891z" fill="#a6aec4"/><path d="m100.335 327.948 24.745 26.097 17.932 25.898 12.331 17.811-5.492 10.187c-14.474-8.707-27.597-19.425-38.992-31.765l-10.545-48.23z" fill="#959db0"/><path d="m332.268 407.94h-182.418l19.649 80.44c3.387 13.865 15.811 23.62 30.083 23.62h82.954c14.272 0 26.697-9.754 30.083-23.62z" fill="#dad8db"/><path d="m143.012 379.943 6.839 27.998c26.645 16.03 57.849 25.255 91.209 25.255 33.361 0 64.563-9.226 91.209-25.255l6.839-27.998z" fill="#c8c5c9"/><path d="m413.492 278.737c15.484 0 15.484-16.223 15.484-24.774v-14.506c0-8.551-6.932-15.484-15.484-15.484h-17.647l-7.668 54.764z" fill="#a6aec4"/><g><path d="m413.492 269.446h-23.998l-2.684 18.836 26.682-.255c8.552 0 15.484-6.932 15.484-15.484v-18.581c0 8.552-6.933 15.484-15.484 15.484z" fill="#959db0"/></g><g><path d="m371.261 135.824s-20.787-7.644-20.787-7.644l-18.205-24.121-13.124-15.696 5.62-15.026 20.738 3.84c8.169 1.513 14.635 7.774 16.41 15.891z" fill="#a6aec4"/><path d="m381.784 184.052-24.745-26.097-17.932-25.898-12.331-17.811 5.492-10.187c14.474 8.707 27.597 19.425 38.992 31.765l10.545 48.23z" fill="#959db0"/><path d="m110.858 135.824s20.787-7.644 20.787-7.644l18.205-24.121 13.124-15.696-5.62-15.026-20.738 3.84c-8.169 1.513-14.635 7.774-16.41 15.891z" fill="#a6aec4"/><path d="m100.335 184.052 24.745-26.097 17.932-25.898 12.331-17.811-5.492-10.187c-14.474 8.707-27.597 19.425-38.992 31.765l-10.545 48.23z" fill="#959db0"/><path d="m332.268 104.06h-182.418l19.649-80.44c3.387-13.865 15.811-23.62 30.083-23.62h82.954c14.272 0 26.697 9.755 30.083 23.619z" fill="#dad8db"/><path d="m143.012 132.057 6.839-27.998c26.645-16.03 57.849-25.255 91.209-25.255 33.361 0 64.563 9.226 91.209 25.255l6.839 27.998z" fill="#c8c5c9"/></g><path d="m83.303 246.71c0 81.236 73.595 158.035 157.756 158.035s157.756-74.372 157.756-158.035c-4.81-82.955-73.595-148.745-157.756-148.745s-152.946 65.79-157.756 148.745z" fill="#454d58"/><path d="m121.96 246.71c0 62.481 56.251 119.456 119.099 119.456 62.847 0 119.099-56.975 119.099-119.455-4.741-61.632-56.251-110.167-119.099-110.167-62.847 0-114.358 48.534-119.099 110.166z" fill="#df667c"/><path d="m241.059 356.875c-62.848 0-114.358-48.534-119.099-110.166-.236 3.066-.357 6.164-.357 9.29 0 65.974 53.482 119.456 119.456 119.456s119.456-53.482 119.456-119.456c0-3.126-.121-6.224-.357-9.29-4.741 61.633-56.251 110.166-119.099 110.166z" fill="#dc4857"/><path d="m241.059 395.455c-84.161 0-152.946-65.79-157.756-148.745-.178 3.075-.279 6.171-.279 9.29 0 87.28 70.755 158.035 158.035 158.035s158.036-70.755 158.036-158.035c0-3.12-.101-6.215-.279-9.29-4.811 82.954-73.596 148.745-157.757 148.745z" fill="#3c434c"/></g><g><path d="m214.361 263.757c3.507 0 6.577-2.353 7.489-5.739l4.249-15.767 17.833 52.859c1.065 3.156 4.023 5.277 7.349 5.277h.06c3.349-.025 6.305-2.198 7.328-5.388l10.02-31.243h22.872c4.285 0 7.757-3.473 7.757-7.757s-3.473-7.757-7.757-7.757h-28.53c-3.372 0-6.357 2.178-7.386 5.388l-4.548 14.181-18.477-54.768c-1.093-3.238-4.151-5.381-7.592-5.274-3.415.106-6.359 2.435-7.248 5.735l-9.362 34.738h-24.266c-4.285 0-7.757 3.473-7.757 7.757s3.473 7.757 7.757 7.757h30.209z" fill="#eceaec"/></g></g></svg>