<svg id="Capa_1" enable-background="new 0 0 512 512" height="512" viewBox="0 0 512 512" width="512" xmlns="http://www.w3.org/2000/svg"><g><path d="m358.781 512c-37.267 0-67.585-30.318-67.585-67.584v-21.117c0-4.212 3.415-7.627 7.627-7.627s7.627 3.415 7.627 7.627v21.117c0 28.855 23.476 52.331 52.331 52.331 28.856 0 52.332-23.476 52.332-52.331v-286.197c0-4.212 3.415-7.627 7.627-7.627s7.627 3.415 7.627 7.627v286.197c-.001 37.266-30.319 67.584-67.586 67.584z" fill="#c8c5c9"/><g><path d="m443.13 51.051v-18.689c0-2.808-2.276-5.085-5.084-5.085h-38.612c-2.808 0-5.084 2.276-5.084 5.085v18.689l24.391 9.152z" fill="#dad8db"/><path d="m394.349 69.355 24.39 9.152 24.391-9.152v-18.304h-48.781z" fill="#c8c5c9"/><path d="m449.503 112.973v-38.534c0-2.808-2.276-5.084-5.084-5.084h-51.359c-2.808 0-5.084 2.276-5.084 5.084v38.533l30.764 9.152z" fill="#eceaec"/><path d="m405.699 149.581v12.706c0 2.808 2.276 5.084 5.084 5.084h15.912c2.808 0 5.084-2.276 5.084-5.084v-12.706l-13.041-9.152z" fill="#dad8db"/><path d="m273.406 399.919v27.447c0 2.808 2.276 5.084 5.084 5.084h40.666c2.808 0 5.084-2.276 5.084-5.084v-27.447l-25.418-9.152z" fill="#eceaec"/><path d="m405.699 131.277v18.304h26.081v-18.304l-13.041-9.152z" fill="#c8c5c9"/><path d="m393.06 131.277h51.359c2.808 0 5.084-2.276 5.084-5.084v-13.219h-61.528v13.219c0 2.807 2.277 5.084 5.085 5.084z" fill="#dad8db"/><path d="m77.75 372.463h265.352c14.549 0 15.253-15.981 15.253-24.405v-332.805c0-8.424-6.829-15.253-15.253-15.253h-265.352c-8.424 0-15.253 6.829-15.253 15.253v332.805c0 8.424 1.273 24.405 15.253 24.405z" fill="#454d58"/><path d="m273.406 381.615v18.304h50.835v-18.304l-25.418-9.152z" fill="#dad8db"/><path d="m343.102 363.311h-265.352c-8.424 0-15.253-6.829-15.253-15.253v18.304c0 8.424 6.829 15.253 15.253 15.253h265.352c8.424 0 15.253-6.829 15.253-15.253v-18.304c0 8.424-6.829 15.253-15.253 15.253z" fill="#3c434c"/></g><g><g fill="#eceaec"><path d="m166.888 236.704c4.22 0 7.642-3.421 7.642-7.642v-63.022c0-4.22-3.421-7.642-7.642-7.642-4.22 0-7.642 3.421-7.642 7.642v22.789h-28.329v-22.789c0-4.22-3.421-7.642-7.641-7.642s-7.642 3.421-7.642 7.642v63.022c0 4.22 3.421 7.642 7.642 7.642 4.22 0 7.641-3.421 7.641-7.642v-24.95h28.329v24.95c0 4.221 3.422 7.642 7.642 7.642z"/><path d="m190.083 228.069c0 .514.053 1.016.15 1.502.124 1.851.908 3.601 2.232 4.915 1.432 1.421 3.367 2.218 5.383 2.218h.029c.523-.002 12.874-.05 17.808-.135 18.368-.321 31.699-16.338 31.699-38.085 0-22.861-12.996-38.221-32.339-38.221h-17.321c-4.129-.082-7.758 3.577-7.642 7.705v60.101zm24.963-52.523c12.575 0 17.056 11.849 17.056 22.938 0 11.206-5.158 22.603-16.682 22.804-2.287.04-6.324.072-9.955.094-.023-7.224-.054-17.711-.054-22.966 0-4.394-.017-15.353-.03-22.87z"/><path d="m259.567 228.069c0 .514.053 1.016.149 1.502.124 1.851.908 3.601 2.233 4.915 1.432 1.421 3.367 2.218 5.383 2.218h.029c.523-.002 12.874-.05 17.809-.135 18.367-.321 31.699-16.338 31.699-38.085 0-22.861-12.996-38.221-32.339-38.221h-17.321c-2.029 0-3.975.807-5.408 2.243-1.434 1.436-2.237 3.383-2.233 5.413v.048.002 60.1zm24.963-52.523c12.576 0 17.056 11.849 17.056 22.938 0 11.206-5.159 22.603-16.683 22.804-2.286.04-6.324.072-9.955.094-.023-7.224-.054-17.711-.054-22.966 0-4.394-.017-15.353-.03-22.87z"/></g><path d="m139.582 47.917c0-4.22-3.421-7.642-7.642-7.642h-17.329c-4.22 0-7.642 3.421-7.642 7.642 0 4.22 3.421 7.642 7.642 7.642h17.329c4.221 0 7.642-3.421 7.642-7.642z" fill="#bed8fb"/></g></g></svg>