<svg id="Capa_1" enable-background="new 0 0 512 512" height="512" viewBox="0 0 512 512" width="512" xmlns="http://www.w3.org/2000/svg"><g><g><path d="m192.164 484.085v7.237c0 11.42 9.258 20.677 20.678 20.677h86.317c11.42 0 20.677-9.258 20.677-20.677v-7.237l-63.836-9.304z" fill="#bed8fb"/><path d="m192.164 465.476v18.609h127.672v-18.609l-63.836-9.305z" fill="#a3caf7"/><path d="m347.751 55.027h-183.502c-17.13 0-31.016 13.887-31.016 31.016v111.947c0 25.885 4.73 51.552 13.957 75.736 9.227 24.185 13.957 49.852 13.957 75.736v66.387c0 17.13 5.083 40.321 31.016 40.321h127.672c25.76 0 31.016-23.192 31.016-40.321v-66.387c0-25.885 4.73-51.552 13.957-75.736s13.957-49.851 13.957-75.736v-111.947c.002-17.13-13.884-31.016-31.014-31.016z" fill="#454d58"/><path d="m320.343 65.797-64.343 9.305-64.343-9.305v-57.637c0-3.981 4.312-6.468 7.758-4.475l21.823 12.625c1.601.926 3.576.926 5.177 0l26.993-15.615c1.601-.926 3.576-.926 5.177 0l26.996 15.615c1.601.926 3.575.926 5.177 0l21.827-12.625c3.446-1.993 7.758.494 7.758 4.475z" fill="#eceaec"/><path d="m191.657 84.406 64.343 9.305 64.343-9.305v-18.609h-128.686z" fill="#dad8db"/><path d="m185.156 211.465h141.687c10.723 0 10.723-14.106 10.723-20.028v-57.563c0-5.922-4.801-10.723-10.723-10.723h-141.687c-5.922 0-10.723 4.801-10.723 10.723v57.563c.001 5.922 1.623 20.028 10.723 20.028z" fill="#b3e59f"/><path d="m334.095 99.915h-156.19c-4.282 0-7.754-3.471-7.754-7.754s3.472-7.754 7.754-7.754h156.19c4.283 0 7.754 3.471 7.754 7.754s-3.471 7.754-7.754 7.754z" fill="#a6aec4"/><g><path d="m319.836 446.866h-127.672c-17.13 0-31.016-13.887-31.016-31.016v18.61c0 17.13 13.887 31.016 31.016 31.016h127.672c17.13 0 31.016-13.887 31.016-31.016v-18.61c.001 17.129-13.886 31.016-31.016 31.016z" fill="#3c434c"/></g><path d="m326.844 202.16h-141.688c-5.922 0-10.723-4.801-10.723-10.723v18.61c0 5.922 4.801 10.723 10.723 10.723h141.687c5.922 0 10.723-4.801 10.723-10.723v-18.61c0 5.922-4.8 10.723-10.722 10.723z" fill="#95d6a4"/></g><g fill="#dad8db"><path d="m210.496 268.143c0-4.291-3.479-7.769-7.769-7.769h-21.13c-4.291 0-7.769 3.478-7.769 7.769s3.479 7.769 7.769 7.769h21.13c4.29 0 7.769-3.478 7.769-7.769z"/><path d="m330.404 260.374h-21.13c-4.291 0-7.769 3.478-7.769 7.769s3.478 7.769 7.769 7.769h21.13c4.291 0 7.769-3.478 7.769-7.769s-3.478-7.769-7.769-7.769z"/><path d="m280.116 260.374h-48.232c-4.291 0-7.769 3.478-7.769 7.769s3.478 7.769 7.769 7.769h48.232c4.291 0 7.769-3.478 7.769-7.769s-3.477-7.769-7.769-7.769z"/><path d="m216.017 312.022h-19.781c-4.291 0-7.769 3.478-7.769 7.769s3.479 7.769 7.769 7.769h19.781c4.291 0 7.769-3.478 7.769-7.769s-3.478-7.769-7.769-7.769z"/><path d="m265.891 312.022h-19.781c-4.291 0-7.769 3.478-7.769 7.769s3.478 7.769 7.769 7.769h19.781c4.291 0 7.769-3.478 7.769-7.769s-3.478-7.769-7.769-7.769z"/><path d="m315.764 312.022h-19.78c-4.291 0-7.769 3.478-7.769 7.769s3.478 7.769 7.769 7.769h19.78c4.291 0 7.769-3.478 7.769-7.769s-3.478-7.769-7.769-7.769z"/><path d="m216.017 343.505h-19.781c-4.291 0-7.769 3.478-7.769 7.769s3.479 7.769 7.769 7.769h19.781c4.291 0 7.769-3.478 7.769-7.769.001-4.291-3.478-7.769-7.769-7.769z"/><path d="m265.891 343.505h-19.781c-4.291 0-7.769 3.478-7.769 7.769s3.478 7.769 7.769 7.769h19.781c4.291 0 7.769-3.478 7.769-7.769s-3.478-7.769-7.769-7.769z"/><path d="m315.764 343.505h-19.78c-4.291 0-7.769 3.478-7.769 7.769s3.478 7.769 7.769 7.769h19.78c4.291 0 7.769-3.478 7.769-7.769s-3.478-7.769-7.769-7.769z"/><path d="m216.017 374.986h-19.781c-4.291 0-7.769 3.478-7.769 7.769s3.479 7.769 7.769 7.769h19.781c4.291 0 7.769-3.478 7.769-7.769s-3.478-7.769-7.769-7.769z"/><path d="m265.891 374.986h-19.781c-4.291 0-7.769 3.478-7.769 7.769s3.478 7.769 7.769 7.769h19.781c4.291 0 7.769-3.478 7.769-7.769s-3.478-7.769-7.769-7.769z"/><path d="m315.764 374.986h-19.78c-4.291 0-7.769 3.478-7.769 7.769s3.478 7.769 7.769 7.769h19.78c4.291 0 7.769-3.478 7.769-7.769s-3.478-7.769-7.769-7.769z"/><path d="m216.017 406.468h-19.781c-4.291 0-7.769 3.478-7.769 7.769s3.479 7.769 7.769 7.769h19.781c4.291 0 7.769-3.478 7.769-7.769.001-4.291-3.478-7.769-7.769-7.769z"/><path d="m265.891 406.468h-19.781c-4.291 0-7.769 3.478-7.769 7.769s3.478 7.769 7.769 7.769h19.781c4.291 0 7.769-3.478 7.769-7.769s-3.478-7.769-7.769-7.769z"/><path d="m315.764 406.468h-19.78c-4.291 0-7.769 3.478-7.769 7.769s3.478 7.769 7.769 7.769h19.78c4.291 0 7.769-3.478 7.769-7.769s-3.478-7.769-7.769-7.769z"/></g></g></svg>