<svg id="Capa_1" enable-background="new 0 0 512 512" height="512" viewBox="0 0 512 512" width="512" xmlns="http://www.w3.org/2000/svg"><g><path d="m469.271 448.042 13.032-30.154v-352.819c0-9.615-7.795-17.409-17.41-17.409-9.615 0-17.41 7.795-17.41 17.41v352.819l13.032 30.154c2.023 3.235 6.735 3.235 8.756-.001z" fill="#eceaec"/><path d="m60.664 502.71h321.032c23.609 0 30.965-23.153 30.968-40.253v-431.489c0-17.103-13.865-30.968-30.967-30.968h-321.033c-17.103 0-30.968 13.865-30.968 30.968v431.484c0 17.103 4.039 40.258 30.968 40.258z" fill="#eceaec"/><path d="m71.834 441.487h298.693c10.323 0 10.322-13.911 10.323-19.612v-379.737c0-5.701-4.622-10.323-10.323-10.323h-298.693c-5.701 0-10.323 4.622-10.323 10.323v379.737c.001 5.7.001 19.612 10.323 19.612z" fill="#bed8fb"/><path d="m370.527 432.197h-298.693c-5.701 0-10.323-4.622-10.323-10.323v18.581c0 5.701 4.621 10.323 10.323 10.323h298.693c5.701 0 10.323-4.622 10.323-10.323v-18.581c-.001 5.701-4.622 10.323-10.323 10.323z" fill="#a3caf7"/><path d="m219.78 329.482c30.074 0 57.908-27.65 57.908-64.591-2.911-49.251-25.111-106.086-57.908-106.086s-54.997 56.835-57.908 106.087c0 36.94 27.834 64.59 57.908 64.59z" fill="#b3e59f"/><path d="m219.78 320.191c-30.074 0-54.819-19.194-57.908-55.3-.216 3.655-.33 7.27-.33 10.815 0 41.117 26.074 63.066 58.238 63.066s58.238-21.949 58.238-63.066c0-3.545-.114-7.16-.33-10.815-3.089 36.106-27.834 55.3-57.908 55.3z" fill="#95d6a4"/><path d="m241.218 489.682h-40.211c-4.284 0-7.757-3.473-7.757-7.757s3.473-7.757 7.757-7.757h40.211c4.284 0 7.757 3.473 7.757 7.757s-3.473 7.757-7.757 7.757z" fill="#a6aec4"/><g fill="#a4acc2"><path d="m256.414 80.065c-.058-.002-.456-.023-.643-.017-2.993-.02-15.526.607-26.135 11.805-10.608-11.198-23.141-11.825-26.135-11.805-.187-.006-.585.015-.643.017-4.008.293-7.171 3.638-7.171 7.721 0 4.276 3.466 7.742 7.742 7.742.062 0 .184-.004.184-.004.485-.008 11.857-.184 19.247 13.179 1.363 2.465 3.958 3.995 6.775 3.995s5.411-1.53 6.775-3.995c7.391-13.362 18.763-13.187 19.247-13.179 0 0 .122.004.184.004 4.276 0 7.742-3.466 7.742-7.742.002-4.082-3.161-7.428-7.169-7.721z"/><path d="m331.159 149.453c-.058-.002-.456-.023-.643-.017-2.993-.02-15.526.607-26.135 11.805-10.608-11.198-23.141-11.825-26.135-11.805-.187-.006-.585.015-.643.017-4.008.293-7.171 3.638-7.171 7.722 0 4.276 3.466 7.742 7.742 7.742.062 0 .184-.004.184-.004.485-.008 11.857-.183 19.248 13.179 1.363 2.465 3.958 3.995 6.775 3.995s5.411-1.53 6.775-3.995c7.391-13.362 18.763-13.187 19.247-13.179 0 0 .122.004.184.004 4.276 0 7.742-3.466 7.742-7.742.001-4.084-3.161-7.429-7.17-7.722z"/><path d="m160.299 140.867c-.058-.002-.456-.023-.643-.017-2.993-.02-15.526.607-26.135 11.805-10.608-11.198-23.141-11.825-26.134-11.805-.187-.006-.585.015-.643.017-4.008.293-7.171 3.638-7.171 7.721 0 4.276 3.466 7.742 7.742 7.742.062 0 .184-.004.184-.004.485-.008 11.857-.183 19.248 13.179 1.363 2.465 3.958 3.995 6.775 3.995s5.411-1.53 6.775-3.995c7.391-13.362 18.763-13.187 19.247-13.179 0 0 .122.004.184.004 4.276 0 7.742-3.466 7.742-7.742 0-4.083-3.162-7.428-7.171-7.721z"/></g><path d="m219.78 396.025c-4.276 0-7.742-3.466-7.742-7.742v-139.494c0-4.276 3.466-7.742 7.742-7.742s7.742 3.466 7.742 7.742v139.494c0 4.276-3.467 7.742-7.742 7.742z" fill="#939bae"/><path d="m277.452 396.025h-112.704c-4.276 0-7.742-3.466-7.742-7.742s3.466-7.742 7.742-7.742h112.704c4.276 0 7.742 3.466 7.742 7.742s-3.466 7.742-7.742 7.742z" fill="#434d59"/><path d="m447.484 417.889v17.101c0 .967.272 1.914.784 2.734l12.248 19.608c2.021 3.236 6.734 3.236 8.755 0l12.249-19.608c.512-.82.784-1.768.784-2.734v-17.101l-13.032 20.863c-2.021 3.236-6.734 3.236-8.755 0z" fill="#dad8db"/><path d="m381.697 493.419h-321.033c-17.103 0-30.968-13.865-30.968-30.968v18.581c0 17.103 13.865 30.968 30.968 30.968h321.032c17.103 0 30.968-13.865 30.968-30.968v-18.581c0 17.104-13.865 30.968-30.967 30.968z" fill="#dad8db"/></g></svg>