<svg id="Capa_1" enable-background="new 0 0 512 512" height="512" viewBox="0 0 512 512" width="512" xmlns="http://www.w3.org/2000/svg"><g><g><path d="m331.459 118.963c-.261-8.323-7.073-14.995-15.459-14.995h-120c-8.387 0-15.199 6.672-15.459 14.995l75.459 9.29z" fill="#df667c"/><path d="m180.541 118.963c-.005.164-.025.324-.025.489v18.092l75.484 9.29 75.484-9.29v-18.092c0-.165-.02-.325-.025-.489z" fill="#dc4857"/><path d="m30.496 398.741h451.008c16.842 0 30.496-22.944 30.496-39.786v-190.915c0-16.842-13.654-30.496-30.496-30.496h-451.008c-16.843 0-30.496 13.654-30.496 30.496v190.915c0 16.842 13.653 39.786 30.496 39.786z" fill="#a6aec4"/><path d="m478.424 355.875v-180.068c0-2.85-2.311-5.161-5.161-5.161h-434.526c-2.85 0-5.161 2.311-5.161 5.161v180.068l218.865 9.29z" fill="#434d59"/><path d="m38.737 374.456h434.526c2.85 0 5.161-2.311 5.161-5.161v-13.419h-444.848v13.419c0 2.85 2.31 5.161 5.161 5.161z" fill="#3b434d"/><path d="m481.504 389.451h-451.008c-16.843 0-30.496-13.654-30.496-30.496v18.581c0 16.842 13.653 30.496 30.496 30.496h451.008c16.842 0 30.496-13.654 30.496-30.496v-18.581c0 16.842-13.654 30.496-30.496 30.496z" fill="#959db0"/></g><g fill="#b3e59f"><path d="m96.209 212.065c0-4.284-3.473-7.757-7.757-7.757s-7.757 3.473-7.757 7.757v44.641c0 4.284 3.473 7.757 7.757 7.757s7.757-3.473 7.757-7.757z"/><path d="m171.32 212.065c0-4.284-3.473-7.757-7.757-7.757s-7.757 3.473-7.757 7.757v44.641c0 4.284 3.473 7.757 7.757 7.757s7.757-3.473 7.757-7.757z"/><path d="m88.452 276.362c-4.284 0-7.757 3.473-7.757 7.757v44.64c0 4.284 3.473 7.757 7.757 7.757s7.757-3.473 7.757-7.757v-44.64c0-4.284-3.473-7.757-7.757-7.757z"/><path d="m211.881 226.746c0-4.284-3.473-7.757-7.757-7.757s-7.757 3.473-7.757 7.757v15.279c0 4.284 3.473 7.757 7.757 7.757s7.757-3.473 7.757-7.757z"/><path d="m204.124 291.042c-4.284 0-7.757 3.473-7.757 7.757v15.279c0 4.284 3.473 7.757 7.757 7.757s7.757-3.473 7.757-7.757v-15.279c0-4.284-3.473-7.757-7.757-7.757z"/><path d="m163.563 276.362c-4.284 0-7.757 3.473-7.757 7.757v44.64c0 4.284 3.473 7.757 7.757 7.757s7.757-3.473 7.757-7.757v-44.64c0-4.284-3.473-7.757-7.757-7.757z"/><path d="m102.317 205.956c0 4.284 3.473 7.757 7.757 7.757h31.867c4.284 0 7.757-3.473 7.757-7.757s-3.473-7.757-7.757-7.757h-31.867c-4.284 0-7.757 3.473-7.757 7.757z"/><path d="m141.941 264.826h-31.867c-4.284 0-7.757 3.473-7.757 7.757s3.473 7.757 7.757 7.757h31.867c4.284 0 7.757-3.473 7.757-7.757s-3.473-7.757-7.757-7.757z"/><path d="m141.941 331.453h-31.867c-4.284 0-7.757 3.473-7.757 7.757s3.473 7.757 7.757 7.757h31.867c4.284 0 7.757-3.473 7.757-7.757s-3.473-7.757-7.757-7.757z"/><path d="m252.441 212.065c0-4.284-3.473-7.757-7.757-7.757s-7.757 3.473-7.757 7.757v44.641c0 4.284 3.473 7.757 7.757 7.757s7.757-3.473 7.757-7.757z"/><path d="m244.684 276.362c-4.284 0-7.757 3.473-7.757 7.757v44.64c0 4.284 3.473 7.757 7.757 7.757s7.757-3.473 7.757-7.757v-44.64c0-4.284-3.473-7.757-7.757-7.757z"/><path d="m327.552 212.065c0-4.284-3.473-7.757-7.757-7.757s-7.757 3.473-7.757 7.757v44.641c0 4.284 3.473 7.757 7.757 7.757s7.757-3.473 7.757-7.757z"/><path d="m319.794 276.362c-4.284 0-7.757 3.473-7.757 7.757v44.64c0 4.284 3.473 7.757 7.757 7.757s7.757-3.473 7.757-7.757v-44.64c.001-4.284-3.472-7.757-7.757-7.757z"/><path d="m298.173 198.199h-31.867c-4.284 0-7.757 3.473-7.757 7.757s3.473 7.757 7.757 7.757h31.867c4.284 0 7.757-3.473 7.757-7.757s-3.473-7.757-7.757-7.757z"/><path d="m298.173 331.453h-31.867c-4.284 0-7.757 3.473-7.757 7.757s3.473 7.757 7.757 7.757h31.867c4.284 0 7.757-3.473 7.757-7.757s-3.473-7.757-7.757-7.757z"/><path d="m353.683 264.463c4.284 0 7.757-3.473 7.757-7.757v-44.641c0-4.284-3.473-7.757-7.757-7.757s-7.757 3.473-7.757 7.757v44.641c0 4.284 3.473 7.757 7.757 7.757z"/><path d="m345.926 328.759c0 4.284 3.473 7.757 7.757 7.757s7.757-3.473 7.757-7.757v-44.64c0-4.284-3.473-7.757-7.757-7.757s-7.757 3.473-7.757 7.757z"/><path d="m428.794 264.463c4.284 0 7.757-3.473 7.757-7.757v-44.641c0-4.284-3.473-7.757-7.757-7.757s-7.757 3.473-7.757 7.757v44.641c0 4.284 3.472 7.757 7.757 7.757z"/><path d="m421.037 328.759c0 4.284 3.473 7.757 7.757 7.757s7.757-3.473 7.757-7.757v-44.64c0-4.284-3.473-7.757-7.757-7.757s-7.757 3.473-7.757 7.757z"/><path d="m375.305 213.713h31.867c4.284 0 7.757-3.473 7.757-7.757s-3.473-7.757-7.757-7.757h-31.867c-4.284 0-7.757 3.473-7.757 7.757-.001 4.284 3.473 7.757 7.757 7.757z"/><path d="m375.305 346.967h31.867c4.284 0 7.757-3.473 7.757-7.757s-3.473-7.757-7.757-7.757h-31.867c-4.284 0-7.757 3.473-7.757 7.757-.001 4.285 3.473 7.757 7.757 7.757z"/></g></g></svg>