<svg id="Capa_1" enable-background="new 0 0 512 512" height="512" viewBox="0 0 512 512" width="512" xmlns="http://www.w3.org/2000/svg"><g><path d="m440.031 150.301c-4.213 0-7.627 3.414-7.627 7.627v167.109c-21.466-39.568-63.385-66.496-111.477-66.496-48.091 0-90.01 26.927-111.476 66.495v-115.091c0-4.213-3.415-7.627-7.627-7.627s-7.627 3.414-7.627 7.627v175.326c0 69.879 56.85 126.729 126.729 126.729s126.73-56.85 126.73-126.729v-227.343c.001-4.213-3.413-7.627-7.625-7.627zm-119.103 346.446c-61.468 0-111.476-50.008-111.476-111.476 0-61.469 50.008-111.477 111.476-111.477 61.469 0 111.477 50.008 111.477 111.477-.001 61.468-50.009 111.476-111.477 111.476z" fill="#c8c5c9"/><path d="m114.288 52.243h-59.734c-4.212 0-7.627-3.414-7.627-7.627s3.415-7.627 7.627-7.627h59.734c4.212 0 7.627 3.414 7.627 7.627s-3.415 7.627-7.627 7.627z" fill="#454d58"/><path d="m114.288 100.088h-59.734c-4.212 0-7.627-3.414-7.627-7.627s3.415-7.627 7.627-7.627h59.734c4.212 0 7.627 3.414 7.627 7.627s-3.415 7.627-7.627 7.627z" fill="#454d58"/><g><g><path d="m455.53 31.169v-8.305c0-2.808-2.276-5.084-5.084-5.084h-20.829c-2.808 0-5.084 2.276-5.084 5.084v8.305l15.499 9.152z" fill="#dad8db"/><path d="m424.532 49.473 15.499 9.152 15.499-9.152v-18.304h-30.998z" fill="#c8c5c9"/><path d="m427.013 149.352v12.643c0 2.808 2.276 5.085 5.085 5.085h15.867c2.808 0 5.084-2.276 5.084-5.085v-12.643l-13.018-9.152z" fill="#dad8db"/><path d="m135.052 100.995 9.152-37.032-9.152-46.184h-36.444c-2.808 0-5.084 2.276-5.084 5.084v78.131l20.764 9.152z" fill="#dad8db"/><path d="m98.608 119.299h36.444l9.152-9.152-9.152-9.152h-41.528v13.219c0 2.808 2.276 5.085 5.084 5.085z" fill="#c8c5c9"/><path d="m188.807 201.37v12.643c0 2.808 2.276 5.084 5.085 5.084h15.867c2.808 0 5.084-2.276 5.084-5.084v-12.643l-13.018-9.152z" fill="#dad8db"/><path d="m188.807 183.066v18.304h26.036v-18.304l-13.018-9.152z" fill="#c8c5c9"/><path d="m244.755 134.309v-103.856c0-16.819-13.635-30.453-30.454-30.453h-74.165c-2.808 0-5.084 2.276-5.084 5.084v159.678l9.152 9.152h70.097c16.819 0 30.454-22.786 30.454-39.605z" fill="#454d58"/><path d="m214.301 164.762h-79.249v13.219c0 2.808 2.276 5.084 5.084 5.084h74.165c16.819 0 30.453-13.634 30.453-30.453v-18.304c.001 16.82-13.634 30.454-30.453 30.454z" fill="#3c434c"/><path d="m427.013 131.048v18.304h26.035v-18.304l-13.017-9.152z" fill="#c8c5c9"/><path d="m465.073 112.744v-58.187c0-2.808-2.276-5.084-5.084-5.084h-39.915c-2.808 0-5.084 2.276-5.084 5.084v58.187l25.042 9.152z" fill="#eceaec"/><path d="m420.073 131.048h39.915c2.808 0 5.084-2.276 5.084-5.084v-13.219h-50.084v13.219c0 2.808 2.277 5.084 5.085 5.084z" fill="#dad8db"/></g></g></g></svg>