<svg id="Capa_1" enable-background="new 0 0 512 512" height="512" viewBox="0 0 512 512" width="512" xmlns="http://www.w3.org/2000/svg"><g><g fill="#c8c5c9"><path d="m329.7 93.706c-4.212 0-7.627-3.414-7.627-7.627v-46.454c0-4.213 3.414-7.627 7.627-7.627s7.627 3.414 7.627 7.627v46.454c0 4.213-3.414 7.627-7.627 7.627z"/><path d="m364.208 93.706c-4.212 0-7.627-3.414-7.627-7.627v-46.454c0-4.213 3.414-7.627 7.627-7.627s7.627 3.414 7.627 7.627v46.454c0 4.213-3.414 7.627-7.627 7.627z"/><path d="m276.133 512c-43.257 0-78.449-35.192-78.449-78.448v-13.164c0-4.213 3.414-7.627 7.627-7.627s7.627 3.414 7.627 7.627v13.164c0 34.846 28.349 63.195 63.195 63.195s63.196-28.349 63.196-63.195v-276.096c0-4.212 3.414-7.627 7.627-7.627 4.212 0 7.627 3.414 7.627 7.627v276.096c-.002 43.256-35.194 78.448-78.45 78.448z"/></g><g><path d="m332.022 149.345v12.178c0 2.808 2.277 5.084 5.084 5.084h19.695c2.808 0 5.084-2.276 5.084-5.084v-12.178l-14.932-5.253z" fill="#eceaec"/><path d="m346.955 125.788-14.932 5.253v18.304c4.416 2.479 9.507 3.899 14.932 3.899s10.516-1.42 14.932-3.899v-18.304z" fill="#dad8db"/><path d="m316.398 86.079c0 16.876 3.615 39.709 30.557 39.709 27.581 0 30.555-22.831 30.557-39.706v-8.98c0-2.808-2.277-5.084-5.084-5.084h-50.945c-2.808 0-5.084 2.276-5.084 5.084v8.977z" fill="#454d58"/><path d="m187.262 415.532v8.924c0 2.808 2.276 5.084 5.084 5.084h25.928c2.808 0 5.084-2.276 5.084-5.084v-8.924l-18.048-9.152z" fill="#dad8db"/><path d="m187.262 397.228v18.304h36.097v-18.304l-18.048-9.152z" fill="#c8c5c9"/><path d="m164.79 388.076h81.042c27.563 0 30.301-22.718 30.301-39.453v-318.322c0-16.735-13.567-30.301-30.302-30.301h-81.041c-16.735 0-30.301 13.566-30.301 30.301v318.322c0 16.735 3.514 39.453 30.301 39.453z" fill="#eceaec"/><path d="m164.79 305.018c0 18.957 20.722 41.545 40.521 41.545s40.521-21.806 40.521-41.545c-4.17-18.539-20.722-32.393-40.521-32.393s-36.351 13.854-40.521 32.393z" fill="#dad8db"/><path d="m245.831 378.924h-81.041c-16.735 0-30.301-13.566-30.301-30.301v18.304c0 16.735 13.566 30.301 30.301 30.301h81.042c16.735 0 30.301-13.566 30.301-30.301v-18.304c0 16.735-13.567 30.301-30.302 30.301z" fill="#dad8db"/><path d="m346.955 116.637c-16.876 0-30.557-13.681-30.557-30.557v18.304c0 16.876 13.681 30.557 30.557 30.557 16.876 0 30.557-13.681 30.557-30.557v-18.304c-.001 16.876-13.681 30.557-30.557 30.557z" fill="#3c434c"/><path d="m205.311 337.411c-19.798 0-36.351-13.854-40.521-32.393-.663 2.946-1.024 6.006-1.024 9.152 0 22.945 18.6 41.545 41.544 41.545s41.545-18.6 41.545-41.545c0-3.146-.361-6.206-1.024-9.152-4.17 18.539-20.722 32.393-40.52 32.393z" fill="#c8c5c9"/><path d="m164.79 189.095c0 18.957 20.722 41.545 40.521 41.545s40.521-21.806 40.521-41.545c-4.17-18.539-20.722-32.393-40.521-32.393s-36.351 13.854-40.521 32.393z" fill="#dad8db"/><path d="m205.311 221.488c-19.798 0-36.351-13.854-40.521-32.393-.663 2.946-1.024 6.006-1.024 9.152 0 22.945 18.6 41.545 41.544 41.545s41.545-18.6 41.545-41.545c0-3.146-.361-6.206-1.024-9.152-4.17 18.539-20.722 32.393-40.52 32.393z" fill="#c8c5c9"/><path d="m164.79 73.172c0 18.957 20.722 41.545 40.521 41.545s40.521-21.806 40.521-41.545c-4.17-18.539-20.722-32.393-40.521-32.393s-36.351 13.854-40.521 32.393z" fill="#dad8db"/><path d="m205.311 105.564c-19.798 0-36.351-13.854-40.521-32.393-.663 2.946-1.024 6.006-1.024 9.152 0 22.945 18.6 41.545 41.544 41.545s41.545-18.6 41.545-41.545c0-3.146-.361-6.206-1.024-9.152-4.17 18.54-20.722 32.393-40.52 32.393z" fill="#c8c5c9"/></g><g fill="#454d58"><path d="m192.169 68.98c-4.221 0-7.642 3.421-7.642 7.642v9.812c0 4.221 3.421 7.642 7.642 7.642s7.641-3.421 7.641-7.642v-9.812c.001-4.221-3.42-7.642-7.641-7.642z"/><path d="m218.254 68.98c-4.221 0-7.642 3.421-7.642 7.642v9.812c0 4.221 3.421 7.642 7.642 7.642s7.641-3.421 7.641-7.642v-9.812c0-4.221-3.42-7.642-7.641-7.642z"/><path d="m192.169 185.129c-4.221 0-7.642 3.421-7.642 7.642v9.813c0 4.221 3.421 7.641 7.642 7.641s7.641-3.421 7.641-7.641v-9.813c.001-4.221-3.42-7.642-7.641-7.642z"/><path d="m218.254 185.129c-4.221 0-7.642 3.421-7.642 7.642v9.813c0 4.221 3.421 7.641 7.642 7.641s7.641-3.421 7.641-7.641v-9.813c0-4.221-3.42-7.642-7.641-7.642z"/><path d="m192.169 301.28c-4.221 0-7.642 3.421-7.642 7.642v9.812c0 4.221 3.421 7.642 7.642 7.642s7.641-3.421 7.641-7.642v-9.812c.001-4.221-3.42-7.642-7.641-7.642z"/><path d="m218.254 301.28c-4.221 0-7.642 3.421-7.642 7.642v9.812c0 4.221 3.421 7.642 7.642 7.642s7.641-3.421 7.641-7.642v-9.812c0-4.221-3.42-7.642-7.641-7.642z"/></g></g></svg>