<svg id="Capa_1" enable-background="new 0 0 512 512" height="512" viewBox="0 0 512 512" width="512" xmlns="http://www.w3.org/2000/svg"><g><g><path d="m411.407 461.013v45.826c0 2.85 2.311 5.161 5.161 5.161h51.327c2.85 0 5.161-2.311 5.161-5.161v-45.826l-30.825-9.29z" fill="#dad8db"/><path d="m411.407 442.432v18.581h61.649v-18.581l-30.824-9.29z" fill="#c8c5c9"/><path d="m94.861 464.733v27.805c0 10.748 8.713 19.461 19.462 19.461h143.8c10.748 0 19.461-8.713 19.461-19.461v-27.805l-91.361-9.29z" fill="#454d58"/><path d="m94.861 446.153v18.58h182.723v-18.58l-91.361-9.29z" fill="#3c434c"/><path d="m123.215 464.733v9.182c0 2.85 2.311 5.161 5.161 5.161h115.694c2.85 0 5.161-2.311 5.161-5.161v-9.182l-63.008-9.29z" fill="#eacc73"/><path d="m123.215 446.153v18.58h126.016v-18.58l-63.008-9.29z" fill="#e3bd57"/><path d="m56.318 436.862h259.809c24.662 0 30.968-23.155 30.968-40.258v-213.414c0-17.103-13.865-30.968-30.968-30.968h-259.809c-17.103 0-30.968 13.865-30.968 30.968v213.419c.003 17.101 1.692 40.253 30.968 40.253z" fill="#eceaec"/><path d="m161.06 380.263h50.325c9.731 0 9.731-13.647 9.731-19.021v-29.077c0-1.369-.544-2.682-1.512-3.65l-26.489-26.489c-.968-.968-2.281-1.512-3.65-1.512h-28.405c-5.374 0-9.731 4.357-9.731 9.731v50.996c.001 5.375.001 19.022 9.731 19.022z" fill="#b3e59f"/><path d="m200.945 238.207-10.719-13.169c-2.065-2.537-5.94-2.537-8.006 0l-10.719 13.169 14.722 9.29z" fill="#eacc73"/><path d="m412.334 76.734c14.113 23.363 14.481 47.565 14.483 47.742v129.774l15.415 9.29 15.415-9.29v-129.774c0-1.285-.206-31.805-18.121-62.332-30.142-51.363-84.775-62.144-125.299-62.144s-95.156 10.781-125.298 62.143c-6.813 11.609-11.053 23.205-13.706 33.204l14.778 9.717 17.441-9.717c2.07-5.942 4.869-12.305 8.679-18.614 18.399-30.46 51.408-45.905 98.107-45.905s79.707 15.446 98.106 45.906z" fill="#dad8db"/><path d="m426.817 254.25v18.581l15.415 9.29 15.415-9.29v-18.581z" fill="#c8c5c9"/><path d="m175.223 95.348c-1.92 7.234-3.014 13.638-3.624 18.581l14.625 9.29 16.515-9.29c.815-5.039 2.24-11.51 4.703-18.581z" fill="#c8c5c9"/><path d="m212.416 133.642v-14.552c0-2.851-2.311-5.161-5.161-5.161h-42.063c-2.851 0-5.161 2.311-5.161 5.161v14.552l26.193 9.29z" fill="#dad8db"/><path d="m160.03 133.642h52.386v18.581h-52.386z" fill="#c8c5c9"/><path d="m316.127 427.572h-259.809c-17.103 0-30.968-13.865-30.968-30.968v18.581c0 17.103 13.865 30.968 30.968 30.968h259.809c17.103 0 30.968-13.865 30.968-30.968v-18.581c0 17.103-13.865 30.968-30.968 30.968z" fill="#dad8db"/><path d="m211.385 370.973h-50.325c-5.374 0-9.731-4.357-9.731-9.731v18.581c0 5.374 4.357 9.731 9.731 9.731h50.325c5.374 0 9.731-4.357 9.731-9.731v-18.581c0 5.374-4.357 9.731-9.731 9.731z" fill="#95d6a4"/><path d="m171.501 238.207-8.271 10.161c-2.745 3.372-.345 8.42 4.003 8.42h37.98c4.348 0 6.748-5.047 4.003-8.42l-8.271-10.161z" fill="#e3bd57"/><path d="m468.424 300.558v-22.566c0-2.851-2.311-5.161-5.161-5.161h-42.063c-2.851 0-5.161 2.311-5.161 5.161v22.566l26.193 9.29z" fill="#dad8db"/><path d="m416.039 319.139 26.193 9.29 26.192-9.29v-18.58h-52.385z" fill="#c8c5c9"/><path d="m486.649 423.851v-99.551c0-2.85-2.311-5.161-5.161-5.161h-78.513c-2.851 0-5.161 2.311-5.161 5.161v99.551l44.418 9.29z" fill="#eceaec"/><path d="m402.975 442.432h78.513c2.851 0 5.161-2.311 5.161-5.161v-13.419h-88.836v13.419c.001 2.85 2.312 5.161 5.162 5.161z" fill="#dad8db"/></g></g></svg>