<svg id="Capa_1" enable-background="new 0 0 512 512" height="512" viewBox="0 0 512 512" width="512" xmlns="http://www.w3.org/2000/svg"><g><g><path d="m36.076 370.504v-263.057c0-16.42 13.304-29.73 29.714-29.73h380.42c16.411 0 29.715 13.311 29.715 29.73v263.057l-219.925 18.58z" fill="#454d58"/><path d="m187.731 370.504h-151.655v18.58h151.655 115.803 172.39v-18.58h-172.39z" fill="#3c434c"/><path d="m70.8 370.504v-252.902c0-2.851 2.311-5.161 5.161-5.161h360.077c2.851 0 5.161 2.311 5.161 5.161v252.901l-185.199 18.581z" fill="#bed8fb"/><path d="m70.8 405.478h127.369l46.611 9.29 48.316-9.29h148.104v-34.974h-370.4z" fill="#a3caf7"/><path d="m21.653 424.993h468.694c21.653 0 21.576-18.915 21.646-30.813-.036-2.82-2.327-5.096-5.155-5.096h-198.142c-2.85 0-5.161 2.311-5.161 5.161v.794c0 5.765-4.673 10.438-10.438 10.438h-94.927c-5.765 0-10.438-4.673-10.438-10.438v-.794c0-2.85-2.311-5.161-5.161-5.161h-177.41c-2.828 0-5.119 2.276-5.155 5.096.071 11.898-.006 30.813 21.647 30.813z" fill="#eceaec"/><path d="m490.347 415.703h-468.694c-11.959 0-21.653-9.694-21.653-21.653v18.581c0 11.958 9.694 21.653 21.653 21.653h468.694c11.959 0 21.653-9.694 21.653-21.653v-18.581c0 11.959-9.695 21.653-21.653 21.653z" fill="#dad8db"/><path d="m256 325.55c43.454 0 83.848-42.563 83.848-84.077-4.627-42.222-40.394-75.078-83.848-75.078s-79.221 32.856-83.848 75.078c0 41.514 40.394 84.077 83.848 84.077z" fill="#df667c"/><path d="m256 316.55c-43.454 0-79.221-32.856-83.848-75.077-.335 3.052-.52 6.149-.52 9.29 0 46.595 37.773 84.368 84.368 84.368s84.368-37.773 84.368-84.368c0-3.141-.186-6.238-.52-9.29-4.627 42.221-40.394 75.077-83.848 75.077z" fill="#dc4857"/><path d="m246.601 219.552c-3.408-2.508-8.22-.075-8.22 4.157v45.733l21.939-4.92 16.069-23.049z" fill="#eceaec"/><path d="m238.38 269.442v8.375c0 4.232 4.812 6.665 8.22 4.157l36.764-27.054c2.803-2.063 2.803-6.251 0-8.314l-6.976-5.133z" fill="#dad8db"/></g></g></svg>