<svg id="Capa_1" enable-background="new 0 0 512 512" height="512" viewBox="0 0 512 512" width="512" xmlns="http://www.w3.org/2000/svg"><g><g><path d="m467.09 94.934-126.224 9.29-126.224-9.29v-89.773c0-2.851 2.311-5.161 5.161-5.161h242.125c2.85 0 5.161 2.311 5.161 5.161v89.773z" fill="#eceaec"/><path d="m214.643 113.514 126.223 9.29 126.224-9.29v-18.58h-252.447z" fill="#dad8db"/><path d="m481.032 470.919c25.336 0 30.968-23.155 30.968-40.258v-286.18c0-17.103-13.865-30.968-30.968-30.968h-311.3l-18.581 178.703 18.581 169.412 9.29 9.29h302.01z" fill="#a6aec4"/><path d="m30.968 470.919h22.925l9.29-9.29 18.581-163.524-18.581-184.591h-32.215c-17.103 0-30.968 13.865-30.968 30.968v286.18c0 17.102 7.071 40.257 30.968 40.257z" fill="#a6aec4"/><path d="m0 430.661v18.581c0 17.103 13.865 30.968 30.968 30.968h32.215l9.29-9.29-9.29-9.29h-32.215c-17.103-.001-30.968-13.866-30.968-30.969z" fill="#959db0"/><path d="m481.032 461.629h-311.3l-9.29 9.29 9.29 9.29h311.3c17.103 0 30.968-13.865 30.968-30.968v-18.581c0 17.104-13.865 30.969-30.968 30.969z" fill="#959db0"/><path d="m83.828 502.71h65.259c17.24 0 20.645-18.533 20.645-29.935v-370.406c0-11.402-9.243-20.645-20.645-20.645h-65.259c-11.402 0-20.645 9.243-20.645 20.645v370.405c0 11.402 2.213 29.936 20.645 29.936z" fill="#454d58"/><path d="m245.958 198.054c0 5.701 0 19.613 10.322 19.613h162.685c10.323 0 10.323-13.912 10.323-19.613v-27.017c0-5.701-4.622-10.323-10.323-10.323h-162.684c-5.701 0-10.322 4.622-10.322 10.323v27.017z" fill="#b3e59f"/><path d="m418.965 208.377h-162.684c-5.701 0-10.323-4.622-10.323-10.323v18.581c0 5.701 4.621 10.323 10.323 10.323h162.685c5.701 0 10.323-4.621 10.323-10.323v-18.581c-.001 5.701-4.623 10.323-10.324 10.323z" fill="#95d6a4"/><path d="m149.088 493.419h-65.26c-11.402 0-20.645-9.243-20.645-20.645v18.581c0 11.402 9.243 20.645 20.645 20.645h65.259c11.402 0 20.645-9.243 20.645-20.645v-18.581c.001 11.402-9.242 20.645-20.644 20.645z" fill="#3c434c"/></g><g fill="#454d58"><path d="m283.91 274.05h-30.128c-4.285 0-7.757 3.472-7.757 7.757s3.473 7.757 7.757 7.757h30.128c4.284 0 7.757-3.473 7.757-7.757s-3.472-7.757-7.757-7.757z"/><path d="m352.847 274.094h-30.129c-4.285 0-7.757 3.473-7.757 7.757 0 4.285 3.473 7.757 7.757 7.757h30.129c4.285 0 7.757-3.473 7.757-7.757 0-4.285-3.472-7.757-7.757-7.757z"/><path d="m421.783 274.05h-30.128c-4.285 0-7.757 3.472-7.757 7.757s3.473 7.757 7.757 7.757h30.128c4.285 0 7.757-3.473 7.757-7.757s-3.472-7.757-7.757-7.757z"/><path d="m283.91 317.531h-30.128c-4.285 0-7.757 3.473-7.757 7.757s3.473 7.757 7.757 7.757h30.128c4.284 0 7.757-3.472 7.757-7.757s-3.472-7.757-7.757-7.757z"/><path d="m352.847 317.575h-30.129c-4.285 0-7.757 3.473-7.757 7.757s3.473 7.757 7.757 7.757h30.129c4.285 0 7.757-3.473 7.757-7.757 0-4.285-3.472-7.757-7.757-7.757z"/><path d="m421.783 317.531h-30.128c-4.285 0-7.757 3.473-7.757 7.757s3.473 7.757 7.757 7.757h30.128c4.285 0 7.757-3.472 7.757-7.757s-3.472-7.757-7.757-7.757z"/><path d="m283.91 361.014h-30.128c-4.285 0-7.757 3.473-7.757 7.757 0 4.285 3.473 7.757 7.757 7.757h30.128c4.284 0 7.757-3.473 7.757-7.757 0-4.285-3.472-7.757-7.757-7.757z"/><path d="m352.847 361.056h-30.129c-4.285 0-7.757 3.473-7.757 7.757 0 4.285 3.473 7.757 7.757 7.757h30.129c4.285 0 7.757-3.472 7.757-7.757 0-4.284-3.472-7.757-7.757-7.757z"/><path d="m421.783 361.014h-30.128c-4.285 0-7.757 3.473-7.757 7.757 0 4.285 3.473 7.757 7.757 7.757h30.128c4.285 0 7.757-3.473 7.757-7.757 0-4.285-3.472-7.757-7.757-7.757z"/><path d="m283.91 404.495h-30.128c-4.285 0-7.757 3.473-7.757 7.757s3.473 7.757 7.757 7.757h30.128c4.284 0 7.757-3.473 7.757-7.757s-3.472-7.757-7.757-7.757z"/><path d="m352.847 404.537h-30.129c-4.285 0-7.757 3.473-7.757 7.757 0 4.285 3.473 7.757 7.757 7.757h30.129c4.285 0 7.757-3.473 7.757-7.757s-3.472-7.757-7.757-7.757z"/><path d="m421.783 404.495h-30.128c-4.285 0-7.757 3.473-7.757 7.757s3.473 7.757 7.757 7.757h30.128c4.285 0 7.757-3.473 7.757-7.757s-3.472-7.757-7.757-7.757z"/></g></g></svg>