<svg id="Capa_1" enable-background="new 0 0 512 512" height="512" viewBox="0 0 512 512" width="512" xmlns="http://www.w3.org/2000/svg"><g><g><path d="m438.408 288.379h5.851c12.078 0 15.291-15.019 15.291-22.452-1.123-7.447-7.531-13.163-15.291-13.163h-15.142l-9.29 13.162 9.29 13.162z" fill="#eacc73"/><path d="m444.259 279.089h-15.142l-9.29 9.29 9.29 9.29h15.142c8.552 0 15.484-6.932 15.484-15.484v-13.938c0-.791-.078-1.562-.192-2.322-1.123 7.449-7.531 13.164-15.292 13.164z" fill="#e3bd57"/><path d="m77.721 312.545h-20.303c-2.851 0-5.161 2.311-5.161 5.161v129.794l203.743 9.29 203.743-9.29v-84.468c0-2.85-2.311-5.161-5.161-5.161h-20.303c-2.85 0-5.161-2.311-5.161-5.161v-118.237c0-2.851 2.311-5.161 5.161-5.161h20.303c2.851 0 5.161-2.311 5.161-5.161v-193.183c0-17.103-13.864-30.968-30.967-30.968h-255.911c-8.213 0-16.09 3.263-21.897 9.07l-89.64 89.64c-5.808 5.808-9.07 13.684-9.07 21.897v103.543c0 2.851 2.311 5.161 5.161 5.161h20.303c2.851 0 5.161 2.311 5.161 5.161v72.91c-.001 2.852-2.311 5.163-5.162 5.163z" fill="#454d58"/><path d="m121.794 187.983h7.31c14.192 0 15.484-16.223 15.484-24.774v-33.513c0-8.552-6.932-15.484-15.484-15.484h-7.31c-8.551 0-15.484 6.932-15.484 15.484v33.513c0 8.551 2.091 24.774 15.484 24.774z" fill="#eacc73"/><path d="m52.257 447.5v14.952c0 1.229.08 2.438.219 3.629l203.524 9.29 203.525-9.29c.139-1.191.219-2.4.219-3.629v-14.952z" fill="#3c434c"/><path d="m83.224 502.71h345.551c26.492 0 28.951-21.237 30.749-36.629h-407.049c1.798 15.391 5.863 36.629 30.749 36.629z" fill="#a6aec4"/><path d="m226.559 118.371 11.397 9.29 11.397-9.29v-59.319c0-2.851-2.311-5.161-5.161-5.161h-12.472c-2.851 0-5.161 2.311-5.161 5.161z" fill="#eacc73"/><path d="m231.72 136.952h12.471c2.85 0 5.161-2.311 5.161-5.161v-13.419h-22.794v13.419c.001 2.85 2.312 5.161 5.162 5.161z" fill="#e3bd57"/><path d="m196.023 127.661h5.762l9.29-9.29v-59.319c0-2.851-2.311-5.161-5.161-5.161h-9.891c-8.552 0-15.484 6.932-15.484 15.484v33.513c0 8.551 2.494 24.773 15.484 24.773z" fill="#eacc73"/><path d="m428.776 493.419h-345.552c-15.874 0-28.951-11.947-30.749-27.339h-.219v14.952c0 17.103 13.865 30.968 30.968 30.968h345.551c17.103 0 30.968-13.865 30.968-30.968v-14.952h-.219c-1.797 15.392-14.874 27.339-30.748 27.339z" fill="#959db0"/><path d="m129.104 178.692h-7.31c-8.551 0-15.484-6.932-15.484-15.484v18.581c0 8.551 6.932 15.484 15.484 15.484h7.31c8.552 0 15.484-6.932 15.484-15.484v-18.581c0 8.552-6.932 15.484-15.484 15.484z" fill="#e3bd57"/><path d="m211.075 118.371h-15.052c-8.552 0-15.484-6.933-15.484-15.484v18.581c0 8.551 6.932 15.484 15.484 15.484h9.891c2.851 0 5.161-2.311 5.161-5.161z" fill="#e3bd57"/><path d="m264.837 118.371 11.397 9.29 11.397-9.29v-59.319c0-2.851-2.311-5.161-5.161-5.161h-12.471c-2.85 0-5.161 2.311-5.161 5.161v59.319z" fill="#eacc73"/><path d="m269.998 136.952h12.471c2.851 0 5.161-2.311 5.161-5.161v-13.419h-22.794v13.419c.001 2.85 2.312 5.161 5.162 5.161z" fill="#e3bd57"/><path d="m303.115 118.371 11.397 9.29 11.397-9.29v-59.319c0-2.851-2.311-5.161-5.161-5.161h-12.471c-2.851 0-5.161 2.311-5.161 5.161v59.319z" fill="#eacc73"/><path d="m308.277 136.952h12.471c2.85 0 5.161-2.311 5.161-5.161v-13.419h-22.794v13.419c0 2.85 2.311 5.161 5.162 5.161z" fill="#e3bd57"/><path d="m341.393 118.371 11.397 9.29 11.397-9.29v-59.319c0-2.851-2.311-5.161-5.161-5.161h-12.471c-2.85 0-5.161 2.311-5.161 5.161v59.319z" fill="#eacc73"/><path d="m346.554 136.952h12.471c2.85 0 5.161-2.311 5.161-5.161v-13.419h-22.794v13.419c.001 2.85 2.312 5.161 5.162 5.161z" fill="#e3bd57"/><path d="m394.723 127.661h-5.762l-9.29-9.29v-59.319c0-2.851 2.311-5.161 5.161-5.161h9.891c8.552 0 15.484 6.932 15.484 15.484v33.513c0 8.551-2.494 24.773-15.484 24.773z" fill="#eacc73"/><path d="m379.671 118.371h15.052c8.552 0 15.484-6.933 15.484-15.484v18.581c0 8.551-6.932 15.484-15.484 15.484h-9.891c-2.85 0-5.161-2.311-5.161-5.161z" fill="#e3bd57"/></g></g></svg>