<svg id="Capa_1" enable-background="new 0 0 512 512" height="512" viewBox="0 0 512 512" width="512" xmlns="http://www.w3.org/2000/svg"><g><g><path d="m269.381 0h-146.855c-16.065 0-29.089 13.024-29.089 29.089v232.549l102.517 9.29 102.516-9.29v-232.549c0-16.065-13.024-29.089-29.089-29.089z" fill="#eceaec"/><path d="m93.437 280.22 102.517 9.29 102.516-9.29v-18.581h-205.033z" fill="#dad8db"/><path d="m124.405 502.71h143.098c26.323 0 30.968-23.155 30.968-40.258v-182.233h-205.034v182.232c0 17.104 6.45 40.259 30.968 40.259z" fill="#454d58"/><path d="m137.28 379.524c0 29.128 29.028 59.401 58.673 59.401s58.674-31.283 58.674-59.401c-4.46-28.393-29.028-50.111-58.674-50.111s-54.213 21.719-58.673 50.111z" fill="#eacc73"/><path d="m195.953 429.635c-29.645 0-54.213-21.718-58.673-50.111-.476 3.027-.728 6.129-.728 9.29 0 32.807 26.595 59.401 59.401 59.401 32.807 0 59.402-26.595 59.402-59.401 0-3.161-.252-6.263-.728-9.29-4.46 28.393-29.028 50.111-58.674 50.111z" fill="#e3bd57"/><path d="m170.967 379.524c0 9.29 3.909 23.814 21.934 23.814h201.848c16.139 0 21.934-14.524 21.934-23.814-3.62-8.537-12.078-14.525-21.934-14.525h-201.848c-9.857.001-18.314 5.989-21.934 14.525z" fill="#dad8db"/><path d="m267.502 493.419h-143.097c-17.103 0-30.968-13.865-30.968-30.968v18.581c0 17.103 13.865 30.968 30.968 30.968h143.098c17.103 0 30.968-13.865 30.968-30.968v-18.581c-.001 17.104-13.866 30.968-30.969 30.968z" fill="#3c434c"/><path d="m394.749 394.048h-201.848c-9.856 0-18.314-5.988-21.934-14.524-1.211 2.854-1.881 5.994-1.881 9.29 0 13.152 10.662 23.814 23.815 23.814h201.848c13.152 0 23.815-10.662 23.815-23.814 0-3.296-.67-6.436-1.881-9.29-3.621 8.536-12.078 14.524-21.934 14.524z" fill="#c8c5c9"/></g><g fill="#b3e59f"><path d="m157.036 74.892h-16.303c-4.284 0-7.757 3.472-7.757 7.757s3.473 7.757 7.757 7.757h16.303c4.284 0 7.757-3.473 7.757-7.757s-3.473-7.757-7.757-7.757z"/><path d="m203.987 74.892h-16.303c-4.284 0-7.757 3.472-7.757 7.757s3.473 7.757 7.757 7.757h16.303c4.284 0 7.757-3.473 7.757-7.757s-3.473-7.757-7.757-7.757z"/><path d="m234.637 90.406h16.302c4.284 0 7.757-3.473 7.757-7.757 0-4.285-3.473-7.757-7.757-7.757h-16.302c-4.284 0-7.757 3.472-7.757 7.757s3.473 7.757 7.757 7.757z"/><path d="m157.036 117.184h-16.303c-4.284 0-7.757 3.472-7.757 7.757s3.473 7.757 7.757 7.757h16.303c4.284 0 7.757-3.472 7.757-7.757s-3.473-7.757-7.757-7.757z"/><path d="m203.987 117.184h-16.303c-4.284 0-7.757 3.472-7.757 7.757s3.473 7.757 7.757 7.757h16.303c4.284 0 7.757-3.472 7.757-7.757s-3.473-7.757-7.757-7.757z"/><path d="m250.939 117.184h-16.302c-4.284 0-7.757 3.472-7.757 7.757s3.473 7.757 7.757 7.757h16.302c4.284 0 7.757-3.472 7.757-7.757s-3.473-7.757-7.757-7.757z"/><path d="m157.036 159.474h-16.303c-4.284 0-7.757 3.473-7.757 7.757 0 4.285 3.473 7.757 7.757 7.757h16.303c4.284 0 7.757-3.473 7.757-7.757 0-4.285-3.473-7.757-7.757-7.757z"/><path d="m203.987 159.474h-16.303c-4.284 0-7.757 3.473-7.757 7.757 0 4.285 3.473 7.757 7.757 7.757h16.303c4.284 0 7.757-3.473 7.757-7.757 0-4.285-3.473-7.757-7.757-7.757z"/><path d="m250.939 159.474h-16.302c-4.284 0-7.757 3.473-7.757 7.757 0 4.285 3.473 7.757 7.757 7.757h16.302c4.284 0 7.757-3.473 7.757-7.757 0-4.285-3.473-7.757-7.757-7.757z"/><path d="m157.036 201.765h-16.303c-4.284 0-7.757 3.472-7.757 7.757s3.473 7.757 7.757 7.757h16.303c4.284 0 7.757-3.473 7.757-7.757s-3.473-7.757-7.757-7.757z"/><path d="m203.987 201.765h-16.303c-4.284 0-7.757 3.472-7.757 7.757s3.473 7.757 7.757 7.757h16.303c4.284 0 7.757-3.473 7.757-7.757s-3.473-7.757-7.757-7.757z"/><path d="m250.939 201.765h-16.302c-4.284 0-7.757 3.472-7.757 7.757s3.473 7.757 7.757 7.757h16.302c4.284 0 7.757-3.473 7.757-7.757s-3.473-7.757-7.757-7.757z"/></g></g></svg>