<svg id="Capa_1" enable-background="new 0 0 512 512" height="512" viewBox="0 0 512 512" width="512" xmlns="http://www.w3.org/2000/svg"><g><g><path d="m288.773 351.928-32.773 9.29-32.773-9.29v-28.4l32.773-9.29 32.773 9.29z" fill="#dad8db"/><path d="m223.227 304.947v18.581h65.546v-18.581l-32.773-9.29z" fill="#c8c5c9"/><path d="m135.398 401.936h241.203c26.815 0 30.968-23.155 30.968-40.258v-4.588c0-2.85-2.311-5.161-5.161-5.161h-292.816c-2.851 0-5.161 2.311-5.161 5.161v4.588c0 17.103 5.297 40.258 30.967 40.258z" fill="#a6aec4"/><path d="m102.086 295.657h307.827c53.248 0 101.661-50.091 101.661-102.087-4.694-52.026-48.413-92.796-101.661-92.796h-307.827c-53.248 0-96.967 40.77-101.661 92.796 0 51.996 48.413 102.087 101.661 102.087z" fill="#454d58"/><path d="m184.993 193.57c0 35.823 34.599 71.626 71.007 71.626s71.007-35.804 71.007-71.626c-4.558-35.166-34.599-62.337-71.007-62.337s-66.449 27.171-71.007 62.337z" fill="#eceaec"/><path d="m256 220.103c11.384 0 24.856-16.383 24.856-26.533-3.766-10.07-13.472-17.242-24.856-17.242s-21.091 7.172-24.856 17.242c0 10.733 13.472 26.533 24.856 26.533z" fill="#a6aec4"/><path d="m376.602 392.645h-241.204c-17.103 0-30.968-13.865-30.968-30.968v18.581c0 17.103 13.865 30.968 30.968 30.968h241.203c17.103 0 30.968-13.865 30.968-30.968v-18.581c0 17.104-13.864 30.968-30.967 30.968z" fill="#959db0"/><path d="m409.913 286.367h-307.827c-53.248 0-96.967-40.77-101.661-92.796-.276 3.06-.425 6.157-.425 9.29 0 56.381 45.706 102.087 102.086 102.087h307.827c56.381 0 102.087-45.706 102.087-102.087 0-3.132-.149-6.23-.425-9.29-4.695 52.025-48.413 92.796-101.662 92.796z" fill="#3c434c"/><path d="m256 255.906c-36.408 0-66.449-27.17-71.007-62.336-.395 3.043-.62 6.14-.62 9.29 0 39.558 32.068 71.626 71.627 71.626s71.626-32.068 71.626-71.626c0-3.151-.225-6.247-.62-9.29-4.557 35.166-34.598 62.336-71.006 62.336z" fill="#dad8db"/><path d="m256 210.812c-11.384 0-21.091-7.172-24.856-17.242-1.081 2.892-1.676 6.021-1.676 9.29 0 14.653 11.879 26.532 26.532 26.532s26.532-11.879 26.532-26.532c0-3.269-.595-6.398-1.676-9.29-3.765 10.071-13.472 17.242-24.856 17.242z" fill="#959db0"/></g><g><path d="m127.62 195c-4.284 0-7.757 3.473-7.757 7.757s3.473 7.757 7.757 7.757h17.591c4.284 0 7.757-3.473 7.757-7.757s-3.473-7.757-7.757-7.757z" fill="#df667c"/><path d="m384.38 210.514c4.284 0 7.757-3.473 7.757-7.757s-3.473-7.757-7.757-7.757h-17.591c-4.284 0-7.757 3.473-7.757 7.757s3.473 7.757 7.757 7.757z" fill="#b3e59f"/><path d="m436.662 210.514c4.284 0 7.757-3.473 7.757-7.757s-3.473-7.757-7.757-7.757h-17.591c-4.284 0-7.757 3.473-7.757 7.757s3.473 7.757 7.757 7.757z" fill="#eacc73"/></g></g></svg>