<svg id="Capa_1" enable-background="new 0 0 512 512" height="512" viewBox="0 0 512 512" width="512" xmlns="http://www.w3.org/2000/svg"><g><g><path d="m41.29 502.71h429.42c34.248 0 41.29-27.777 41.29-50.581v-410.839c0-22.804-18.486-41.29-41.29-41.29h-429.42c-22.804 0-41.29 18.486-41.29 41.29v410.839c0 22.804 4.914 50.581 41.29 50.581z" fill="#eceaec"/><path d="m195.408 133.172h121.183c10.006 0 10.323-13.912 10.323-19.613v-44.052c0-5.701-4.622-10.323-10.323-10.323h-121.183c-5.701 0-10.323 4.622-10.323 10.323v44.052c.001 5.701.001 19.613 10.323 19.613z" fill="#bed8fb"/><path d="m316.591 123.882h-121.183c-5.701 0-10.323-4.622-10.323-10.323v18.581c0 5.701 4.622 10.323 10.323 10.323h121.183c5.701 0 10.323-4.622 10.323-10.323v-18.581c0 5.701-4.622 10.323-10.323 10.323z" fill="#a3caf7"/><g><path d="m80.615 94.7c22.076 0 29.471-18.11 29.471-30.895-3.944-12.523-15.646-21.605-29.471-21.605s-25.527 9.082-29.471 21.604c0 12.247 7.392 30.896 29.471 30.896z" fill="#dad8db"/><path d="m80.615 85.41c-13.825 0-25.527-9.082-29.471-21.605-.924 2.933-1.424 6.053-1.424 9.29 0 17.063 13.832 30.895 30.895 30.895s30.895-13.832 30.895-30.895c0-3.237-.5-6.358-1.424-9.29-3.944 12.523-15.646 21.605-29.471 21.605z" fill="#c8c5c9"/></g><g><path d="m431.385 94.7c22.076 0 29.471-18.11 29.471-30.895-3.944-12.523-15.646-21.605-29.471-21.605s-25.527 9.082-29.471 21.604c0 12.247 7.392 30.896 29.471 30.896z" fill="#dad8db"/><path d="m431.385 85.41c-13.825 0-25.527-9.082-29.471-21.605-.923 2.933-1.424 6.053-1.424 9.29 0 17.063 13.832 30.895 30.895 30.895s30.895-13.832 30.895-30.895c0-3.237-.5-6.358-1.424-9.29-3.944 12.523-15.646 21.605-29.471 21.605z" fill="#c8c5c9"/></g><g><path d="m80.615 460.134c22.076 0 29.471-18.11 29.471-30.895-3.944-12.523-15.646-21.605-29.471-21.605s-25.527 9.082-29.471 21.605c0 12.247 7.392 30.895 29.471 30.895z" fill="#dad8db"/><path d="m80.615 450.844c-13.825 0-25.527-9.082-29.471-21.605-.924 2.933-1.424 6.053-1.424 9.29 0 17.063 13.832 30.895 30.895 30.895s30.895-13.832 30.895-30.895c0-3.237-.5-6.358-1.424-9.29-3.944 12.523-15.646 21.605-29.471 21.605z" fill="#c8c5c9"/></g><g><path d="m431.385 460.134c22.076 0 29.471-18.11 29.471-30.895-3.944-12.523-15.646-21.605-29.471-21.605s-25.527 9.082-29.471 21.605c0 12.247 7.392 30.895 29.471 30.895z" fill="#dad8db"/><path d="m431.385 450.844c-13.825 0-25.527-9.082-29.471-21.605-.923 2.933-1.424 6.053-1.424 9.29 0 17.063 13.832 30.895 30.895 30.895s30.895-13.832 30.895-30.895c0-3.237-.5-6.358-1.424-9.29-3.944 12.523-15.646 21.605-29.471 21.605z" fill="#c8c5c9"/></g><path d="m470.71 493.419h-429.42c-22.804 0-41.29-18.486-41.29-41.29v18.581c0 22.804 18.486 41.29 41.29 41.29h429.42c22.804 0 41.29-18.486 41.29-41.29v-18.581c0 22.804-18.486 41.29-41.29 41.29z" fill="#dad8db"/></g></g></svg>