<svg id="Layer_1" enable-background="new 0 0 510 510" height="512" viewBox="0 0 510 510" width="512" xmlns="http://www.w3.org/2000/svg"><g id="XMLID_1228_"><path id="XMLID_1231_" d="m270 360.063-20.583-10-144.417 40-10 44.969 10 44.968h56.812c16.261 8.13 50.424 25.212 60 30h48.188l10-75z" fill="#ffccbd"/><path id="XMLID_1232_" d="m161.459 360c-6.857 0-49.577 0-56.459 0l-10 15 10 15h63.541c16.261-8 50.424-25 60-30h41.459l10-15-10-15c-16.182 0-32.369 0-48.541 0-16.261 8-50.424 25-60 30z" fill="#ffbda9"/><path id="XMLID_1233_" d="m345 240-67.5 10-67.5-10v-240h75l60 90 10 70z" fill="#ffdf40"/><path id="XMLID_1237_" d="m345 391.125 11.333-16.959-12.958-14.104-41.976-10-31.399 10v29.938l31.399 10z" fill="#ffbda9"/><path id="XMLID_1240_" d="m507.695 371.675c-6.824-16.371-26.312-25.56-41.945-16.925-12.313 6.921-88.911 49.98-101.25 56.916-.1.032-16.102 8.334-31.701 8.334-7.627 0-55.145 0-62.799 0v90h51.388c36.206-21.045 140.985-81.949 173.741-100.988 12.959-7.533 18.334-23.501 12.566-37.337z" fill="#ffbda9"/><path id="XMLID_1241_" d="m105 510h-105v-60l10-15-10-15v-60h105z" fill="#66b3ff"/><path id="XMLID_1243_" d="m0 420h60v30h-60z" fill="#edf3f9"/><path id="XMLID_1244_" d="m480 240-67.5 10-67.5-10v-150l60-90h75z" fill="#ffbe40"/><path id="XMLID_1248_" d="m345 90h-60v-90h60l10 45z" fill="#ffbe40"/><path id="XMLID_1249_" d="m345 270c-4.655 0-160.348 0-165 0v-30h165l10 15z" fill="#4d5e80"/><path id="XMLID_1250_" d="m345 180h75v30h-75z" fill="#3d4566"/><path id="XMLID_1253_" d="m330.031 330.063c-7.276 0-52.725 0-60.031 0v30h60.031c4.127 0 7.869 1.679 10.579 4.389 5.852 5.851 5.855 15.305 0 21.159-2.71 2.711-6.452 4.389-10.579 4.389-7.276 0-52.725 0-60.031 0v30h60.031c12.398 0 23.641-5.043 31.783-13.186 17.577-17.578 17.588-45.977 0-63.566-8.142-8.142-19.384-13.185-31.783-13.185z" fill="#ffa68c"/><path id="XMLID_1254_" d="m405 90h-60v-90h60z" fill="#ff9f40"/><path id="XMLID_1255_" d="m510 270c-4.655 0-160.348 0-165 0v-30h165z" fill="#3d4566"/></g></svg>