<svg id="Layer_1" enable-background="new 0 0 510.012 510.012" height="512" viewBox="0 0 510.012 510.012" width="512" xmlns="http://www.w3.org/2000/svg"><g id="XMLID_2340_"><path id="XMLID_2341_" d="m.006 0v510h255l10-185-10-175-90-150z" fill="#ffdf40"/><path id="XMLID_2344_" d="m510.006.012h-165l-90 150v360h255z" fill="#ffbe40"/><path id="XMLID_2345_" d="m165.006 0v150h90l10-75-10-75z" fill="#ffbe40"/><path id="XMLID_2348_" d="m255.006.012h90v150h-90z" fill="#ff9f40"/><path id="XMLID_2349_" d="m293.006 240.012h180v210h-180z" fill="#d8e2f0"/><path id="XMLID_2350_" d="m353.006 300.012h60v30h-60z" fill="#3d4566"/><path id="XMLID_2351_" d="m353.006 360.012h60v30h-60z" fill="#3d4566"/><g fill="#4d5e80"><path id="XMLID_2354_" d="m60.006 420.012h150v30h-150z"/><path id="XMLID_2357_" d="m172.289 332.149-22.283 13.369v-105.506h-30v105.506l-22.283-13.369-15.434 25.725 52.717 31.631 52.717-31.631z"/></g></g></svg>