<svg id="Layer_1" enable-background="new 0 0 510.001 510.001" height="512" viewBox="0 0 510.001 510.001" width="512" xmlns="http://www.w3.org/2000/svg"><g id="XMLID_2299_"><path id="XMLID_2302_" d="m105.001 79.383-15 8.038v47.58l15 10 15-10v-47.58z" fill="#4d5e80"/><path id="XMLID_2303_" d="m225.001 300.001-15 10-15-10v-30l15-10 15 10z" fill="#4d5e80"/><path id="XMLID_2304_" d="m285.001 300.001 15 10 15-10v-30l-15-10-15 10z" fill="#3d4566"/><path id="XMLID_2305_" d="m390.001 135.001 15 10 15-10v-47.572l-15-12.428-15 12.43z" fill="#3d4566"/><path id="XMLID_2306_" d="m62.571 60.001h-62.57v-30h62.574l12.426 15.5z" fill="#4d5e80"/><path id="XMLID_2307_" d="m210.001 60.001h-62.571l-12.429-14.437 12.429-15.563h62.571z" fill="#4d5e80"/><path id="XMLID_2308_" d="m300.001 60.001h62.57l12.43-15-12.427-15h-62.573z" fill="#3d4566"/><path id="XMLID_2311_" d="m447.43 60.001h62.571v-30h-62.571l-12.429 15z" fill="#3d4566"/><path id="XMLID_2312_" d="m135.001 300.001v210h120l10-45-10-75-30-90z" fill="#ffdf40"/><path id="XMLID_2315_" d="m375.001 300.001h-90l-30 90v120h60 60z" fill="#ffbe40"/><g id="XMLID_2316_"><path id="XMLID_2317_" d="m225.001 300.001v90h30l10-37.5-10-52.5z" fill="#ffbe40"/><path id="XMLID_2320_" d="m255.001 300.001h30v90h-30z" fill="#ff9f40"/></g><path id="XMLID_2321_" d="m345.001 225.001h75c41.42 0 75-33.577 75-75 0-5.246 0-9.754 0-15-10.128 0-139.871 0-150 0l-10 45z" fill="#c3d0e6"/><path id="XMLID_2324_" d="m165.001 135.001h-150v15c0 41.421 33.579 75 75 75h75l10-45z" fill="#d8e2f0"/><path id="XMLID_2325_" d="m105.001 90.001c-24.813 0-45-20.187-45-45 0-24.814 20.187-45 45-45s45 20.187 45 45-20.187 45-45 45z" fill="#66b3ff"/><path id="XMLID_2327_" d="m373.195 76.806c8.148 8.148 19.398 13.195 31.805 13.195 24.812 0 45-20.186 45-45 0-12.406-5.046-23.656-13.195-31.805-17.59-17.59-46.009-17.601-63.61 0-17.589 17.59-17.6 46.009 0 63.61z" fill="#4d88ff"/><path id="XMLID_2330_" d="m165.001 90.001v180h90l10-90-10-90z" fill="#edf3f9"/><path id="XMLID_2333_" d="m255.001 90.001h90v180h-90z" fill="#d8e2f0"/><path id="XMLID_2336_" d="m240.001 165.001v30h15l10-15-10-15z" fill="#4d5e80"/><path id="XMLID_2339_" d="m255.001 165.001h15v30h-15z" fill="#3d4566"/></g></svg>