<svg id="Layer_1" enable-background="new 0 0 510 510" height="512" viewBox="0 0 510 510" width="512" xmlns="http://www.w3.org/2000/svg"><g id="XMLID_2223_"><path id="XMLID_2226_" d="m202.5 427.5v45l26.25 10 26.25-10 10-22.5-10-22.5-26.25-10z" fill="#3d4566"/><path id="XMLID_2229_" d="m307.5 427.5-26.25-10-26.25 10v45l26.25 10 26.25-10z" fill="#2e2e4d"/><path id="XMLID_2230_" d="m0 7.5v172.5 172.5l127.5 10 127.5-10 10-172.5-10-172.5z" fill="#edf3f9"/><path id="XMLID_2233_" d="m510 7.5h-255v345l127.5 10 127.5-10z" fill="#d8e2f0"/><path id="XMLID_2234_" d="m0 352.5v75h255l10-37.5-10-37.5z" fill="#4d5e80"/><path id="XMLID_2237_" d="m510 352.5h-255v75h255v-37.5z" fill="#3d4566"/><path id="XMLID_2238_" d="m180 112.5v150h75l10-45-10-60-15-45z" fill="#ffdf40"/><path id="XMLID_2241_" d="m330 112.5h-60l-15 45v105h75z" fill="#ffbe40"/><path id="XMLID_2242_" d="m240 112.5v45h15l10-22.5-10-22.5z" fill="#ffbe40"/><path id="XMLID_2245_" d="m270 112.5c-5.246 0-9.754 0-15 0v45h15z" fill="#ff9f40"/><path id="XMLID_2248_" d="m150 172.5h-45.507l13.369-22.283-25.724-15.434-31.631 52.717 31.631 52.717 25.724-15.434-13.369-22.283h45.507z" fill="#66b3ff"/><path id="XMLID_2251_" d="m392.138 149.217c4.676 7.793 8.693 14.49 13.369 22.283-14.458 0-31.048 0-45.507 0v30h45.507c-4.676 7.793-8.693 14.49-13.369 22.283 8.997 5.398 16.728 10.037 25.725 15.435 11.051-18.419 20.58-34.299 31.631-52.717-11.051-18.418-20.58-34.299-31.631-52.717-8.998 5.397-16.728 10.035-25.725 15.433z" fill="#4d88ff"/><path id="XMLID_2252_" d="m135 472.5v30h120l10-15-10-15c-14.518 0-105.387 0-120 0z" fill="#4d5e80"/><path id="XMLID_2255_" d="m375 472.5c-14.518 0-105.387 0-120 0v30h120c0-10.492 0-19.508 0-30z" fill="#3d4566"/></g></svg>