<svg id="Layer_1" enable-background="new 0 0 510 510" height="512" viewBox="0 0 510 510" width="512" xmlns="http://www.w3.org/2000/svg"><g id="XMLID_2161_"><path id="XMLID_2164_" d="m510 374.999v-105l-150-150h-45l-10 127.5 10 127.5z" fill="#66b3ff"/><path id="XMLID_2167_" d="m510 239.999c0-6.835 0-12.707 0-19.542-8.156-12.234-58.816-88.224-66.973-100.459-16.864 0-36.163 0-53.027 0l-10 60 10 60 60 10z" fill="#edf3f9"/><path id="XMLID_2170_" d="m390 239.999v-120h-30v150h150v-30z" fill="#4d88ff"/><path id="XMLID_2173_" d="m0 284.999v90h180l10-45-10-45-90-10z" fill="#66b3ff"/><path id="XMLID_2174_" d="m315 284.999-67.5-10-67.5 10v90h135z" fill="#4d88ff"/><path id="XMLID_2177_" d="m0 74.999v210h45l135-135 10-37.5-10-37.5z" fill="#4d5e80"/><path id="XMLID_2180_" d="m315 74.999h-135v75l67.5 10 67.5-10z" fill="#3d4566"/><path id="XMLID_2181_" d="m128 194.999c-10.492 0-19.508 0-30 0 0-14.981 0-45 0-45h30z" fill="#ffbe40"/><path id="XMLID_2184_" d="m0 404.999v30h180l10-15-10-15z" fill="#4d5e80"/><path id="XMLID_2187_" d="m180 404.999h330v30h-330z" fill="#3d4566"/><path id="XMLID_2196_" d="m60.395 419.605c-20.521-20.521-20.535-53.677 0-74.211 20.521-20.522 53.677-20.535 74.211 0 20.521 20.522 20.535 53.676 0 74.211-20.522 20.522-53.677 20.534-74.211 0z" fill="#3d4566"/><path id="XMLID_2199_" d="m113.41 398.409c-4.072 4.071-9.697 6.59-15.91 6.59-12.426 0-22.5-10.073-22.5-22.5 0-6.213 2.519-11.838 6.59-15.91 8.781-8.78 23.025-8.795 31.82 0 8.78 8.781 8.795 23.025 0 31.82z" fill="#4d5e80"/><path id="XMLID_2203_" d="m113 284.999h-68v-135h53l15 45 10 44z" fill="#ffdf40"/><path id="XMLID_2209_" d="m180 284.999h-67v-90l15-45h52l10 76z" fill="#ffbe40"/><path id="XMLID_2211_" d="m113 194.999h-15v-45h15l10 22.5z" fill="#ffbe40"/><path id="XMLID_2212_" d="m128 194.999c-5.259 0-9.742 0-15 0 0-14.981 0-45 0-45h15z" fill="#ff9f40"/><path id="XMLID_2213_" d="m248 284.999h-68v-135h53l15 45 10 44z" fill="#ffdf40"/><path id="XMLID_2219_" d="m315 284.999h-67v-90l15-45h52z" fill="#ffbe40"/><path id="XMLID_2221_" d="m248 194.999c-5.246 0-9.754 0-15 0v-45h15l10 22.5z" fill="#ffbe40"/><path id="XMLID_2222_" d="m263 194.999c-5.259 0-9.742 0-15 0 0-14.981 0-30.019 0-45h15z" fill="#ff9f40"/><path id="XMLID_1060_" d="m375.395 419.605c-20.522-20.521-20.535-53.677 0-74.211 20.521-20.522 53.677-20.535 74.211 0 20.522 20.522 20.535 53.676 0 74.211-20.522 20.522-53.677 20.534-74.211 0z" fill="#2e2e4d"/><path id="XMLID_2202_" d="m428.41 398.409c-8.781 8.781-23.025 8.795-31.82 0-8.78-8.781-8.795-23.025 0-31.82 8.781-8.78 23.025-8.795 31.82 0 8.78 8.781 8.795 23.025 0 31.82z" fill="#3d4566"/></g></svg>