<svg id="Layer_1" enable-background="new 0 0 512 512" height="512" viewBox="0 0 512 512" width="512" xmlns="http://www.w3.org/2000/svg"><g id="XMLID_2083_"><g id="XMLID_2084_"><path id="XMLID_9_" d="m203.294 474.353 26.353 10.039 26.353-10.039 10.039-22.588-10.039-22.589-26.353-10.039-26.353 10.039z" fill="#3d4566"/><path id="XMLID_10_" d="m308.706 429.176-26.353-10.039-26.353 10.039v22.588 22.588l26.353 10.039 26.353-10.039z" fill="#2e2e4d"/><path id="XMLID_2_" d="m0 353.882 128 10.039 128-10.039 10.039-173.176-10.039-173.177h-256z" fill="#edf3f9"/><path id="XMLID_3_" d="m512 7.529h-256v173.176 173.176l128 10.039 128-10.039z" fill="#d8e2f0"/><path id="XMLID_4_" d="m256 429.176 10.039-37.647-10.039-37.647h-256v75.294z" fill="#4d5e80"/><path id="XMLID_8_" d="m512 353.882h-256v75.294h128 128z" fill="#3d4566"/><path id="XMLID_12_" d="m135.529 474.353v30.118h120.471l10.039-15.059-10.039-15.059z" fill="#4d5e80"/><path id="XMLID_11_" d="m376.471 474.353h-120.471v30.118h120.471z" fill="#3d4566"/></g><g id="XMLID_2103_"><path id="XMLID_2106_" d="m105.412 82.824v210.824l66.593-42.165 54.782-63.465-49.093-56.671z" fill="#ff9f40"/><path id="XMLID_2109_" d="m406.588 293.647v-105.412-105.411l-68.267 42.165-53.057 63.074 57.407 59.07z" fill="#ff8940"/><path id="XMLID_7_" d="m256 293.647 10.039-40.157-10.039-40.157-9.705-21.752-19.508-3.564-121.375 105.63z" fill="#ffbe40"/><path id="XMLID_1_" d="m406.588 293.647-121.324-105.584-19.225 5.025-10.039 20.245v80.314z" fill="#ff9f40"/><path id="XMLID_6_" d="m256 213.333 10.039-65.255-10.039-65.254h-75.294-75.294l121.375 105.194z" fill="#ffdf40"/><path id="XMLID_5_" d="m285.264 188.063 121.324-105.239h-75.294-75.294v130.51z" fill="#ffbe40"/></g></g></svg>