<svg id="Layer_1" enable-background="new 0 0 512 512" height="512" viewBox="0 0 512 512" width="512" xmlns="http://www.w3.org/2000/svg"><g><path id="XMLID_2_" d="m0 29.896h60.294l45.221 75.368 10.049 81.063-10.049 54.6-52.758 10.049-52.757-10.05z" fill="#ffdf40"/><path id="XMLID_3_" d="m211.03 240.926-52.758 10.049-52.758-10.049v-135.662l45.221-75.368h60.294v211.03z" fill="#ffbe40"/><path id="XMLID_1_" d="m60.294 105.264v-75.368h45.221l10.049 37.684-10.049 37.684z" fill="#ffbe40"/><path id="XMLID_5_" d="m150.736 105.264h-45.221v-75.368h45.221z" fill="#ff9f40"/><path id="XMLID_6_" d="m241.178 60.043h75.368l15.074 60.294 10.049 60.629-10.049 59.96-45.221 10.049-45.221-10.049z" fill="#ffdf40"/><path id="XMLID_7_" d="m422.061 240.926-45.221 10.049-45.221-10.049v-120.588l15.074-60.294h75.368z" fill="#ffbe40"/><path id="XMLID_15_" d="m226.104 482.104 10.049-37.684-10.049-37.684-113.052-10.049-113.052 10.049v75.368z" fill="#3d4566"/><path id="XMLID_14_" d="m226.104 482.104v-75.368l97.978-10.049 97.978 10.049v75.368z" fill="#2e2e4d"/><path id="XMLID_9_" d="m0 406.736v-37.684l8.29-45.221-8.29-45.221v-37.684h226.104l10.049 82.905-10.049 82.905z" fill="#4d5e80"/><path id="XMLID_1446_" d="m226.104 278.61h-113.052-113.052v30.147l8.29 15.074-8.29 15.074v30.147h113.052 113.052l10.049-45.221z" fill="#3d4566"/><path id="XMLID_12_" d="m226.104 406.736h202.991c22.893 0 43.619-9.279 58.622-24.283 15.004-15.003 24.283-35.729 24.283-58.622 0-22.894-9.279-43.62-24.283-58.622-15.003-15.003-35.729-24.283-58.622-24.283h-202.991z" fill="#3d4566"/><path id="XMLID_11_" d="m0 308.758h77.961c-.848 2.391-1.502 4.873-1.941 7.426-.427 2.486-.651 5.041-.651 7.647s.223 5.161.651 7.647c.439 2.554 1.093 5.036 1.941 7.426h-77.961z" fill="#edf3f9"/><g id="XMLID_1238_"><path id="XMLID_17_" d="m226.104 369.053h97.727 97.727v-.006-.006c.084.001.168.004.251.007s.167.006.251.006c12.467 0 23.772-5.071 31.961-13.26 8.188-8.19 13.26-19.495 13.26-31.963s-5.072-23.773-13.26-31.961c-8.188-8.188-19.493-13.26-31.961-13.26-.084 0-.168.003-.251.006s-.167.006-.251.007v-.006-.006h-97.727-97.727z" fill="#2e2e4d"/><path id="XMLID_10_" d="m160.627 338.905c.848-2.391 1.502-4.873 1.941-7.426.427-2.486.651-5.041.651-7.647s-.223-5.161-.651-7.647c-.439-2.554-1.093-5.036-1.941-7.426h62.884 2.593c-.848 2.391-1.502 4.873-1.941 7.426-.427 2.486-.651 5.041-.651 7.647s.224 5.161.651 7.647c.439 2.554 1.093 5.036 1.941 7.426z" fill="#edf3f9"/></g><path id="XMLID_4_" d="m313.953 308.758c.848 2.391 1.502 4.873 1.941 7.426.427 2.486.651 5.041.651 7.647s-.223 5.161-.651 7.647c-.439 2.554-1.093 5.036-1.941 7.426h65.48c-.848-2.391-1.502-4.873-1.941-7.426-.427-2.486-.651-5.041-.651-7.647s.223-5.161.651-7.647c.439-2.554 1.093-5.036 1.941-7.426z" fill="#d8e2f0"/><circle cx="271.013" cy="323.812" fill="#d8e2f0" r="15.413"/><circle cx="118.012" cy="323.812" fill="#edf3f9" r="15.413"/><circle cx="421.913" cy="323.812" fill="#d8e2f0" r="15.413"/><path id="XMLID_8_" d="m316.294 120.338h15.325l10.049-30.147-10.049-30.147h-15.325z" fill="#ffbe40"/><path id="XMLID_16_" d="m346.442 120.338h-15.074v-60.295h15.074z" fill="#ff9f40"/></g></svg>