<svg id="Layer_1" enable-background="new 0 0 510 510" height="512" viewBox="0 0 510 510" width="512" xmlns="http://www.w3.org/2000/svg"><g id="XMLID_1948_"><path id="XMLID_1949_" d="m142.5 240h-52.5v180l50 10 47.5-10 10-60-10-60z" fill="#ffdf40"/><path id="XMLID_1952_" d="m285 240h-52.5l-45 60v120l45 10 52.5-10 10-76.672z" fill="#ffbe40"/><path id="XMLID_1955_" d="m142.5 240v60h45l10-30-10-30z" fill="#ffbe40"/><path id="XMLID_1958_" d="m187.5 240h45v60h-45z" fill="#ff9f40"/><path id="XMLID_1959_" d="m337.5 240h-52.5v180l50 10 47.5-10 10-60-10-60z" fill="#ffdf40"/><path id="XMLID_1962_" d="m480 240h-52.5l-45 60v120l45 10 52.5-10z" fill="#ffbe40"/><path id="XMLID_1965_" d="m337.5 240v60h45l10-30-10-30z" fill="#ffbe40"/><path id="XMLID_1968_" d="m382.5 240h45v60h-45z" fill="#ff9f40"/><path id="XMLID_1973_" d="m285 510h-255v-60l127.5-10 127.5 10 10 30z" fill="#3d4566"/><path id="XMLID_1979_" d="m480 510h-195v-60l97.5-10 97.5 10z" fill="#2e2e4d"/><path id="XMLID_1981_" d="m60 420-15 10-15-10v-240l15-10 15 10z" fill="#d8e2f0"/><path id="XMLID_1982_" d="m285 180h-285v-180h285l15 90z" fill="#edf3f9"/><path id="XMLID_1984_" d="m330 180h-45v-180h45z" fill="#d8e2f0"/><g fill="#4d5e80"><path id="XMLID_1986_" d="m45 45h30v90h-30z"/><path id="XMLID_1987_" d="m105 45h30v90h-30z"/><path id="XMLID_1988_" d="m165 105h30v30h-30z"/><path id="XMLID_1989_" d="m225 45h30v90h-30z"/><path id="XMLID_1992_" d="m285 450h-285v-30h285l10 15z"/></g><path id="XMLID_1995_" d="m285 420h225v30h-225z" fill="#3d4566"/></g></svg>