<svg id="Layer_1" enable-background="new 0 0 512 512" height="512" viewBox="0 0 512 512" width="512" xmlns="http://www.w3.org/2000/svg"><path id="XMLID_1868_" d="m165.647 173.678-33.882 10.039-33.882-10.039v-128.502h52.706l15.059 45.176 10.039 49.192z" fill="#ffdf40"/><path id="XMLID_1874_" d="m233.412 173.678-33.882 10.039-33.882-10.039v-83.325l15.059-45.176h52.706v128.501z" fill="#ffbe40"/><path id="XMLID_1878_" d="m165.647 90.354c-5.267 0-9.792 0-15.059 0v-45.178h15.059l10.039 22.588z" fill="#ffbe40"/><path id="XMLID_1881_" d="m165.647 45.176h15.059v45.176h-15.059z" fill="#ff9f40"/><path id="XMLID_1886_" d="m97.882 301.176-35.305 10.039-32.46-10.039v-63.749-63.749h52.706l15.059 45.176 10.039 39.153z" fill="#ffdf40"/><path id="XMLID_1890_" d="m165.647 301.176-35.472 10.039-32.293-10.039v-82.321l15.059-45.177h52.706l10.039 68.769z" fill="#ffbe40"/><path id="XMLID_1_" d="m82.824 173.678v45.177h15.059l10.039-22.589-10.039-22.588z" fill="#ffbe40"/><path id="XMLID_316_" d="m97.882 173.678h15.059v45.176h-15.059z" fill="#ff9f40"/><path id="XMLID_1901_" d="m233.412 301.176-35.305 10.039-32.46-10.039v-127.498h52.706l15.059 45.176 10.039 39.153z" fill="#ffdf40"/><path id="XMLID_1905_" d="m301.176 301.176-35.472 10.039-32.293-10.039v-82.321l15.059-45.177h52.706l10.039 64.753z" fill="#ffbe40"/><path id="XMLID_2_" d="m233.412 218.856 10.039-22.589-10.039-22.588h-15.059v45.177z" fill="#ff9f40"/><path id="XMLID_3_" d="m248.471 218.856v-45.177h-15.059v45.177z" fill="#ff8940"/><path id="XMLID_1914_" d="m0 436.706v30.118h165.647l10.039-15.059-10.039-15.059c-4.673 0-160.977 0-165.647 0z" fill="#4d5e80"/><path id="XMLID_1917_" d="m165.647 406.588 10.039-52.706-10.039-52.706h-165.647v105.412z" fill="#66b3ff"/><path id="XMLID_1920_" d="m301.176 406.588 10.039-52.706-10.039-52.706h-135.529v105.412z" fill="#4d88ff"/><path id="XMLID_1923_" d="m301.176 135.529v165.647l37.647 10.039 37.647-10.039 10.039-82.824-10.039-82.824h-75.294z" fill="#4d88ff"/><path id="XMLID_1926_" d="m512 271.059-105.412-135.53h-30.118v165.647l67.765 10.039 67.765-10.039z" fill="#d8e2f0"/><path id="XMLID_1929_" d="m512 271.059v-2.731l-49.799-132.799h-55.612v135.529h105.411z" fill="#edf3f9"/><path id="XMLID_1932_" d="m512 406.588v-52.706-52.706h-210.824v105.412z" fill="#66b3ff"/><path id="XMLID_1935_" d="m165.647 436.706v30.118h346.353s0-19.585 0-30.118c-19.252 0-327.101 0-346.353 0z" fill="#3d4566"/><path id="XMLID_4_" d="m60.624 376.86c-9.548 9.545-15.459 22.724-15.459 37.258 0 29.067 23.648 52.717 52.717 52.717 14.536 0 27.715-5.911 37.258-15.459 20.606-20.606 20.62-53.898 0-74.518-20.604-20.604-53.898-20.618-74.516.002z" fill="#3d4566"/><path id="XMLID_5_" d="m376.624 376.86c-9.548 9.545-15.459 22.724-15.459 37.258 0 29.067 23.648 52.717 52.717 52.717 14.536 0 27.715-5.911 37.258-15.459 20.606-20.606 20.62-53.898 0-74.518-20.604-20.604-53.898-20.618-74.516.002z" fill="#2e2e4d"/><circle id="XMLID_1941_" cx="414.118" cy="414.118" fill="#3d4566" r="22.577"/><circle id="XMLID_6_" cx="97.718" cy="414.118" fill="#4d5e80" r="22.577"/></svg>