<svg id="Layer_1" enable-background="new 0 0 510 510" height="512" viewBox="0 0 510 510" width="512" xmlns="http://www.w3.org/2000/svg"><g id="XMLID_1780_"><path id="XMLID_1781_" d="m150 360h-60v120l37.5 10 37.5-10 10-30-10-45z" fill="#ffdf40"/><path id="XMLID_1784_" d="m240 360h-60l-15 45v75l37.5 10 37.5-10z" fill="#ffbe40"/><path id="XMLID_1785_" d="m150 360v45h15l10-22.5-10-22.5z" fill="#ffbe40"/><path id="XMLID_1788_" d="m165 360h15v45h-15z" fill="#ff9f40"/><path id="XMLID_1791_" d="m330 360h-60v120l37.5 10 37.5-10 10-30-10-45z" fill="#ffbe40"/><path id="XMLID_1794_" d="m420 360h-60l-15 45v75l37.5 10 37.5-10z" fill="#ff9f40"/><path id="XMLID_1797_" d="m330 360v45h15l10-22.5-10-22.5z" fill="#ff9f40"/><path id="XMLID_1800_" d="m345 360h15v45h-15z" fill="#ff8940"/><path id="XMLID_1803_" d="m330 180h-60v120l37.5 10 37.5-10 10-30-10-45z" fill="#ffbe40"/><path id="XMLID_1806_" d="m420 180h-60l-15 45v75l37.5 10 37.5-10z" fill="#ff9f40"/><path id="XMLID_1809_" d="m330 180v45h15l10-22.5-10-22.5z" fill="#ff9f40"/><path id="XMLID_1812_" d="m345 180h15v45h-15z" fill="#ff8940"/><path id="XMLID_1813_" d="m150 180h-60v120l37.5 10 37.5-10 10-30-10-45z" fill="#ffdf40"/><path id="XMLID_1816_" d="m240 180h-60l-15 45v75l37.5 10 37.5-10z" fill="#ffbe40"/><path id="XMLID_1817_" d="m150 180v45h15l10-22.5-10-22.5z" fill="#ffbe40"/><path id="XMLID_1820_" d="m165 180h15v45h-15z" fill="#ff9f40"/><path id="XMLID_1823_" d="m420 0h-60v120l37.5 10 37.5-10 10-30-10-45z" fill="#ffbe40"/><path id="XMLID_1826_" d="m510 0h-60l-15 45v75l37.5 10 37.5-10z" fill="#ff9f40"/><path id="XMLID_1829_" d="m420 0v45h15l10-22.5-10-22.5z" fill="#ff9f40"/><path id="XMLID_1832_" d="m435 0h15v45h-15z" fill="#ff8940"/><path id="XMLID_1833_" d="m240 0h-60v120l37.5 10 37.5-10 10-30-10-45z" fill="#ffdf40"/><path id="XMLID_1836_" d="m330 0h-60l-15 45v75l37.5 10 37.5-10z" fill="#ffbe40"/><path id="XMLID_1837_" d="m240 0v45h15l10-22.5-10-22.5z" fill="#ffbe40"/><path id="XMLID_1840_" d="m255 0h15v45h-15z" fill="#ff9f40"/><path id="XMLID_1841_" d="m60 0h-60v120l37.5 10 37.5-10 10-30-10-45z" fill="#ffdf40"/><path id="XMLID_1844_" d="m150 0h-60l-15 45v75l37.5 10 37.5-10z" fill="#ffbe40"/><path id="XMLID_1845_" d="m60 0v45h15l10-22.5-10-22.5z" fill="#ffbe40"/><path id="XMLID_1848_" d="m75 0h15v45h-15z" fill="#ff9f40"/><path id="XMLID_1849_" d="m60 480-14.333 10-15.667-10v-330l13-10 17 10z" fill="#4d5e80"/><path id="XMLID_1850_" d="m450 480 15 10 15-10v-330l-15-10-15 10z" fill="#3d4566"/><path id="XMLID_1851_" d="m0 120v30h255l10-15-10-15z" fill="#3d4566"/><path id="XMLID_1854_" d="m255 120h255v30h-255z" fill="#2e2e4d"/><path id="XMLID_1855_" d="m0 480v30h255l10-15-10-15z" fill="#3d4566"/><path id="XMLID_1858_" d="m255 480h255v30h-255z" fill="#2e2e4d"/><path id="XMLID_1859_" d="m0 300v30h255l10-15-10-15z" fill="#3d4566"/><path id="XMLID_1862_" d="m255 300h255v30h-255z" fill="#2e2e4d"/></g></svg>