<svg id="Layer_1" enable-background="new 0 0 512 512" height="512" viewBox="0 0 512 512" width="512" xmlns="http://www.w3.org/2000/svg"><g id="XMLID_1752_"><path id="XMLID_1753_" d="m135.529 0-10.039 67.765 10.039 67.765 60.235 10.039 60.236-10.04 10.039-67.765-10.039-67.764z" fill="#ffdf40"/><path id="XMLID_1_" d="m512 0h-256v135.529l128 10.039 128-10.039z" fill="#ffbe40"/><path id="XMLID_1757_" d="m0 376.471v135.529h256l10.039-67.765-10.039-67.764-128-10.039z" fill="#ffdf40"/><path id="XMLID_1760_" d="m376.471 376.471-60.235-10.039-60.236 10.039v135.529h120.471l10.039-67.765z" fill="#ffbe40"/><path id="XMLID_5128_" d="m256 376.471h-60.235l-10.039-114.447 10.039-126.494h60.235l10.039 120.47z" fill="#ffbe40"/><path id="XMLID_1764_" d="m316.235 135.529h-60.235v240.941h60.235l10.04-120.47z" fill="#ff9f40"/><path id="XMLID_5127_" d="m195.765 376.471h-60.235l-10.039-111.77 10.039-129.172h60.235z" fill="#ff9f40"/><path id="XMLID_1768_" d="m316.235 376.471h60.235l10.04-120.471-10.039-120.471h-60.235v240.942z" fill="#ff8940"/><path id="XMLID_1769_" d="m135.529 376.471h-135.529v-376.471h135.529z" fill="#ffbe40"/><path id="XMLID_1771_" d="m52.204 60.235h30.118v30.118h-30.118z" fill="#ff9f40"/><path id="XMLID_1772_" d="m376.471 135.529h135.529v376.471h-135.529z" fill="#ff9f40"/><path id="XMLID_1773_" d="m429.678 421.647h30.118v30.118h-30.118z" fill="#ff8940"/><path id="XMLID_1776_" d="m429.678 60.235h30.118v30.118h-30.118z" fill="#ff9f40"/><path id="XMLID_1779_" d="m52.204 421.647h30.118v30.118h-30.118z" fill="#ffbe40"/></g></svg>