<svg id="Layer_1" enable-background="new 0 0 512 512" height="512" viewBox="0 0 512 512" width="512" xmlns="http://www.w3.org/2000/svg"><g id="XMLID_1701_"><g fill="#8ae65c"><path id="XMLID_1702_" d="m255.641 30.121c-.016-10.532-.029-19.586-.045-30.118-10.349.016-20.727.647-30.839 1.876 1.273 10.456 2.366 19.441 3.639 29.897 8.912-1.084 18.078-1.641 27.245-1.655z"/><path id="XMLID_1703_" d="m201.56 36.708c-2.53-10.225-4.704-19.011-7.233-29.236-9.978 2.469-19.91 5.578-29.515 9.24 3.752 9.84 6.977 18.299 10.729 28.141 8.468-3.227 17.222-5.968 26.019-8.145z"/><path id="XMLID_1704_" d="m150.78 56.056c-4.914-9.315-9.138-17.324-14.051-26.64-9.085 4.793-17.976 10.193-26.423 16.049 6.001 8.657 11.159 16.095 17.161 24.751 7.448-5.163 15.291-9.928 23.313-14.16z"/><path id="XMLID_3_" d="m64.209 86.421c7.889 6.979 14.668 12.978 22.557 19.957 5.935-6.709 12.406-13.212 19.265-19.305-6.996-7.875-13.008-14.641-20.004-22.516z"/><path id="XMLID_2_" d="m29.162 137.226c9.327 4.893 17.343 9.098 26.67 13.99 4.207-8.021 8.95-15.87 14.098-23.332-8.669-5.98-16.122-11.121-24.79-17.102z"/><path id="XMLID_1707_" d="m44.65 176.089c-9.85-3.725-18.32-6.927-28.171-10.652-3.635 9.614-6.717 19.553-9.16 29.538 10.23 2.503 19.024 4.653 29.255 7.155 2.153-8.801 4.871-17.563 8.076-26.041z"/><path id="XMLID_1708_" d="m31.697 229.123c-10.46-1.237-19.451-2.3-29.91-3.537-1.986 16.786-1.749 29.603-1.787 30.411h30.118c.098-3.503-.127-12.454 1.579-26.874z"/><path id="XMLID_1709_" d="m31.747 283.508c-10.457 1.259-19.445 2.342-29.902 3.601 1.232 10.219 3.101 20.454 5.556 30.421 10.228-2.52 19.015-4.685 29.243-7.204-2.165-8.794-3.813-17.814-4.897-26.818z"/><path id="XMLID_1710_" d="m44.758 336.333c-9.845 3.745-18.305 6.963-28.149 10.708 3.649 9.595 7.927 19.066 12.715 28.151 9.317-4.91 17.328-9.13 26.645-14.039-4.218-8.008-7.992-16.358-11.211-24.82z"/><path id="XMLID_1711_" d="m70.138 384.492c-8.657 6-16.096 11.157-24.753 17.157 5.838 8.423 12.251 16.578 19.06 24.247 7.876-6.994 14.644-13.005 22.52-19.998-6.017-6.777-11.679-13.978-16.827-21.406z"/><path id="XMLID_1712_" d="m86.259 447.677c7.69 6.809 15.873 13.222 24.329 19.062 5.986-8.668 11.129-16.115 17.116-24.782-7.461-5.152-14.686-10.815-21.479-16.83-6.982 7.885-12.984 14.664-19.966 22.55z"/><path id="XMLID_1713_" d="m137.096 482.773c8.976 4.712 18.454 8.996 28.202 12.69 3.732-9.85 6.937-18.315 10.669-28.165-8.474-3.211-16.842-6.975-24.867-11.19-4.897 9.324-9.107 17.34-14.004 26.665z"/><path id="XMLID_1714_" d="m194.861 504.644c9.955 2.439 20.189 4.297 30.423 5.522 1.251-10.458 2.327-19.447 3.578-29.904-9.31-1.114-18.34-2.79-26.834-4.871-2.507 10.23-4.661 19.023-7.167 29.253z"/></g><g fill="#34cc15"><path id="XMLID_1715_" d="m256.134 481.879c.001 10.532.002 19.586.004 30.118 10.063-.001 20.447-.593 30.842-1.845-1.259-10.457-2.341-19.446-3.6-29.902-8.809 1.06-17.976 1.628-27.246 1.629z"/><path id="XMLID_1716_" d="m310.274 475.335c2.521 10.226 4.687 19.016 7.208 29.243 9.977-2.46 19.912-5.559 29.523-9.214-3.745-9.844-6.962-18.307-10.706-28.151-8.466 3.22-17.223 5.952-26.025 8.122z"/><path id="XMLID_1717_" d="m361.007 456.065c4.904 9.322 9.118 17.333 14.022 26.655 9.092-4.783 17.983-10.172 26.439-16.02-5.991-8.663-11.141-16.108-17.131-24.771-7.452 5.153-15.301 9.912-23.33 14.136z"/><path id="XMLID_1718_" d="m405.818 425.067c6.989 7.88 12.997 14.651 19.986 22.531 7.679-6.813 15.025-14.161 21.833-21.844-7.883-6.985-14.659-12.99-22.541-19.975-6.01 6.785-12.496 13.274-19.278 19.288z"/><path id="XMLID_1719_" d="m441.936 384.307c8.664 5.988 16.111 11.137 24.775 17.125 5.84-8.449 11.23-17.345 16.013-26.443-9.322-4.902-17.335-9.115-26.657-14.016-4.218 8.02-8.973 15.871-14.131 23.334z"/><path id="XMLID_1720_" d="m467.298 336.036c9.849 3.733 18.314 6.94 28.163 10.673 3.633-9.59 6.716-19.503 9.164-29.467-10.229-2.513-19.019-4.672-29.249-7.184-2.156 8.778-4.873 17.519-8.078 25.978z"/><path id="XMLID_1721_" d="m481.882 255.997c0 9.07-.551 18.308-1.624 27.243 10.458 1.257 19.444 2.336 29.902 3.593 1.207-10.04 1.84-20.678 1.84-30.836-10.533 0-19.584 0-30.118 0z"/><path id="XMLID_1722_" d="m480.248 228.409c10.456-1.263 19.444-2.349 29.9-3.612-1.233-10.2-3.102-20.435-5.563-30.421-10.227 2.521-19.016 4.688-29.243 7.209 2.169 8.796 3.819 17.82 4.906 26.824z"/><path id="XMLID_1723_" d="m467.212 175.557c9.842-3.749 18.303-6.97 28.145-10.719-3.653-9.594-7.934-19.059-12.726-28.143-9.315 4.913-17.324 9.138-26.639 14.051 4.222 8.003 7.998 16.349 11.22 24.811z"/><path id="XMLID_1724_" d="m441.803 127.397c8.654-6.005 16.089-11.166 24.744-17.171-5.841-8.419-12.255-16.568-19.063-24.227-7.872 6.999-14.636 13.013-22.508 20.012 6.007 6.759 11.67 13.954 16.827 21.386z"/><path id="XMLID_1725_" d="m401.269 45.142c-5.98 8.671-11.119 16.121-17.1 24.792 7.464 5.148 14.696 10.806 21.49 16.815 6.977-7.891 12.974-14.67 19.951-22.561-7.695-6.806-15.883-13.213-24.341-19.046z"/><path id="XMLID_1_" d="m346.596 16.48c-3.727 9.85-6.929 18.32-10.655 28.171 8.476 3.206 16.845 6.966 24.873 11.177 4.892-9.328 9.097-17.344 13.989-26.672z"/><path id="XMLID_1727_" d="m286.604 1.802c-1.247 10.459-2.318 19.447-3.565 29.906 9.012 1.074 18.039 2.709 26.834 4.86 2.503-10.23 4.654-19.025 7.157-29.255-9.951-2.435-20.192-4.291-30.426-5.511z"/></g><path id="XMLID_1730_" d="m256 60.226c-107.943 0-195.765 87.816-195.765 195.765v.003.003l52.706 10.039 52.706-10.039c0-.001 0-.002 0-.003s0-.002 0-.003z" fill="#4d88ff"/><path id="XMLID_1733_" d="m346.353 255.991v.003.003l52.706 10.039 52.706-10.039c0-.002 0-.004 0-.006 0-107.943-87.817-195.765-195.765-195.765z" fill="#005edf"/><path id="XMLID_1736_" d="m165.647 255.991v.003.003l45.176 10.039 45.177-10.039 10.039-97.885-10.039-97.886c-30.174 0-56.893 32.047-73.303 81.29-10.728 32.193-17.05 71.734-17.05 114.475z" fill="#66b3ff"/><path id="XMLID_1739_" d="m346.353 255.997c-.196-2.544 1.556-58.649-17.05-114.481-16.41-49.242-43.129-81.29-73.303-81.29v195.771l45.176 10.039z" fill="#4d88ff"/><path id="XMLID_1742_" d="m165.647 255.997c-28.389 0-88.874 0-105.412 0 .003 107.94 87.819 195.759 195.765 195.759z" fill="#005edf"/><path id="XMLID_1745_" d="m256 451.756c107.94 0 195.762-87.813 195.765-195.759-28.389 0-88.874 0-105.412 0z" fill="#0047df"/><path id="XMLID_1748_" d="m165.647 255.997c.001 42.739 6.323 82.28 17.051 114.471 16.41 49.24 43.128 81.288 73.302 81.288l10.039-97.879-10.039-97.88c-10.978 0-79.34 0-90.353 0z" fill="#4d88ff"/><path id="XMLID_1751_" d="m346.353 255.997c-10.975 0-79.34 0-90.353 0v195.759c30.174 0 56.892-32.046 73.302-81.288 10.728-32.191 17.05-71.732 17.051-114.471z" fill="#005edf"/></g></svg>