<svg id="Layer_1" enable-background="new 0 0 510 510" height="512" viewBox="0 0 510 510" width="512" xmlns="http://www.w3.org/2000/svg"><g id="XMLID_1616_"><path id="XMLID_1646_" d="m390 167.571 7.5 12.429 7.5-14.996 10-15.837-10-14.167-7.5-15-7.5 15z" fill="#4d5e80"/><path id="XMLID_1619_" d="m94.394 235.606 40.606 40.606 10-21.212-10-21.213c-6.782-6.782-12.611-12.611-19.394-19.393-7.418 7.418-13.794 13.794-21.212 21.212z" fill="#ffbe40"/><path id="XMLID_1622_" d="m115.606 304.394c-7.419 7.419-13.794 13.794-21.213 21.213 11.751 11.75 28.856 28.856 40.606 40.607l10.001-21.214-10-21.213c-6.782-6.782-12.611-12.611-19.394-19.393z" fill="#ffbe40"/><path id="XMLID_1625_" d="m154.394 295.606 21.213-21.213c-11.751-11.75-28.856-28.856-40.606-40.606v42.426c6.781 6.782 12.61 12.611 19.393 19.393z" fill="#ff9f40"/><path id="XMLID_1628_" d="m135 366.213c6.782 6.783 12.611 12.611 19.394 19.393l21.213-21.213c-11.751-11.751-28.856-28.856-40.606-40.607-.001 14.848-.001 27.58-.001 42.427z" fill="#ff9f40"/><path id="XMLID_1631_" d="m150 180v255l15 10 15-10v-255l-15-10z" fill="#ffbe40"/><path id="XMLID_1634_" d="m120 180-15-10-15 10v255l15 10 15-10z" fill="#ffdf40"/><path id="XMLID_1637_" d="m386.493 345 18.507-30.846 10-29.154-10-30-7.5-15-7.5 12.429v28.416l-38.493 64.155 17.493 10z" fill="#4d5e80"/><path id="XMLID_1640_" d="m458.493 345-38.493-64.155v-28.416l-7.5-12.429-7.5 15v59.154l18.507 30.846 17.493 10z" fill="#3d4566"/><path id="XMLID_1643_" d="m420 167.571v-32.571l-7.5-15-7.5 15v30.002l7.5 14.998z" fill="#3d4566"/><path id="XMLID_1649_" d="m270 47.574h29.999v84.853h-29.999z" fill="#ff9f40" transform="matrix(.707 -.707 .707 .707 19.835 227.886)"/><path id="XMLID_1652_" d="m390 47.574h29.999v84.853h-29.999z" fill="#ff9f40" transform="matrix(.707 -.707 .707 .707 54.982 312.739)"/><path id="XMLID_1655_" d="m201.213 45-4.046 15.167 12.833 14.833h270v30h-270l-10 15 10 15h300v-90z" fill="#ffbe40"/><path id="XMLID_1658_" d="m60 105c-10.492 0-19.508 0-30 0 0-10.492 0-19.508 0-30h30l10-13-10-17c-17.848 0-41.78 0-60 0v90h60l10-15z" fill="#ffdf40"/><path id="XMLID_1661_" d="m60 0v180h75l10-90-10-90z" fill="#66b3ff"/><path id="XMLID_1664_" d="m210 53.787-53.787-53.787h-21.213v180h75z" fill="#4d88ff"/><path id="XMLID_1669_" d="m405 495h-90v-150h90l10 75z" fill="#ffdf40"/><path id="XMLID_1675_" d="m495 495h-90v-150h90z" fill="#ffbe40"/><path id="XMLID_1679_" d="m405 435h-30v-30h30l10 15z" fill="#ffbe40"/><path id="XMLID_1682_" d="m405 405h30v30h-30z" fill="#ff9f40"/><path id="XMLID_1685_" d="m45 435v75h90l10-37.5-10-37.5z" fill="#4d5e80"/><path id="XMLID_1688_" d="m135 435h90v75h-90z" fill="#3d4566"/><path id="XMLID_1691_" d="m360 210c0 24.812 20.185 45 45 45l10-45-10-45c-24.812 0-45 20.186-45 45z" fill="#3d4566"/><path id="XMLID_1694_" d="m405 165v90c24.812 0 45-20.186 45-45 0-24.812-20.185-45-45-45z" fill="#2e2e4d"/><path id="XMLID_1697_" d="m394.398 220.602c2.716 2.716 6.466 4.398 10.602 4.398l10-15-10-15c-4.136 0-7.886 1.683-10.602 4.398-5.863 5.864-5.867 15.337 0 21.204z" fill="#edf3f9"/><path id="XMLID_1700_" d="m405 195v30c8.271 0 15-6.729 15-15 0-8.27-6.728-15-15-15z" fill="#d8e2f0"/></g></svg>