<svg id="Layer_1" enable-background="new 0 0 510 510" height="512" viewBox="0 0 510 510" width="512" xmlns="http://www.w3.org/2000/svg"><g id="XMLID_1537_"><path id="XMLID_1542_" d="m345 150-52.5 10-52.5-10v-150h105l10 75z" fill="#8ae65c"/><path id="XMLID_1548_" d="m450 150-52.5 10-52.5-10v-150h105z" fill="#34cc15"/><path id="XMLID_1552_" d="m300 75h45v30h-45z" fill="#11b111"/><path id="XMLID_1557_" d="m345 300-82.5 10-82.5-10v-150h165l10 75z" fill="#ffbe40"/><path id="XMLID_1563_" d="m510 300-82.5 10-82.5-10v-150h165z" fill="#ff9f40"/><path id="XMLID_1567_" d="m60 240-15 10-15-10v-45h30z" fill="#4d88ff"/><path id="XMLID_1570_" d="m240 195h30v60h-30z" fill="#ffdf40"/><path id="XMLID_1573_" d="m300 195h30v60h-30z" fill="#ffdf40"/><path id="XMLID_1576_" d="m360 195h30v60h-30z" fill="#ffbe40"/><path id="XMLID_1579_" d="m420 195h30v60h-30z" fill="#ffbe40"/><path id="XMLID_1582_" d="m114.271 240h-114.271v60l72.135 10 72.135-10z" fill="#66b3ff"/><path id="XMLID_1587_" d="m345 360-172.5 10-172.5-10v-60h345l10 30z" fill="#3d4566"/><path id="XMLID_1593_" d="m510 360-82.5 10-82.5-10v-60h165z" fill="#2e2e4d"/><path id="XMLID_1597_" d="m0 360v58.764l51.219 91.236h146.89 146.891l10-75-10-75z" fill="#4d5e80"/><path id="XMLID_1600_" d="m345 360v150h56.747 56.746l25.754-42.922 25.753-42.923v-64.155z" fill="#3d4566"/><g fill="#edf3f9"><path id="XMLID_1603_" d="m75 419h45v30h-45z"/><path id="XMLID_1606_" d="m150 419h45v30h-45z"/><path id="XMLID_1609_" d="m225 419h45v30h-45z"/><path id="XMLID_1612_" d="m300 419h45v30h-45z"/></g><path id="XMLID_1615_" d="m375 419h45v30h-45z" fill="#d8e2f0"/></g></svg>