<svg id="Layer_1" enable-background="new 0 0 510 510" height="512" viewBox="0 0 510 510" width="512" xmlns="http://www.w3.org/2000/svg"><g id="XMLID_1500_"><path id="XMLID_1501_" d="m0 222v288h120.001l15.499-9.608 14.5 9.608h105l10-144-10-144z" fill="#66b3ff"/><g fill="#4d88ff"><path id="XMLID_1504_" d="m510 221.75h-255v288.25h105l15.5-9.608 14.5 9.608h120z"/><path id="XMLID_1505_" d="m45 276h30v180h-30z"/><path id="XMLID_1506_" d="m180 276h30v180h-30z"/><path id="XMLID_1507_" d="m240 276v180h15l10-90-10-90z"/></g><path id="XMLID_1510_" d="m270 276c-5.246 0-9.754 0-15 0v180h15z" fill="#005edf"/><path id="XMLID_1511_" d="m300 276h30v180h-30z" fill="#005edf"/><path id="XMLID_1512_" d="m435 456h30c0-10 0-170 0-180-10.492 0-19.508 0-30 0z" fill="#005edf"/><path id="XMLID_1515_" d="m283.5 129.417-5.601 14.3 82.101 78.181v288.102h30c0-15.233 0-283.558 0-300l-92.753-89.498z" fill="#3d4566"/><path id="XMLID_1516_" d="m226.5 129 5.602 14.716-82.102 78.182v288.102c-10.492 0-19.508 0-30 0 0-15.233 0-283.558 0-300l92.753-89.498z" fill="#4d5e80"/><path id="XMLID_1517_" d="m240 30v32.573l8.833 10.427 6.167-13 10-13.719-10-16.281-7.5-10z" fill="#4d5e80"/><path id="XMLID_1520_" d="m270 30-7.5-10-7.5 10v30l8.25 12.563 6.75-9.992z" fill="#3d4566"/><path id="XMLID_1523_" d="m210 105c0 24.813 20.186 45 45 45l10-45-10-45c-24.812 0-45 20.187-45 45z" fill="#3d4566"/><path id="XMLID_1526_" d="m300 105c0-24.812-20.186-45-45-45v90c24.812 0 45-20.186 45-45z" fill="#2e2e4d"/><path id="XMLID_1529_" d="m240 105c0 8.271 6.729 15 15 15l10-15-10-15c-8.27 0-15 6.729-15 15z" fill="#edf3f9"/><path id="XMLID_1532_" d="m265.602 94.398c-2.716-2.716-6.466-4.398-10.602-4.398v30c4.136 0 7.886-1.682 10.602-4.398 5.863-5.863 5.867-15.336 0-21.204z" fill="#d8e2f0"/><path id="XMLID_1533_" d="m180 0v30h75l10-15-10-15z" fill="#3d4566"/><path id="XMLID_1536_" d="m255 0h75v30h-75z" fill="#2e2e4d"/></g></svg>