<svg id="Layer_1" enable-background="new 0 0 510.002 510.002" height="512" viewBox="0 0 510.002 510.002" width="512" xmlns="http://www.w3.org/2000/svg"><g id="XMLID_1438_"><path id="XMLID_1441_" d="m420.002 247.5-38 10-22-10v-120h45l15 45 10 35z" fill="#ffdf40"/><path id="XMLID_1444_" d="m480.002 247.5-31.25 10-28.75-10v-75.001l15-44.999h45z" fill="#ffbe40"/><path id="XMLID_1447_" d="m420.002 127.5h15v45h-15z" fill="#ff9f40"/><path id="XMLID_1450_" d="m405.002 127.5h15v45h-15z" fill="#ffbe40"/><path id="XMLID_1453_" d="m420.002 367.5-30 10-30-10v-120h45l15 45 10 35z" fill="#ffbe40"/><path id="XMLID_1456_" d="m480.002 367.5-32.25 10-27.75-10v-75.001l15-44.999h45z" fill="#ff9f40"/><path id="XMLID_1459_" d="m420.002 247.5h15v45h-15z" fill="#ff8940"/><path id="XMLID_1462_" d="m405.002 247.5h15v45h-15z" fill="#ff9f40"/><path id="XMLID_1465_" d="m.002 427.5v30h165l10-15-10-15c-4.655 0-160.348 0-165 0z" fill="#4d5e80"/><path id="XMLID_1468_" d="m510.002 427.5c-19.177 0-325.823 0-345 0v30h172.5 172.5c0-10.492 0-19.508 0-30z" fill="#3d4566"/><path id="XMLID_1471_" d="m165.002 219.167 10-74.326-10-74.326c-8.614 0-62.268 0-70.91 0v74.326l10.91 74.326 24.545 10z" fill="#edf3f9"/><path id="XMLID_1474_" d="m270.002 248.667 10.91-53.137v-50.787c0-41.204-33.522-74.728-74.728-74.728-14.409 0-26.773 0-41.182 0v148.652l16.25 40z" fill="#d8e2f0"/><path id="XMLID_1475_" d="m248.216 249.167c-8.015-7.993-30.359-30.275-38.214-38.108 0-12.806 0-23.55 0-36.059h30v23.607c10.583 10.554 19.143 19.09 30 29.918l6.5 24.975z" fill="#4d5e80"/><path id="XMLID_1478_" d="m105.002 219.167v-136.667h60l10-15-10-15h-90v166.667l15 10z" fill="#e62e6b"/><path id="XMLID_1481_" d="m210.002 52.5c-14.981 0-30.019 0-45 0v30h45c33.083 0 60 26.415 60 59.5v107.167l15 9.5 15-9.5c0-12.961 0-94.166 0-107.167 0-49.624-40.373-89.5-90-89.5z" fill="#cf2960"/><path id="XMLID_1482_" d="m330.002 307.5h-30l-10-15 10-15h30l10 15z" fill="#4d5e80"/><path id="XMLID_1483_" d="m510.002 397.5h-180v-330h30v300h150z" fill="#3d4566"/><path id="XMLID_1484_" d="m.002 219.167v185.833l82.5-5.833h82.5l10-90-10-90z" fill="#ff4b87"/><path id="XMLID_1487_" d="m201.072 249.167-36.07-30v180h14.572l60.214-1 60.214-8.855v-140.145z" fill="#e62e6b"/><circle id="XMLID_1490_" cx="52.502" cy="405" fill="#3d4566" r="52.475"/><circle id="XMLID_1493_" cx="52.502" cy="405" fill="#4d5e80" r="22.489"/><path id="XMLID_1496_" d="m184.794 437.707c-26.385-26.385-26.401-69.014 0-95.415 26.385-26.385 69.014-26.401 95.414 0 26.386 26.385 26.401 69.014 0 95.415-26.384 26.385-69.012 26.402-95.414 0z" fill="#2e2e4d"/><path id="XMLID_1499_" d="m205.997 363.495c-14.658 14.659-14.667 38.341 0 53.009 14.659 14.658 38.341 14.667 53.008 0 14.658-14.659 14.668-38.341 0-53.009-14.657-14.658-38.34-14.667-53.008 0z" fill="#3d4566"/></g></svg>