<svg id="Layer_1" enable-background="new 0 0 510 510" height="512" viewBox="0 0 510 510" width="512" xmlns="http://www.w3.org/2000/svg"><g id="XMLID_1417_"><path id="XMLID_1418_" d="m150 405h-90v-300h90z" fill="#4d5e80"/><path id="XMLID_1420_" d="m180 165h30v240h-30z" fill="#4d5e80"/><path id="XMLID_1421_" d="m300 225h90v180h-90z" fill="#3d4566"/><path id="XMLID_1422_" d="m240 105v240h15l10-120-10-120z" fill="#4d5e80"/><path id="XMLID_1425_" d="m255 105h15v240h-15z" fill="#3d4566"/><path id="XMLID_1426_" d="m420 105h30v135h-30z" fill="#3d4566"/><path id="XMLID_1427_" d="m180 105h30v30h-30z" fill="#4d5e80"/><path id="XMLID_1428_" d="m240 375v30h15l10-15-10-15z" fill="#4d5e80"/><path id="XMLID_1431_" d="m255 375h15v30h-15z" fill="#3d4566"/><path id="XMLID_1432_" d="m420 270h30v135h-30z" fill="#3d4566"/><path id="XMLID_1433_" d="m480 435h-75v30h105v-105h-30z" fill="#34cc15"/><path id="XMLID_1434_" d="m405 75h75v75h30v-105h-105z" fill="#34cc15"/><path id="XMLID_1435_" d="m30 150h-30v-105h105v30h-75z" fill="#8ae65c"/><path id="XMLID_1436_" d="m105 465h-105v-105h30v75h75z" fill="#8ae65c"/><path id="XMLID_1437_" d="m300 105h90v90h-90z" fill="#3d4566"/></g></svg>