<svg id="Layer_1" enable-background="new 0 0 510 510" height="512" viewBox="0 0 510 510" width="512" xmlns="http://www.w3.org/2000/svg"><g id="XMLID_1329_"><path id="XMLID_1334_" d="m315 187-48.75 10-48.75-10v-172h67.5l30 75 10 56z" fill="#ffdf40"/><path id="XMLID_1340_" d="m412.5 187-48.75 10-48.75-10v-97l30-75h67.5z" fill="#ffbe40"/><path id="XMLID_1346_" d="m315 90h-30v-75h30l10 37.5z" fill="#ffbe40"/><path id="XMLID_1352_" d="m345 90h-30v-75h30z" fill="#ff9f40"/><path id="XMLID_1358_" d="m217.5 360-43.75 10-53.75-10v-173h67.5l30 75 10 64.668z" fill="#ffdf40"/><path id="XMLID_1364_" d="m315 360-54.5 10-43-10v-98l30-75h67.5l10 87.501z" fill="#ffbe40"/><path id="XMLID_1368_" d="m217.5 262h-30v-75h30l10 37.5z" fill="#ffbe40"/><path id="XMLID_1371_" d="m217.5 187h30v75h-30z" fill="#ff9f40"/><path id="XMLID_1376_" d="m412.5 360-46.5 10-51-10v-173h67.5l30 75 10 64.668z" fill="#ffdf40"/><path id="XMLID_1382_" d="m510 360-46.5 10-51-10v-98l30-75h67.5z" fill="#ffbe40"/><path id="XMLID_1386_" d="m412.5 262h-30v-75h30l10 37.5z" fill="#ff9f40"/><path id="XMLID_1389_" d="m412.5 187h30v75h-30z" fill="#ff8940"/><path id="XMLID_1392_" d="m90 360-15.333 10-14.667-10v-300c0-16.542-13.458-30-30-30h-30v-30h30c33.084 0 60 26.916 60 60z" fill="#d8e2f0"/><path id="XMLID_1397_" d="m315 435h-255v-75h255l10 37.082z" fill="#edf3f9"/><path id="XMLID_1403_" d="m510 435h-195v-75h195z" fill="#d8e2f0"/><circle id="XMLID_1407_" cx="157.5" cy="457.5" fill="#3d4566" r="52.5"/><circle id="XMLID_1410_" cx="157.5" cy="457.5" fill="#4d5e80" r="22.5"/><circle id="XMLID_1413_" cx="412.5" cy="457.5" fill="#2e2e4d" r="52.5"/><circle id="XMLID_1416_" cx="412.5" cy="457.5" fill="#3d4566" r="22.5"/></g></svg>