<svg id="Layer_1" enable-background="new 0 0 510 510" height="512" viewBox="0 0 510 510" width="512" xmlns="http://www.w3.org/2000/svg"><g id="XMLID_1308_"><g id="XMLID_1309_"><path id="XMLID_1310_" d="m0 0v510h255l10-185-10-175-90-150c-21.043 0-147.992 0-165 0z" fill="#ffdf40"/><path id="XMLID_1313_" d="m510 0h-127.5-37.5l-90 150v360h255c0-14.385 0-495.615 0-510z" fill="#ffbe40"/><path id="XMLID_1314_" d="m165 0v150h90l10-75-10-75c-10.889 0-79.04 0-90 0z" fill="#ffbe40"/><path id="XMLID_1317_" d="m345 0c-10.889 0-79.04 0-90 0v150h90z" fill="#ff9f40"/><path id="XMLID_1320_" d="m293 240h180v210h-180z" fill="#d8e2f0"/><g fill="#3d4566"><path id="XMLID_1321_" d="m353 300h60v30h-60z"/><path id="XMLID_1322_" d="m353 360h60v30h-60z"/></g></g><path id="XMLID_1323_" d="m209.46 298.88-8.89-88.88h-40.27l-16.217 10-14.383-10h-76.27l-8.89 88.88c-4.262 42.522 24.681 81.863 67.46 89.74v31.38h-45v30h120v-30h-45v-31.38c42.859-7.892 71.713-47.305 67.46-89.74z" fill="#4d5e80"/><g id="XMLID_1327_"><g id="XMLID_1538_"><path id="XMLID_1681_" d="m160.3 210-18.59 92.94-29.42-5.88 17.41-87.06z" fill="#3d4566"/></g></g></g></svg>