<svg id="Layer_1" enable-background="new 0 0 510 510" height="512" viewBox="0 0 510 510" width="512" xmlns="http://www.w3.org/2000/svg"><g id="XMLID_1256_"><path id="XMLID_1257_" d="m435 255.25h75c0-10.492 0-19.508 0-30-20.194 0-63.236 0-75 0z" fill="#ffbe40"/><path id="XMLID_1260_" d="m180 140.386-10 124.932 10 124.932 37.5 10 37.5-10 10-135-10-135c-25.782 0-51.606 6.573-75 20.136z" fill="#ffdf40"/><path id="XMLID_1263_" d="m405 270.25c0-82.708-67.287-150-150-150v270l75 10 75-10c0-14.518 0-105.386 0-120z" fill="#e62e6b"/><path id="XMLID_1266_" d="m180 140.386c-44.801 25.974-75 74.457-75 129.864v120l37.5 10 37.5-10z" fill="#ff4b87"/><path id="XMLID_1269_" d="m180 389.75v.203.204-.204-.203h-75v60.5l75 10 75-10 10-30.25-10-30.25z" fill="#4d5e80"/><path id="XMLID_1272_" d="m405 389.75h-150v60.5l75 10 75-10z" fill="#3d4566"/><path id="XMLID_1273_" d="m371.296 86.455h75v29.999h-75z" fill="#ffbe40" transform="matrix(.707 -.707 .707 .707 47.995 318.778)"/><path id="XMLID_1274_" d="m86.204 63.954h29.999v75h-29.999z" fill="#ffdf40" transform="matrix(.707 -.707 .707 .707 -42.097 101.278)"/><path id="XMLID_1277_" d="m240 .25v75h15l10-37.5-10-37.5z" fill="#ffdf40"/><path id="XMLID_1278_" d="m255 .25h15v75h-15z" fill="#ffbe40"/><path id="XMLID_1279_" d="m0 225.25h75v30h-75z" fill="#ffdf40"/><path id="XMLID_1280_" d="m435 225.25h75v30h-75z" fill="#ffbe40"/><path id="XMLID_1283_" d="m105 449.75c-24.852 0-45 20.147-45 45v15h195l10-30-10-30c-10.128 0-139.871 0-150 0z" fill="#3d4566"/><path id="XMLID_1284_" d="m450 494.75c0-24.852-20.147-45-45-45-10.128 0-139.871 0-150 0v60h195c0-5.246 0-9.754 0-15z" fill="#2e2e4d"/></g></svg>