<svg id="Layer_1" enable-background="new 0 0 510 510" height="512" viewBox="0 0 510 510" width="512" xmlns="http://www.w3.org/2000/svg"><g id="XMLID_1196_"><path id="XMLID_1199_" d="m105 60h-60v450h195l10-30-10-30z" fill="#d8e2f0"/><path id="XMLID_1200_" d="m405 450-82.5-10-82.5 10v60h165z" fill="#c3d0e6"/><path id="XMLID_1203_" d="m105 0v450h135l10-225-10-225z" fill="#edf3f9"/><path id="XMLID_1206_" d="m465 105-73.5-39.5-31.5-65.5h-120v450h225z" fill="#d8e2f0"/><path id="XMLID_1207_" d="m465 105-105-105v105z" fill="#c3d0e6"/><g fill="#4d5e80"><path id="XMLID_1208_" d="m345 240h60v30h-60z"/><path id="XMLID_1209_" d="m345 180h60v30h-60z"/><path id="XMLID_1210_" d="m345 300h60v30h-60z"/><path id="XMLID_1211_" d="m345 360h60v30h-60z"/></g><path id="XMLID_1212_" d="m165 210h75l10-55-10-50-15-45h-60z" fill="#ffdf40"/><path id="XMLID_1215_" d="m315 210v-150h-60l-15 45v105z" fill="#ffbe40"/><path id="XMLID_1218_" d="m240 105h-15v-45h15l10 22.5z" fill="#ffbe40"/><path id="XMLID_1219_" d="m240 60h15v45h-15z" fill="#ff9f40"/><path id="XMLID_1220_" d="m165 390h75l10-55-10-50-15-45h-60z" fill="#ffdf40"/><path id="XMLID_1223_" d="m315 390v-150h-60l-15 45v105z" fill="#ffbe40"/><path id="XMLID_1226_" d="m240 285h-15v-45h15l10 22.5z" fill="#ffbe40"/><path id="XMLID_1227_" d="m240 240h15v45h-15z" fill="#ff9f40"/></g></svg>