<svg id="Layer_1" enable-background="new 0 0 509.5 509.5" height="512" viewBox="0 0 509.5 509.5" width="512" xmlns="http://www.w3.org/2000/svg"><g id="XMLID_1170_"><path id="XMLID_1171_" d="m359.75 344.5h-105c0-11.664 0-198.336 0-210h60l45 75 10 60z" fill="#ffdf40"/><path id="XMLID_1173_" d="m464.75 344.5h-105v-135l45-75h60z" fill="#ffbe40"/><path id="XMLID_1175_" d="m359.75 209.5h-45v-75h45l10 37.5z" fill="#ffbe40"/><path id="XMLID_1177_" d="m404.75 209.5h-45v-75h45z" fill="#ff9f40"/><path id="XMLID_1181_" d="m74.675 344.5c1.859 18.589 14.541 145.411 16.5 165h43.575l10-82.5-10-82.5-30.037-10z" fill="#4d5e80"/><path id="XMLID_1184_" d="m194.825 344.5-30.037-10-30.038 10v165h43.575c1.859-18.589 14.541-145.411 16.5-165z" fill="#3d4566"/><path id="XMLID_1185_" d="m101.128 126.014c-32.844 13.275-56.378 45.554-56.378 83.486v135.25h90l10-112.625-10-97.062-17.377-14.676z" fill="#66b3ff"/><path id="XMLID_1188_" d="m134.75 135v209.5h90c0-16.333 0-118.559 0-135 0-37.957-23.553-70.215-56.371-83.483l-17.355-5.364z" fill="#4d88ff"/><path id="XMLID_1191_" d="m314.75 284.5h-111.213c-18.515-21.374-58.001-66.955-68.787-79.406l21.213-21.213c7.291 8.582 52.688 62.013 60 70.619h98.787z" fill="#005edf"/><path id="XMLID_1192_" d="m67.25 67.5c0 37.219 30.279 67.5 67.5 67.5l10-67.5-10-67.5c-37.218 0-67.5 30.279-67.5 67.5z" fill="#ffccbd"/><path id="XMLID_1195_" d="m134.75 0v135c37.218 0 67.5-30.279 67.5-67.5 0-37.219-30.279-67.5-67.5-67.5z" fill="#ffbda9"/></g></svg>