<svg id="Layer_1" enable-background="new 0 0 510 510" height="512" viewBox="0 0 510 510" width="512" xmlns="http://www.w3.org/2000/svg"><g id="XMLID_1108_"><path id="XMLID_1111_" d="m450 105c0-17.115 0-36.672 0-53.787l-7.5-17.838-18.106-13.375-4.394 10v105h60l10-15-10-15c-10.492 0-19.508 0-30 0z" fill="#ff4b87"/><path id="XMLID_4621_" d="m480 165v195c0 16.543-13.458 30-30 30-16.543 0-30-13.459-30-30 0-14.614 0-105.482 0-120 0-33.085-26.917-60-60-60-10.492 0-19.508 0-30 0l-10 15 10 15h30c16.543 0 30 13.459 30 30v120c0 16.542 6.729 31.542 17.594 42.406 23.468 23.469 61.359 23.454 84.813 0 10.864-10.864 17.593-25.864 17.593-42.406 0-9.766 0-115.149 0-195l-15.333-10z" fill="#4d5e80"/><g id="XMLID_4620_"><path id="XMLID_4622_" d="m480 81.213v83.787h30c0-49.274 0-90.095 0-96.214-8.384-8.383-60.427-60.427-68.787-68.786-16.3 0-34.913 0-51.213 0v30h38.787c6.243 6.242 44.995 44.995 51.213 51.213z" fill="#2e2e4d"/></g><path id="XMLID_1117_" d="m180 450-75 10-75-10v-300l75-10 75 10 10 150z" fill="#66b3ff"/><path id="XMLID_1121_" d="m90 195h30v75h-30z" fill="#005edf"/><path id="XMLID_1126_" d="m330 450-75 10-75-10v-300l75-10 75 10z" fill="#4d88ff"/><path id="XMLID_1132_" d="m225 390c-24.812 0-45-20.185-45-45 0-4.193.813-10.728 6.11-22.723 10.238-23.185 28.501-48.63 38.89-63.67 12.278 17.774 28.887 41.016 38.89 63.67 5.297 11.995 6.11 18.53 6.11 22.723 0 24.812-20.186 45-45 45z" fill="#ffdf40"/><path id="XMLID_1136_" d="m180 195h30v30h-30z" fill="#ffdf40"/><path id="XMLID_1139_" d="m270 225c-10.492 0-19.508 0-30 0v-30h30z" fill="#ff4b87"/><path id="XMLID_1144_" d="m180 510h-180v-60h180l10 30z" fill="#4d5e80"/><path id="XMLID_1150_" d="m360 510h-180v-60h180z" fill="#3d4566"/><path id="XMLID_1156_" d="m165 150h-135v-150h150l10 44.25-10 42.723z" fill="#edf3f9"/><path id="XMLID_1160_" d="m143.32 62.519-16.64 24.962 38.32 25.546v36.973h15l10-31.514-10-31.513z" fill="#ff4b87"/><path id="XMLID_1165_" d="m330 150h-135l-15-63.027v-86.973h150z" fill="#d8e2f0"/><path id="XMLID_1169_" d="m195 96.973c-5.246-3.498-9.754-6.503-15-10v63.027h15c0-16.864 0-36.163 0-53.027z" fill="#e62e6b"/></g></svg>