<svg id="Layer_1" enable-background="new 0 0 510 510" height="512" viewBox="0 0 510 510" width="512" xmlns="http://www.w3.org/2000/svg"><g id="XMLID_1041_"><path id="XMLID_1044_" d="m375 180 30 10 30-10v-30l-30-10-30 10z" fill="#3d4566"/><path id="XMLID_1047_" d="m300 0h210v150h-210z" fill="#d8e2f0"/><path id="XMLID_1050_" d="m360 60h90v30h-90z" fill="#3d4566"/><path id="XMLID_1053_" d="m30 180v210l112.5 10 112.5-10 10-105-10-105z" fill="#66b3ff"/><path id="XMLID_1056_" d="m480 180h-225v210l112.5 10 112.5-10z" fill="#4d88ff"/><path id="XMLID_1059_" d="m0 390v120h255l10-60-10-60z" fill="#3d4566"/><path id="XMLID_1062_" d="m255 390h255v120h-255z" fill="#2e2e4d"/><path id="XMLID_1065_" d="m90 300h60v30h-60z" fill="#edf3f9"/><path id="XMLID_1068_" d="m180 300h60v30h-60z" fill="#edf3f9"/><g fill="#d8e2f0"><path id="XMLID_1071_" d="m270 300h60v30h-60z"/><path id="XMLID_1074_" d="m360 300h60v30h-60z"/><path id="XMLID_1077_" d="m330 240h90v30h-90z"/></g><path id="XMLID_1082_" d="m255 240-29.5 10-30.5-10-15-10-15 10-30 10-30-10v-180h150z" fill="#edf3f9"/><path id="XMLID_1086_" d="m300 435h150v30h-150z" fill="#d8e2f0"/><path id="XMLID_1089_" d="m240 435v30h15l10-15-10-15z" fill="#edf3f9"/><path id="XMLID_1092_" d="m255 435h15v30h-15z" fill="#d8e2f0"/><path id="XMLID_1095_" d="m60 435h150v30h-150z" fill="#edf3f9"/><path id="XMLID_1098_" d="m165 120h30v30h-30z" fill="#4d5e80"/><path id="XMLID_1101_" d="m195 240-15 10-15-10v-60h30z" fill="#4d5e80"/><path id="XMLID_1104_" d="m75 240v30h180l10-15-10-15z" fill="#4d88ff"/><path id="XMLID_1107_" d="m255 240h30v30h-30z" fill="#005edf"/></g></svg>