<svg id="Layer_1" enable-background="new 0 0 510 510" height="512" viewBox="0 0 510 510" width="512" xmlns="http://www.w3.org/2000/svg"><g id="XMLID_957_"><path id="XMLID_958_" d="m60 0v510h195l10-145-10-215-135-150z" fill="#4d5e80"/><path id="XMLID_961_" d="m450 0h-60-37.5l-97.5 150v360h195z" fill="#3d4566"/><path id="XMLID_964_" d="m120 0v150h135l10-75-10-75z" fill="#66b3ff"/><path id="XMLID_967_" d="m255 0h135v150h-135z" fill="#4d88ff"/><path id="XMLID_970_" d="m180 60h75v30h-75z" fill="#edf3f9"/><path id="XMLID_973_" d="m240 255v30h15l10-15-10-15z" fill="#edf3f9"/><path id="XMLID_976_" d="m180 255h30v30h-30z" fill="#edf3f9"/><path id="XMLID_979_" d="m240 375v30h15l10-15-10-15z" fill="#edf3f9"/><path id="XMLID_982_" d="m240 435v30h15l10-15-10-15z" fill="#edf3f9"/><path id="XMLID_985_" d="m120 255h30v30h-30z" fill="#edf3f9"/><path id="XMLID_988_" d="m240 315v30h15l10-15-10-15z" fill="#edf3f9"/><g fill="#d8e2f0"><path id="XMLID_991_" d="m255 255h15v30h-15z"/><path id="XMLID_994_" d="m300 255h30v30h-30z"/><path id="XMLID_1000_" d="m300 375h30v30h-30z"/><path id="XMLID_1024_" d="m300 435h30v30h-30z"/><path id="XMLID_1659_" d="m255 375h15v30h-15z"/><path id="XMLID_2024_" d="m255 435h15v30h-15z"/><path id="XMLID_1009_" d="m300 315h30v30h-30z"/><path id="XMLID_1012_" d="m360 315h30v30h-30z"/><path id="XMLID_1015_" d="m360 255h30v30h-30z"/><path id="XMLID_1018_" d="m255 315h15v30h-15z"/></g><path id="XMLID_1021_" d="m180 315h30v30h-30z" fill="#edf3f9"/><path id="XMLID_2119_" d="m180 375h30v30h-30z" fill="#edf3f9"/><path id="XMLID_2228_" d="m120 435h90v30h-90z" fill="#ff4b87"/><path id="XMLID_2310_" d="m120 315h30v30h-30z" fill="#edf3f9"/><path id="XMLID_2394_" d="m120 375h30v30h-30z" fill="#edf3f9"/><path id="XMLID_2730_" d="m360 375h30v90h-30z" fill="#ffbe40"/><path id="XMLID_1037_" d="m135 195v30h120l10-15-10-15z" fill="#3d4566"/><path id="XMLID_1040_" d="m255 195h120v30h-120z" fill="#2e2e4d"/></g></svg>