<svg id="Layer_1" enable-background="new 0 0 512 512" height="512" viewBox="0 0 512 512" width="512" xmlns="http://www.w3.org/2000/svg"><g id="XMLID_938_"><path id="XMLID_939_" d="m0 0v512h256l10.039-185.725-10.039-175.687-90.353-150.588z" fill="#ffdf40"/><path id="XMLID_942_" d="m512 0h-165.647l-90.353 150.588v361.412h256z" fill="#ffbe40"/><path id="XMLID_943_" d="m165.647 0v150.588h90.353l10.039-75.294-10.039-75.294z" fill="#ffbe40"/><path id="XMLID_946_" d="m256 0h90.353v150.588h-90.353z" fill="#ff9f40"/><path id="XMLID_947_" d="m294.149 240.941h180.706v210.824h-180.706z" fill="#d8e2f0"/><path id="XMLID_948_" d="m354.384 301.176h60.235v30.118h-60.235z" fill="#3d4566"/><path id="XMLID_949_" d="m354.384 361.412h60.235v30.118h-60.235z" fill="#3d4566"/><g id="XMLID_954_"><g id="XMLID_3203_"><path id="XMLID_1_" d="m135.757 450.753-7.653-3.957c-51.03-28.918-82.927-83.319-82.927-141.975v-53.841h30.113c18.806 0 36.489-7.357 49.786-20.655l10.649-10.665 10.647 10.673c13.3 13.299 30.981 20.647 49.788 20.647h29.722v53.841c0 58.655-31.701 113.057-82.731 141.975z" fill="#4d5e80"/></g></g></g></svg>