<svg id="Layer_1" enable-background="new 0 0 510 510" height="512" viewBox="0 0 510 510" width="512" xmlns="http://www.w3.org/2000/svg"><g id="XMLID_839_"><g id="XMLID_843_"><g id="XMLID_2436_"><path id="XMLID_2437_" d="m345 412.25-15-12.249v-32.751l15-10 15 10v32.402z" fill="#4d5e80"/></g></g><g id="XMLID_845_"><g id="XMLID_2465_"><path id="XMLID_2466_" d="m435 412.25-15-12.249v-32.751l15-10 15 10v32.402z" fill="#3d4566"/></g></g><path id="XMLID_849_" d="m203.993 22.25h-83.993v135l79 10 94.993-10z" fill="#d8e2f0"/><path id="XMLID_852_" d="m120 157.25 143.017 210h126.983l10-102-10-108z" fill="#edf3f9"/><g id="XMLID_857_"><g id="XMLID_2949_"><path id="XMLID_2950_" d="m75 367.25-40 10-35-10v-89.5h60l15 44.75 10 22.625z" fill="#ffdf40"/></g></g><g id="XMLID_864_"><g id="XMLID_2952_"><path id="XMLID_2954_" d="m150 367.25-37.5 10-37.5-10v-45l14.999-44.5h60.001z" fill="#ffbe40"/></g></g><g id="XMLID_867_"><g id="XMLID_2961_"><g id="XMLID_2962_"><path id="XMLID_2963_" d="m75 322.25h-15v-45h15l10 24.75z" fill="#ffbe40"/></g></g></g><g id="XMLID_874_"><g id="XMLID_2478_"><path id="XMLID_2483_" d="m75 277.75h15v45h-15z" fill="#ff9f40"/></g></g><g id="XMLID_880_"><g id="XMLID_2955_"><path id="XMLID_2956_" d="m75 457.25-44 10-31-10v-89.5h60l15 44.75 10 22.625z" fill="#ffbe40"/></g></g><g id="XMLID_887_"><g id="XMLID_2958_"><path id="XMLID_2959_" d="m150 457.25-37.5 10-37.5-10v-45l14.999-44.5h60.001z" fill="#ff9f40"/></g></g><g id="XMLID_890_"><g id="XMLID_3024_"><g id="XMLID_3025_"><path id="XMLID_3202_" d="m75 412.25h-15v-45h15l10 24.75z" fill="#ff9f40"/></g></g></g><g id="XMLID_897_"><g id="XMLID_2432_"><path id="XMLID_2473_" d="m75 367.75h15v45h-15z" fill="#ff8940"/></g></g><path id="XMLID_901_" d="m510 157.25h-120v210h120v-60l-10-15 10-15z" fill="#d8e2f0"/><circle id="XMLID_902_" cx="345.5" cy="442.25" fill="#3d4566" r="45"/><circle id="XMLID_903_" cx="345.5" cy="442.25" fill="#4d5e80" r="15"/><circle id="XMLID_906_" cx="435.5" cy="442.25" fill="#2e2e4d" r="45"/><circle id="XMLID_907_" cx="435.5" cy="442.25" fill="#3d4566" r="15"/><g id="XMLID_911_"><g id="XMLID_2421_"><path id="XMLID_2422_" d="m390 307.75h-90v-30h90l10 15z" fill="#ffdf40"/></g></g><g id="XMLID_916_"><g id="XMLID_2423_"><path id="XMLID_2424_" d="m300 217.75h30v30h-30z" fill="#66b3ff"/></g></g><g id="XMLID_921_"><g id="XMLID_2426_"><path id="XMLID_2427_" d="m360 217.75h30v30h-30z" fill="#66b3ff"/></g></g><g id="XMLID_926_"><g id="XMLID_2429_"><path id="XMLID_2430_" d="m420 217.75h30v30h-30z" fill="#005edf"/></g></g><g id="XMLID_931_"><g id="XMLID_2425_"><path id="XMLID_2428_" d="m188.013 487.75h-188.013v-30h172.987l79.203-106.147 25.573 16.022z" fill="#4d5e80"/></g></g><g id="XMLID_936_"><g id="XMLID_2414_"><path id="XMLID_2418_" d="m390 277.75h120v30h-120z" fill="#ffbe40"/></g></g></g></svg>