<svg id="Layer_1" enable-background="new 0 0 510 510" height="512" viewBox="0 0 510 510" width="512" xmlns="http://www.w3.org/2000/svg"><g id="XMLID_806_"><path id="XMLID_809_" d="m90 0v450l82.5 10 82.5-10 10-202.5-10-187.5-98.045-60z" fill="#edf3f9"/><path id="XMLID_812_" d="m420 0h-66.955l-98.045 60v390l82.5 10 82.5-10z" fill="#d8e2f0"/><path id="XMLID_813_" d="m150 120v210h105l10-65-10-70-45-75z" fill="#ffdf40"/><path id="XMLID_816_" d="m360 120h-60l-45 75v135h105z" fill="#ffbe40"/><path id="XMLID_817_" d="m210 120v75h45l10-37.5-10-37.5z" fill="#ffbe40"/><path id="XMLID_820_" d="m255 120h45v75h-45z" fill="#ff9f40"/><path id="XMLID_823_" d="m90 450v60h165l10-27.5-10-32.5z" fill="#4d5e80"/><path id="XMLID_826_" d="m255 450h165v60h-165z" fill="#3d4566"/><path id="XMLID_829_" d="m150 360v30h105l10-15-10-15z" fill="#66b3ff"/><path id="XMLID_832_" d="m360 360h-105v30h105c0-10.492 0-19.508 0-30z" fill="#4d88ff"/><path id="XMLID_835_" d="m156.956 0c8.117 16.315 25.112 50.478 29.85 60h68.194l10-30-10-30c-26.643 0-82.468 0-98.044 0z" fill="#4d5e80"/><path id="XMLID_838_" d="m353.044 0c-26.642 0-82.467 0-98.044 0v60h67.023c3.767-7.287 27.24-52.687 31.021-60z" fill="#3d4566"/></g></svg>