<svg id="Layer_1" enable-background="new 0 0 510 510" height="512" viewBox="0 0 510 510" width="512" xmlns="http://www.w3.org/2000/svg"><g id="XMLID_745_"><path id="XMLID_746_" d="m255 360-10 77.332 10 72.668h63.75l10-57-10-48-13.5-45z" fill="#ffdf40"/><path id="XMLID_749_" d="m382.5 360h-50.25l-13.5 45v105h63.75l10-67.5z" fill="#ffbe40"/><path id="XMLID_752_" d="m303.75 360v45h15l11.111-20.75-11.111-24.25z" fill="#ffbe40"/><path id="XMLID_755_" d="m318.75 360h15v45h-15z" fill="#ff9f40"/><path id="XMLID_756_" d="m127.5 360-10 82.5 10 67.5h63.75l10-57-10-48-13.5-45z" fill="#ffdf40"/><path id="XMLID_759_" d="m255 360h-50.25l-13.5 45v105h63.75z" fill="#ffbe40"/><path id="XMLID_762_" d="m176.25 360v45h15l11.111-20.75-11.111-24.25z" fill="#ffbe40"/><path id="XMLID_765_" d="m191.25 360h15v45h-15z" fill="#ff9f40"/><path id="XMLID_766_" d="m180 240h-60v-116.711l90.201-22.551 15.837 12.114-8.546 16.986-67.492 16.873v63.289h30l10 15z" fill="#4d5e80"/><path id="XMLID_767_" d="m390 240h-60l-10-15 10-15h30v-63.289l-67.49-16.872-8.514-17.122 15.804-11.979 90.2 22.551z" fill="#3d4566"/><path id="XMLID_768_" d="m247.5 74.083 7.5-14.083 10-14.833-10-15.167-7.5-10-7.5 10v32.569z" fill="#4d5e80"/><path id="XMLID_769_" d="m270 62.571v-32.571l-7.5-10-7.5 10v30l7.125 15z" fill="#3d4566"/><path id="XMLID_770_" d="m255 330h-75v-150h60l15 45 15 60z" fill="#ffdf40"/><path id="XMLID_772_" d="m330 330h-75v-105l15-45h60z" fill="#ffbe40"/><path id="XMLID_774_" d="m0 360v150h63.75l10-57-10-48-13.5-45z" fill="#ffdf40"/><path id="XMLID_777_" d="m127.5 360h-50.25l-13.5 45v105h63.75z" fill="#ffbe40"/><path id="XMLID_780_" d="m48.75 360v45h15l11.111-20.75-11.111-24.25z" fill="#ffbe40"/><path id="XMLID_783_" d="m63.75 360h15v45h-15z" fill="#ff9f40"/><path id="XMLID_786_" d="m240 180v45h15l11.111-20.75-11.111-24.25z" fill="#ffbe40"/><path id="XMLID_789_" d="m255 180h15v45h-15z" fill="#ff9f40"/><path id="XMLID_790_" d="m382.5 360v150h63.75l10-57-10-48-13.5-45z" fill="#ffdf40"/><path id="XMLID_793_" d="m510 360h-50.25l-13.5 45v105h63.75z" fill="#ffbe40"/><path id="XMLID_796_" d="m431.25 360v45h15l11.111-20.75-11.111-24.25z" fill="#ffbe40"/><path id="XMLID_799_" d="m446.25 360h15v45h-15z" fill="#ff9f40"/><path id="XMLID_800_" d="m255 30h-255v-30h255l10 15z" fill="#3d4566"/><path id="XMLID_801_" d="m255 0h255v30h-255z" fill="#2e2e4d"/><path id="XMLID_802_" d="m210 105c0 24.814 20.187 45 45 45l10-45-10-45c-24.81 0-45 20.184-45 45z" fill="#3d4566"/><path id="XMLID_803_" d="m255 60v90c24.814 0 45-20.186 45-45 0-24.812-20.186-45-45-45z" fill="#2e2e4d"/><path id="XMLID_804_" d="m240 105c0 8.271 6.729 15 15 15l10-15.667-10-14.333c-8.271 0-15 6.729-15 15z" fill="#edf3f9"/><path id="XMLID_805_" d="m270 105c0-8.271-6.729-15-15-15v30c8.271 0 15-6.729 15-15z" fill="#d8e2f0"/></g></svg>