<svg id="Layer_1" enable-background="new 0 0 510 510" height="512" viewBox="0 0 510 510" width="512" xmlns="http://www.w3.org/2000/svg"><g id="XMLID_691_"><path id="XMLID_694_" d="m90 266.393 10 28.857-10 34.75c-23.427 0-45.589-7.408-62.403-20.86-17.796-14.238-27.597-33.464-27.597-54.14 0-25.933 16.155-49.741 41.65-63.299l38.225 19.248z" fill="#8ae65c"/><path id="XMLID_697_" d="m98.527 211.212 39.828-19.509c25.492 13.559 41.645 37.366 41.645 63.297 0 20.676-9.801 39.902-27.597 54.14-16.815 13.452-38.977 20.86-62.403 20.86v-63.607z" fill="#34cc15"/><path id="XMLID_700_" d="m240 105h-61.876l-13.124-15 13.749-15h61.251z" fill="#4d5e80"/><path id="XMLID_703_" d="m270 75h30v30h-30z" fill="#4d5e80"/><path id="XMLID_706_" d="m330 75h30v30h-30z" fill="#4d5e80"/><path id="XMLID_709_" d="m390 75h30v30h-30z" fill="#3d4566"/><g fill="#4d5e80"><path id="XMLID_712_" d="m300 150h30v30h-30z"/><path id="XMLID_715_" d="m360 150h30v30h-30z"/><path id="XMLID_718_" d="m300 225h30v30h-30z"/><path id="XMLID_721_" d="m360 225h30v30h-30z"/><path id="XMLID_724_" d="m270 255h-14.5c-28.949 0-52.5-23.551-52.5-52.5s23.551-52.5 52.5-52.5h14.5v30h-14.5c-12.406 0-22.5 10.094-22.5 22.5s10.094 22.5 22.5 22.5h14.5z"/></g><path id="XMLID_727_" d="m465.125 315-15.125-15v-22.5c0-12.406-10.094-22.5-22.5-22.5h-7.5v-30h7.5c28.948 0 52.5 23.551 52.5 52.5v22.5z" fill="#3d4566"/><path id="XMLID_730_" d="m457.5 180h-37.5v-30h37.5c12.406 0 22.5-10.094 22.5-22.5s-10.094-22.5-22.5-22.5h-7.5v-30h7.5c28.948 0 52.5 23.551 52.5 52.5 0 28.948-23.552 52.5-52.5 52.5z" fill="#3d4566"/><path id="XMLID_731_" d="m390 510h-120v-210h75l45 75 10 80.667z" fill="#ffdf40"/><path id="XMLID_733_" d="m510 510h-120v-135l45-75h75z" fill="#ffbe40"/><path id="XMLID_735_" d="m390 375h-45v-75h45l10 37.5z" fill="#ffbe40"/><path id="XMLID_737_" d="m435 375h-45v-75h45z" fill="#ff9f40"/><path id="XMLID_741_" d="m75 105v-30h15l10-39.667-10-35.333c-49.626 0-90 40.374-90 90 0 20.136 12.929 52.211 39.525 98.06 18.83 32.461 37.353 59.338 38.133 60.466l12.342 17.867 10-96.06-10-65.333z" fill="#ff4b87"/><path id="XMLID_744_" d="m90 0v75h15v30h-15v161.393l12.342-17.867c.779-1.128 19.303-28.005 38.133-60.466 26.596-45.849 39.525-77.924 39.525-98.06 0-49.626-40.374-90-90-90z" fill="#e62e6b"/></g></svg>