<svg id="Layer_1" enable-background="new 0 0 510 510" height="512" viewBox="0 0 510 510" width="512" xmlns="http://www.w3.org/2000/svg"><g id="XMLID_631_"><path id="XMLID_634_" d="m196.088 31.139 13.824 26.625 30.088-15.623v62.31l7.5 10 7.5-10 10-51.951-10-51.951z" fill="#ff4b87"/><path id="XMLID_637_" d="m255 .549v103.902l7.5 10 7.5-10v-62.31l30.088 15.623 13.824-26.625z" fill="#e62e6b"/><path id="XMLID_642_" d="m255 389.451-112.5 10-112.5-10v-285h225l10 142.5z" fill="#edf3f9"/><path id="XMLID_648_" d="m480 389.451-112.5 10-112.5-10v-285h225z" fill="#d8e2f0"/><path id="XMLID_654_" d="m143 329.451h-75v-150h60l15 45 10 50z" fill="#ffdf40"/><g fill="#3d4566"><path id="XMLID_658_" d="m293 179h150v30h-150z"/><path id="XMLID_661_" d="m293 239h150v30h-150z"/><path id="XMLID_664_" d="m293 299h150v30h-150z"/></g><path id="XMLID_669_" d="m255 434.451-112.5 10-112.5-10v-45h225l10 22.5z" fill="#d8e2f0"/><path id="XMLID_671_" d="m480 434.451-112.5 10-112.5-10v-45h225z" fill="#c3d0e6"/><path id="XMLID_675_" d="m0 434.451v36.213l38.787 38.787h216.213l10-37.5-10-37.5z" fill="#4d5e80"/><path id="XMLID_678_" d="m255 434.451v75h216.213l38.787-38.787v-36.213z" fill="#3d4566"/><path id="XMLID_683_" d="m218 329.451h-75v-105l15-45h60z" fill="#ffbe40"/><path id="XMLID_687_" d="m143 224h-15v-45h15l10 22.5z" fill="#ffbe40"/><path id="XMLID_690_" d="m143 179h15v45h-15z" fill="#ff9f40"/></g></svg>