<svg id="Layer_1" enable-background="new 0 0 510 510" height="512" viewBox="0 0 510 510" width="512" xmlns="http://www.w3.org/2000/svg"><g id="XMLID_590_"><path id="XMLID_591_" d="m0 0v510h60l165.001-219-30.001-291z" fill="#4d5e80"/><path id="XMLID_594_" d="m390 300v-300h-195v60l135 450z" fill="#3d4566"/><path id="XMLID_595_" d="m420 510h-90l-10-105 10-105h60l30 75 10 80.667z" fill="#ffdf40"/><path id="XMLID_597_" d="m510 510h-90v-135l30-75h60z" fill="#ffbe40"/><path id="XMLID_599_" d="m420 375c-10.492 0-19.508 0-30 0v-75h30l6.667 37.5z" fill="#ffbe40"/><path id="XMLID_601_" d="m450 375h-30v-75h30z" fill="#ff9f40"/><path id="XMLID_605_" d="m60 420v90h135l10-45-10-45-67.5-10z" fill="#d8e2f0"/><path id="XMLID_606_" d="m330 420-67.5-10-67.5 10v90h135z" fill="#c3d0e6"/><path id="XMLID_609_" d="m60 60v90l67.5 10 67.5-10 10-45-10-45z" fill="#d8e2f0"/><path id="XMLID_610_" d="m330 60h-135v90l67.5 10 67.5-10z" fill="#c3d0e6"/><path id="XMLID_613_" d="m60 150v120l10 15-10 15v120h135l10-135-10-135z" fill="#edf3f9"/><path id="XMLID_616_" d="m330 150h-135v270h135v-120l-10-15 10-15z" fill="#d8e2f0"/><path id="XMLID_619_" d="m145 285-8.101-15h-76.899v30h76.899z" fill="#d8e2f0"/><path id="XMLID_620_" d="m245 285 8.102 15h76.898c0-10.492 0-19.508 0-30-9.341 0-67.526 0-76.898 0z" fill="#c3d0e6"/><path id="XMLID_623_" d="m135 285c0 33.083 26.915 60 60 60l10-60-10-60c-33.083 0-60 26.915-60 60z" fill="#66b3ff"/><path id="XMLID_626_" d="m195 225v120c16.542 0 31.542-6.728 42.406-17.594 37.882-37.881 10.505-102.406-42.406-102.406z" fill="#4d88ff"/><path id="XMLID_629_" d="m165 285c0 16.541 13.458 30 30 30l10-30-10-30c-16.542 0-30 13.457-30 30z" fill="#d8e2f0"/><path id="XMLID_630_" d="m216.203 263.797c-5.432-5.433-12.932-8.797-21.203-8.797v60c8.271 0 15.771-3.364 21.203-8.797 11.727-11.726 11.735-30.673 0-42.406z" fill="#c3d0e6"/></g></svg>