<svg id="Layer_1" enable-background="new 0 0 510 510" height="512" viewBox="0 0 510 510" width="512" xmlns="http://www.w3.org/2000/svg"><g id="XMLID_566_"><path id="XMLID_569_" d="m170.75 73.75 37.706-68.122c14.913-3.666 30.499-5.628 46.544-5.628l10 90-10 90c-11.643 0-25.352 2.02-35.718 7.203-2.243 1.121-3.968 2.21-5.286 3.201-3.188 2.398-3.996 4.229-3.996 4.596-10.492 0-19.508 0-30 0z" fill="#8ae65c"/><path id="XMLID_572_" d="m345.826 88.3-44.282-82.672c-14.944-3.674-30.531-5.628-46.544-5.628v180c11.643 0 25.351 2.02 35.718 7.203 2.243 1.121 3.968 2.21 5.286 3.201 3.189 2.398 3.996 4.229 3.996 4.596h30z" fill="#34cc15"/><path id="XMLID_573_" d="m150 330v180h105l10-53-10-52-45-75z" fill="#ffdf40"/><path id="XMLID_576_" d="m360 330h-60l-45 75v105h105z" fill="#ffbe40"/><path id="XMLID_579_" d="m210 330v75h45l10-37.5-10-37.5z" fill="#ffbe40"/><path id="XMLID_582_" d="m255 330h45v75h-45z" fill="#ff9f40"/><path id="XMLID_583_" d="m334.015 330c9.087 5.246 16.898 9.755 25.985 15 4.989-8.315 85-141.667 90-150l-12.862-7.717-19.943 4.083c-8.113 13.521-74.373 123.955-83.18 138.634z" fill="#d8e2f0"/><path id="XMLID_1239_" d="m150 345.001 25.985-15.001-83.178-138.63-18.395-5.016-14.412 8.646z" fill="#edf3f9"/><path id="XMLID_586_" d="m198.477 28.201c3.172-8.724 6.524-16.183 9.98-22.573-85.123 20.926-148.457 97.886-148.457 189.372h30c0-.519 1.613-3.963 9.282-7.797 19.194-9.597 52.249-9.594 71.437 0 7.668 3.834 9.282 7.278 9.282 7.797v-45c-.001-45.777 6.561-89.033 18.476-121.799z" fill="#34cc15"/><path id="XMLID_589_" d="m301.544 5.628c3.905 7.222 7.196 14.918 9.979 22.573 13.495 37.109 18.477 82.478 18.477 121.797v45.002c0-.367.808-2.198 3.996-4.596 6.062-4.559 15.224-7.356 22.733-8.759 11.734-2.192 24.79-2.195 36.541 0 7.52 1.404 16.676 4.204 22.733 8.759 3.189 2.398 3.996 4.229 3.996 4.596h30c0-45.332-15.55-87.098-41.596-120.246-26.517-33.75-63.916-58.569-106.859-69.126z" fill="#11b111"/></g></svg>