<svg id="Layer_1" enable-background="new 0 0 510 510" height="512" viewBox="0 0 510 510" width="512" xmlns="http://www.w3.org/2000/svg"><g id="XMLID_516_"><path id="XMLID_519_" d="m0 120v390h255l10-195-10-195-127.5-10z" fill="#edf3f9"/><path id="XMLID_522_" d="m510 120-127.5-10-127.5 10v390h255z" fill="#d8e2f0"/><path id="XMLID_525_" d="m0 0v120h255l10-57.75-10-62.25z" fill="#4d5e80"/><path id="XMLID_528_" d="m255 0h255v120h-255z" fill="#3d4566"/><path id="XMLID_529_" d="m375 225v105h75v-150h-60z" fill="#ffbe40"/><path id="XMLID_530_" d="m300 180v150h75v-105l-15-45z" fill="#ffdf40"/><path id="XMLID_531_" d="m360 180v45h15l10-20-10-25z" fill="#ffbe40"/><path id="XMLID_534_" d="m60 45h30v30h-30z" fill="#ffdf40"/><path id="XMLID_537_" d="m120 45h30v30h-30z" fill="#8ae65c"/><path id="XMLID_540_" d="m180 45h30v30h-30z" fill="#ff4b87"/><path id="XMLID_543_" d="m60 180h195v30h-195z" fill="#66b3ff"/><path id="XMLID_546_" d="m60 240h195v30h-195z" fill="#4d5e80"/><path id="XMLID_549_" d="m60 300h195v30h-195z" fill="#66b3ff"/><path id="XMLID_552_" d="m60 360v30h195l10-15-10-15z" fill="#4d5e80"/><path id="XMLID_555_" d="m255 360h195v30h-195z" fill="#3d4566"/><path id="XMLID_558_" d="m60 420v30h195l10-15-10-15z" fill="#66b3ff"/><path id="XMLID_561_" d="m255 420h195v30h-195z" fill="#4d88ff"/><path id="XMLID_564_" d="m285 45h180v30h-180z" fill="#d8e2f0"/><path id="XMLID_565_" d="m375 180h15v45h-15z" fill="#ff9f40"/></g></svg>