<svg id="Layer_1" enable-background="new 0 0 510 510" height="512" viewBox="0 0 510 510" width="512" xmlns="http://www.w3.org/2000/svg"><g id="XMLID_449_"><path id="XMLID_452_" d="m330 165 45 10 45-10v-135h-90z" fill="#3d4566"/><path id="XMLID_455_" d="m300 285 75 10 75-10v-120h-150z" fill="#2e2e4d"/><path id="XMLID_458_" d="m240.093 285-5.003-45-11.665-15 8.335-15-5-45-11.665-15 8.335-15-5-45-11.665-15 8.335-15-6.67-60h-116.86l-6.67 60 8.335 15-11.665 15-5 45 8.335 15-11.665 15-5 45 8.335 15-11.665 15-5.003 45 90.093 10z" fill="#4d5e80"/><path id="XMLID_461_" d="m0 285v225h120l64.5-10 55.5 10h15l10-112.5-10-112.5z" fill="#edf3f9"/><path id="XMLID_464_" d="m510 285h-255v225h15l60-10 52.5 10h127.5z" fill="#d8e2f0"/><path id="XMLID_469_" d="m240 510h-120v-105h120z" fill="#3d4566"/><path id="XMLID_473_" d="m270 405h120v105h-120z" fill="#2e2e4d"/><g fill="#ffdf40"><path id="XMLID_476_" d="m120 345h30v30h-30z"/><path id="XMLID_479_" d="m60 345h30v30h-30z"/><path id="XMLID_483_" d="m60 405h30v30h-30z"/><path id="XMLID_486_" d="m180 345h30v30h-30z"/><path id="XMLID_490_" d="m240 345v30h15l10-15-10-15z"/></g><path id="XMLID_493_" d="m255 345h15v30h-15z" fill="#ffbe40"/><path id="XMLID_496_" d="m300 345h30v30h-30z" fill="#ffbe40"/><path id="XMLID_499_" d="m360 345h30v30h-30z" fill="#ffbe40"/><path id="XMLID_502_" d="m420 345h30v30h-30z" fill="#ffbe40"/><path id="XMLID_505_" d="m420 405h30v30h-30z" fill="#ffbe40"/><path id="XMLID_508_" d="m226.76 165h-153.52l3.33-30h146.86z" fill="#edf3f9"/><path id="XMLID_511_" d="m218.43 90h-136.86l3.33-30h130.2z" fill="#edf3f9"/><path id="XMLID_515_" d="m235.09 240h-170.18l3.33-30h163.52z" fill="#edf3f9"/></g></svg>