<svg id="Layer_1" enable-background="new 0 0 510 510" height="512" viewBox="0 0 510 510" width="512" xmlns="http://www.w3.org/2000/svg"><g id="XMLID_379_"><path id="XMLID_382_" d="m270 360.063-20.583-10-144.417 40-10 44.969 10 44.968h56.812c16.261 8.131 50.424 25.212 60 30h48.188l10-75z" fill="#ffccbd"/><g fill="#ffbda9"><path id="XMLID_383_" d="m161.459 360c-6.857 0-49.577 0-56.459 0l-10 15 10 15h63.541c16.261-8 50.424-25 60-30h41.459l10-15-10-15c-16.182 0-32.369 0-48.541 0-16.261 8-50.424 25-60 30z"/><path id="XMLID_386_" d="m345 391.125 11.333-16.958-12.958-14.104-41.976-10-31.399 10v29.938l31.399 10z"/><path id="XMLID_390_" d="m507.695 371.675c-6.824-16.371-26.314-25.56-41.945-16.925-12.312 6.921-88.911 49.98-101.25 56.917-.1.031-16.102 8.333-31.701 8.333-7.628 0-55.145 0-62.799 0v90h51.388c35.794-20.806 137.912-80.162 173.741-100.988 6.479-3.767 11.062-9.642 13.306-16.305 2.242-6.663 2.144-14.114-.74-21.032z"/></g><path id="XMLID_395_" d="m105 510h-105v-60l10-15-10-15v-60h105z" fill="#e62e6b"/><path id="XMLID_399_" d="m0 420h60v30h-60z" fill="#edf3f9"/><path id="XMLID_402_" d="m330.031 330.063c-7.276 0-52.725 0-60.031 0v30h60.031c8.254 0 14.969 6.715 14.969 14.969s-6.715 14.969-14.969 14.969c-7.276 0-52.725 0-60.031 0v30h60.031c12.398 0 23.641-5.043 31.783-13.186 17.577-17.578 17.588-45.978 0-63.566-8.142-8.143-19.384-13.186-31.783-13.186z" fill="#ffa68c"/><g id="XMLID_403_"><g id="XMLID_408_"><g id="XMLID_2968_"><path id="XMLID_2969_" d="m345.173 270h-120.173v-270h120.173l14.827 135z" fill="#edf3f9"/></g></g><g id="XMLID_415_"><g id="XMLID_2971_"><path id="XMLID_2972_" d="m465 270h-120v-270h120z" fill="#d8e2f0"/></g></g><g id="XMLID_421_"><g id="XMLID_2665_"><path id="XMLID_2666_" d="m345 60h60v30h-60z" fill="#3d4566"/></g></g><g id="XMLID_426_"><g id="XMLID_2668_"><path id="XMLID_2670_" d="m345 120h60v30h-60z" fill="#3d4566"/></g></g><g id="XMLID_431_"><g id="XMLID_2672_"><path id="XMLID_2673_" d="m345 180h60v30h-60z" fill="#3d4566"/></g></g><g id="XMLID_436_"><g id="XMLID_3661_"><g id="XMLID_3662_"><path id="XMLID_3663_" d="m285 180h30v30h-30z" fill="#34cc15"/></g></g></g><g id="XMLID_441_"><g id="XMLID_3664_"><g id="XMLID_3665_"><path id="XMLID_3666_" d="m285 120h30v30h-30z" fill="#ffbe40"/></g></g></g><g id="XMLID_447_"><g id="XMLID_3684_"><path id="XMLID_3685_" d="m285 60h30v30h-30z" fill="#ff4b87"/></g></g></g></g></svg>