<svg id="Layer_1" enable-background="new 0 0 510 510" height="512" viewBox="0 0 510 510" width="512" xmlns="http://www.w3.org/2000/svg"><g id="XMLID_342_"><path id="XMLID_343_" d="m195 480h-30v-30h30l10 16z" fill="#3d4566"/><path id="XMLID_344_" d="m315 480h30c0-10.492 0-19.508 0-30-10.492 0-19.508 0-30 0l-10 15z" fill="#2e2e4d"/><path id="XMLID_347_" d="m133.627 110.166c-54.367 53.934-65.798 134.885-32.35 200.582 12.553 24.656 31.037 46.3 54.342 62.751 25.01 17.656 39.261 46.479 39.376 76.501l30.003 10 30.002-10 15-194.994-15-194.995c-44.971 0-88.288 17.335-121.373 50.155z" fill="#edf3f9"/><path id="XMLID_350_" d="m315 449.484c0-29.594 14.011-58.19 38.951-75.683 46.009-32.268 73.549-85.068 73.549-141.301 0-96.15-77.925-172.49-172.5-172.489v389.989l30 10 30-10c0-.101 0-.616 0-.516z" fill="#d8e2f0"/><path id="XMLID_353_" d="m194.995 450c.007 1.477.005 58.888.005 60h60l10-30-10-30c-7.276 0-52.698 0-60.005 0z" fill="#4d5e80"/><path id="XMLID_354_" d="m315 450c-7.259 0-52.693 0-60 0v60h60c0-7.259 0-52.693 0-60z" fill="#3d4566"/><path id="XMLID_355_" d="m180 158v150h75l10-55-10-50-15-45z" fill="#ffdf40"/><path id="XMLID_358_" d="m330 158h-60l-15 45v105h75z" fill="#ffbe40"/><path id="XMLID_359_" d="m240 158v45h15l10-22.5-10-22.5z" fill="#ffbe40"/><path id="XMLID_362_" d="m255 158h15v45h-15z" fill="#ff9f40"/><path id="XMLID_363_" d="m240 0v30h15s0-19.508 0-30c-5.246 0-9.754 0-15 0z" fill="#ffdf40"/><path id="XMLID_366_" d="m270 0s-9.754 0-15 0v30h15z" fill="#ffbe40"/><g fill="#ffdf40"><path id="XMLID_367_" d="m85.851 63.351h30v30.001h-30z" transform="matrix(.707 -.707 .707 .707 -25.864 94.259)"/><path id="XMLID_368_" d="m22 218h30v30h-30z"/><path id="XMLID_369_" d="m85.851 371.65h30v30h-30z" transform="matrix(.707 -.707 .707 .707 -243.864 184.559)"/></g><path id="XMLID_372_" d="m387.936 386.649 21.213 21.213c7.418-7.418 21.213-21.213 21.213-21.213s-13.794-13.794-21.213-21.213c-7.418 7.418-13.795 13.795-21.213 21.213z" fill="#ffbe40"/><path id="XMLID_375_" d="m458 248h30v-30s-19.508 0-30 0z" fill="#ffbe40"/><path id="XMLID_378_" d="m387.936 78.352c7.418 7.418 13.795 13.795 21.213 21.213 7.419-7.419 21.213-21.214 21.213-21.214s-13.795-13.795-21.213-21.213c-7.418 7.419-13.795 13.796-21.213 21.214z" fill="#ffbe40"/></g></svg>