<svg id="Layer_1" enable-background="new 0 0 510 510" height="512" viewBox="0 0 510 510" width="512" xmlns="http://www.w3.org/2000/svg"><g id="XMLID_323_"><path id="XMLID_326_" d="m45 0c-24.812 0-45 20.187-45 45v30l10 30-10 30v150c0 24.812 20.186 45 45 45h150l10-165-10-165c-10.128 0-139.871 0-150 0z" fill="#4d5e80"/><path id="XMLID_329_" d="m465 0c-15 0-255 0-270 0v330h270c24.813 0 45-20.185 45-45 0-16.9 0-135.055 0-150l-10-30 10-30v-30c0-24.812-20.186-45-45-45z" fill="#3d4566"/><path id="XMLID_330_" d="m75 390c0 66.272 53.724 120 120 120l10-120-10-120c-66.272 0-120 53.724-120 120z" fill="#8ae65c"/><path id="XMLID_333_" d="m195 270v240c33.137 0 63.137-13.432 84.853-35.147 46.831-46.831 46.907-122.798 0-169.705-21.716-21.716-51.716-35.148-84.853-35.148z" fill="#34cc15"/><path id="XMLID_334_" d="m174.167 392.12-19.394-19.393-21.213 21.213 40.607 40.606 20.833-20.833 10-19.713-10-22.713z" fill="#edf3f9"/><g fill="#d8e2f0"><path id="XMLID_335_" d="m256.44 352.273-21.213-21.213-40.227 40.227v42.426z"/><path id="XMLID_336_" d="m330 180h120v30h-120z"/><path id="XMLID_337_" d="m375 240h75v30h-75z"/></g><path id="XMLID_338_" d="m0 75v60h195l10-30-10-30z" fill="#ffdf40"/><path id="XMLID_341_" d="m195 75h315v60h-315z" fill="#ffbe40"/></g></svg>