<svg id="Layer_1" enable-background="new 0 0 510 510" height="512" viewBox="0 0 510 510" width="512" xmlns="http://www.w3.org/2000/svg"><g id="XMLID_296_"><path id="XMLID_299_" d="m45 30v480h210l10-240-10-210-120-30z" fill="#edf3f9"/><path id="XMLID_302_" d="m465 30h-90l-120 30v450h210z" fill="#d8e2f0"/><path id="XMLID_303_" d="m335.53 347.127-18.578-19.22-21.57 20.852 39.422 40.78 69.45-67.083-20.842-21.578z" fill="#34cc15"/><path id="XMLID_304_" d="m285 120h120v30h-120z" fill="#4d88ff"/><path id="XMLID_305_" d="m285 180h120v30h-120z" fill="#3d4566"/><path id="XMLID_306_" d="m285 240h120v30h-120z" fill="#4d88ff"/><path id="XMLID_307_" d="m105 300h150v30h-150z" fill="#66b3ff"/><path id="XMLID_308_" d="m105 360h150v30h-150z" fill="#4d5e80"/><path id="XMLID_309_" d="m105 420v30h150l10-15-10-15z" fill="#66b3ff"/><path id="XMLID_310_" d="m255 420h150v30h-150z" fill="#4d88ff"/><path id="XMLID_313_" d="m135 0v60h120l10-30-10-30z" fill="#4d5e80"/><path id="XMLID_314_" d="m255 0h120v60h-120z" fill="#3d4566"/><path id="XMLID_315_" d="m105 120v150h75l10-55-10-50-15-45z" fill="#ffdf40"/><path id="XMLID_318_" d="m255 120h-60l-15 45v105h75z" fill="#ffbe40"/><path id="XMLID_319_" d="m165 120v45h15l10-22.5-10-22.5z" fill="#ffbe40"/><path id="XMLID_322_" d="m180 120h15v45h-15z" fill="#ff9f40"/></g></svg>