<svg id="Layer_1" enable-background="new 0 0 510 510" height="512" viewBox="0 0 510 510" width="512" xmlns="http://www.w3.org/2000/svg"><g id="XMLID_229_"><path id="XMLID_256_" d="m206.267 334.51c-33.356 17.551-56.267 52.595-56.267 92.99l-10 30 10 30h105l10-62.5-10-72.5z" fill="#8ae65c"/><path id="XMLID_259_" d="m255 352.5v135h105l10-30-10-30c0-40.479-22.987-75.48-56.27-92.992z" fill="#34cc15"/><path id="XMLID_262_" d="m180 277.5c0 41.42 33.577 75 75 75l10-75-10-75c-41.42 0-75 33.578-75 75z" fill="#ffccbd"/><path id="XMLID_265_" d="m308.033 224.467c-13.572-13.572-32.322-21.967-53.033-21.967v150c20.711 0 39.461-8.395 53.033-21.967 29.27-29.269 29.317-76.749 0-106.066z" fill="#ffbda9"/><path id="XMLID_268_" d="m44.291 359.055c-26.109 11.732-44.291 37.966-44.291 68.445v60h75l10-57-10-63-12.066-10.696z" fill="#66b3ff"/><path id="XMLID_271_" d="m60 217.5h30c0-90.979 74.016-165 165-165l10-15-10-15c-107.521 0-195 87.474-195 195z" fill="#4d5e80"/><path id="XMLID_274_" d="m420 217.5h30c0-107.521-87.474-195-195-195v30c90.978 0 165 74.016 165 165z" fill="#3d4566"/><path id="XMLID_277_" d="m75 367.5v120h75v-60c0-30.479-18.182-56.713-44.291-68.445l-19.368-2.251z" fill="#4d88ff"/><path id="XMLID_280_" d="m15 307.5c0 33.137 26.863 60 60 60l10-60-10-60c-33.137 0-60 26.863-60 60z" fill="#ffccbd"/><path id="XMLID_283_" d="m75 247.5v120c33.137 0 60-26.863 60-60s-26.863-60-60-60z" fill="#ffbda9"/><path id="XMLID_286_" d="m404.291 359.055c-26.109 11.732-44.291 37.966-44.291 68.445v60h75l10-57-10-63-12.066-10.696z" fill="#ff4b87"/><path id="XMLID_289_" d="m435 367.5v120h75v-60c0-30.479-18.182-56.713-44.291-68.445l-19.368-2.251z" fill="#e62e6b"/><path id="XMLID_292_" d="m375 307.5c0 33.137 26.863 60 60 60l10-60-10-60c-33.137 0-60 26.863-60 60z" fill="#ffccbd"/><path id="XMLID_295_" d="m435 247.5v120c33.137 0 60-26.863 60-60s-26.863-60-60-60z" fill="#ffbda9"/></g></svg>