<svg id="Layer_1" enable-background="new 0 0 510 510" height="512" viewBox="0 0 510 510" width="512" xmlns="http://www.w3.org/2000/svg"><g id="XMLID_1_"><path id="XMLID_2_" d="m420 510h-90l-10.199-79.332 9.748-100.668h75.451l15 45 15 60z" fill="#ffdf40"/><path id="XMLID_4_" d="m510 510h-90v-135l15-45h75z" fill="#ffbe40"/><path id="XMLID_5533_" d="m405 330v60h15l11.111-27.666-11.111-32.334z" fill="#ffbe40"/><path id="XMLID_5532_" d="m420 330h15v60h-15z" fill="#ff9f40"/><path id="XMLID_5_" d="m93.709 227.018c-53.29 10.113-93.709 57.038-93.709 113.225v169.757h75l15-7 15 7h60l10-124.333-10-130.667-32.705-21.69z" fill="#66b3ff"/><path id="XMLID_6_" d="m165 255v255h60l15-10 15 10h75v-169.757c0-56.188-40.42-103.112-93.709-113.226l-37.291 5.608z" fill="#4d88ff"/><path id="XMLID_1541_" d="m225 405h30v105h-30z" fill="#005edf"/><path id="XMLID_929_" d="m75 405h30v105h-30z" fill="#4d88ff"/><path id="XMLID_8_" d="m60.322 75h-.322v75c0 57.898 47.104 105 105 105l10-58-10-62z" fill="#ffccbd"/><path id="XMLID_9_" d="m165 135v120c57.898 0 105-47.102 105-105v-75z" fill="#ffbda9"/><path id="XMLID_11_" d="m120 0c-33.084 0-60 26.916-60 60v15h.322l57.178 10 47.5-10 10-37.5-10-37.5z" fill="#66b3ff"/><path id="XMLID_12_" d="m270 60c0-33.084-26.916-60-60-60h-45v75l52.5 10 52.5-10z" fill="#4d88ff"/><path id="XMLID_13_" d="m60 75 75 60h30l10-33-10-27z" fill="#4d88ff"/><path id="XMLID_14_" d="m270 75h-105v60h30z" fill="#005edf"/></g></svg>