<svg id="Layer_1" enable-background="new 0 0 510.029 510.029" height="512" viewBox="0 0 510.029 510.029" width="512" xmlns="http://www.w3.org/2000/svg"><g id="XMLID_205_"><path id="XMLID_208_" d="m70.462 430.976c6.747 7.074 13.86 13.725 21.523 20.104l163.038-74.391 10-151.674-10-225c-37.554 0-73.211 8.118-105.314 22.694z" fill="#4d88ff"/><path id="XMLID_211_" d="m255.024.015v376.674l190.172 48.211c37.206-41.62 60.951-95.528 64.394-154.884z" fill="#005edf"/><path id="XMLID_214_" d="m279.9 96.724c9.384 4.691 17.448 8.724 26.832 13.416 5.114 2.557 8.292 7.697 8.292 13.416v11.459c0 41.354 33.644 75 75 75 8.271 0 15 6.729 15 15 0 24.812 20.186 45 45 45h59.566c8.537-147.105-108.36-270-254.566-270v56.459c0 8.577 2.383 16.722 6.684 23.681 4.301 6.958 10.52 12.733 18.192 16.569z" fill="#34cc15"/><path id="XMLID_217_" d="m20.917 153.779c-39.89 92.091-22.377 201.785 49.544 277.196l89.992-90.177c33.922-31.738 50.963-82.602 37.647-135.866-8.344-33.378-28.307-55.39-33.994-61.457z" fill="#8ae65c"/><path id="XMLID_220_" d="m242.88 371.658c-18.322-18.323-48.124-18.405-66.546-.167-10.206 9.63-74.076 69.895-84.349 79.588 45.808 38.134 103.085 58.935 163.038 58.935l10-66.663-10-66.663c-4.587 0-8.899-1.787-12.143-5.03z" fill="#8ae65c"/><path id="XMLID_223_" d="m445.184 424.889c-31.457-32.016-25.759-26.216-52.303-53.23-34.657-34.659-91.054-34.661-125.713 0-3.244 3.243-7.556 5.03-12.144 5.03v133.326c37.119 0 72.383-7.934 104.192-22.196 32.957-14.778 62.206-36.349 85.968-62.93z" fill="#34cc15"/><g id="XMLID_224_"><path id="XMLID_225_" d="m75.024 105.015v-30h15l10-36.333-10-38.667c-49.626 0-90 40.374-90 90 0 20.136 12.929 52.211 39.525 98.06 18.831 32.461 37.354 59.338 38.133 60.466l12.342 17.867 10-81.727-10-79.666z" fill="#ff4b87"/><path id="XMLID_228_" d="m90.024.015v75h15v30h-15v161.393l12.342-17.867c.779-1.128 19.303-28.005 38.133-60.466 26.596-45.849 39.525-77.924 39.525-98.06 0-49.626-40.374-90-90-90z" fill="#e62e6b"/></g></g></svg>