<svg id="Layer_1" enable-background="new 0 0 512 512" height="512" viewBox="0 0 512 512" width="512" xmlns="http://www.w3.org/2000/svg"><g><g id="XMLID_189_"><path id="XMLID_2784_" d="m149.637 283.777c-.823-6.288-.323-12.15 1.487-17.553 1.822-5.437 4.971-10.406 9.435-14.87l-56.105-85.726-74.85-45.229c-16.192 16.193-25.837 37.587-28.699 62.768-2.372 20.866-.088 44.331 6.984 69.59 7.726 27.595 20.773 55.835 38.235 83.269 15.809 24.834 35.236 49.007 57.611 71.439l49.402-24.513 25.201-49.944c-7.464-7.505-13.572-15.041-18.231-22.449-5.803-9.231-9.354-18.261-10.47-26.782z" fill="#ffdf40"/><path id="XMLID_2782_" d="m261.03 351.826c-4.461 4.46-9.455 7.593-14.943 9.38-5.401 1.76-11.282 2.217-17.604 1.359-8.64-1.171-17.783-4.798-27.115-10.695-7.503-4.742-15.127-10.951-22.708-18.531-.055-.055-.108-.109-.162-.165-.053-.055-.105-.11-.161-.166l-37.301 37.228-37.301 37.229c.066.066.133.135.199.201.066.067.132.135.199.201 22.472 22.474 46.702 41.984 71.6 57.858 27.509 17.539 55.834 30.637 83.509 38.386 9.023 2.528 17.817 4.442 26.345 5.752 9.286 1.427 18.258 2.137 26.869 2.137 15.475 0 29.78-2.293 42.639-6.834 14.003-4.944 26.29-12.554 36.506-22.771l-49.245-74.931z" fill="#ffbe40"/><g fill="#66b3ff"><path id="XMLID_10_" d="m170.097 64.64-34.245 34.243-.28 21.574 21.574-.279 34.245-34.245z"/><path id="XMLID_12_" d="m200.211 34.526 34.524-34.526h36.351v30.114h-23.878l-25.703 25.704z"/><path id="XMLID_2_" d="m331.314 30.114h-30.114v-30.114h30.114z"/><path id="XMLID_1_" d="m361.428 0h30.114v30.114h-30.114z"/><path id="XMLID_3_" d="m421.657 0h30.114v30.114h-30.114z"/><path id="XMLID_5_" d="m511.999 30.114h-30.114v-30.114h30.114z"/><path id="XMLID_7_" d="m511.999 240.913v36.351l-34.524 34.525-21.294-21.293 25.703-25.705v-23.878z"/><path id="XMLID_8_" d="m426.067 320.61-34.245 34.244-.28 21.573 21.574-.279 34.245-34.245z"/></g><path id="XMLID_6_" d="m423.042 449.951c8.806-8.804 13.21-20.372 13.21-31.939-.002-11.567-4.406-23.134-13.212-31.941l-66.689-66.689c-8.805-8.805-20.373-13.209-31.94-13.209s-23.135 4.404-31.94 13.209l-31.941 31.941 65.285 65.284 65.285 65.284z" fill="#ff9f40"/><path id="XMLID_13_" d="m191.998 218.911c8.806-8.806 13.209-20.373 13.209-31.94-.001-11.567-4.404-23.136-13.209-31.941l-33.536-33.536-33.537-33.537c-8.806-8.805-20.373-13.208-31.941-13.208s-23.135 4.403-31.941 13.209l-31.941 31.94 65.477 65.478 65.478 65.475z" fill="#ffbe40"/><g fill="#4d5e80"><path id="XMLID_9_" d="m331.314 195.742h-45.171v-30.114h45.171v-45.171-45.172h-75.285v30.115h45.171v30.114h-45.171v90.342h75.285z"/><path id="XMLID_4_" d="m361.428 165.628v-90.343h30.114v60.228h30.114v-60.228h30.114v150.571h-30.114v-60.228z"/></g></g><g id="XMLID_188_"><path id="XMLID_2790_" d="m481.856 60.258h30.114v30.112h-30.114z" fill="#66b3ff"/></g><g id="XMLID_185_"><path id="XMLID_2789_" d="m481.856 120.486h30.114v30.114h-30.114z" fill="#66b3ff"/></g><g id="XMLID_182_"><path id="XMLID_2787_" d="m481.856 180.714h30.114v30.114h-30.114z" fill="#66b3ff"/></g></g></svg>