<svg id="Layer_1" enable-background="new 0 0 509.805 509.805" height="512" viewBox="0 0 509.805 509.805" width="512" xmlns="http://www.w3.org/2000/svg"><g id="XMLID_161_"><path id="XMLID_164_" d="m43.761 436 16.84-30.195-26.202-14.611-33.074 59.306 33.074 59.305 26.202-14.611-16.282-29.194h135.681l10-15-10-15z" fill="#8ae65c"/><path id="XMLID_165_" d="m465.001 317.238v-273.477l30.193 16.839 14.611-26.201-59.304-33.075-59.307 33.075 14.611 26.201 29.196-16.281v272.362l-29.196-16.282-14.611 26.201 59.307 33.075 59.304-33.075-14.611-26.201z" fill="#34cc15"/><path id="XMLID_168_" d="m326.601 391.194-26.202 14.611 16.84 30.195h-137.239v30h136.681l-16.282 29.194 26.202 14.611 33.074-59.305z" fill="#34cc15"/><g id="XMLID_169_"><path id="XMLID_170_" d="m180 360h-180v-360h120l60 120 10 100z" fill="#ffdf40"/><path id="XMLID_172_" d="m360.001 360h-180.001v-240l60-120h120v360z" fill="#ffbe40"/><path id="XMLID_174_" d="m180 120h-60v-120h60l10 60z" fill="#ffbe40"/><path id="XMLID_176_" d="m300.001 300h-120.001v-90h120v90z" fill="#d8e2f0"/><path id="XMLID_178_" d="m59.903 269.903h90v30h-90z" fill="#4d5e80"/><path id="XMLID_179_" d="m59.903 209.903h90v30h-90z" fill="#4d5e80"/><path id="XMLID_180_" d="m240 120h-60v-120h60z" fill="#ff9f40"/></g></g></svg>