<svg id="Layer_1" enable-background="new 0 0 508.35 508.35" height="512" viewBox="0 0 508.35 508.35" width="512" xmlns="http://www.w3.org/2000/svg"><g id="XMLID_104_"><g fill="#8ae65c"><path id="XMLID_107_" d="m104.175 239.175h-61.46l16.56-29.694-26.201-14.613-33.074 59.307 33.074 59.305 26.201-14.611-16.56-29.694h61.46l10-15z"/><path id="XMLID_110_" d="m125.386 104.173-65.129-65.129 32.707-9.287-8.195-28.859-65.323 18.548-18.549 65.323 28.86 8.195 9.287-32.707 65.129 65.129 14.377-5.586z"/><path id="XMLID_113_" d="m118.144 388.144-13.969-5.182-65.131 65.131-9.287-32.707-28.86 8.195 18.549 65.322 65.323 18.549 8.195-28.859-32.707-9.287 65.131-65.131z"/></g><path id="XMLID_116_" d="m449.074 209.481c5.791 10.384 10.77 19.31 16.561 29.693-21.262 0-39.378 0-61.46 0l-15 15 15 15h61.46c-5.791 10.384-10.77 19.311-16.561 29.694 9.164 5.11 17.037 9.501 26.201 14.611 4.015-7.199 29.043-52.077 33.074-59.306-8.987-16.116-27.819-49.884-33.074-59.307-9.163 5.114-17.037 9.504-26.201 14.615z" fill="#34cc15"/><path id="XMLID_120_" d="m423.581.898c-2.866 10.094-5.329 18.767-8.195 28.859 11.439 3.248 21.269 6.039 32.707 9.287-6.177 6.176-58.343 58.343-65.131 65.131l6.213 15 15 6.213c6.775-6.775 58.974-58.975 65.131-65.131 3.248 11.438 6.039 21.27 9.287 32.707 10.093-2.866 18.767-5.329 28.859-8.195-5.042-17.755-15.603-54.947-18.549-65.322-10.262-2.916-55.071-15.638-65.322-18.549z" fill="#34cc15"/><path id="XMLID_123_" d="m469.306 448.093c-8.096-8.096-58.861-58.861-65.131-65.131l-15 6.213-6.213 15 65.131 65.131c-11.439 3.248-21.269 6.039-32.707 9.287 2.866 10.093 5.329 18.767 8.195 28.859 7.959-2.26 57.368-16.29 65.322-18.549 5.041-17.751 15.602-54.944 18.549-65.322-10.093-2.866-18.767-5.329-28.859-8.195-3.248 11.437-6.039 21.269-9.287 32.707z" fill="#34cc15"/><path id="XMLID_126_" d="m194.868 33.074c5.111 9.163 9.502 17.038 14.613 26.201 10.384-5.791 19.31-10.77 29.693-16.561v61.46l7.5 15 7.5-15 10-44.588-9.999-59.586c-7.227 4.03-52.085 29.047-59.307 33.074z" fill="#8ae65c"/><path id="XMLID_129_" d="m269.175 42.715c10.385 5.792 19.31 10.769 29.694 16.561 5.11-9.163 9.501-17.038 14.611-26.201-7.199-4.015-52.077-29.044-59.305-33.075v104.175l7.5 11 7.5-11c0-22.054 0-40.143 0-61.46z" fill="#34cc15"/><path id="XMLID_132_" d="m239.175 404.175v61.46c-10.384-5.791-19.311-10.77-29.693-16.561-5.111 9.163-9.502 17.038-14.613 26.201 7.227 4.03 52.085 29.047 59.307 33.074l10-59.587-10-44.588-7.5-7.25z" fill="#8ae65c"/><path id="XMLID_135_" d="m298.869 449.074c-10.386 5.792-19.309 10.769-29.694 16.561 0-21.261 0-39.378 0-61.46l-7.833-7.25-7.167 7.25v104.175c7.199-4.015 52.078-29.043 59.306-33.074-5.111-9.164-9.502-17.039-14.612-26.202z" fill="#34cc15"/><path id="XMLID_138_" d="m104.175 104.175v300h150l10-110-10-85-60-105z" fill="#ffdf40"/><path id="XMLID_141_" d="m404.175 104.175h-90l-60 105v195h150z" fill="#ffbe40"/><path id="XMLID_145_" d="m254.175 254.175h90v90h-90z" fill="#d8e2f0"/><path id="XMLID_150_" d="m194.175 104.175v105h60l10-52.5-10-52.5z" fill="#ffbe40"/><path id="XMLID_154_" d="m254.175 104.175h60v105h-60z" fill="#ff9f40"/><path id="XMLID_157_" d="m164.175 314.175h60v30h-60z" fill="#4d5e80"/><path id="XMLID_160_" d="m164.175 254.175h60v30h-60z" fill="#4d5e80"/></g></svg>