<svg id="Layer_1" enable-background="new 0 0 510 510" height="512" viewBox="0 0 510 510" width="512" xmlns="http://www.w3.org/2000/svg"><g id="XMLID_3_"><path id="XMLID_7_" d="m104.712 225.5v284.5h150l10-112-10-112z" fill="#ffdf40"/><path id="XMLID_10_" d="m404.712 225.5-150 60.5v224h150z" fill="#ffbe40"/><path id="XMLID_30_" d="m104.713 225.503-74.675-74.761 21.049-21.099 65.793 65.601 1.894 18.881z" fill="#ff9f40"/><path id="XMLID_35_" d="m389.774 215.062 14.937 10.44 75.251-75.19-21.234-21.253-66.186 66.186z" fill="#ff8940"/><path id="XMLID_39_" d="m254.712 360h104.5v90h-104.5z" fill="#d8e2f0"/><path id="XMLID_40_" d="m149.212 361h75v30h-75z" fill="#4d5e80"/><path id="XMLID_41_" d="m149.212 421h75v30h-75z" fill="#4d5e80"/><path id="XMLID_44_" d="m140.712 136-36 89.5 75 10 75-10 10-44.75-10-44.75z" fill="#ffbe40"/><path id="XMLID_47_" d="m368.712 136h-114v89.5l75 10 75-10z" fill="#ff9f40"/><g id="XMLID_48_"><path id="XMLID_54_" d="m239.354 0v60.773l-30.363-17.327-14.652 26.108 60.373 34.182 10-58.736-10-45z" fill="#4d5e80"/><path id="XMLID_57_" d="m300.214 43.446c-10.792 6.06-20.069 11.268-30.86 17.327 0-43.717 0-17.056 0-60.773h-14.642v103.736l60.373-34.183c-1.079-1.895 4.471 7.848-14.871-26.107z" fill="#3d4566"/></g><path id="XMLID_100_" d="m104.712 225.5 60 60.5h90l10-30.25-10-30.25z" fill="#ff9f40"/><path id="XMLID_103_" d="m404.712 225.5h-150v60.5h90z" fill="#ff8940"/></g></svg>