<svg id="Capa_1" enable-background="new 0 0 512 512" height="512" viewBox="0 0 512 512" width="512" xmlns="http://www.w3.org/2000/svg"><g><circle cx="256" cy="256" fill="#fcf7e2" r="256"/><path d="m256 0v512c141.483 0 256-114.498 256-256 0-141.486-114.501-256-256-256z" fill="#fbf599"/><path d="m256 186v-30h-31.898c-1.42-5.497-3.611-10.683-6.435-15.454l22.579-22.58-21.213-21.213-22.579 22.58c-4.771-2.823-9.958-5.015-15.454-6.435v-31.898h-30v31.898c-5.496 1.42-10.683 3.612-15.454 6.435l-9.465-9.465v-.001l-42.808-42.807c-7.196 6.592-13.951 13.447-20.931 21.496 4.459 4.459 45.586 45.586 51.99 51.991-2.823 4.771-5.015 9.957-6.435 15.454h-31.897v30h31.898c1.42 5.497 3.611 10.683 6.435 15.454l-22.579 22.58 21.213 21.213 22.579-22.58c4.771 2.823 9.958 5.015 15.454 6.435v31.897h30v-31.898c5.496-1.42 10.683-3.612 15.454-6.435l22.579 22.58 21.213-21.213-22.579-22.58c2.823-4.771 5.015-9.957 6.435-15.454zm-90 15c-16.542 0-30-13.458-30-30s13.458-30 30-30 30 13.458 30 30-13.458 30-30 30z" fill="#ff5c5c"/><path d="m341 261c20.05 0 37.072-13.183 42.872-31.333h34.795v-30h-35.749c-6.553-16.759-22.865-28.667-41.918-28.667-24.814 0-45 20.187-45 45s20.186 45 45 45zm0-60c8.272 0 15 6.729 15 15s-6.728 15-15 15-15-6.729-15-15 6.728-15 15-15z" fill="#62a872"/><path d="m376.523 306c-19.555 0-36.228 12.542-42.42 30h-63.103v30h63.103c6.192 17.458 22.865 30 42.42 30 24.814 0 45-20.187 45-45s-20.186-45-45-45zm0 60c-8.271 0-15-6.729-15-15s6.729-15 15-15 15 6.729 15 15-6.728 15-15 15z" fill="#457899"/><path d="m188.5 331c-28.948 0-52.5 23.551-52.5 52.5s23.552 52.5 52.5 52.5 52.5-23.551 52.5-52.5-23.552-52.5-52.5-52.5zm0 75c-12.406 0-22.5-10.093-22.5-22.5s10.094-22.5 22.5-22.5 22.5 10.093 22.5 22.5-10.094 22.5-22.5 22.5z" fill="#b6dc45"/><path d="m91 286h30v30h-30z" fill="#73ca7a"/><path d="m301 91h30v30h-30z" fill="#ff3838"/></g></svg>