<svg id="Capa_1" enable-background="new 0 0 512.032 512.032" height="512" viewBox="0 0 512.032 512.032" width="512" xmlns="http://www.w3.org/2000/svg"><g><path d="m452.011 512.032h-287v-107h30v77h227v-306h30z" fill="#e4f3ff"/><path d="m.011 30.032h195v390h-195z" fill="#e4f3ff"/><path d="m162.011 30.032c-47.972 0-87 39.028-87 87v216c0 47.972 39.028 87 87 87h123c0-10.888 0-363.02 0-390h-123z" fill="#5ca2fa"/><path d="m165.011 30.032v390h120c0-8.411 0-375.939 0-390h-120z" fill="#3d6def"/><circle cx="285.011" cy="250.032" fill="#f4d853" r="90"/><path d="m285.011 160.032v180c49.626 0 90-40.374 90-90s-40.374-90-90-90z" fill="#e9a734"/><circle cx="285.011" cy="250.032" fill="#fcf7e2" r="60"/><path d="m285.011 190.032v120c33.084 0 60-26.916 60-60s-26.916-60-60-60z" fill="#f4d853"/><path d="m270.011 220.032h30v60h-30z" fill="#ff5c5c"/><path d="m285.011 220.032h15v60h-15z" fill="#ff3838"/><path d="m491.568 30.373c-29.281-40.262-79.491-40.732-109.114 0-27.26 37.481-27.281 96.808 0 134.317 29.281 40.262 79.491 40.732 109.114 0 13.183-18.126 20.443-41.977 20.443-67.159s-7.26-49.032-20.443-67.158z" fill="#ff5c5c"/><path d="m491.568 30.373c-14.229-19.566-33.605-30.341-54.557-30.341v195c20.952 0 40.328-10.775 54.557-30.341 27.26-37.482 27.281-96.808 0-134.318z" fill="#ff3838"/></g></svg>