<svg id="Capa_1" enable-background="new 0 0 512 512" height="512" viewBox="0 0 512 512" width="512" xmlns="http://www.w3.org/2000/svg"><g><path d="m490.5 337.221c0-7.532 0-195.244 0-202.221 0-74.439-60.56-135-135-135s-135 60.561-135 135v202.221z" fill="#5ca2fa"/><path d="m490.5 337.221c0-7.532 0-195.244 0-202.221 0-74.439-60.56-135-135-135v337.221z" fill="#3d6def"/><path d="m220.5 377c0 74.44 60.56 135 135 135s135-60.56 135-135v-121h-270z" fill="#e4f3ff"/><path d="m355.5 256v256c74.44 0 135-60.56 135-135v-121z" fill="#c3dafd"/><path d="m390.5 135h30v121h-30z" fill="#5ca2fa"/><path d="m291.5 135c0-74.439-60.561-135-135-135s-135 60.561-135 135v121 121h270c0-6.828 0-235.176 0-242z" fill="#e4f3ff"/><path d="m291.5 377c0-6.828 0-235.176 0-242 0-74.439-60.561-135-135-135v377z" fill="#c3dafd"/><path d="m21.5 377c0 74.44 60.561 135 135 135s135-60.56 135-135v-121h-270z" fill="#ff5c5c"/><path d="m156.5 256v256c74.439 0 135-60.56 135-135v-121z" fill="#ff3838"/><path d="m91.5 256h30v121h-30z" fill="#ff5c5c"/></g></svg>