<svg id="Capa_1" enable-background="new 0 0 459.356 459.356" height="512" viewBox="0 0 459.356 459.356" width="512" xmlns="http://www.w3.org/2000/svg"><g><path d="m187.251 107.471-84.853-84.853c-23.448-23.446-61.402-23.452-84.853 0-23.394 23.395-23.394 61.46.001 84.854l84.852 84.852 62.542-20.116z" fill="#ff3838"/><path d="m95.431 145.504h120v30h-120z" fill="#ff5c5c" transform="matrix(.707 -.707 .707 .707 -67.969 156.917)"/><path d="m356.957 192.324 84.853-84.853c23.394-23.394 23.394-61.459-.001-84.854-23.447-23.447-61.4-23.451-84.852.001l-84.853 84.853 21.126 63.552z" fill="#3d6def"/><path d="m288.925 100.505h30v120h-30z" fill="#c3dafd" transform="matrix(.707 -.707 .707 .707 -24.476 261.918)"/><g fill="#f4d853"><path d="m214.678 244.324h30v30h-30z"/><path d="m154.678 304.324h30v30h-30z"/><path d="m94.678 364.324h30v30h-30z"/><path d="m214.678 364.324h30v30h-30z"/><path d="m34.678 424.324h30v30h-30z"/><path d="m394.678 424.324h30v30h-30z"/><path d="m334.678 364.324h30v30h-30z"/><path d="m274.678 304.324h30v30h-30z"/><path d="m154.678 424.324h30v30h-30z"/><path d="m274.678 424.324h30v30h-30z"/></g></g></svg>