<svg id="Capa_1" enable-background="new 0 0 510.417 510.417" height="512" viewBox="0 0 510.417 510.417" width="512" xmlns="http://www.w3.org/2000/svg"><g><path d="m405.417 307.364v-177.155h105v135.155zm30-147.155v102.845l45-18v-84.845z" fill="#a1b8d8"/><path d="m326.417 400.209h-99c-38.151 0-60.976-19.113-63.939-20.532l-.39-1.408c-28.077-20.706-44.671-52.842-44.671-87.06v-251h317v251c0 34.217-16.594 66.353-44.671 87.06l-.39 1.408-4.79 3.1c-17.622 11.404-38.076 17.432-59.149 17.432z" fill="#e4f3ff"/><path d="m276.917 40.209v360h49.5c38.151 0 60.976-19.113 63.939-20.532l.39-1.408c28.077-20.706 44.671-52.842 44.671-87.06v-251z" fill="#c3dafd"/><path d="m118.417 100.209h317v30h-317z" fill="#5ca2fa"/><path d="m276.917 100.209h158.5v30h-158.5z" fill="#3d6def"/><path d="m166.959 385.209c-106.775-.002-179.131-80.805-165.257-187.573l2.158-18.866c7.742-.85 21.238-3.404 40.423-3.404 107.48 0 179.247 81.21 165.423 187.552l-2.169 18.838-11.609 1.524c-16.404 2.153-29.072 1.932-28.969 1.929z" fill="#b6dc45"/><path d="m15.499 177.259-11.639 1.511 203.677 202.986 2.169-18.838c15.196-116.896-72.592-201.435-194.207-185.659z" fill="#73ca7a"/><path d="m204.669 357.93.02-.018-89.713-89.577-21.197 21.23c10.812 10.801 84.332 84.237 94.678 94.571 5.869-.576 8.947-1.076 19.081-2.38l2.165-18.801z" fill="#73ca7a"/><path d="m204.689 357.912-89.713-89.577-10.603 10.619 103.164 102.802 2.165-18.801-5.033-5.025z" fill="#62a872"/><path d="m390.417 470.209h-227c-29.257 0-54.217-6.581-72.184-19.031-21.469-14.878-32.816-37.69-32.816-65.969v-15h437v15c0 28.279-11.348 51.091-32.816 65.969-17.966 12.449-42.927 19.031-72.184 19.031z" fill="#c3dafd"/><path d="m276.917 370.209v100h113.5c29.257 0 54.218-6.581 72.184-19.031 21.469-14.878 32.816-37.69 32.816-65.969v-15z" fill="#a1b8d8"/></g></svg>