<svg id="Capa_1" enable-background="new 0 0 512 512" height="512" viewBox="0 0 512 512" width="512" xmlns="http://www.w3.org/2000/svg"><g><path d="m256 512h-240.68l57.987-76.673c-45.687-46.458-73.307-110.007-73.307-179.327 0-141.484 114.496-256 256-256 141.483 0 256 114.495 256 256 0 141.481-114.495 256-256 256z" fill="#5ca2fa"/><path d="m256 0v512c141.482 0 256-114.496 256-256 0-141.483-114.495-256-256-256z" fill="#3d6def"/><path d="m301 361h-90v-60h-59.999v-90.001h59.999v-59.999h90v59.999h60v90.001h-60z" fill="#e4f3ff"/><path d="m241 331h30v-60h60v-30.001h-60v-59.999h-30v59.999h-59.999v30.001h59.999z" fill="#ff5c5c"/><path d="m301 210.999v-59.999h-45v210h45v-60h60v-90.001z" fill="#c3dafd"/><path d="m271 331v-60h60v-30.001h-60v-59.999h-15v150z" fill="#ff3838"/></g></svg>