<svg id="Capa_1" enable-background="new 0 0 512 512" height="512" viewBox="0 0 512 512" width="512" xmlns="http://www.w3.org/2000/svg"><g><path d="m451 512h-390v-512h270l37.17 55.957 82.83 64.043z" fill="#e4f3ff"/><path d="m451 120-92.83-54.043-27.17-65.957h-75v512h195z" fill="#c3dafd"/><path d="m181 315h195v30h-195z" fill="#457899"/><path d="m256 315h120v30h-120z" fill="#365c75"/><path d="m181 405h105v30h-105z" fill="#457899"/><path d="m256 405h30v30h-30z" fill="#365c75"/><path d="m251.606 183.106-21.213-21.213-23.144 23.143-35.036-35.036h38.787v-90h-90v150h30v-38.787l35.037 35.037-23.143 23.144 21.213 21.213 23.144-23.143 23.144 23.143 21.213-21.213-23.143-23.144zm-100.606-93.106h30v30h-30z" fill="#ff5c5c"/><path d="m121 315h30v30h-30z" fill="#457899"/><path d="m121 405h30v30h-30z" fill="#457899"/><path d="m451 120h-120v-120" fill="#a1b8d8"/></g></svg>