<svg id="Capa_1" enable-background="new 0 0 512 512" height="512" viewBox="0 0 512 512" width="512" xmlns="http://www.w3.org/2000/svg"><g><path d="m168.468 407h175.064v105h-175.064z" fill="#e9a734"/><path d="m256 407h87.532v105h-87.532z" fill="#e38620"/><path d="m343.532 437h-175.064l-62.737-347.142 17.972-89.858h264.594l17.972 89.858z" fill="#fcf7e2"/><path d="m406.269 89.858-17.972-89.858h-132.297v437h87.532z" fill="#f4d853"/><path d="m105.731 89.858 2.737 15.142h295.064l2.737-15.142-2.972-14.858h-294.594z" fill="#f4d853"/><path d="m403.297 75h-147.297v30h147.532l2.736-15.142z" fill="#e9a734"/><path d="m256 315c-33.645 0-60-39.533-60-90s26.355-90 60-90 60 39.533 60 90-26.355 90-60 90zm0-150c-14.162 0-30 25.66-30 60s15.838 60 30 60 30-25.66 30-60-15.838-60-30-60z" fill="#e9a734"/><path d="m256 135v30c14.162 0 30 25.66 30 60s-15.838 60-30 60v30c33.645 0 60-39.533 60-90s-26.355-90-60-90z" fill="#e38620"/><path d="m360.159 345h-208.318l5.422 30h197.474z" fill="#f4d853"/><path d="m256 345v30h98.737l5.422-30z" fill="#e9a734"/></g></svg>