<svg id="Capa_1" enable-background="new 0 0 512 512" height="512" viewBox="0 0 512 512" width="512" xmlns="http://www.w3.org/2000/svg"><g><path d="m256 219.766c1.777-1.974 63.997-32.505 59.398-102.858-3.949-60.373-55.15-95.966-59.398-100.521-4.248 4.555-55.449 40.148-59.398 100.521-4.599 70.353 57.621 100.884 59.398 102.858z" fill="#73ca7a"/><path d="m315.398 116.908c-3.949-60.373-55.15-95.966-59.398-100.521v203.379c1.777-1.974 63.997-32.505 59.398-102.858z" fill="#62a872"/><path d="m399.5 495.613h-287c-62.032 0-112.5-50.467-112.5-112.5s50.468-112.5 112.5-112.5h287c62.032 0 112.5 50.467 112.5 112.5s-50.468 112.5-112.5 112.5z" fill="#e4f3ff"/><path d="m112.5 495.613h287c62.032 0 112.5-50.467 112.5-112.5h-512c0 62.033 50.468 112.5 112.5 112.5z" fill="#c3dafd"/><path d="m399.5 270.613h-143.5v225h143.5c62.032 0 112.5-50.467 112.5-112.5s-50.468-112.5-112.5-112.5z" fill="#ff5c5c"/><path d="m256 495.613h143.5c62.032 0 112.5-50.467 112.5-112.5h-256z" fill="#ff3838"/><path d="m256 405.613h105v30h-105z" fill="#ff5c5c"/><path d="m390.998 147.238h-67.498c-39.61 0-67.501 27.891-67.501 67.499l.001 16.876h67.498c39.609 0 67.5-27.892 67.501-67.499z" fill="#73ca7a"/><path d="m121 147.238h67.498c39.61 0 67.501 27.891 67.501 67.499l-.001 16.875h-67.498c-39.609 0-67.5-27.892-67.501-67.499z" fill="#b6dc45"/></g></svg>