<svg id="Capa_1" enable-background="new 0 0 512 512" height="512" viewBox="0 0 512 512" width="512" xmlns="http://www.w3.org/2000/svg"><g><path d="m196 390.41h120v59.18h-120z" fill="#c3dafd"/><path d="m255.666 390.41h60.334v59.18h-60.334z" fill="#a1b8d8"/><path d="m406 405h-300v-360h91.898c6.678-25.85 30.195-45 58.102-45s51.424 19.15 58.102 45h91.898z" fill="#e4f3ff"/><path d="m406 45h-91.898c-6.581-25.474-29.69-44.993-58.436-44.993v404.993h150.334z" fill="#c3dafd"/><path d="m136 375h240v-300h-90v-15c0-16.542-13.458-30-30-30s-30 13.458-30 30v15h-90z" fill="#ff5c5c"/><path d="m286 75v-15c0-16.542-13.458-30-30-30v345h120v-300z" fill="#ff3838"/><path d="m241 450h30v62h-30z" fill="#c3dafd"/><path d="m255.666 450h15.334v62h-15.334z" fill="#a1b8d8"/><path d="m181 435h150v30h-150z" fill="#e4f3ff"/><path d="m255.666 435h75.334v30h-75.334z" fill="#c3dafd"/><path d="m166 105h180v240h-180z" fill="#ff8b8b"/><path d="m255.666 105h90.334v240h-90.334z" fill="#ff5c5c"/><path d="m226 180h60v30h-60z" fill="#fcf7e2"/><path d="m226 240h60v30h-60z" fill="#fcf7e2"/><g fill="#f4d853"><path d="m255.666 180h30.334v30h-30.334z"/><path d="m255.666 240h30.334v30h-30.334z"/></g></g></svg>