<svg id="Capa_1" enable-background="new 0 0 512 512" height="512" viewBox="0 0 512 512" width="512" xmlns="http://www.w3.org/2000/svg"><g><path d="m0 38.5h512v435h-512z" fill="#e4f3ff"/><path d="m256 38.5h256v435h-256z" fill="#c3dafd"/><path d="m60 353.5h392v-255h-392z" fill="#5ca2fa"/><path d="m256 353.5h196v-255h-196z" fill="#3d6def"/><path d="m211 292.654-45.668-76.111-21.304 31.957h-84.028v-30h67.972l38.695-58.043 44.333 73.889 44.332-73.889 38.696 58.043h157.972v30h-174.028l-21.305-31.957z" fill="#fbf599"/><path d="m294.028 218.5-38.028-57.042v56.197l.667-1.112 21.305 31.957h174.028v-30z" fill="#f4d853"/><path d="m302 383.5h60v30h-60z" fill="#457899"/><path d="m120 383.5h30v30h-30z" fill="#5ca2fa"/><path d="m392 383.5h60v30h-60z" fill="#457899"/><path d="m60 383.5h30v30h-30z" fill="#ff5c5c"/><path d="m180 383.5h30v30h-30z" fill="#b6dc45"/></g></svg>