<svg id="Capa_1" enable-background="new 0 0 512 512" height="512" viewBox="0 0 512 512" width="512" xmlns="http://www.w3.org/2000/svg"><g><path d="m481.99 118.994h30.009v105.032h-30.009z" fill="#ff3838"/><path d="m433.275 260.001h30.009v60.018l-30.009.001z" fill="#ff3838"/><g><g><path d="m382.497 105.953 103.588-103.587 21.217 21.216-103.588 103.587z" fill="#e4f3ff"/><path d="m393.116 116.577 103.587-103.587 10.61 10.609-103.587 103.588z" fill="#c3dafd"/><path d="m308.231 137.778 63.649-63.649 63.65 63.649-63.649 63.65z" fill="#c3dafd"/><path d="m340.055 169.604 63.649-63.649 31.826 31.826-63.649 63.649z" fill="#a1b8d8"/><path d="m67.788 335.755 240.423-240.423 106.081 106.081-240.423 240.423z" fill="#e4f3ff"/><path d="m120.825 388.8 240.424-240.424 53.041 53.041-240.424 240.423z" fill="#c3dafd"/><g><path d="m380.094 235.68-177.004-35.188-128.206 128.208 106.099 106.095z" fill="#ff5c5c"/><path d="m127.934 381.747 53.049 53.048 45.979-45.979 5.197-15.722 16.02-5.497 31.829-31.829 4.502-17.245 16.717-3.977 78.866-78.866-88.499-17.593z" fill="#ff3838"/></g><path d="m31.781 456.596 89.023-89.023 21.215 21.217-89.021 89.021z" fill="#c3dafd"/><path d="m42.393 467.2 89.021-89.021 10.609 10.606-89.021 89.022z" fill="#a1b8d8"/><path d="m-.045 445.977 21.216-21.215 63.649 63.648-21.217 21.216z" fill="#e4f3ff"/><path d="m31.781 477.799 21.216-21.215 31.826 31.825-21.216 21.215z" fill="#c3dafd"/><path d="m46.548 314.541 21.216-21.218 148.517 148.516-21.218 21.218z" fill="#e4f3ff"/><path d="m120.807 388.801 21.216-21.217 74.257 74.258-21.216 21.216z" fill="#c3dafd"/><g fill="#ff5c5c"><path d="m184.464 346.377 21.215-21.216 42.431 42.432-21.215 21.215z"/><path d="m237.517 293.305 21.215-21.216 42.432 42.43-21.216 21.217z"/></g></g></g></g></svg>