<svg id="Capa_1" enable-background="new 0 0 512 512" height="512" viewBox="0 0 512 512" width="512" xmlns="http://www.w3.org/2000/svg"><g><g><g><path d="m512 452h-91v-30h61v-302h-46v-30h76z" fill="#c3dafd"/></g></g><path d="m91 452h-91v-362h76v30h-46v302h61z" fill="#c3dafd"/><path d="m61 0h390v315h-390z" fill="#fcf7e2"/><path d="m256 0h195v315h-195z" fill="#fbf599"/><path d="m346 392h90v90h-90z" fill="#457899"/><g><g><path d="m210.94 254.94-47.358-124.183-18.678 34.243h-83.904v-30h66.096l41.321-75.757 42.643 111.817 19.638-51.06h160.302v30h-139.698z" fill="#ff5c5c"/></g></g><path d="m76 392h90v90h-90z" fill="#457899"/><g><g><path d="m361 225h30v30h-30z" fill="#e9a734"/></g></g><g><g><path d="m301 225h30v30h-30z" fill="#e9a734"/></g></g><g><g><path d="m256 119.99h135v30h-135z" fill="#ff3838"/></g></g><g fill="#365c75"><path d="m271 362h95v150h-95z"/><path d="m136 362h105v150h-105z"/></g></g></svg>