<svg id="Capa_1" enable-background="new 0 0 512 512" height="512" viewBox="0 0 512 512" width="512" xmlns="http://www.w3.org/2000/svg"><g><path d="m46 306v175h75.062l-.062-.062 15.001-15 14.999 15-.062.062h210.124l-.062-.062 15-25 15 25-.062.062h75.062v-175z" fill="#c3dafd"/><path d="m256 306v175h105.062l-.062-.062 15-15 15 15-.062.062h75.062v-175z" fill="#a1b8d8"/><path d="m361 321h30v159.938h-30z" fill="#365c75"/><path d="m121 321h30v159.938h-30z" fill="#457899"/><path d="m512 241v-165h-512v165l15 15-15 15v65h512v-65l-25-15z" fill="#e4f3ff"/><path d="m512 241v-165h-256v260h256v-65l-15-15z" fill="#c3dafd"/><path d="m106 31h30v90h-30z" fill="#365c75"/><path d="m376 31h30v90h-30z" fill="#365c75"/><path d="m356 241h156v30h-156z" fill="#ff3838"/><path d="m0 241h156v30h-156z" fill="#ff5c5c"/><path d="m311 201h-40v-40h-30v40h-40v30h40v40h30v-40h40z" fill="#ff5c5c"/><path d="m311 201h-40v-40h-15v110h15v-40h40z" fill="#ff3838"/></g></svg>