<svg id="Capa_1" enable-background="new 0 0 508.427 508.427" height="512" viewBox="0 0 508.427 508.427" width="512" xmlns="http://www.w3.org/2000/svg"><g><path d="m233.001 84.696-84.696-84.695-148.304 148.303 73.996 73.996v.001l286.126 286.125 148.303-148.303z" fill="#fbf599"/><g fill="#f4d853"><path d="m90.942 133.327h29.999v29.955h-29.999z" transform="matrix(.707 -.707 .707 .707 -73.837 118.344)"/><path d="m133.305 90.964h29.999v29.955h-29.999z" transform="matrix(.707 -.707 .707 .707 -31.475 135.893)"/><path d="m345.123 387.508h30v29.955h-30z" transform="matrix(.707 -.707 .707 .707 -179.123 372.532)"/><path d="m387.486 345.145h30v29.955h-30z" transform="matrix(.707 -.707 .707 .707 -136.76 390.078)"/><path d="m-.432 149.347h509.29v209.733h-509.29z" transform="matrix(.707 -.707 .707 .707 -105.299 254.214)"/></g><path d="m36.645 238.856h509.29v104.866h-509.29z" fill="#e9a734" transform="matrix(.707 -.707 .707 .707 -120.656 291.29)"/><path d="m345.145 90.941h29.955v30.001h-29.955z" fill="#fcf7e2" transform="matrix(.707 -.707 .707 .707 30.565 285.674)"/><path d="m302.782 133.304h29.956v30h-29.956z" fill="#fcf7e2" transform="matrix(.707 -.707 .707 .707 -11.796 268.131)"/><path d="m133.327 302.759h29.956v30h-29.956z" fill="#fcf7e2" transform="matrix(.707 -.707 .707 .707 -181.255 197.944)"/><path d="m90.964 345.122h29.955v30h-29.955z" fill="#fcf7e2" transform="matrix(.707 -.707 .707 .707 -223.62 180.397)"/><path d="m179.214 209.213h149.999v90h-149.999z" fill="#fcf7e2" transform="matrix(.707 -.707 .707 .707 -105.299 254.212)"/><path d="m133.327 387.486h29.955v30h-29.955z" fill="#f4d853" transform="matrix(.707 -.707 .707 .707 -241.161 222.747)"/><path d="m175.69 345.122h29.955v30h-29.955z" fill="#f4d853" transform="matrix(.707 -.707 .707 .707 -198.799 240.296)"/><path d="m345.145 175.667h29.955v30h-29.955z" fill="#f4d853" transform="matrix(.707 -.707 .707 .707 -29.346 310.486)"/><path d="m387.508 133.304h29.956v30h-29.956z" fill="#f4d853" transform="matrix(.707 -.707 .707 .707 13.016 328.033)"/><path d="m195.123 247.624h150v45h-150z" fill="#f4d853" transform="matrix(.707 -.707 .707 .707 -111.889 270.122)"/></g></svg>