<svg id="Capa_1" enable-background="new 0 0 512 512" height="512" viewBox="0 0 512 512" width="512" xmlns="http://www.w3.org/2000/svg"><g><path d="m270.166 0-14.583 14.583-14.583-14.583h-180v512h179.599l15-15 15 15h180.401v-512z" fill="#fcf7e2"/><g fill="#f4d853"><path d="m270.166 0-14.567 24.166v462.834l15 25h180v-512z"/><path d="m165.599 151c-16.542 0-30-13.458-30-30s13.458-30 30-30h30c16.542 0 30 13.458 30 30s-13.458 30-30 30z"/><path d="m165.599 286c-16.542 0-30-13.458-30-30s13.458-30 30-30h30c16.542 0 30 13.458 30 30s-13.458 30-30 30z"/><path d="m165.599 421c-16.542 0-30-13.458-30-30s13.458-30 30-30h30c16.542 0 30 13.458 30 30s-13.458 30-30 30z"/></g><path d="m315.599 151c-16.542 0-30-13.458-30-30s13.458-30 30-30h30c16.542 0 30 13.458 30 30s-13.458 30-30 30z" fill="#e9a734"/><path d="m315.599 286c-16.542 0-30-13.458-30-30s13.458-30 30-30h30c16.542 0 30 13.458 30 30s-13.458 30-30 30z" fill="#e9a734"/><path d="m315.599 421c-16.542 0-30-13.458-30-30s13.458-30 30-30h30c16.542 0 30 13.458 30 30s-13.458 30-30 30z" fill="#e9a734"/><path d="m240.599 0h30v61h-30z" fill="#f4d853"/><path d="m240.599 451h30v61h-30z" fill="#f4d853"/><path d="m255.599 0h15v61h-15z" fill="#e9a734"/><path d="m255.599 451h15v61h-15z" fill="#e9a734"/></g></svg>