<svg id="Capa_1" enable-background="new 0 0 512 512" height="512" viewBox="0 0 512 512" width="512" xmlns="http://www.w3.org/2000/svg"><g><path d="m378.459 58.219-21.176-.001-.001-21.176c-28.161-23.338-63.242-36.042-100.281-36.041-87.043 0-157.5 70.44-157.499 157.498 0 37.041 12.705 72.125 36.044 100.289h21.167l-.001 21.167c61.025 50.567 152.961 48.612 211.657-10.086 58.589-58.589 60.772-150.493 10.09-211.65z" fill="#fcf7e2"/><path d="m378.459 58.219-21.176-.001-.001-21.176c-28.161-23.338-63.242-36.042-100.281-36.041h-.001v315.004c40.095.033 80.369-15.133 111.37-46.136 58.588-58.589 60.771-150.493 10.089-211.65z" fill="#fbf599"/><path d="m399.5 510.999h-287c-62.033 0-112.5-50.468-112.5-112.5s50.467-112.5 112.5-112.5h287c62.033 0 112.5 50.468 112.5 112.5s-50.467 112.5-112.5 112.5z" fill="#e4f3ff"/><path d="m399.5 285.999h-142.5v225h142.5c62.033 0 112.5-50.468 112.5-112.5s-50.467-112.5-112.5-112.5z" fill="#ff5c5c"/><path d="m112.5 510.999h287c62.033 0 112.5-50.468 112.5-112.5h-512c0 62.032 50.467 112.5 112.5 112.5z" fill="#c3dafd"/><path d="m257 510.999h142.5c62.033 0 112.5-50.468 112.5-112.5h-255z" fill="#ff3838"/><path d="m257 420.999h104v30h-104z" fill="#ff5c5c"/><path d="m135.525 258.762c6.431 7.763 13.443 14.778 21.213 21.213l221.738-221.738c-6.395-7.723-13.426-14.767-21.213-21.213z" fill="#fbf599"/><path d="m257 179.713 121.476-121.476c-6.395-7.723-13.426-14.767-21.213-21.213l-100.263 100.263z" fill="#f4d853"/></g></svg>