<svg id="Capa_1" enable-background="new 0 0 510 510" height="512" viewBox="0 0 510 510" width="512" xmlns="http://www.w3.org/2000/svg"><g><path d="m387.375 177.25 23.056-12.25-90-75h-130.862l-90 75 18.065 16.78-27.634 13.22v315h330v-315z" fill="#e4f3ff"/><path d="m410.431 165-90-75h-65.431v420h165v-315l-22.625-17.75z" fill="#c3dafd"/><path d="m120 0h270v120h-270z" fill="#457899"/><path d="m255 0h135v120h-135z" fill="#365c75"/><path d="m90 172.975v22.025h330v-22.025l-9.569-7.975h-310.862z" fill="#b6dc45"/><path d="m420 172.975-9.569-7.975h-155.431v30h165z" fill="#73ca7a"/><path d="m300 0h30v60h-30z" fill="#274254"/><path d="m240 0h30v60h-30z" fill="#365c75"/><path d="m255 0h15v60h-15z" fill="#274254"/><path d="m180 0h30v60h-30z" fill="#365c75"/><path d="m310.803 446.888c-100.125-.002-168.038-75.847-155.031-175.962l2.102-18.367c7.848-.865 20.498-3.284 38.596-3.284 100.786 0 168.144 76.224 155.187 175.938l-2.111 18.345-11.61 1.523c-15.131 1.987-27.234 1.81-27.133 1.807z" fill="#b6dc45"/><path d="m255 258.864v179.334c47.072 15.593 89.447 5.383 94.545 5.359l2.111-18.345c10.247-78.855-29.653-142.903-96.656-166.348z" fill="#73ca7a"/><path d="m351.711 424.75c-30.731-30.693-70.514-70.414-75.489-75.384l-21.197 21.228c13.196 13.18 48.326 48.254 75.437 75.332 6.064-.583 9.003-1.075 19.084-2.369 2.065-17.957 2.144-18.639 2.165-18.807z" fill="#62a872"/></g></svg>