<svg id="Capa_1" enable-background="new 0 0 512 512" height="512" viewBox="0 0 512 512" width="512" xmlns="http://www.w3.org/2000/svg"><g><path d="m256 75h45v30h-45z" fill="#a1b8d8"/><path d="m286 45h90v120h-90z" fill="#e4f3ff"/><path d="m331 45h45v120h-45z" fill="#c3dafd"/><path d="m256 135h150v90h-150z" fill="#c3dafd"/><path d="m331 135h75v90h-75z" fill="#a1b8d8"/><path d="m211 195h240v317h-240z" fill="#e4f3ff"/><path d="m331 195h120v317h-120z" fill="#c3dafd"/><path d="m211 420h240v30h-240z" fill="#5ca2fa"/><path d="m331 420h120v30h-120z" fill="#3d6def"/><g fill="#457899"><path d="m181 75h30v30h-30z"/><path d="m121 75h30v30h-30z"/><path d="m61 75h30v30h-30z"/><path d="m121 135h30v30h-30z"/><path d="m61 150h30v30h-30z"/><path d="m121 15h30v30h-30z"/><path d="m61 0h30v30h-30z"/></g><path d="m383.5 307.5h-37.5v-37.5h-30v37.5h-37.5v30h37.5v37.5h30v-37.5h37.5z" fill="#ff5c5c"/><path d="m346 307.5v-37.5h-15v105h15v-37.5h37.5v-30z" fill="#ff3838"/></g></svg>