<svg id="Capa_1" enable-background="new 0 0 512 512" height="512" viewBox="0 0 512 512" width="512" xmlns="http://www.w3.org/2000/svg"><g><path d="m512 376v-150l-18.385-15 18.385-15v-90h-512v90l18.385 15-18.385 15v149.41l18.385 15-18.385 15v60.59h512v-60l-18.385-15z" fill="#e4f3ff"/><path d="m512 376v-150l-28.385-15 28.385-15v-90h-256v360h256v-60l-28.385-15z" fill="#c3dafd"/><path d="m151 46v71h30v-41h150v41h30v-71z" fill="#457899"/><path d="m91 196h30v59.667h-30z" fill="#457899"/><path d="m391 196h30v59.667h-30z" fill="#365c75"/><path d="m0 196h61v30h-61z" fill="#ff5c5c"/><path d="m451 196h61v30h-61z" fill="#ff3838"/><path d="m151 196h210v30h-210z" fill="#ff5c5c"/><path d="m256 196h105v30h-105z" fill="#ff3838"/><path d="m301 286h-30v-30h-30v30h-30v30h30v30h30v-30h30z" fill="#ff5c5c"/><path d="m301 286h-30v-30h-15v90h15v-30h30z" fill="#ff3838"/><path d="m0 376h512v30h-512z" fill="#ff5c5c"/><path d="m256 376h256v30h-256z" fill="#ff3838"/><path d="m256 46v30h75v41h30v-71z" fill="#365c75"/></g></svg>