<svg id="Capa_1" enable-background="new 0 0 512.083 512.083" height="512" viewBox="0 0 512.083 512.083" width="512" xmlns="http://www.w3.org/2000/svg"><g><path d="m106.042 140.083h300v372h-300z" fill="#e4f3ff"/><path d="m256.042 140.083h150v372h-150z" fill="#c3dafd"/><path d="m436.042 170.083h-360v-104.999h75v-65.001h210v65.001h75z" fill="#457899"/><path d="m436.042 65.084h-75v-65h-105v170h180z" fill="#365c75"/><path d="m106.042 216.083h300v220h-300z" fill="#ff5c5c"/><path d="m256.042 216.083h150v220h-150z" fill="#ff3838"/><path d="m271.317 0h30.551v60.083h-30.551z" fill="#274254"/><path d="m210.216 0h30.551v60.083h-30.551z" fill="#365c75"/><path d="m301.042 310.083h-30v-30h-30v30h-30v30h30v30h30v-30h30z" fill="#fbf599"/><path d="m271.042 310.083v-30h-15v90h15v-30h30v-30z" fill="#f4d853"/></g></svg>