<svg id="Capa_1" enable-background="new 0 0 503.227 503.227" height="512" viewBox="0 0 503.227 503.227" width="512" xmlns="http://www.w3.org/2000/svg"><g><path d="m294.04 400.788 84.853 84.853c23.449 23.447 61.402 23.452 84.853 0 23.394-23.395 23.394-61.459-.001-84.854l-84.853-84.852-63.051 20.624z" fill="#ff3838"/><path d="m265.86 332.755h120v30h-120z" fill="#ff5c5c" transform="matrix(.707 -.707 .707 .707 -150.457 332.273)"/><path d="m124.335 315.934-84.853 84.852c-23.394 23.394-23.394 61.459.001 84.854 23.448 23.448 61.4 23.451 84.853 0l84.852-84.853-20.995-63.421z" fill="#3d6def"/><path d="m162.367 287.754h29.999v119.999h-29.999z" fill="#c3dafd" transform="matrix(.707 -.707 .707 .707 -193.95 227.272)"/><path d="m286.007 156.394-19.394 19.393v-64.953c-10.492 0-19.508 0-30 0v94.953l-19.394-19.393-21.213 21.213 40.606 40.606v48.787h30v-78.787l40.606-40.606z" fill="#b6dc45"/><path d="m307.22 177.607-21.213-21.213-19.393 19.394v-64.953h-15v186.165h15v-78.787z" fill="#73ca7a"/><path d="m400.588 0h-74.486c-43.712 0-74.489 41.596-74.489 100.667l.001 25.167h74.486c43.711 0 74.488-41.597 74.489-100.667z" fill="#73ca7a"/><path d="m102.637 0h74.486c43.711 0 74.489 41.596 74.489 100.667l-.001 25.167h-74.486c-43.71 0-74.488-41.597-74.489-100.667z" fill="#b6dc45"/></g></svg>