<svg id="Capa_1" enable-background="new 0 0 512 512" height="512" viewBox="0 0 512 512" width="512" xmlns="http://www.w3.org/2000/svg"><g><path d="m437 331h-31v-150h31c41.355 0 75 33.645 75 75s-33.645 75-75 75zm-11-30h11c24.813 0 45-20.186 45-45s-20.187-45-45-45h-11z" fill="#457899"/><path d="m106 331h-31c-41.355 0-75-33.645-75-75s33.645-75 75-75h31zm-31-120c-24.813 0-45 20.186-45 45s20.187 45 45 45h11v-90z" fill="#457899"/><path d="m256 406c-66.69 0-120.076-15.174-173.101-49.2l-6.899-4.427v-191.539l6.79-4.44c53.295-34.852 106.715-50.394 173.21-50.394s119.915 15.542 173.21 50.394l6.79 4.44v191.539l-6.899 4.427c-53.025 34.026-106.411 49.2-173.101 49.2z" fill="#e4f3ff"/><path d="m429.21 156.394c-53.295-34.852-106.715-50.394-173.21-50.394v300c66.69 0 120.076-15.174 173.101-49.2l6.899-4.427v-191.539z" fill="#c3dafd"/><path d="m181 181h150v30h-150z" fill="#5ca2fa"/><path d="m256 181h75v30h-75z" fill="#3d6def"/><path d="m151 241h210v30h-210z" fill="#5ca2fa"/><path d="m254 241h107v30h-107z" fill="#3d6def"/><path d="m181 301h150v30h-150z" fill="#5ca2fa"/><path d="m256 301h75v30h-75z" fill="#3d6def"/></g></svg>