<svg id="Capa_1" enable-background="new 0 0 511.31 511.31" height="512" viewBox="0 0 511.31 511.31" width="512" xmlns="http://www.w3.org/2000/svg"><g><g><path d="m399.696 77.72h-21.189v-21.187c-89.556-78.643-226.011-75.241-311.49 10.238-85.478 85.478-88.88 221.931-10.241 311.487h21.194v21.193c89.557 78.641 226.01 75.239 311.488-10.239s88.881-221.934 10.238-311.492z" fill="#fcf7e2"/><path d="m378.494 56.52c-14.401 14.401-303.278 303.28-321.727 321.729 6.6 7.525 13.688 14.613 21.213 21.213 12.89-12.89 304.649-304.652 321.727-321.73-6.599-7.527-13.688-14.612-21.213-21.212z" fill="#fbf599"/><path d="m399.696 77.72h-21.189v-21.187c-42.912-37.682-96.591-56.514-150.271-56.52v455.957c58.35.006 116.7-22.236 161.221-66.758 85.479-85.478 88.882-221.934 10.239-311.492z" fill="#fbf599"/><path d="m378.494 56.52c-6.915 6.915-77.105 77.106-150.257 150.259v42.425c79.546-79.547 162.596-162.597 171.47-171.472-6.599-7.527-13.688-14.612-21.213-21.212z" fill="#f4d853"/></g><path d="m509.017 286.986-2.34-20.447-11.638-1.51c-146.483-19.03-250.509 82.818-232.399 222.034l.193 1.673 20.929.001.105 21.113c69.274 7.244 136.502-12.643 181.067-63.403 36.409-41.47 52.062-98.098 44.083-159.461z" fill="#b6dc45"/><path d="m509.017 286.986-2.34-20.447c-7.68 7.656-222.45 221.734-222.916 222.198l.105 21.113c142.317 14.882 242.983-85.728 225.151-222.864z" fill="#73ca7a"/><path d="m376.843 374.794c-4.082 4.076-78.695 78.592-114.019 113.87l2.167 18.812c10.233 1.318 12.656 1.728 19.056 2.392 28.602-28.565 94.974-94.85 113.992-113.844z" fill="#73ca7a"/><path d="m387.432 385.4c-.84.838 11.713-11.679-122.441 122.076 10.233 1.318 12.656 1.728 19.056 2.392 28.602-28.565 94.974-94.85 113.992-113.844z" fill="#62a872"/></g></svg>