<svg id="Capa_1" enable-background="new 0 0 512 512" height="512" viewBox="0 0 512 512" width="512" xmlns="http://www.w3.org/2000/svg"><g><path d="m512 0h-201l-40.028 30.021-14.972 24.952-14.97-24.951-40.03-30.022h-201v241l15 15-15 15v241h201l40-30 15-25 15 25h-.001l40.001 30h201v-241l-15-15 15-15z" fill="#e4f3ff"/><path d="m512 0h-201l-40.104 30.078-14.896 14.895v422.027l15 15h-.001l40.001 30h201v-241l-25-15 25-15z" fill="#c3dafd"/><path d="m136 61c-41.45 0-75 33.544-75 75 0 41.45 33.544 74.999 74.999 74.999 41.45 0 74.999-33.543 74.999-74.999.001-41.45-33.542-75-74.998-75zm19.407 34.38-60.028 60.027c-2.864-5.982-4.379-12.578-4.379-19.407.001-33.211 34.752-54.818 64.407-40.62zm-19.407 85.619c-6.83 0-13.425-1.515-19.407-4.379l60.028-60.027c14.304 29.881-7.628 64.406-40.621 64.406z" fill="#5ca2fa"/><path d="m189.032 322.967c-29.307-29.308-76.752-29.314-106.064 0-29.243 29.243-29.243 76.824 0 106.066 29.307 29.308 76.752 29.314 106.064 0 29.243-29.243 29.243-76.823 0-106.066zm-53.032 8.033c6.829 0 13.424 1.515 19.407 4.378l-60.009 60.01c-14.222-29.856 7.535-64.388 40.602-64.388zm0 90c-6.829 0-13.424-1.515-19.407-4.378l60.009-60.01c14.222 29.856-7.535 64.388-40.602 64.388z" fill="#5ca2fa"/><path d="m429.033 82.968c-29.309-29.31-76.753-29.314-106.066 0-29.242 29.242-29.242 76.822 0 106.064 29.309 29.31 76.753 29.314 106.066 0 29.242-29.242 29.242-76.822 0-106.064zm-53.033 8.033c6.83 0 13.425 1.515 19.408 4.379l-60.01 60.009c-14.223-29.858 7.536-64.388 40.602-64.388zm0 89.998c-6.83 0-13.425-1.515-19.408-4.379l60.01-60.009c14.223 29.858-7.536 64.388-40.602 64.388z" fill="#3d6def"/><path d="m429.033 322.966c-29.31-29.308-76.752-29.313-106.067 0-29.241 29.243-29.241 76.824.001 106.067 29.31 29.308 76.751 29.313 106.067 0 29.241-29.243 29.241-76.823-.001-106.067zm-53.033 8.034c6.83 0 13.425 1.515 19.408 4.379l-60.01 60.01c-14.223-29.858 7.536-64.389 40.602-64.389zm0 90c-6.83 0-13.425-1.515-19.408-4.379l60.01-60.01c14.223 29.858-7.536 64.389-40.602 64.389z" fill="#3d6def"/><path d="m271 241v-211l-15 11.25-15-11.25v211h-241v30h241v211l15-11.25 15 11.25v-211h241v-30z" fill="#c3dafd"/><path d="m271 241v-211l-15 11.25v429.5l15 11.25v-211h241v-30z" fill="#a1b8d8"/></g></svg>