<svg id="Capa_1" enable-background="new 0 0 506.778 506.778" height="512" viewBox="0 0 506.778 506.778" width="512" xmlns="http://www.w3.org/2000/svg"><g><path d="m404.689 506.778h-311.158l-4.286-7.716c-29.717-53.497-46.552-149.778-49.618-216.597l-.72-15.688h420.404l-.72 15.688c-3.065 66.816-19.898 163.096-49.616 216.596z" fill="#f4d853"/><path d="m249.612 266.778v240h155.077l4.287-7.716c29.718-53.5 46.552-149.78 49.616-216.596l.72-15.688z" fill="#e9a734"/><path d="m13.612 221.368h472v75.41h-472z" fill="#e9a734"/><path d="m249.11 221.368h236.502v75.41h-236.502z" fill="#e38620"/><path d="m309.612 371.778h-45v-45h-30v45h-45v30h45v45h30v-45h45z" fill="#fcf7e2"/><path d="m309.612 371.778h-45v-45h-15v120h15v-45h45z" fill="#f4d853"/><path d="m398.133 221.778h-131.309l135.216-206.016 67.129 39.186z" fill="#f0cfa3"/><path d="m413.481-22.161h30v141.527h-30z" fill="#f1b986" transform="matrix(.504 -.864 .864 .504 170.663 394.273)"/><path d="m279.611 116.813h-67.498c-39.61 0-67.501 34.697-67.501 83.972l.001 20.993h67.498c39.61 0 67.5-34.699 67.501-83.972z" fill="#73ca7a"/><path d="m9.612 116.813h67.498c39.61 0 67.501 34.697 67.501 83.972l-.001 20.993h-67.498c-39.609 0-67.5-34.699-67.501-83.972z" fill="#b6dc45"/></g></svg>