<svg id="Capa_1" enable-background="new 0 0 511.979 511.979" height="512" viewBox="0 0 511.979 511.979" width="512" xmlns="http://www.w3.org/2000/svg"><g><path d="m121.979 213.49h330v150h-330z" fill="#e4f3ff"/><path d="m286.979 213.49h165v150h-165z" fill="#a1b8d8"/><g fill="#5ca2fa"><path d="m302 228.49h30v135h-30z"/><path d="m242 228.49h30v135h-30z"/><path d="m182 228.49h30v135h-30z"/><path d="m362 228.49h30v135h-30z"/></g><path d="m422 228.49h30v135h-30z" fill="#3d6def"/><path d="m362 213.49h30v150h-30z" fill="#3d6def"/><path d="m302 213.49h30v150h-30z" fill="#3d6def"/><path d="m182 213.49h30v150h-30z" fill="#5ca2fa"/><path d="m242 213.49h30v150h-30z" fill="#5ca2fa"/><path d="m122 213.49h30v150h-30z" fill="#5ca2fa"/><path d="m89.998 348.49-14.998 26.526-14.998-26.526h-60.002v60h60l15-15 15 15h402v-60z" fill="#457899"/><path d="m286.979 348.49h205.02v60h-205.02z" fill="#365c75"/><path d="m60 348.49h30v60h-30z" fill="#f4d853"/><path d="m511.979 228.49h-345c-66.163 0-105-43.266-105-110v-15h345c66.163 0 105 43.266 105 110z" fill="#b6dc45"/><path d="m406.979 103.49h-120v125h225v-15c0-66.688-38.797-110-105-110z" fill="#73ca7a"/></g></svg>