<svg id="Capa_1" enable-background="new 0 0 512 512" height="512" viewBox="0 0 512 512" width="512" xmlns="http://www.w3.org/2000/svg"><g><path d="m61 90h390v129h-390z" fill="#e4f3ff"/><path d="m256 90h195v115h-195z" fill="#c3dafd"/><path d="m301 210h-90v-60h-60v-90h60v-60h90v60h60v90h-60z" fill="#ff5c5c"/><path d="m301 60v-60h-45v210h45v-60h60v-90z" fill="#ff3838"/><path d="m241 180h30v-60h60v-30h-60v-60h-30v60h-60v30h60z" fill="#e4f3ff"/><path d="m271 90v-60h-15v150h15v-60h60v-30z" fill="#c3dafd"/><path d="m76 205v307h135.021l-.021-.031 45-26.75 45 26.75-.039.031h135.039v-307c-14.513 0-334.889 0-360 0z" fill="#e4f3ff"/><path d="m256 205v270.219l45 36.75-.039.031h135.039v-307c-8.019 0-167.024 0-180 0z" fill="#c3dafd"/><path d="m68.5 310c-20.711 0-37.5-16.789-37.5-37.5v-67.5h75v67.5c0 20.711-16.789 37.5-37.5 37.5z" fill="#ff8b8b"/><path d="m143.5 310c-20.711 0-37.5-16.789-37.5-37.5v-67.5h75v67.5c0 20.711-16.789 37.5-37.5 37.5z" fill="#ff5c5c"/><path d="m218.5 310c-20.711 0-37.5-16.789-37.5-37.5v-67.5h75v67.5c0 20.711-16.789 37.5-37.5 37.5z" fill="#ff8b8b"/><path d="m293.5 310c-20.711 0-37.5-16.789-37.5-37.5v-67.5h75v67.5c0 20.711-16.789 37.5-37.5 37.5z" fill="#ff5c5c"/><path d="m368.5 310c-20.711 0-37.5-16.789-37.5-37.5v-67.5h75v67.5c0 20.711-16.789 37.5-37.5 37.5z" fill="#ff3838"/><path d="m443.5 310c-20.711 0-37.5-16.789-37.5-37.5v-67.5h75v67.5c0 20.711-16.789 37.5-37.5 37.5z" fill="#ff5c5c"/><path d="m211 346h90v166h-90z" fill="#457899"/><path d="m256 346h45v166h-45z" fill="#365c75"/></g></svg>