<svg id="Capa_1" enable-background="new 0 0 512 512" height="512" viewBox="0 0 512 512" width="512" xmlns="http://www.w3.org/2000/svg"><g><path d="m512 100.002v-15.994c0-46.322-37.686-84.008-84.009-84.008h-66.991v5.667h-210v-5.667h-66.992c-46.322 0-84.008 37.686-84.008 84.008v16.024l14.968 14.968-14.968 14.969v298.022c0 46.323 37.686 84.009 84.008 84.009h156.991l15.002-25.001 15 25.001h156.99c46.323 0 84.009-37.686 84.009-84.009v-297.991l-14.999-15 14.998-14.999z" fill="#5ca2fa"/><path d="m512 100.002v-15.994c0-46.322-37.686-84.008-84.009-84.008h-66.991v12.667h-105v484.333l.001-.001 15 15.001h156.99c46.323 0 84.009-37.686 84.009-84.009v-297.991l-24.999-15 24.998-14.999z" fill="#3d6def"/><path d="m511.999 100.001.001.001v-.002h-106v15c0 82.71-67.29 150-150 150s-150-67.29-150-150v-15h-106v30h76.619c7.239 87.311 77.07 157.129 164.381 164.368v217.632h30v-217.632c87.311-7.239 157.142-77.058 164.381-164.368h76.619l-10.999-15z" fill="#e4f3ff"/><path d="m151 0v115c0 52.814 39.197 96.639 90.027 103.928l-.029-.029 15.002-25.001 15 25.001-.029.029c50.831-7.288 90.029-51.113 90.029-103.928v-115z" fill="#e4f3ff"/><path d="m256 0v203.898l15 15.001-.029.029c50.831-7.288 90.029-51.113 90.029-103.928v-115z" fill="#c3dafd"/><path d="m241 218.924c9.979 1.434 20.006 1.436 30 0v-148.924h-30z" fill="#ff5c5c"/><path d="m256 220c5.093 0 10.1-.372 15-1.076v-148.924h-15z" fill="#ff3838"/><path d="m316 405h120v30h-120z" fill="#c3dafd"/><path d="m316 330h120v30h-120z" fill="#c3dafd"/><path d="m76 405h120v30h-120z" fill="#e4f3ff"/><path d="m76 330h120v30h-120z" fill="#e4f3ff"/><path d="m406 100v15c0 82.71-67.29 150-150 150v247h15v-217.632c87.311-7.239 157.142-77.058 164.381-164.368h76.619v-30z" fill="#c3dafd"/></g></svg>