<svg id="Capa_1" enable-background="new 0 0 511.75 511.75" height="512" viewBox="0 0 511.75 511.75" width="512" xmlns="http://www.w3.org/2000/svg"><g><path d="m0 .043h349v511.664h-349z" fill="#e4f3ff"/><path d="m174.432.043h174.568v511.664h-174.568z" fill="#c3dafd"/><path d="m359.932 376.668h-93.234c-37.219 0-67.499 30.28-67.499 67.5s30.28 67.5 67.499 67.5h93.234z" fill="#ff5c5c"/><path d="m355.432 444.168h-156.234c0 37.22 30.28 67.5 67.499 67.5h88.734v-67.5z" fill="#ff3838"/><path d="m226.864 112.543h-37.5v-37.5h-30v37.5h-37.5v30h37.5v37.5h30v-37.5h37.5z" fill="#ff5c5c"/><path d="m67.521 305.043h109.678v30h-109.678z" fill="#457899"/><path d="m67.521 245.043h159.678v30h-159.678z" fill="#457899"/><path d="m174.364 245.043h52.834v30h-52.834z" fill="#365c75"/><path d="m67.521 365.043h59.678v30h-59.678z" fill="#457899"/><path d="m226.864 112.543h-37.5v-37.5h-15v105h15v-37.5h37.5z" fill="#ff3838"/><g><path d="m489.471 218.951h-21.181v-21.18c-43.056-32.694-104.894-29.41-144.168 9.865-39.27 39.269-42.557 101.093-9.879 144.148h21.211v21.211c43.055 32.68 104.881 29.392 144.149-9.879 39.276-39.272 42.56-101.109 9.868-144.165z" fill="#fcf7e2"/><path d="m489.471 218.951h-21.181v-21.18c-19.559-14.852-42.992-22.253-66.427-22.255v219.722c28.153.002 56.307-10.686 77.74-32.121 39.276-39.273 42.56-101.11 9.868-144.166z" fill="#fbf599"/><path d="m468.277 197.751-154.041 154.039c6.075 7.997 13.217 15.138 21.212 21.214l154.043-154.039c-6.077-7.997-13.218-15.139-21.214-21.214z" fill="#fbf59a"/><path d="m401.864 306.59 87.627-87.625c-6.076-7.997-13.218-15.139-21.214-21.214l-66.413 66.412z" fill="#f4d853"/></g><path d="m401.698 376.668h-67.5v135h67.5c37.22 0 67.5-30.28 67.5-67.5s-30.28-67.5-67.5-67.5z" fill="#e4f3ff"/><path d="m334.198 511.668h67.5c37.22 0 67.5-30.28 67.5-67.5h-135z" fill="#c3dafd"/></g></svg>