<svg id="Capa_1" enable-background="new 0 0 512 512" height="512" viewBox="0 0 512 512" width="512" xmlns="http://www.w3.org/2000/svg"><g><path d="m324.25 182 19.294-17-90-75h-130.861l-90.001 75 11.151 17.833-20.72 12.167v317h330v-317z" fill="#e4f3ff"/><path d="m343.544 165-90-75h-65.431v422h165v-317l-18.863-13z" fill="#c3dafd"/><path d="m134.081 240.958-10.606 10.607c-21.185 21.184-33.081 49.483-33.497 79.683-.42 30.524 10.983 58.969 32.109 80.096 20.713 20.713 48.594 32.121 78.508 32.121 30.354 0 59.977-12.213 81.271-33.507l10.606-10.606z" fill="#e9a734"/><path d="m188.113 294.989v147.795c4.112.445 8.276.679 12.482.679 30.354 0 59.977-12.213 81.271-33.507l10.606-10.606z" fill="#e38620"/><path d="m135.053 284.355 37.756 37.756-52.649 11.86c-.245-17.324 4.719-34.836 14.893-49.616z" fill="#fbf599"/><path d="m125.886 363.434 56.939-12.826-12.854 57.056c-9.936-3.955-18.995-9.859-26.67-17.534-7.759-7.758-13.556-16.879-17.415-26.696z" fill="#fbf599"/><path d="m200.596 413.463c-.393 0-.782-.023-1.174-.028l11.897-52.813 37.752 37.752c-14.09 9.704-31.113 15.089-48.475 15.089z" fill="#f4d853"/><path d="m433.887 220c-30.327 0-55 24.673-55 55v160c0 30.327 24.673 55 55 55s55-24.673 55-55c0-14.518 0-145.386 0-160 0-30.327-24.673-55-55-55z" fill="#e4f3ff"/><path d="m378.887 435c0 30.327 24.673 55 55 55s55-24.673 55-55v-80h-110z" fill="#e9a734"/><path d="m433.887 355v135c30.327 0 55-24.673 55-55v-80z" fill="#e38620"/><path d="m53.113 0h270v120h-270z" fill="#457899"/><path d="m188.113 0h135v120h-135z" fill="#365c75"/><path d="m233.113 0h30v60h-30z" fill="#274254"/><path d="m173.113 0h30v60h-30z" fill="#365c75"/><path d="m188.113 0h15v60h-15z" fill="#274254"/><path d="m113.113 0h30v60h-30z" fill="#365c75"/><path d="m32.682 165-9.569 7.974v22.026h330v-22.026l-9.569-7.974z" fill="#e9a734"/><path d="m353.113 172.974-9.569-7.974h-155.431v30h165z" fill="#fcf7e2"/><path d="m343.544 165h-155.431v30h165v-22.026z" fill="#e38620"/><path d="m488.887 275c0-30.327-24.673-55-55-55v135h55z" fill="#c3dafd"/></g></svg>