<svg id="Capa_1" enable-background="new 0 0 512 512" height="512" viewBox="0 0 512 512" width="512" xmlns="http://www.w3.org/2000/svg"><g><path d="m151 211h-90v-105h90zm-60-30h30v-75h-30z" fill="#274254"/><path d="m451 211h-90v-105h90zm-60-30h30v-75h-30z" fill="#274254"/><path d="m0 181h512v300h-512z" fill="#f4d853"/><path d="m256 181h256v300h-256z" fill="#e9a734"/><path d="m0 31h512v75h-512z" fill="#457899"/><path d="m256 31h256v75h-256z" fill="#365c75"/><path d="m421 391h90.713v30h-90.713z" fill="#e38620"/><path d="m421 241h90.713v30h-90.713z" fill="#e38620"/><path d="m.787 391h90.213v30h-90.213z" fill="#e9a734"/><path d="m.787 241h90.213v30h-90.213z" fill="#e9a734"/><path d="m301 421h-90v-45h-45v-90h45v-45h90v45h45v90h-45z" fill="#fcf7e2"/><path d="m301 286v-45h-45v180h45v-45h45v-90z" fill="#f4d853"/><path d="m241 391h30v-45h45v-30h-45v-45h-30v45h-45v30h45z" fill="#ff5c5c"/><path d="m271 316v-45h-15v120h15v-45h45v-30z" fill="#ff3838"/></g></svg>