<svg id="Capa_1" enable-background="new 0 0 512 512" height="512" viewBox="0 0 512 512" width="512" xmlns="http://www.w3.org/2000/svg"><g><path d="m121 68.5h270v135h-270z" fill="#e4f3ff"/><path d="m256 68.5h135v135h-135z" fill="#a1b8d8"/><path d="m181 83.5h30v120h-30z" fill="#5ca2fa"/><path d="m241 83.5h30v120h-30z" fill="#5ca2fa"/><g fill="#3d6def"><path d="m256 83.5h15v120h-15z"/><path d="m301.5 83.5h30v120h-30z"/><path d="m361 83.5h30v120h-30z"/></g><path d="m121 83.5h30v120h-30z" fill="#5ca2fa"/><path d="m0 323.5h512v150h-512z" fill="#ff8b8b"/><path d="m256 323.5h256v150h-256z" fill="#ff5c5c"/><path d="m435.999 38.5-14.999 26.528-14.999-26.528h-285.001v60h285.002l-.002-.002 15-26.527 15 26.527-.002.002h76.002v-60z" fill="#457899"/><path d="m435.998 38.5-14.998 16.528-14.998-16.528h-150.002v60h150.002l-.002-.002 15-16.527 15 16.527-.002.002h76.002v-60z" fill="#365c75"/><path d="m406 38.5h30v60h-30z" fill="#f4d853"/><path d="m128.5 383.5c-20.711 0-37.5-16.789-37.5-37.5v-67.5h75v67.5c0 20.711-16.789 37.5-37.5 37.5z" fill="#fcf7e2"/><path d="m211 383.5c-24.854 0-45-20.147-45-45v-90h90v90c0 24.853-20.146 45-45 45z" fill="#fcf7e2"/><path d="m383.5 383.5c20.711 0 37.5-16.789 37.5-37.5v-67.5h-75v67.5c0 20.711 16.789 37.5 37.5 37.5z" fill="#fbf599"/><path d="m301 383.5c24.853 0 45-20.147 45-45v-90h-90v90c0 24.853 20.147 45 45 45z" fill="#fbf599"/></g></svg>