<svg id="Capa_1" enable-background="new 0 0 512.031 512.031" height="512" viewBox="0 0 512.031 512.031" width="512" xmlns="http://www.w3.org/2000/svg"><g><path d="m211.013 0h90v115h-90z" fill="#e4f3ff"/><path d="m256.013 0h45v115h-45z" fill="#c3dafd"/><path d="m382.658 195h-253.29l41.25-110h170.79z" fill="#c3dafd"/><path d="m256.013 195h126.645l-41.25-110h-85.395z" fill="#a1b8d8"/><path d="m417.313 508.701-2.591-18.938 6.291-21.43v-303.333h-330v347h290.125z" fill="#e4f3ff"/><path d="m417.313 508.701 3.7-40.368v-303.333h-165v347h121.062z" fill="#c3dafd"/><path d="m112.869 63.106-21.213-21.212 41.893-41.894h201.214v30h-188.787z" fill="#457899"/><path d="m91.013 220.144h330v30h-330z" fill="#5ca2fa"/><path d="m256.013 220.144h165v30h-165z" fill="#3d6def"/><path d="m256.013 314.607v143.931c30.006 35.872 74.608 53.492 122.559 53.493h.005c18.162 0 30.834-2.449 38.736-3.331l2.111-18.345c13.325-102.539-58.255-180.046-163.411-175.748z" fill="#73ca7a"/><path d="m225.643 317.702-2.103 18.368c-6.084 46.821 5.442 90.155 32.473 122.468v-143.931c-13.594.557-21.833 2.092-30.37 3.095z" fill="#b6dc45"/><path d="m417.313 508.701c.066-.578 2.132-18.531 2.167-18.813-75.868-75.771-88.478-88.366-88.636-88.524l-21.197 21.23c18.356 18.333 85.874 85.764 88.589 88.475 6.09-.584 9.161-1.095 19.077-2.368z" fill="#62a872"/><path d="m256.013 0h78.75v30h-78.75z" fill="#365c75"/></g></svg>