<svg id="Capa_1" enable-background="new 0 0 512 512" height="512" viewBox="0 0 512 512" width="512" xmlns="http://www.w3.org/2000/svg"><g><path d="m76 392h360v105h-360z" fill="#fbf599"/><path d="m76 444.5h360v52.5h-360z" fill="#f4d853"/><path d="m148.5 0h317.5v407h-317.5z" fill="#e4f3ff"/><path d="m307.25 0h158.75v407h-158.75z" fill="#c3dafd"/><path d="m368.106 232.106-21.213-21.213-23.144 23.143-35.036-35.036h38.787v-90h-90v150h30v-38.787l35.037 35.037-23.144 23.144 21.213 21.213 23.144-23.144 23.144 23.144 21.213-21.213-23.144-23.144zm-100.606-93.106h30v30h-30z" fill="#ff5c5c"/><path d="m368.106 232.106-21.212-21.212-23.144 23.143-16.5-16.5v75.426l16.5-16.5 23.144 23.143 21.212-21.212-23.143-23.144z" fill="#ff3838"/><path d="m307.25 109h20.25v90h-20.25z" fill="#ff3838"/><path d="m46 102.5v342c0 37.22 30.28 67.5 67.5 67.5h352.5v-30h-352.5c-20.678 0-37.5-16.822-37.5-37.5s16.822-37.5 37.5-37.5h35v-407c-56.519 0-102.5 45.981-102.5 102.5z" fill="#457899"/></g></svg>