<svg id="Capa_1" enable-background="new 0 0 512 512" height="512" viewBox="0 0 512 512" width="512" xmlns="http://www.w3.org/2000/svg"><g><path d="m90 166h332v52h-332z" fill="#c3dafd"/><path d="m257 166h165v52h-165z" fill="#a1b8d8"/><path d="m511.544 316-16.279-15 16.296-15c-1.284-22.046-5.397-43.743-12.281-64.684l-3.389-10.316h-479.781c-1.694 6.236-13.275 33.832-15.672 75l15.781 15-15.764 15c4.593 75.857 43.806 146.851 106.868 192.18l3.923 2.82h289.507l3.923-2.82c63.062-45.33 102.275-116.323 106.868-192.18z" fill="#e4f3ff"/><path d="m511.544 316-26.279-15 26.296-15c-1.284-22.046-5.397-43.743-12.281-64.684l-3.389-10.316h-238.891v300h143.754l3.923-2.82c63.061-45.33 102.274-116.323 106.867-192.18z" fill="#c3dafd"/><circle cx="257" cy="361" fill="#457899" r="75"/><path d="m257 286v150c41.355 0 75-33.645 75-75s-33.645-75-75-75z" fill="#365c75"/><path d="m391 316h120.544c.598-9.869.611-19.804.018-30h-120.562z" fill="#a1b8d8"/><path d="m.455 316h120.545v-30h-120.562c-.593 10.19-.581 20.124.017 30z" fill="#c3dafd"/><path d="m406 166h-300v-15c0-49.626 40.374-90 90-90h92.4c24.246 0 48.282-8.012 67.68-22.56l49.92-37.44z" fill="#fcf7e2"/><path d="m406 1-49.92 37.44c-19.398 14.548-43.434 22.56-67.68 22.56h-31.4v105h149z" fill="#fbf599"/><circle cx="257" cy="361" fill="#5ca2fa" r="45"/><path d="m257 316v90c24.813 0 45-20.187 45-45s-20.187-45-45-45z" fill="#3d6def"/></g></svg>