<svg id="Capa_1" enable-background="new 0 0 510 510" height="512" viewBox="0 0 510 510" width="512" xmlns="http://www.w3.org/2000/svg"><g id="XMLID_307_"><path id="XMLID_507_" d="m441.203 398.797c11.716 11.715 11.742 30.663.001 42.407l18.13 32.129 28.166 14.167 22.5-22.5c0-10.889 0-79.039 0-90-2.5-2.5-42.5-42.5-45-45-11.237 0-81.299 0-92.574 0-9.071-9.071-65.869-65.869-75-75l-17.093 4.333-4.121 16.88 53.788 65.787 68.796 56.797c11.705-11.703 30.652-11.757 42.407 0z" fill="#edf5ff"/><path id="XMLID_512_" d="m441.204 441.204c-5.626 5.625-13.2 8.796-21.204 8.796-16.542 0-30-13.456-30-30 0-8.007 3.172-15.578 8.796-21.203-3.461-3.462-119.135-119.136-122.583-122.584l-16.213 3.454-5 17.76c9.071 9.071 65.869 65.869 75 75v92.573l45 45h90c7.869-7.869 14.631-14.631 22.5-22.5-12.538-12.538-38.898-38.898-46.296-46.296z" fill="#d5e8fe"/><path id="XMLID_459_" d="m111.203 68.797c11.715 11.714 11.743 30.664 0 42.406l57.464 68.797 65.121 53.787 16.879-5.787 4.333-15.426c-9.071-9.071-65.869-65.87-75-75 0-11.237 0-81.299 0-92.574-2.501-2.5-42.499-42.5-45-45-10.889 0-79.04 0-90 0-7.869 7.869-14.631 14.631-22.5 22.5l14.833 30.167 31.463 16.13c11.678-11.677 30.626-11.781 42.407 0z" fill="#edf5ff"/><path id="XMLID_506_" d="m111.203 111.203c-5.626 5.627-13.2 8.797-21.203 8.797-16.541 0-30-13.457-30-30 0-8.007 3.172-15.578 8.797-21.203-12.538-12.538-38.899-38.899-46.297-46.297-7.869 7.869-14.631 14.631-22.5 22.5v90c2.5 2.501 42.5 42.5 45 45h92.574l75 75 17.426-3 3.787-18.213c-3.458-3.458-119.127-119.127-122.584-122.584z" fill="#d5e8fe"/><path id="XMLID_451_" d="m388.934 91.066c1.537-13.302 2.857-24.732 4.393-38.033 7.071-7.071 45.963-45.962 53.033-53.033-10.313 0-74.511 0-84.853 0-6.604 6.603-52.224 52.224-58.713 58.713 1.817 10.019 14.452 79.666 16.287 89.779-4.798 4.798-165.771 165.771-170.589 170.589-9.964-1.808-79.909-14.496-89.779-16.287-6.804 6.804-51.873 51.874-58.713 58.714v84.853c14.28-14.28 44.715-44.715 53.033-53.033 3.026-.35 34.309-3.963 38.033-4.393 1.511 1.511 13.519 13.519 15 15.001l158.601-139.936 139.268-157.934c-5.247-5.246-9.755-9.754-15.001-15z" fill="#d5e8fe"/><path id="XMLID_396_" d="m418.934 121.066c-5.246-5.247-9.754-9.755-15-15-8.404 8.403-289.47 289.469-297.868 297.868l15 15c-.451 3.902-3.95 34.198-4.393 38.033-14.28 14.28-44.715 44.715-53.033 53.033h84.853c6.844-6.844 51.914-51.914 58.713-58.713-1.847-10.183-14.424-79.515-16.287-89.779 4.798-4.798 165.771-165.772 170.589-170.589 9.964 1.808 79.909 14.496 89.779 16.287 6.844-6.844 51.914-51.914 58.713-58.713 0-10.314 0-74.511 0-84.853-14.28 14.279-44.715 44.715-53.033 53.033-7.601.878-37.57 4.34-38.033 4.393z" fill="#b5dbff"/></g></svg>