<svg id="Capa_1" enable-background="new 0 0 510 510" height="512" viewBox="0 0 510 510" width="512" xmlns="http://www.w3.org/2000/svg"><g id="XMLID_174_"><path id="XMLID_163_" d="m194.2 214.2-12.7 10.8-68 10-68-10c1.4-19.9 5.6-39.3 12.4-57.8 38.6-104.3 137.2-128.6 137.1-128.5l10 75.6-10 80.7z" fill="#ffe666"/><path id="XMLID_181_" d="m317.5 210.9-2.5-15.9-10-75.1 10-81.3c2.9 1.2 31.5 8.3 62.7 30.8 49 35.4 82.3 91.6 86.8 155.6l-68 10-68-10z" fill="#ffba54"/><path id="XMLID_124_" d="m195 195c0-60.4 0-134.6 0-195h60l10 82.5-10 82.5z" fill="#ffba54"/><path id="XMLID_126_" d="m255 165c0-4.7 0-160.3 0-165h60v195z" fill="#f93"/><path id="XMLID_179_" d="m181.5 225c-20.2 0-146.2 0-166.5 0v90h240z" fill="#ffba54"/><path id="XMLID_183_" d="m255 315h240c0-10.9 0-79 0-90-18.8 0-146.7 0-166.5 0z" fill="#f93"/><path id="XMLID_186_" d="m180 240c0 41.4 33.6 75 75 75l10-75-10-75c-41.4 0-75 33.6-75 75z" fill="#f93"/><path id="XMLID_184_" d="m330 240c0-41.4-33.6-75-75-75v150c41.4 0 75-33.6 75-75z" fill="#f37445"/><path id="XMLID_173_" d="m240 225v29h15l10-14.5-10-14.5c-5.2 0-9.8 0-15 0z" fill="#edf5ff"/><path id="XMLID_1_" d="m255 225v29h15c0-10.1 0-18.9 0-29-5.3 0-9.8 0-15 0z" fill="#d5e8fe"/><path id="XMLID_400_" d="m82.5 345c-16.5 0-30 13.5-30 30v105c0 16.5 13.5 30 30 30h124.2c12.9 0 24.4-8.2 28.5-20.5.8-2.4 7.4-22.1 8.2-24.5.2 0 12.4 0 11.7 0l10-64.7-10.1-55.3c-6 0-166.6 0-172.5 0z" fill="#6f7f8f"/><path id="XMLID_398_" d="m427.5 345c-10.1 0-163.9 0-172.5 0v120h11.7c2.9 8.6 5.3 15.9 8.2 24.5 4.1 12.3 15.5 20.5 28.5 20.5h124.2c16.5 0 30-13.5 30-30 0-28.3 0-88.5 0-105-.1-16.5-13.6-30-30.1-30z" fill="#4a5f77"/><path id="XMLID_402_" d="m82.5 375v105h124.2c.8-2.4 7.4-22.1 8.2-24.5 4.1-12.3 15.5-20.5 28.5-20.5h11.7l10-29.3-10.1-30.7c-6 0-166.6 0-172.5 0z" fill="#5ad0f4"/><path id="XMLID_399_" d="m255 375v60h11.7c12.9 0 24.4 8.2 28.5 20.5 2.9 8.6 5.3 15.9 8.2 24.5h124.2c0-28.3 0-88.5 0-105-10.2 0-164 0-172.6 0z" fill="#4994ff"/></g></svg>