<svg id="Capa_1" enable-background="new 0 0 510 510" height="512" viewBox="0 0 510 510" width="512" xmlns="http://www.w3.org/2000/svg"><g><path d="m360 315c-10.492 0-19.508 0-30 0l-10-15 10-15h30z" fill="#6f7f8f"/><path d="m0 240v120l82.5 10 82.5-10 10-142.5-10-142.5c-90.979 0-165 74.016-165 165z" fill="#5ad0f4"/><path d="m330 240c0-90.979-74.016-165-165-165v285l82.5 10 82.5-10c0-14.518 0-105.386 0-120z" fill="#4994ff"/><path d="m75 225c0 49.623 40.373 90 90 90l10-90-10-90c-49.623 0-90 40.373-90 90z" fill="#ffe666"/><path d="m255 225c0-49.623-40.372-90-90-90v180c49.622 0 90-40.372 90-90z" fill="#ffba54"/><path d="m105 225c0 33.083 26.915 60 60 60l10-60-10-60c-33.083 0-60 26.915-60 60z" fill="#f93"/><path d="m165 165v120c33.083 0 60-26.915 60-60 0-33.083-26.915-60-60-60z" fill="#f37445"/><path d="m510 405c-10 0-170 0-180 0l-10-15 10-15h150c0-10.492 0-19.508 0-30h30z" fill="#f37445"/><path d="m0 360v75h165l10-37.5-10-37.5c-4.655 0-160.348 0-165 0z" fill="#4994ff"/><path d="m330 360c-4.655 0-160.348 0-165 0v75h165c0-20.194 0-63.236 0-75z" fill="#545adc"/></g></svg>