<svg id="Capa_1" enable-background="new 0 0 510 510" height="512" viewBox="0 0 510 510" width="512" xmlns="http://www.w3.org/2000/svg"><g><path d="m259.394 169.394c-4.767 4.766-40.298 40.297-45.001 45l13.232 27.374 27.375 13.232 29.571-15.429 15.429-29.571-13.232-27.374z" fill="#4994ff"/><path d="m340.606 250.606-13.232-27.374-27.374-13.232c-2.5 2.501-42.5 42.5-45 45l13.232 27.375 27.374 13.232c2.501-2.501 42.499-42.5 45-45.001z" fill="#545adc"/><path d="m181.819 246.967c-22.389 22.392-22.391 58.821 0 81.213l.001.001 43.661-29.519 29.519-43.662c-12.905-12.905-27.702-27.701-40.607-40.606-25.619 25.618-6.961 6.961-32.574 32.573z" fill="#6f7f8f"/><path d="m263.033 328.18c2.572-2.572-10.594 10.594 32.573-32.573-4.19-4.19-36.352-36.352-40.606-40.606-8.609 8.61-64.529 64.53-73.18 73.18 22.487 22.487 58.795 22.417 81.213-.001z" fill="#4a5f77"/><path d="m422.573 87.427 50.551-36.408 36.407-50.55c-12.631 2.808-91.716 20.39-104.43 23.217l-.051.051-.05.05-6.81 41.119z" fill="#edf5ff"/><path d="m486.215 104.999c2.305-10.333 20.636-92.507 23.317-104.53h-.001c-10.572 10.572-76.36 76.36-86.958 86.958l26.41 28.273c8.177-2.35-20.157 5.794 37.232-10.701z" fill="#d5e8fe"/><path d="m405 45c0-7.419 0-13.794 0-21.213-7.393 7.393-137.928 137.928-145.606 145.607 4.19 4.19 36.35 36.35 40.606 40.606l68.357-54.216 54.216-68.357c-10.927-10.93-17.573-25.954-17.573-42.427z" fill="#5ad0f4"/><path d="m486.213 105c-7.419 0-13.794 0-21.213 0-16.506 0-31.519-6.667-42.427-17.573-3.442 3.442-119.114 119.114-122.573 122.573 4.19 4.19 36.35 36.35 40.606 40.606 4.112-4.111 141.511-141.51 145.607-145.606z" fill="#4994ff"/><path d="m135 0c-16.333 0-118.559 0-135 0v60l10 15-10 14.903v30.097l10 15.001-10 15v29.999l10 14.403-10 15.597v31.724l10 13.276-10 15v30l10 15-10 15v30l10 14.903-10 15.097v120l84.766-51.764 50.234-83.236c0-10.573 0-364.427 0-375z" fill="#ffe666"/><g fill="#ffba54"><path d="m60 390c-7.259 0-52.693 0-60 0 0-10.492 0-19.508 0-30h60z"/><path d="m75 330c-20.194 0-63.236 0-75 0 0-10.492 0-19.508 0-30h75z"/><path d="m60 270c-7.259 0-52.693 0-60 0 0-10.492 0-19.508 0-30h60z"/><path d="m75 210c-20.194 0-63.236 0-75 0 0-10.492 0-19.508 0-30h75z"/><path d="m60 150c-7.259 0-52.693 0-60 0 0-10.492 0-19.508 0-30h60z"/><path d="m75 90c-20.194 0-63.236 0-75 0 0-10.492 0-19.508 0-30h75z"/><path d="m135 375c-7.501 7.501-127.499 127.499-135 135h120l15-10 15 10h30l15-10 15 10h30l15-10 15 10h30l15-10 15 10h30l15-10 15 10h30l15-10 15 10h60c0-16.333 0-118.559 0-135-10.573 0-364.427 0-375 0z"/></g><path d="m450 510c-10.492 0-19.508 0-30 0 0-20.194 0-63.236 0-75h30z" fill="#f93"/><path d="m390 510c-10.492 0-19.508 0-30 0 0-7.259 0-52.693 0-60h30v30z" fill="#f93"/><path d="m330 510c-10.492 0-19.508 0-30 0 0-20.194 0-63.236 0-75h30z" fill="#f93"/><path d="m270 510c-10.492 0-19.508 0-30 0 0-7.259 0-52.693 0-60h30z" fill="#f93"/><path d="m210 510c-10.492 0-19.508 0-30 0 0-20.194 0-63.236 0-75h30z" fill="#f93"/><path d="m150 510c-10.492 0-19.508 0-30 0 0-7.259 0-52.693 0-60h30z" fill="#f93"/></g></svg>