<svg id="Capa_1" enable-background="new 0 0 510 510" height="512" viewBox="0 0 510 510" width="512" xmlns="http://www.w3.org/2000/svg"><g><path d="m120 161.249c-11.642 0-21.646 0-33.288 0-.31-1.239-11.478-45.909-15-60-8.707 0-62.975 0-71.711 0v30h48.288c.31 1.239 11.477 45.909 15 60h56.711l10-15z" fill="#edf5ff"/><path d="m218.787 326.249c-2.451 2.451 11.124-11.124-38.787 38.787 0-13.565 0-25.222 0-38.787l-15-10-15 10v105l15 15 15-15c0-5.392 0-15.216 0-23.787 9.816-9.816 71.331-71.332 81.213-81.213l-21.213-10z" fill="#d5e8fe"/><path d="m210 461.249h-90c0-10.492 0-19.508 0-30h90z" fill="#b5dbff"/><path d="m405.315 361.263c-2.511-3.766-20.864-31.297-23.342-35.014l8.027-15 17.615-.618c7.928 11.891 14.719 22.079 22.646 33.97l-4.762 18.648z" fill="#b5dbff"/><path d="m407.594 443.655c-23.454-23.453-23.469-61.345 0-84.813 10.864-10.865 25.864-17.594 42.406-17.594 33.082 0 60 26.915 60 60 0 16.542-6.729 31.542-17.594 42.406-23.452 23.455-61.345 23.47-84.812.001z" fill="#6f7f8f"/><path d="m151.691 131.249 74.154 10 74.155-10 10-41.25-10-41.25c-35.687 0-73.316 8.053-103.281 26.364-21.193 12.952-39.465 31.74-45.028 56.136z" fill="#ea8b86"/><path d="m448.309 131.249c-5.565-24.404-23.846-43.191-45.028-56.136-29.969-18.313-67.6-26.364-103.281-26.364v82.5l74.155 10z" fill="#d35e59"/><path d="m120 131.249v75l90 10 90-10 10-37.5-10-37.5c-10 0-170 0-180 0z" fill="#ffe666"/><path d="m509.809 131.249c-11.656 0-198.152 0-209.809 0v75l83.54 10 83.541-10c5.193-9.116 37.521-65.861 42.728-75z" fill="#ffba54"/><path d="m120 206.249v120h180l10-60-10-60c-10 0-170 0-180 0z" fill="#ffba54"/><path d="m467.081 206.249c-18.835 0-147.233 0-167.081 0v120h98.718c8.272-14.521 60.036-105.383 68.363-120z" fill="#f93"/></g></svg>