<svg id="Capa_1" enable-background="new 0 0 510 510" height="512" viewBox="0 0 510 510" width="512" xmlns="http://www.w3.org/2000/svg"><g><g><path d="m225 510c-7.3 0-52.7 0-60 0 0-20.2 0-63.2 0-75l30-10 30 10 10 37.5z" fill="#d35e59"/><path d="m285 510c-7.3 0-52.7 0-60 0 0-20.2 0-63.2 0-75l30-10 30 10z" fill="#b0473e"/><path d="m210 212.3v57.7l7.5 10 7.5-10 10-30.1-10-30.1c-5.2.9-9.8 1.6-15 2.5z" fill="#d5e8fe"/><path d="m450 60-10 15 10 15h30v77.3c-7.2 1.2-247.8 41.3-255 42.5v60.2l7.5 10 7.5-10c0-11.3 0-21 0-32.3l270-45v-132.7c-7.3 0-52.7 0-60 0z" fill="#b5dbff"/><path d="m450 120c-7.3 0-52.7 0-60 0l-10-45 10-45h60z" fill="#d5e8fe"/><path d="m60 120c-7.3 0-52.7 0-60 0 0-10.9 0-79 0-90h60l10 45z" fill="#edf5ff"/><path d="m60 0v150h60l15.5-10 14.5 10h75l10-75-10-75h-75l-14.5 10-15.5-10z" fill="#ffe666"/><g fill="#ffba54"><path d="m390 0c-5.7 0-122.3 0-135 0l-30 60v30l30 60h135c0-10.1 0-139.9 0-150z"/><path d="m150 60c-10.5 0-19.5 0-30 0 0-7.3 0-52.7 0-60h30z"/><path d="m150 150c-10.5 0-19.5 0-30 0 0-7.3 0-52.7 0-60h30z"/></g><path d="m255 60c-10.5 0-19.5 0-30 0 0-7.3 0-52.7 0-60h30z" fill="#f93"/><path d="m255 150c-10.5 0-19.5 0-30 0 0-7.3 0-52.7 0-60h30z" fill="#f93"/><path d="m165 270v165h60l10-82.5-10-82.5c-7.3 0-52.7 0-60 0z" fill="#ea8b86"/><path d="m285 270c-7.3 0-52.7 0-60 0v165h60c0-4.7 0-160.3 0-165z" fill="#d35e59"/></g><path d="m180 60h30v30h-30z" fill="#ffba54"/><path d="m285 60h30v30h-30z" fill="#f93"/></g></svg>