<svg id="Capa_1" enable-background="new 0 0 510 510" height="512" viewBox="0 0 510 510" width="512" xmlns="http://www.w3.org/2000/svg"><g><path d="m345 359.2-10 30 10 30 60 10 60-10c0-7.3 0-52.7 0-60l-60-10z" fill="#d35e59"/><path d="m345 299.2-10 30 10 30h120c0-7.3 0-52.7 0-60l-60-10z" fill="#ea8b86"/><path d="m345 419.2-10 30 10 30 60 10 60-10c0-7.3 0-52.7 0-60-14.5 0-105.4 0-120 0z" fill="#b0473e"/><path d="m345 299.2h154.2c-2.7-10.9-19.8-79-22.5-90-16 0-115.7 0-131.7 0l-10 45z" fill="#b0473e"/><path d="m195 479.2 10-97.5-10-97.5-75-10-75 10v60l120 135 15.5 10z" fill="#d5e8fe"/><path d="m345 479.2c0-10.8 0-184.2 0-195l-75-10-75 10v195l75 10z" fill="#b5dbff"/><path d="m165 479.2-60 10-60-10c0-16.3 0-118.6 0-135h120z" fill="#ffba54"/><path d="m285 449.2c-10.9 0-79 0-90 0 0-28.3 0-88.5 0-105h90z" fill="#4994ff"/><path d="m45 112.4v171.8h150l10-124.8-10-124.8-81.5 28z" fill="#edf5ff"/><path d="m345 112.4-71.5-47.7-78.5-30.1v249.6h150c0-4.8 0-167 0-171.8z" fill="#d5e8fe"/><path d="m.1 101.9c4.8 9.3 9 17.3 13.8 26.6 9.2-4.8 171.3-88.8 181.1-93.9l9-15.9-9-17.9c-10.8 5.6-184.1 95.5-194.9 101.1z" fill="#ea8b86"/><path d="m195 .8v33.8c5.1 2.6 176 91.3 181.1 93.9 4.8-9.3 9-17.3 13.8-26.6-5.5-2.9-189.4-98.3-194.9-101.1z" fill="#d35e59"/><path d="m142 217.2c13.6 13.6 32.3 22 53 22l10-75-10-75c-20.7 0-39.4 8.4-53 22-29.3 29.3-29.3 76.7 0 106z" fill="#d5e8fe"/><path d="m195 89.2v150c41.4 0 75-33.6 75-75 0-20.7-8.4-39.4-22-53s-32.3-22-53-22z" fill="#b5dbff"/><path d="m163.2 196c8.1 8.1 19.4 13.2 31.8 13.2l10-45-10-45c-12.4 0-23.7 5-31.8 13.2-17.6 17.6-17.6 46 0 63.6z" fill="#ffe666"/><path d="m195 119.2v90c24.8 0 45-20.2 45-45s-20.2-45-45-45z" fill="#ffba54"/><path d="m195 509.2c-10.8 0-184.2 0-195 0 0-10.5 0-19.5 0-30h195l10 15z" fill="#6f7f8f"/><path d="m195 479.2h315v30c-10.8 0-304.2 0-315 0z" fill="#4a5f77"/></g></svg>