<svg id="Capa_1" enable-background="new 0 0 510.002 510.002" height="512" viewBox="0 0 510.002 510.002" width="512" xmlns="http://www.w3.org/2000/svg"><g id="XMLID_67_"><path id="XMLID_149_" d="m90.002.001-10 45 10 45h120l10-45-10-45c-14.518 0-105.387 0-120 0z" fill="#6f7f8f"/><path id="XMLID_366_" d="m.002 165.001v120l10 15-10 15v45l10 14.333-10 15.667v120h120l15-10 15 10h60l10-172.5-10-172.5h-30l-15 10-15-10c-18.027 0-132.163 0-150 0z" fill="#5ad0f4"/><path id="XMLID_363_" d="m420.002 165.001h-105l-16.086 10-13.914-10h-75v345h60l13.5-10 16.5 10h165c24.853 0 45-20.146 45-45l-1.667-36.698z" fill="#4994ff"/><g fill="#edf5ff"><path id="XMLID_348_" d="m120.002 285.001c-14.518 0-105.387 0-120 0v30h120c0-10.492 0-19.508 0-30z"/><path id="XMLID_347_" d="m180.002 285.001c0-14.518 0-105.386 0-120-10.492 0-19.508 0-30 0v150h60c0-10.492 0-19.508 0-30-10.492 0-19.508 0-30 0z"/><path id="XMLID_346_" d="m.002 360.001v30h120v120h30c0-14.518 0-105.386 0-120h45c0-10.492 0-19.508 0-30-15.474 0-170.694 0-195 0z"/></g><path id="XMLID_345_" d="m315.002 285.001c0-14.518 0-105.386 0-120-10.492 0-19.508 0-30 0v120c-14.981 0-30.019 0-45 0v30h180l10-15-10-15c-28.278 0-88.527 0-105 0z" fill="#d5e8fe"/><path id="XMLID_344_" d="m225.002 360.001v30h45v120h30c0-14.518 0-105.386 0-120h120l10-15-10-15c-59.771 0-135.532 0-195 0z" fill="#d5e8fe"/><path id="XMLID_333_" d="m465.002 90.001c-24.852 0-45 20.146-45 45v330c0-12.426 5.037-23.676 13.18-31.82 17.564-17.562 46.05-17.589 63.641 0 8.143 8.143 13.18 19.393 13.18 31.82 0-18.326 0-311.674 0-330-.001-24.852-20.147-45-45.001-45z" fill="#545adc"/><path id="XMLID_521_" d="m45.002.001c-12.406 0-23.656 5.047-31.805 13.195-17.591 17.59-17.601 46.008 0 63.609 8.148 8.148 19.398 13.195 31.805 13.195h45c0-10.889 0-79.039 0-90h-22.5-22.5z" fill="#ffba54"/><path id="XMLID_8_" d="m345.002 90.001c-16.333 0-118.559 0-135 0 0-10.889 0-79.039 0-90h135z" fill="#4a5f77"/><path id="XMLID_526_" d="m345.002.001c-17.1 27.318-17.135 62.531 0 90 13.438-5.36 99.443-39.667 112.815-45-13.438-5.36-99.444-39.667-112.815-45z" fill="#b5dbff"/></g></svg>