<svg id="Capa_1" enable-background="new 0 0 511.001 511.001" height="512" viewBox="0 0 511.001 511.001" width="512" xmlns="http://www.w3.org/2000/svg"><g id="XMLID_258_"><path id="XMLID_769_" d="m121.001 211.001v90c-7.26 0-52.693 0-60 0v90c-7.26 0-52.693 0-60 0v120h255l10-150-10-150c-14.916 0-121.059 0-135 0z" fill="#ea8b86"/><path id="XMLID_761_" d="m511.001 511.001c0-31.118 0-270.147 0-300-84.803 0-170.218 0-255 0v300z" fill="#d35e59"/><path id="XMLID_754_" d="m331.001 331.001v60h90c0-7.259 0-52.693 0-60-28.683 0-62.662 0-90 0z" fill="#b0473e"/><path id="XMLID_742_" d="m211.001 331.001v60h45l10-30-10-30c-25.342 0-19.487 0-45 0z" fill="#d35e59"/><path id="XMLID_741_" d="m301.001 391.001c0-7.259 0-52.693 0-60-15.706 0-29.085 0-45 0v60z" fill="#b0473e"/><path id="XMLID_739_" d="m271.001 301.001h90c0-7.259 0-52.693 0-60-10.889 0-79.039 0-90 0z" fill="#b0473e"/><g fill="#d35e59"><path id="XMLID_737_" d="m151.001 241.001h90v60c-11.219 0-80.184 0-90 0z"/><path id="XMLID_736_" d="m91.001 331.001h90v60c-11.219 0-80.184 0-90 0z"/><path id="XMLID_735_" d="m121.001 481.001h-90v-60h90z"/><path id="XMLID_733_" d="m241.001 481.001h-90v-60h90z"/></g><path id="XMLID_732_" d="m271.001 421.001v60h90c0-7.259 0-52.693 0-60-26.613 0-59.929 0-90 0z" fill="#b0473e"/><path id="XMLID_714_" d="m391.001 421.001v60h90c0-7.259 0-52.693 0-60-10.157 0-79.956 0-90 0z" fill="#b0473e"/><path id="XMLID_699_" d="m391.001 301.001h90c0-7.259 0-52.693 0-60-10.889 0-79.039 0-90 0z" fill="#b0473e"/><path id="XMLID_685_" d="m451.001 391.001h30c0-7.259 0-52.693 0-60-10.492 0-19.508 0-30 0z" fill="#b0473e"/><path id="XMLID_858_" d="m225.001 90.001c-14.981 0-30.019 0-45 0l-10-15 10-15h45l10 15z" fill="#edf5ff"/><path id="XMLID_232_" d="m225.001.001v150h30l10-75-10-75c-10.493 0-19.508 0-30 0z" fill="#d5e8fe"/><path id="XMLID_168_" d="m415.607 64.395c-31.345-31.348-70.749-51.872-112.563-60.19-25.523-5.076-44.833-4.07-48.043-4.203v150c2.749-.114 22.818.813 48.043-4.203 75.02-14.924 114.432-62.914 117.867-65.494l5.303-5.303-5.303-5.303z" fill="#b5dbff"/><path id="XMLID_854_" d="m105.001 120.001c-28.278 0-88.527 0-105 0 0-10.889 0-79.039 0-90h105l10 45z" fill="#f93"/><path id="XMLID_872_" d="m180.001 120.001c-20.194 0-63.236 0-75 0 0-10.889 0-79.039 0-90h75z" fill="#f37445"/></g></svg>