<svg id="Capa_1" enable-background="new 0 0 510 510" height="512" viewBox="0 0 510 510" width="512" xmlns="http://www.w3.org/2000/svg"><g><path d="m240 450c-16.3 0-118.6 0-135 0 0-10.5 0-19.5 0-30h135l10 15z" fill="#d35e59"/><path d="m405 450c-16.3 0-118.6 0-135 0l-10-15 10-15h135z" fill="#b0473e"/><path d="m176.7 510c-18.9 0-37.8 0-56.7 0 0-10.5 0-19.5 0-30h33.3c.8-3.2 21.8-87 22.5-90l19.2-15 11.7 15c-6.2 24.8-23.8 95.2-30 120z" fill="#ea8b86"/><path d="m390 510c-18.9 0-37.8 0-56.7 0-6.2-24.8-23.8-95.2-30-120l11.7-15 19.2 15c7.5 30.1 14.9 59.8 22.5 90h33.3z" fill="#d35e59"/><path d="m255 510c-5.2 0-9.8 0-15 0 0-14.5 0-105.4 0-120l7.5-10 7.5 10 10 60z" fill="#ea8b86"/><path d="m270 510c-5.2 0-9.8 0-15 0 0-14.5 0-105.4 0-120l7.5-10 7.5 10z" fill="#d35e59"/><path d="m255 390c-7.2 0-247.8 0-255 0 0-11 0-379 0-390h255l10 195z" fill="#edf5ff"/><path d="m510 390c-7.2 0-247.8 0-255 0 0-11 0-379 0-390h255z" fill="#d5e8fe"/><path d="m105 180v120l27.5 10 32.5-10 90-90 10-15-10-15-75-10z" fill="#5ad0f4"/><path d="m255 210 10 45-10 45-45 10-45-10c0-10.9 0-79 0-90z" fill="#ffba54"/><path d="m405 180c-10.1 0-139.9 0-150 0v120l75 10 75-10c0-14.5 0-105.4 0-120z" fill="#4994ff"/><path d="m390 106.5-15-14c0-9.5 0-17.9 0-32.5h30v40.5z" fill="#f93"/><path d="m75 108.5v71.5h180l10-59.8-10-59.8c-10 2.7-170 45.4-180 48.1z" fill="#6f7f8f"/><path d="m435 108.5c-10-2.7-170-45.3-180-48v119.5h180c0-8.7 0-62.8 0-71.5z" fill="#4a5f77"/><path d="m255 330c-10 0-170 0-180 0 0-10.5 0-19.5 0-30h180l10 15z" fill="#d35e59"/><path d="m255 300h180v30c-10 0-170 0-180 0z" fill="#b0473e"/></g></svg>