<svg id="Capa_1" enable-background="new 0 0 510 510" height="512" viewBox="0 0 510 510" width="512" xmlns="http://www.w3.org/2000/svg"><g><g><path d="m390 480 15 11 15-11c0-10 0-170 0-180l-15-10-15 10z" fill="#d35e59"/><path d="m120 480-15 10-15-10v-180l15-10 15 10z" fill="#ea8b86"/><path d="m60 480h90v30h-90z" fill="#d35e59"/><path d="m360 510h90c0-10.492 0-19.508 0-30-10.889 0-79.04 0-90 0z" fill="#b0473e"/><path d="m120 60-15 10-15-10v-30l15-10 15 10z" fill="#ea8b86"/><path d="m390 60 15 10 15-10c0-10.492 0-19.508 0-30l-15-10-15 10z" fill="#d35e59"/><path d="m60 0h90v30h-90z" fill="#d35e59"/><path d="m450 30c0-10.492 0-19.508 0-30-10.889 0-79.04 0-90 0v30z" fill="#b0473e"/><g><path d="m240 60-127.5 111.213-112.5 128.787h90l90-75 75-90 10-37.5-10-37.5c-5.246 0-9.754 0-15 0z" fill="#ffe666"/><path d="m255 60v75c9.071-9.071 65.869-65.869 75-75-20.194 0-63.236 0-75 0z" fill="#ffba54"/></g><g><path d="m180 300h75l10-37.5-10-37.5-41.5 30z" fill="#ffe666"/><path d="m510 60c-10.889 0-79.04 0-90 0l-90 75-75 90v75h15l132.5-111z" fill="#ffba54"/></g><path d="m0 60v150l86.5-71 63.5-79z" fill="#ffe666"/><path d="m510 300c0-10.128 0-139.871 0-150l-79.5 67.5-70.5 82.5z" fill="#ffba54"/><path d="m150 60-150 150v90l240-240z" fill="#6f7f8f"/><path d="m360 300c8.332-8.332 141.668-141.667 150-150 0-10.889 0-79.039 0-90-13.319 13.319-226.681 226.681-240 240z" fill="#4a5f77"/><g><path d="m90 300h90l75-75 10-45-10-45c-9.156 9.156-155.844 155.844-165 165z" fill="#6f7f8f"/><path d="m330 60c-9.071 9.071-65.869 65.869-75 75v90l165-165c-10.889 0-79.04 0-90 0z" fill="#4a5f77"/></g></g><g><g id="XMLID_116_"><path d="m255 390h-195v-30h195l10 15z" fill="#d35e59"/></g><g id="XMLID_118_"><path d="m255 360h195v30h-195z" fill="#b0473e"/></g></g></g></svg>