<svg id="Capa_1" enable-background="new 0 0 510 510" height="512" viewBox="0 0 510 510" width="512" xmlns="http://www.w3.org/2000/svg"><g><g><path d="m293.2 301.2c10.9 6.8 83.3 52 94 58.8l-28.3 10-28.3-10c-8.2-5.1-64.1-40.1-72.2-45.1l16-11.9z" fill="#4a5f77"/><path d="m216.8 301.2c-10.6 6.6-82.9 51.8-94 58.8l28.3 10 28.3-10c8.6-5.4 63.6-39.8 72.2-45.1l-13.9-13.7z" fill="#6f7f8f"/><path d="m240 165v60h15l10-30-10-30-7.5-10z" fill="#edf5ff"/><path d="m225 255c-10.5 0-19.5 0-30 0 0 33.1 26.9 60 60 60l10-15-10-15c-16.5 0-30-13.5-30-30z" fill="#edf5ff"/><path d="m315 255c0-28.1-19.3-51.5-45-58.1 0-11.2 0-20.7 0-31.9l-7.5-10-7.5 10v60c16.5 0 30 13.5 30 30s-13.5 30-30 30v30c16.5 0 31.5-6.7 42.4-17.6s17.6-25.9 17.6-42.4z" fill="#d5e8fe"/><path d="m199.2 0c-4.1 12.3-32.2 96.6-36.3 109.1l55.9 55.9h36.2l10-82.5-10-82.5c-62.8 0-6 0-55.8 0z" fill="#6f7f8f"/><path d="m347.2 109.1c-4.1-12.2-32.3-97-36.4-109.1-19.5 0-36.3 0-55.8 0v165h36.2c6.5-6.5 49.5-49.5 56-55.9z" fill="#4a5f77"/><path d="m240 75v30h15l10-15-10-15c-5.2 0-9.8 0-15 0z" fill="#edf5ff"/><path d="m30 390v90l112.5 10 112.5-10 10-45-10-45-112.5-10z" fill="#6f7f8f"/><path d="m480 390-112.5-10-112.5 10v90l112.5 10 112.5-10c0-10.9 0-79 0-90z" fill="#4a5f77"/><path d="m240 420v30h15l10-15-10-15c-5.2 0-9.8 0-15 0z" fill="#4a5f77"/><path d="m254.7 75v30h15c0-10.5 0-19.5 0-30-5.3 0-9.8 0-15 0z" fill="#d5e8fe"/><path d="m254.7 420v30h15c0-10.5 0-19.5 0-30-5.3 0-9.8 0-15 0z" fill="#36485b"/><path d="m0 360v30h255l10-15-10-15c-7.2 0-247.8 0-255 0z" fill="#4a5f77"/><path d="m510 390c0-10.5 0-19.5 0-30-76.5 0-178.8 0-255 0v30z" fill="#36485b"/><path d="m0 480v30h255l10-15-10-15c-7.2 0-247.8 0-255 0z" fill="#4a5f77"/><path d="m510 510c0-10.5 0-19.5 0-30-76.5 0-178.8 0-255 0v30z" fill="#36485b"/></g><path d="m315 420h30v30h-30z" fill="#36485b"/><path d="m390 420h30v30h-30z" fill="#36485b"/><g fill="#4a5f77"><path d="m165 420h30v30h-30z"/><path d="m90 420h30v30h-30z"/></g></g></svg>