<svg id="Capa_1" enable-background="new 0 0 510 510" height="512" viewBox="0 0 510 510" width="512" xmlns="http://www.w3.org/2000/svg"><g id="XMLID_40_"><path id="XMLID_261_" d="m120 330c-14.518 0-105.387 0-120 0 0-14.518 0-105.386 0-120l60-10 60 10z" fill="#5ad0f4"/><path id="XMLID_569_" d="m442.3 335.908c-4.497-2.569-7.3-7.649-7.3-13.268 0-17.548 0-35.103 0-52.641l-15-10-15 10v52.641c0 8.116 2.116 15.916 5.94 22.679 3.879 6.863 9.515 12.659 16.479 16.638 8.487 4.85 10.299 16.473 3.155 23.617-4.226 4.227-10.276 5.473-15.64 3.556-5.602-2.004-9.934-7.422-9.934-14.13-10.492 0-19.508 0-30 0 0 25.225 21.178 46.581 47.844 44.911 11.29-.701 21.457-5.572 28.975-13.092 14.357-14.356 17.027-36.128 7.825-53.2-3.909-7.253-9.831-13.418-17.344-17.711z" fill="#f37445"/><path id="XMLID_568_" d="m363.288 210c5.242 20.968 9.758 39.032 15 60h83.424c5.242-20.968 9.758-39.032 15-60l-56.712-10z" fill="#f93"/><path id="XMLID_52_" d="m180 278.787-10 21.213 10 21.213c2.5-2.5 42.5-42.499 45-45l10-21.213-10-21.213c-2.5 2.501-42.5 42.5-45 45z" fill="#4a5f77"/><path id="XMLID_565_" d="m272.625 206.688-23.838 3.312c-8.319 8.319-15.468 15.468-23.787 23.787v42.426c2.5-2.5 42.5-42.499 45-45z" fill="#36485b"/><path id="XMLID_51_" d="m180 368.787-10 21.213 10 21.213c2.5-2.5 42.5-42.499 45-45l10-21.213-10-21.213c-2.5 2.501-42.5 42.5-45 45z" fill="#4a5f77"/><path id="XMLID_582_" d="m270 278.787c-2.5 2.5-42.5 42.499-45 45v42.426l45-45 10-21.213z" fill="#36485b"/><path id="XMLID_127_" d="m180 458.787-5.583 24.296 26.796-3.083c8.319-8.319 15.468-15.468 23.787-23.787l10-21.213-10-21.213c-2.5 2.501-42.5 42.5-45 45z" fill="#4a5f77"/><path id="XMLID_583_" d="m270 368.787c-2.5 2.5-42.5 42.499-45 45v42.426l45-45 10-21.213z" fill="#36485b"/><path id="XMLID_566_" d="m180 210-15-10-15 10v300h75l10-15-10-15c-14.981 0-30.019 0-45 0 0-15 0-255 0-270z" fill="#6f7f8f"/><path id="XMLID_50_" d="m270 210v270c-14.981 0-30.019 0-45 0v30h75c0-16.651 0-283.349 0-300l-15-10z" fill="#4a5f77"/><path id="XMLID_146_" d="m142.5 0c-6.077 8.102-83.922 111.896-90 120l18.75 10 18.75-10c16.261-21.681 50.423-67.231 60-80v80l15 10 15-10c0-10.889 0-79.039 0-90h45l10-15-10-15c-17.427 0-52.452 0-82.5 0z" fill="#6f7f8f"/><path id="XMLID_71_" d="m424.877 120c-4.654-3.385-160.345-116.615-164.999-120-11.25 0-21.274 0-34.878 0v30c.156 0 4.755 0 4.605 0 9.139 24.371 28.355 75.614 33.75 90l16.02 10 16.02-10c-3.197-8.527-26.271-70.055-29.429-78.477 11.848 8.617 95.934 69.77 107.907 78.477l25.502 10z" fill="#4a5f77"/><path id="XMLID_211_" d="m0 120v90h225l10-45-10-45c-15.192 0-209.806 0-225 0z" fill="#4a5f77"/><path id="XMLID_132_" d="m510 120c-15.815 0-269.185 0-285 0v90h285c0-10.889 0-79.039 0-90z" fill="#36485b"/></g></svg>