<svg id="Capa_1" enable-background="new 0 0 510 510" height="512" viewBox="0 0 510 510" width="512" xmlns="http://www.w3.org/2000/svg"><g><g><path d="m135 450c-20.2 0-63.2 0-75 0 0-7.3 0-52.7 0-60l37.5-10 37.5 10z" fill="#d35e59"/><path d="m375 450h75c0-7.3 0-52.7 0-60l-37.5-10-37.5 10z" fill="#b0473e"/><path d="m30 135v120l112.5 10 112.5-10 10-60-10-60-112.5-10z" fill="#ea8b86"/><path d="m480 135-112.5-10-112.5 10v120l112.5 10 112.5-10c0-14.5 0-105.4 0-120z" fill="#d35e59"/><path d="m0 60v75h255l10-37.5-10-37.5c-7.2 0-247.8 0-255 0z" fill="#d35e59"/><path d="m180 180v30h75l10-15-10-15c-20.2 0-63.2 0-75 0z" fill="#edf5ff"/><path d="m510 60c-7.2 0-247.8 0-255 0v75h255c0-20.2 0-63.2 0-75z" fill="#b0473e"/><path d="m330 180c-20.2 0-63.2 0-75 0v30h75c0-10.5 0-19.5 0-30z" fill="#d5e8fe"/><path d="m180 255-10 67.5 10 67.5h75l10-67.5-10-67.5c-20.2 0-63.2 0-75 0z" fill="#d35e59"/><path d="m330 255c-20.2 0-63.2 0-75 0v135h75l10-67.5z" fill="#b0473e"/><path d="m180 390c-10.1 0-139.9 0-150 0 0-16.3 0-118.6 0-135h150z" fill="#b0473e"/><path d="m330 390h150c0-16.3 0-118.6 0-135-10.1 0-139.9 0-150 0z" fill="#9d4936"/><path d="m225 307.5v30h30l10-15-10-15c-10.5 0-19.5 0-30 0z" fill="#edf5ff"/><path d="m255 307.5v30h30c0-10.5 0-19.5 0-30-10.5 0-19.5 0-30 0z" fill="#d5e8fe"/></g><path d="m385 307.5h40v30h-40z" fill="#d5e8fe"/><path d="m85 307.5h40v30h-40z" fill="#edf5ff"/></g></svg>