<svg id="Capa_1" enable-background="new 0 0 510.033 510.033" height="512" viewBox="0 0 510.033 510.033" width="512" xmlns="http://www.w3.org/2000/svg"><g id="XMLID_230_"><path id="XMLID_361_" d="m240.017 479.949v30.085h22.5c4.142 0 7.5-3.358 7.5-7.5v-.042c0-4.142 3.358-7.5 7.5-7.5h15c4.142 0 7.5 3.358 7.5 7.5v.042c0 4.142 3.358 7.5 7.5 7.5h15c4.142 0 7.5-3.358 7.5-7.5v-.042c0-4.142 3.358-7.5 7.5-7.5h15c4.142 0 7.5 3.358 7.5 7.5v.042c0 4.142 3.358 7.5 7.5 7.5h7.5l10-15.042-10-15.042-67.167-10z" fill="#d5e8fe"/><path id="XMLID_355_" d="m375.017 479.949v30.085h7.5c4.142 0 7.5-3.358 7.5-7.5v-.042c0-4.142 3.358-7.5 7.5-7.5h15c4.142 0 7.5 3.358 7.5 7.5v.042c0 4.142 3.358 7.5 7.5 7.5h15c4.142 0 7.5-3.358 7.5-7.5v-.042c0-4.142 3.358-7.5 7.5-7.5h15c4.142 0 7.5 3.358 7.5 7.5v.042c0 4.142 3.358 7.5 7.5 7.5h22.5c0-10.606 0-18.848 0-30.085l-60.167-10z" fill="#b5dbff"/><path id="XMLID_589_" d="m291.94 36.821c-22.085 7.362-36.923 27.949-36.923 51.229v31.97l15.25 10 14.75-10v-31.97c0-10.347 6.595-19.496 16.411-22.768l73.589-24.53 10-16.732-10-14.891z" fill="#4a5f77"/><path id="XMLID_498_" d="m435.017 54.049v65.97l16 10 14-10v-65.97c0-36.901-36.075-62.898-71.076-51.229l-18.924 6.308v31.623l28.411-9.47c15.556-5.188 31.589 6.37 31.589 22.768z" fill="#36485b"/><path id="XMLID_475_" d="m120.017 375.033c-20.194 0-63.236 0-75 0-24.814 0-45-20.186-45-45 0-28.278 0-88.527 0-105 0-24.812 20.186-45 45-45h15l10 15-10 15c-5.246 0-9.754 0-15 0-8.27 0-15 6.729-15 15v105c0 8.271 6.729 15 15 15h75c24.813 0 45 20.186 45 45v75c0 24.814-20.186 45-45 45-14.518 0-105.386 0-120 0 0-10.492 0-19.508 0-30h120c8.272 0 15-6.729 15-15 0-20.194 0-63.236 0-75 0-4.136-1.682-7.886-4.398-10.602-2.717-2.716-6.467-4.398-10.602-4.398z" fill="#6f7f8f"/><path id="XMLID_442_" d="m60.017 150.033h60l10 45-10 45c-7.259 0-52.693 0-60 0 0-10.889 0-79.04 0-90z" fill="#4a5f77"/><path id="XMLID_441_" d="m285.017 120.033 10 105-10 105c-20.853 0-40.335-2.133-60-8.259l-10-100.871 10-100.871c7.259.001 52.692.001 60 .001z" fill="#ffba54"/><path id="XMLID_395_" d="m225.017 120.033v201.741c-20.641-6.427-33.385-14.357-55.077-18.67-19.675-3.912-37.681-2.901-42.423-3.071h-7.5c0-10 0-170 0-180z" fill="#ffe666"/><path id="XMLID_384_" d="m345.017 330.033 15-10 15 10 10 30-10 30-15 10-15-10c0-7.259 0-52.693 0-60z" fill="#6f7f8f"/><path id="XMLID_340_" d="m375.017 330.033 15-10 15 10v60l-15 10-15-10c0-7.259 0-52.693 0-60z" fill="#4a5f77"/><path id="XMLID_327_" d="m300.017 390.033c-33.082 0-60 26.915-60 60v30h135l10-45-10-45z" fill="#ffe666"/><path id="XMLID_326_" d="m450.017 390.033h-75v90h135c0-10.492 0-19.508 0-30 0-33.083-26.915-60-60-60z" fill="#ffba54"/><path id="XMLID_318_" d="m285.017 120.033h90l10 52.5-10 52.5-45 10-45-10c0-28.278 0-88.527 0-105z" fill="#5ad0f4"/><path id="XMLID_315_" d="m375.017 120.033h135v105l-67.5 10-67.5-10c0-28.278 0-88.527 0-105z" fill="#4994ff"/><path id="XMLID_303_" d="m375.017 225.033 10 52.5-10 52.5c-10.889 0-79.04 0-90 0 0-28.278 0-88.527 0-105z" fill="#4994ff"/><path id="XMLID_302_" d="m510.017 225.033v105c-16.333 0-118.559 0-135 0 0-28.278 0-88.527 0-105z" fill="#545adc"/></g></svg>