<svg id="Capa_1" enable-background="new 0 0 510 510" height="512" viewBox="0 0 510 510" width="512" xmlns="http://www.w3.org/2000/svg"><g><path d="m225 77.016v95.891l15 15.08 15-15.08c0-25.991 0-80.589 0-95.891 0-37.194-36.365-62.8-71.076-51.229-12.151 4.05-89.907 29.969-102 34-22.085 7.361-36.924 27.948-36.924 51.229v31.97l15 15 15-15c0-11.181 0-20.789 0-31.97 0-10.346 6.595-19.496 16.411-22.768 12.394-4.131 89.568-29.856 102-34 3.704-1.235 7.525-1.552 11.213-.989 11.123 1.696 20.376 11.274 20.376 23.757z" fill="#4a5f77"/><path d="m345 306.986-134.162 15.92c1.351 12.17 4.358 24.071 8.947 35.427-12.919 2.328-24.021 4.328-36.939 6.655 1.86 10.326 3.459 19.199 5.319 29.525 14.884-2.682 31.956-5.757 46.839-8.439 8.092 11.357 17.893 21.417 29.039 29.797-2.734 2.412-25.388 22.391-28.182 24.855 6.94 7.869 12.904 14.631 19.844 22.5 11.343-10.004 24.313-21.443 35.656-31.446 12.809 5.568 26.37 9.094 40.296 10.467-.89 2.839-10.122 32.314-11.216 35.804 10.013 3.137 18.616 5.832 28.629 8.969.479-1.526 14.052-44.855 14.208-45.354 13.851-1.883 27.282-5.907 39.89-11.952 3.133 12.75 5.824 23.705 8.957 36.454 10.189-2.503 18.943-4.655 29.133-7.158-.382-1.553-11.233-45.721-11.358-46.228 10.823-8.781 20.251-19.187 27.923-30.84l26.571 26.571c7.419-7.419 13.794-13.794 21.213-21.213-1.131-1.131-33.243-33.243-33.612-33.612 3.472-9.6 5.959-19.903 7.168-30.782z" fill="#d5e8fe"/><path d="m271.509 322.906c6.935 34.02 37.099 60 73.491 60 36.414 0 66.563-26.002 73.49-60l-73.49-10z" fill="#b5dbff"/><path d="m390 172.906c-11.664 0-198.336 0-210 0l-15 37.5 15 37.5 160.618 9.08 160.618-9.08c-18.033-44.415-61.48-75-111.236-75z" fill="#5ad0f4"/><path d="m180 322.906h165 165c0-10.492 0-19.508 0-30 0-15.023-2.788-30.283-8.764-45-17.829 0-303.407 0-321.236 0l-15 37.5z" fill="#4994ff"/><path d="m405 247.906-112.5 7.08-112.5-7.08-10-7.5 10-7.5h225z" fill="#4994ff"/><path d="m405 262.906c-15.192 0-209.806 0-225 0l-10-7.5 10-7.5h225v7.5z" fill="#545adc"/><path d="m141.213 142.986c-17.148 0-124.028 0-141.213 0v104.92l90 15.08 90-15.08c0-23.82 0-51.1 0-74.92-5.847-4.522-27.405-21.196-38.787-30z" fill="#f93"/><path d="m0 322.986h60l15-10 15 10h90c0-20.154 0-62.863 0-75.08-10 0-170 0-180 0z" fill="#f37445"/><path d="m90 247.906-15 15.08-15-15.08c0-14.969 0-29.951 0-44.92h30z" fill="#ffe666"/><path d="m90 322.986c-10.492 0-19.508 0-30 0 0-20.194 0-63.236 0-75h30z" fill="#ffba54"/></g></svg>