<svg id="Capa_1" enable-background="new 0 0 510 510" height="512" viewBox="0 0 510 510" width="512" xmlns="http://www.w3.org/2000/svg"><g id="XMLID_53_"><path id="XMLID_1206_" d="m180 210-68-10-58.416 10-53.584 170 90 10 90-10v-94.667l10-36.333z" fill="#4a5f77"/><path id="XMLID_1203_" d="m180 210v36 39h38.784l10-35.25-10-39.75-20.784-10z" fill="#d35e59"/><path id="XMLID_1088_" d="m240 263.787v-53.787l-11.216-10-10 10v75h.003l25.607 25.606 21.212-21.212z" fill="#b0473e"/><path id="XMLID_1212_" d="m300 510h-300v-31l10-13.999-10-16.001v-69h195c57.897 0 105 47.103 105 105z" fill="#36485b"/><path id="XMLID_1211_" d="m0 449h195v30h-195z" fill="#ffe666"/><path id="XMLID_1259_" d="m510 105-45 10-45-10-10-7.5 10-7.5h90z" fill="#d5e8fe"/><path id="XMLID_1256_" d="m510 120c-10.889 0-79.039 0-90 0l-10-7.5 10-7.5h90z" fill="#b5dbff"/><path id="XMLID_1254_" d="m420 105-30 10-30-10-10-22.5 10-22.5h60z" fill="#ffba54"/><path id="XMLID_1248_" d="m420 150c-7.259 0-52.693 0-60 0l-10-22.5 10-22.5h60z" fill="#f93"/><path id="XMLID_1242_" d="m360 105-37.5 10-37.5-10-10-37.5 10-37.5h75z" fill="#6f7f8f"/><path id="XMLID_1236_" d="m360 180c-20.194 0-63.236 0-75 0l-10-37.5 10-37.5h75z" fill="#4a5f77"/><path id="XMLID_1230_" d="m285 105-142.5 10-142.5-10c0-28.278 0-88.527 0-105h285z" fill="#ffe666"/><path id="XMLID_1228_" d="m285 210c-15.815 0-269.185 0-285 0 0-28.278 0-88.527 0-105h285z" fill="#ffba54"/><path id="XMLID_1225_" d="m225 90c-7.259 0-52.693 0-60 0 0-10.492 0-19.508 0-30h60z" fill="#f93"/><path id="XMLID_1222_" d="m225 150c-7.259 0-52.693 0-60 0 0-10.492 0-19.508 0-30h60z" fill="#f37445"/><path id="XMLID_1219_" d="m90 60c-24.812 0-45 20.187-45 45l45 10 45-10c0-24.812-20.187-45-45-45z" fill="#f93"/><path id="XMLID_1214_" d="m90 150c24.811 0 45-20.186 45-45h-90c0 24.812 20.186 45 45 45z" fill="#f37445"/></g></svg>