<svg id="Capa_1" enable-background="new 0 0 510.001 510.001" height="512" viewBox="0 0 510.001 510.001" width="512" xmlns="http://www.w3.org/2000/svg"><g id="XMLID_152_"><path id="XMLID_103_" d="m132.421 480h47.58l10-15-10-15c-15.123 0-32.457 0-47.58 0l-10 15z" fill="#b0473e"/><path id="XMLID_85_" d="m287.581 450c-15.123 0-32.457 0-47.58 0l-10 15 10 15h47.58l10-16.333z" fill="#9d4936"/><path id="XMLID_792_" d="m180.001 390v90h30l10-45-10-45-15-10z" fill="#d35e59"/><path id="XMLID_794_" d="m210.001 390v90h30c0-10.889 0-79.04 0-90l-15-10z" fill="#b0473e"/><path id="XMLID_835_" d="m180.001 240v90l15 10 15-10 10-45-10-45-15-10z" fill="#d35e59"/><path id="XMLID_795_" d="m210.001 240v90l15 10 15-10c0-10.889 0-79.04 0-90l-15-10z" fill="#b0473e"/><path id="XMLID_843_" d="m180.001 90v60l15 10 15-10 10-63.538-10-63.538c-18.565 16.617-30 40.623-30 67.076z" fill="#6f7f8f"/><path id="XMLID_842_" d="m120.001 330v60h90l10-30-10-30c-10.889 0-79.039 0-90 0z" fill="#6f7f8f"/><path id="XMLID_838_" d="m375.001 0c-28.278 0-88.527 0-105 0-22.987 0-44.025 8.625-60 22.924v127.076l15 10 15-10c0-7.259 0-52.693 0-60 0-16.568 13.432-30 30-30h105c16.568 0 30 13.431 30 30v210c0 16.568-13.432 30-30 30-4.655 0-160.348 0-165 0v60h165c49.704 0 90-40.292 90-90 0-11.664 0-198.336 0-210 0-49.705-40.293-90-90-90z" fill="#4a5f77"/><path id="XMLID_796_" d="m90.001 510c-24.813 0-45-20.186-45-45 0-24.812 20.185-45 45-45 24.813 0 45 20.186 45 45 0 24.812-20.186 45-45 45z" fill="#4a5f77"/><path id="XMLID_799_" d="m298.196 496.805c-17.591-17.59-17.602-46.009 0-63.61 17.589-17.589 46.008-17.601 63.609 0 17.591 17.59 17.602 46.009 0 63.61-17.589 17.589-46.007 17.601-63.609 0z" fill="#36485b"/><path id="XMLID_840_" d="m210.001 240c-20.194 0-63.236 0-75 0 0-10.492 0-19.508 0-30h75l10 15z" fill="#4a5f77"/><path id="XMLID_793_" d="m285.001 240c-20.194 0-63.236 0-75 0 0-10.492 0-19.508 0-30h75z" fill="#36485b"/><path id="XMLID_839_" d="m210.001 180c-20.194 0-63.236 0-75 0 0-10.492 0-19.508 0-30h75l10 15z" fill="#4a5f77"/><path id="XMLID_671_" d="m285.001 180c-20.194 0-63.236 0-75 0 0-10.492 0-19.508 0-30h75z" fill="#36485b"/></g></svg>