<svg id="Capa_1" enable-background="new 0 0 510 510" height="512" viewBox="0 0 510 510" width="512" xmlns="http://www.w3.org/2000/svg"><g><g><path d="m0 0v405l127.5 10 127.5-10 10-202.5-10-202.5c-7.2 0-247.8 0-255 0z" fill="#edf5ff"/><path d="m510 0c-7.2 0-247.8 0-255 0v405l127.5 10 127.5-10c0-11.4 0-393.6 0-405z" fill="#d5e8fe"/><g fill="#6f7f8f"><path d="m90 360c-10.5 0-19.5 0-30 0 0-16.7 0-283.3 0-300h90v30c-7.3 0-52.7 0-60 0z"/><path d="m210 360c-10.5 0-19.5 0-30 0 0-10 0-170 0-180h75v30c-15 0-30 0-45 0z"/><path d="m150 360c-10.5 0-19.5 0-30 0 0-6.8 0-233.2 0-240h90v30c-7.3 0-52.7 0-60 0z"/></g><path d="m331.8 136.8c8.1-8.1 13.2-19.4 13.2-31.8 0-24.8-20.2-45-45-45s-45 20.2-45 45c0 12.4 5 23.7 13.2 31.8 17.6 17.6 46 17.6 63.6 0z" fill="#b5dbff"/><path d="m390 150h30c0-10.9 0-79 0-90-10.5 0-19.5 0-30 0z" fill="#b5dbff"/><path d="m240 240v120h15l10-60-10-60c-5.2 0-9.8 0-15 0z" fill="#6f7f8f"/><path d="m270 240c-5.2 0-9.8 0-15 0v120h15c0-14.5 0-105.4 0-120z" fill="#4a5f77"/><path d="m360 360h90c0-16.3 0-118.6 0-135-10.9 0-79 0-90 0v67.5z" fill="#4994ff"/><path d="m405 135c-12.4 0-23.7 5-31.8 13.2-8.2 8.1-13.2 19.4-13.2 31.8v45h90c0-15 0-30 0-45 0-24.8-20.2-45-45-45z" fill="#5ad0f4"/><path d="m0 405v105h255l10-52.5-10-52.5c-7.2 0-247.8 0-255 0z" fill="#d5e8fe"/><path d="m510 405c-7.2 0-247.8 0-255 0v105h255c0-28.3 0-88.5 0-105z" fill="#b5dbff"/></g><g fill="#ea8b86"><path d="m300 210h30v30h-30z"/><path d="m300 270h30v30h-30z"/><path d="m300 330h30v30h-30z"/></g></g></svg>