<svg id="Capa_1" enable-background="new 0 0 510 510" height="512" viewBox="0 0 510 510" width="512" xmlns="http://www.w3.org/2000/svg"><g><path d="m255 510c-14.981 0-30.019 0-45 0 0-6.771 0-233.232 0-240l22.5-10 22.5 10 10 120z" fill="#ea8b86"/><path d="m300 510c-14.981 0-30.019 0-45 0 0-6.771 0-233.232 0-240l22.5-10 22.5 10z" fill="#d35e59"/><path d="m255 270c-20.194 0-63.236 0-75 0 0-7.259 0-52.693 0-60l37.5-10 37.5 10 10 30z" fill="#d35e59"/><path d="m330 270c-20.194 0-63.236 0-75 0 0-7.259 0-52.693 0-60l37.5-10 37.5 10z" fill="#b0473e"/><path d="m255 210c-28.278 0-88.527 0-105 0l-10-105 10-105h105l10 105z" fill="#6f7f8f"/><path d="m360 210c-28.278 0-88.527 0-105 0 0-11.664 0-198.336 0-210h105l10 105z" fill="#4a5f77"/><path d="m150 210c-10.889 0-79.04 0-90 0v-60l10-14.999-10-15c0-10.493 0-19.508 0-30.001l10-15-10-15v-60h90z" fill="#4a5f77"/><path d="m450 210c-10.889 0-79.04 0-90 0 0-11.664 0-198.336 0-210h90v60l-10 15 10 15v30.001l-10 15 10 14.999z" fill="#36485b"/><path d="m450 150c-7.259 0-52.693 0-60 0 0-10.492 0-19.508 0-30h60z" fill="#4a5f77"/><path d="m450 90c-7.259 0-52.693 0-60 0 0-10.492 0-19.508 0-30h60z" fill="#4a5f77"/><g fill="#6f7f8f"><path d="m120 150c-7.259 0-52.693 0-60 0 0-10.492 0-19.508 0-30h60z"/><path d="m120 90c-7.259 0-52.693 0-60 0 0-10.492 0-19.508 0-30h60z"/></g></g></svg>