<svg id="Capa_1" enable-background="new 0 0 509.979 509.979" height="512" viewBox="0 0 509.979 509.979" width="512" xmlns="http://www.w3.org/2000/svg"><g><path d="m120.785 234.55c-10.835 9.287-78.724 67.478-89.63 76.825-19.799 16.971-31.154 41.66-31.155 67.739v130.865l91.275-77.133 45.011-59.153 40.607-83.034c-10.011-10.012-44.907-44.909-56.108-56.109z" fill="#d5e8fe"/><path d="m198.604 478.824c9.074-10.586 67.715-79.001 76.825-89.63-11.777-11.778-44.366-44.366-56.108-56.108l-83.034 40.607c-4.127 4.126-122.057 122.056-136.287 136.286h130.865c26.076 0 50.766-11.355 67.739-31.155z" fill="#b5dbff"/><path d="m376.82 90.733c-11.539 11.539-137.268 137.268-154.926 154.926l3.535 17.678 17.678 3.536 89.838-75.695 65.089-79.231-4.382-16.832z" fill="#ea8b86"/><path d="m419.247 133.159-4.382-16.832-16.831-4.381c-15.086 15.086-135.258 135.257-154.927 154.926l3.536 17.677 17.678 3.536c18.009-18.009 143.291-143.29 154.926-154.926z" fill="#d35e59"/><path d="m221.894 245.659c-29.501 29.501-54.819 54.819-84.32 84.32-.044 1.471-.044 1.476-1.287 43.713l60.481-46.339 46.339-60.481c-4.239-4.239-20.955-20.955-21.213-21.213z" fill="#6f7f8f"/><path d="m264.321 288.085c-7.419-7.419-13.794-13.794-21.214-21.213-28.919 28.919-89.739 89.739-106.82 106.82 1.471-.043 1.476-.043 43.713-1.287 24.345-24.345 59.903-59.902 84.321-84.32z" fill="#4a5f77"/><path d="m402.427 73.913c0-7.046 0-13.102 0-20.148 2.022-2.023 17.403-17.403 19.393-19.393 5.847-5.848 15.365-5.849 21.213 0 5.696 5.696 10.591 10.591 16.287 16.287l17.678-3.536 3.535-17.678c-1.672-1.671 6.032 6.033-16.286-16.287-17.545-17.544-46.093-17.547-63.64 0-2.816 2.816-25.422 25.42-28.181 28.18.354 3.969 3.955 44.461 4.394 49.394.177.177 21.104 21.104 21.214 21.213l17.677-3.536 3.536-17.678c-.309-.307-15.161-15.159-16.82-16.818z" fill="#6f7f8f"/><path d="m496.82 45.733c-5.696-5.696-10.591-10.591-16.287-16.287-4.239 4.24-20.955 20.955-21.213 21.213 5.696 5.696 10.591 10.591 16.287 16.287 5.85 5.851 5.848 15.364 0 21.213-1.989 1.989-17.371 17.372-19.393 19.393-.336 0-19.853.001-20.147.001-5.883-5.883-10.938-10.938-16.82-16.82-4.239 4.24-20.954 20.955-21.213 21.213 4.239 4.24 20.954 20.955 21.213 21.213 14.252 1.268 35.087 3.121 49.394 4.394l28.18-28.18c17.543-17.543 17.546-46.094-.001-63.64z" fill="#4a5f77"/></g></svg>