<svg id="Capa_1" enable-background="new 0 0 510.002 510.002" height="512" viewBox="0 0 510.002 510.002" width="512" xmlns="http://www.w3.org/2000/svg"><g><path d="m210.502 135.001h-30.5l-11 65.667 11 54.333 52.333 10 67.667-10v-31.5c0-49.351-40.149-88.5-89.5-88.5z" fill="#edf5ff"/><g id="XMLID_159_"><path id="XMLID_676_" d="m420.002 280.001 15-8.743v-153.148l-15-8.109-15 8.109v153.148z" fill="#b5dbff"/><path id="XMLID_961_" d="m120.002 15.001c-41.421 0-75 33.579-75 75v120h60v-120c0-8.284 6.716-15 15-15h30l10-30-10-30z" fill="#d5e8fe"/><path id="XMLID_1067_" d="m380.337 15.001h-230.335v60h211.891z" fill="#b5dbff"/><circle id="XMLID_678_" cx="420.002" cy="60.001" fill="#4a5f77" r="60"/><path id="XMLID_670_" d="m405.002 45.001h30v30h-30z" fill="#36485b"/><path id="XMLID_924_" d="m150.002 390.001-30.002 10-45-10c0-10.492 0-19.508 0-30l45-10 30.002 10 10 15z" fill="#4a5f77"/><path id="XMLID_917_" d="m225.002 390.001-45 10-30-10c0-10.492 0-19.508 0-30l30-10 45 10z" fill="#36485b"/><path id="XMLID_833_" d="m150.002 360.001c-4.655 0-145.35 0-150.002 0 0-20.194 0-63.236 0-75l82.5-10 67.502 10 10 37.5z" fill="#ffba54"/><path id="XMLID_829_" d="m300.002 360.001c0-20.194 0-63.236 0-75l-82.5-10-67.5 10v75z" fill="#f93"/><path id="XMLID_822_" d="m150.002 285.001h-150.002c0-20.194 0-63.236 0-75h150.002l15 37.5z" fill="#ffe666"/><path id="XMLID_683_" d="m60 390.001c-33.083 0-60 26.915-60 60 0 33.083 26.915 60 60 60h90.002l10-60-10-60c-28.278 0-73.529 0-90.002 0z" fill="#6f7f8f"/><path id="XMLID_677_" d="m240.002 390.001c-28.278 0-73.527 0-90 0v120h90c16.542 0 31.542-6.729 42.406-17.594 23.452-23.45 23.47-61.344 0-84.813-10.864-10.864-25.864-17.593-42.406-17.593z" fill="#4a5f77"/><path id="XMLID_673_" d="m60 420.001c-16.541 0-30 13.457-30 30 0 16.54 13.456 30 30 30h90.002l10-30-10-30c-28.278 0-73.529 0-90.002 0z" fill="#d5e8fe"/><path id="XMLID_233_" d="m240.002 420.001c-28.278 0-73.527 0-90 0v60h90c16.541 0 30-13.457 30-30 0-8.271-3.364-15.771-8.797-21.203-5.432-5.433-12.932-8.797-21.203-8.797z" fill="#b5dbff"/><path id="XMLID_160_" d="m420.002 450.001c-49.626 0-90-40.374-90-90s40.374-90 90-90 90 40.374 90 90-40.374 90-90 90z" fill="#36485b"/></g><path d="m180.002 255.001v-120h-30v150h150v-30z" fill="#b5dbff"/></g></svg>