<svg id="Capa_1" enable-background="new 0 0 510 510" height="512" viewBox="0 0 510 510" width="512" xmlns="http://www.w3.org/2000/svg"><g id="XMLID_104_"><path id="XMLID_151_" d="m187.5 275 15 10 10 30-10 30-15 10-15-10c0-7.534 0-53.313 0-60z" fill="#4a5f77"/><path id="XMLID_487_" d="m232.5 285-15-10-15 10v60l15 10 15-10c0-7.259 0-52.693 0-60z" fill="#36485b"/><path id="XMLID_530_" d="m172.5 405v45c0 16.568 13.432 30 30 30l10-37.5-10-37.5-15-10z" fill="#4a5f77"/><path id="XMLID_235_" d="m202.5 405v75c16.568 0 30-13.431 30-30 0-14.981 0-30.019 0-45l-15-10z" fill="#36485b"/><path id="XMLID_148_" d="m187.5 175-15-9.999c0-7.556 0-68.197 0-75.001 0-26.448 11.432-50.456 30-67.076l10 71.038-10 71.038z" fill="#4a5f77"/><path id="XMLID_645_" d="m352.5 0c-10.889 0-79.039 0-90 0-22.987 0-44.025 8.625-60 22.924v142.076l15 10 15-10c0-20.194 0-63.236 0-75 0-16.568 13.432-30 30-30h135c0-5.246 0-9.754 0-15 0-24.851-20.146-45-45-45z" fill="#36485b"/><path id="XMLID_147_" d="m157.5 345c-16.568 0-30 13.431-30 30 0 16.568 13.432 30 30 30h45l10-30-10-30c-14.981 0-30.019 0-45 0z" fill="#ffe666"/><path id="XMLID_552_" d="m292.5 345c-10.889 0-79.039 0-90 0v60h90l10-30z" fill="#ffba54"/><path id="XMLID_212_" d="m352.5 285v225c-7.259 0-52.693 0-60 0 0-15.192 0-209.806 0-225l30-10z" fill="#f93"/><path id="XMLID_518_" d="m172.5 165c-33.137 0-60 26.862-60 60 0 33.137 26.862 60 60 60h30l10-60-10-60c-10.492 0-19.508 0-30 0z" fill="#ffe666"/><path id="XMLID_490_" d="m397.5 165c-10.822 0-184.178 0-195 0v120h195c0-14.518 0-105.386 0-120z" fill="#ffba54"/><path id="XMLID_213_" d="m292.5 240c-10.889 0-79.039 0-90 0 0-10.492 0-19.508 0-30h90z" fill="#f93"/></g></svg>