<svg id="Capa_1" enable-background="new 0 0 510 510" height="512" viewBox="0 0 510 510" width="512" xmlns="http://www.w3.org/2000/svg"><g><path d="m60 0v510h195l10-255-10-255c-10.8 0-184.2 0-195 0z" fill="#6f7f8f"/><path d="m255 0v510h195c0-14.4 0-495.6 0-510-10.8 0-184.2 0-195 0z" fill="#4a5f77"/><g><path d="m120 420h90v30h-90z" fill="#5ad0f4"/><g fill="#edf5ff"><path d="m120 240h30v30h-30z"/><path d="m180 240h30v30h-30z"/><path d="m240 240v30h15l10-15-10-15c-5.2 0-9.8 0-15 0z"/><path d="m120 300h30v30h-30z"/><path d="m180 300h30v30h-30z"/><path d="m240 300v30h15l10-15-10-15c-5.2 0-9.8 0-15 0z"/><path d="m120 360h30v30h-30z"/></g><path d="m300 240h30v30h-30z" fill="#d5e8fe"/><path d="m360 240h30v30h-30z" fill="#d5e8fe"/><path d="m300 300h30v30h-30z" fill="#d5e8fe"/><path d="m360 300h30v30h-30z" fill="#d5e8fe"/><path d="m300 360h30v30h-30z" fill="#d5e8fe"/><path d="m300 420h30v30h-30z" fill="#d5e8fe"/><path d="m180 360h30v30h-30z" fill="#edf5ff"/><path d="m240 360v30h15l10-15-10-15c-5.2 0-9.8 0-15 0z" fill="#edf5ff"/><path d="m240 420v30h15l10-15-10-15c-5.2 0-9.8 0-15 0z" fill="#edf5ff"/></g><g><path d="m360 450h30c0-10.9 0-79 0-90-10.5 0-19.5 0-30 0z" fill="#f37445"/></g><path d="m120 60v135h135l10-67.5-10-67.5c-16.3 0-118.6 0-135 0z" fill="#5ad0f4"/><path d="m390 60c-16.3 0-118.6 0-135 0v135h135c0-16.3 0-118.6 0-135z" fill="#4994ff"/><path d="m180 105h30v45h-30z" fill="#edf5ff"/><path d="m300 105h30v45h-30z" fill="#d5e8fe"/><path d="m240 105v45h15l10-22.5-10-22.5c-5.2 0-9.8 0-15 0z" fill="#edf5ff"/><g fill="#d5e8fe"><path d="m254.9 240v30h15c0-10.5 0-19.5 0-30-5.3 0-9.8 0-15 0z"/><path d="m254.9 300v30h15c0-10.5 0-19.5 0-30-5.3 0-9.8 0-15 0z"/><path d="m254.9 360v30h15c0-10.5 0-19.5 0-30-5.3 0-9.8 0-15 0z"/><path d="m254.9 420v30h15c0-10.5 0-19.5 0-30-5.3 0-9.8 0-15 0z"/><path d="m254.9 105v45h15c0-15 0-30 0-45-5.3 0-9.8 0-15 0z"/></g></g></svg>