<svg id="Capa_1" enable-background="new 0 0 510 510" height="512" viewBox="0 0 510 510" width="512" xmlns="http://www.w3.org/2000/svg"><g><path d="m105 75v180l75 10 75-10 10-30.856-10-30.857-37-127.62z" fill="#ffe666"/><path d="m255 193.287v61.713l75 10 75-10c0-10 0-170 0-180l-117.667-9.333z" fill="#ffba54"/><path d="m223.868 346.095-5.065 66.952-5.065 52.108c-2.012 24.141 17.037 44.845 41.262 44.845l10-89.375-10-74.53-15.566-10z" fill="#6f7f8f"/><path d="m296.263 465.155-5.065-52.108-5.065-66.952-15.566-10-15.566 10v163.905c.377-.085 17.248 1 30.47-13.369 7.538-8.195 11.798-19.405 10.792-31.476z" fill="#4a5f77"/><path d="m105 255v46.095c0 24.852 20.147 45 45 45h105l10-45.548-10-45.547c-10.128 0-139.871 0-150 0z" fill="#d5e8fe"/><path d="m405 301.095c0-36.277 0-9.83 0-46.095-10.128 0-139.871 0-150 0v91.095h105c24.851 0 45-20.147 45-45z" fill="#b5dbff"/><path d="m105 0v75h20.624c16.224 0 29.376 13.151 29.376 29.376 0 8.151 3.187 15.674 8.409 21.224 11.733 12.47 30.795 12.296 42.505.909 5.605-5.451 9.086-13.073 9.086-21.509v59.376c0 20.606 19.974 35.991 40 28.911l10-96.643-10-96.644c-10.128 0-139.871 0-150 0z" fill="#4994ff"/><path d="m275 165c0-10.492 0-19.508 0-30 0 16.781 13.822 30.456 30.843 29.988 16.341-.448 29.157-14.265 29.157-30.612 0-10.492 0-19.508 0-30 0-16.224 13.151-29.376 29.376-29.376h40.624c0-20.194 0-63.236 0-75-10.128 0-139.871 0-150 0v193.287c11.67-4.128 20-15.245 20-28.287z" fill="#545adc"/></g></svg>