<svg id="Capa_1" enable-background="new 0 0 510 510" height="512" viewBox="0 0 510 510" width="512" xmlns="http://www.w3.org/2000/svg"><g><path d="m59.997 141.207v107.583l10 20.71-10 21.72v62.57l10 19.46-10 22.971v44.369c.096.11 10.338 11.956 10.48 12.12l16.773 4.79 2.906 17.95c1.045 1.207 28.791 33.258 29.84 34.47l.001-.002.002-.002 10-184.351-10-184.353-30.001-10.002z" fill="#6f7f8f"/><path d="m167.143 141.217-17.145-10.002-29.998 9.997v368.704c6.963-8.046 52.991-61.231 59.997-69.326v-54.98l-9.497-16.11 9.497-26.31c0-13.674 0-53.295 0-66.97l-10.497-13.887 10.497-28.543v-62.57z" fill="#4a5f77"/><path d="m179.997 385.61c0-14.848 0-27.572 0-42.42-7.007 7.007-53.033 53.032-59.997 59.996v42.42c7.007-7.006 53.033-53.032 59.997-59.996z" fill="#36485b"/><path d="m179.997 276.22c0-14.848 0-27.582 0-42.43-7.007 7.007-53.033 53.032-59.997 59.996v42.431c6.177-6.178 53.718-53.718 59.997-59.997z" fill="#36485b"/><path d="m179.997 171.22c0-10.493 0-19.51 0-30.003l-6.213-10.001-6.213 10c-5.415 5.415-42.12 42.119-47.571 47.57v42.431c6.177-6.178 53.718-53.718 59.997-59.997z" fill="#36485b"/><g fill="#4a5f77"><path d="m90.156 475.45 29.844-29.844c0-14.848 0-27.572 0-42.42-13.331 13.33-41.758 41.758-49.523 49.523 6.882 7.954 12.796 14.788 19.679 22.741z"/><path d="m59.997 396.22c6.178-6.178 53.725-53.724 60.003-60.003 0-14.848 0-27.583 0-42.431-7.007 7.008-53.04 53.04-60.003 60.004z"/><path d="m59.997 291.22c6.178-6.178 53.725-53.724 60.003-60.003 0-14.848 0-27.583 0-42.431-7.007 7.008-53.04 53.04-60.003 60.004z"/><path d="m105 35.729c0-12.496 0-23.233 0-35.729-28.278 0-88.527 0-105 0v15c0 42.697 16.626 82.84 46.82 113.032.342.342 13.058 13.059 13.174 13.175 6.04 0 54.075.004 60.006.005l10-48.991-10-48.991c-5.246-2.624-9.754-4.877-15-7.501z"/></g><path d="m135 0v35.729c-5.246 2.623-9.754 4.877-15 7.5v97.982c5.932.001 53.947.005 59.997.005 1.353-1.354-4.883 4.884 13.184-13.185 30.191-30.189 46.819-70.332 46.819-113.031 0-5.246 0-9.754 0-15-28.278 0-88.527 0-105 0z" fill="#36485b"/><path d="m329.999 231.291v107.568l10 19.891-10 22.551v59.369c.099.114 6.673 7.715 6.4 7.4l14.684 7.68 5.007 15.06c10.781 12.46 23.128 26.73 33.909 39.19h.001c1.087-15.153 8.712-121.402 10-139.354l-10-139.353-30-10.001z" fill="#6f7f8f"/><path d="m437.566 231.294-17.566-10.001-30 10v278.706c6.001-6.934 53.888-62.268 59.999-69.329v-63.77l-10-17.899 10-24.53v-73.171z" fill="#4a5f77"/><path d="m356.09 470.81 33.91-33.91 10-21.215-10-21.215c-4.309 4.309-48.209 48.209-53.601 53.601 2.021 2.333-7.293-8.424 19.691 22.739z" fill="#4a5f77"/><path d="m449.999 376.9c0-14.848 0-27.583 0-42.431-6.58 6.58-53.496 53.497-59.999 60v42.43c7.291-7.292 52.686-52.686 59.999-59.999z" fill="#36485b"/><path d="m329.999 381.3c6.579-6.579 53.498-53.497 60.001-60l10-21.221-10-21.22c-7.291 7.291-52.689 52.689-60.001 60.001z" fill="#4a5f77"/><path d="m449.999 261.3c0-10.494 0-19.512 0-30.006l-6.216-10.001-6.217 10c-13.013 13.013-40.116 40.116-47.566 47.566v42.44c6.579-6.578 53.496-53.496 59.999-59.999z" fill="#36485b"/><path d="m375 125.81c0-12.496 0-23.233 0-35.729-28.278 0-88.527 0-105 0v15c0 42.693 16.624 82.84 46.82 113.032 1.353 1.352-4.882-4.882 13.179 13.179 7.259 0 52.694.002 60.001.002l10-48.992-10-48.991c-5.246-2.625-9.754-4.878-15-7.501z" fill="#4a5f77"/><path d="m405 90.08v35.729c-5.246 2.623-9.754 4.877-15 7.5v97.983c6.043 0 54.074.001 59.999.001 4.614-4.614 8.54-8.54 13.181-13.181 30.192-30.191 46.82-70.332 46.82-113.032 0-5.246 0-9.754 0-15-28.278 0-88.527 0-105 0z" fill="#36485b"/></g></svg>