<svg id="Capa_1" enable-background="new 0 0 510 510" height="512" viewBox="0 0 510 510" width="512" xmlns="http://www.w3.org/2000/svg"><g><path d="m202.501 390-60 10-60-10c0-10.492 0-19.508 0-30l60-10 60 10 10 15z" fill="#4a5f77"/><path d="m337.501 390-67.5 10-67.5-10c0-10.492 0-19.508 0-30l67.5-10 67.5 10z" fill="#36485b"/><path d="m22.501 0v210l45 10 45-10c0-14.518 0-105.387 0-120h90l10-45-10-45c-10 0-170 0-180 0z" fill="#d5e8fe"/><path d="m427.501 0c-15.192 0-209.806 0-225 0v90h225z" fill="#b5dbff"/><path d="m202.501 285-97.5 10-97.5-10c0-20.194 0-63.236 0-75h195l10 37.5z" fill="#5ad0f4"/><path d="m202.501 360c-10.822 0-184.178 0-195 0 0-20.194 0-63.236 0-75h195l10 37.5z" fill="#4994ff"/><path d="m202.501 135v150l15 10 45.5-10 9.5-75-9.5-75c-19.712 0-43.045 0-60.5 0z" fill="#4994ff"/><path d="m382.501 224.5c0-49.351-40.148-89.5-89.5-89.5-.101 0-.601 0-.5 0 0 10.128-20.833 80-20.833 80l20.833 57.667 90-17.167c0-21.166 0-9.834 0-31z" fill="#edf5ff"/><path d="m473.341 315c2.24 16.623 8.976 33.063 20.193 48.041 13.237 17.676 11.801 42.766-4.214 58.778-13.192 13.194-32.466 16.379-48.427 10.042-17.113-6.797-28.393-23.513-28.393-41.861h30c0 8.652 7.244 15.501 15.985 14.97 9.154-.569 16.211-9.759 13.408-19.231-.59-1.995-1.519-3.572-2.373-4.714-14.994-20.02-24.016-42.622-26.389-66.023l14.37-10.002z" fill="#36485b"/><path d="m472.501 225-15 10-15-10c0-4.822 0-132.61 0-137.573l12-24.76 18-17.667z" fill="#b5dbff"/><g fill="#6f7f8f"><path d="m502.501 315c-10.889 0-79.039 0-90 0 0-10.889 0-79.039 0-90h90z"/><path d="m427.501 90c-24.812 0-45-20.187-45-45 0-24.812 20.186-45 45-45 12.406 0 23.656 5.047 31.805 13.195 17.591 17.591 17.602 46.008 0 63.609-8.149 8.149-19.399 13.196-31.805 13.196z"/><path d="m67.501 390c-16.542 0-31.542 6.728-42.406 17.594-23.452 23.45-23.47 61.345 0 84.813 10.864 10.865 25.864 17.593 42.406 17.593h135l10-60-10-60c-16.333 0-118.559 0-135 0z"/></g><path d="m337.501 390c-16.333 0-118.559 0-135 0v120h135c16.542 0 31.542-6.728 42.406-17.594 23.452-23.45 23.47-61.345 0-84.813-10.864-10.865-25.864-17.593-42.406-17.593z" fill="#4a5f77"/><path d="m67.501 420c-8.272 0-15.772 3.364-21.203 8.797-11.727 11.725-11.734 30.674 0 42.406 5.431 5.433 12.931 8.797 21.203 8.797h135l10-30-10-30c-16.333 0-118.559 0-135 0z" fill="#d5e8fe"/><path d="m337.501 420c-16.333 0-118.559 0-135 0v60h135c8.271 0 15.771-3.364 21.203-8.797 11.727-11.725 11.734-30.674 0-42.406-5.432-5.433-12.932-8.797-21.203-8.797z" fill="#b5dbff"/><path d="m292.501 255.5v-120.5h-29.5v150l59.75 10 59.75-10v-29.5z" fill="#b5dbff"/><path d="m382.501 360c0-20.194 0-63.236 0-75-10 0-170 0-180 0v75z" fill="#545adc"/></g></svg>