<svg id="Capa_1" enable-background="new 0 0 510 510" height="512" viewBox="0 0 510 510" width="512" xmlns="http://www.w3.org/2000/svg"><g><g><path d="m297.8 510h212.2c0-10.9 0-79 0-90-38.8 0-83.4 0-122.2 0-11 10.9-79 79-90 90z" fill="#4a5f77"/><path d="m212.2 510h-212.2v-90h122.2z" fill="#6f7f8f"/><path d="m120 150h-120v-60h120l10 18.5z" fill="#f93"/><path d="m390 150h120c0-10.9 0-60 0-60h-120l-10 15z" fill="#f37445"/><path d="m210 375v89.2l45 45 10-67.1-10-67.1-22.5-10z" fill="#d5e8fe"/><path d="m300 375-22.5-10-22.5 10v134.2c2.5-2.5 42.5-42.5 45-45 0-10.8 0-78.3 0-89.2z" fill="#b5dbff"/><path d="m180 315v60h75l10-30-10-30-37.5-10z" fill="#f93"/><path d="m330 315-37.5-10-37.5 10v60h75c0-7.3 0-52.7 0-60z" fill="#f37445"/><path d="m150 240v75h105l10-37.5-10-37.5-52.5-10z" fill="#ffba54"/><path d="m360 240-52.5-10-52.5 10v75h105c0-20.2 0-63.2 0-75z" fill="#f93"/><path d="m173.8 0c-5.8 5.8-48 48-53.8 53.8v186.2h135l10-120-10-120c-9.8 0-71.3 0-81.2 0z" fill="#ffe666"/><path d="m390 53.8c-5.8-5.8-48-48-53.8-53.8-9.8 0-71.3 0-81.2 0v240h135c0-5.3 0-181 0-186.2z" fill="#ffba54"/><path d="m255 180h-90v-90h90z" fill="#f93"/></g><g fill="#f37445"><path d="m300 90h30v30h-30z"/><path d="m300 150h30v30h-30z"/></g></g></svg>