<svg id="Capa_1" enable-background="new 0 0 510 510" height="512" viewBox="0 0 510 510" width="512" xmlns="http://www.w3.org/2000/svg"><g><g id="XMLID_214_"><path id="XMLID_189_" d="m195 45 10-14.7-10-15.3c-16.3 0-118.6 0-135 0v150l14.7 10 15.3-10z" fill="#d5e8fe"/><path id="XMLID_205_" d="m285 225h30c0-12.5 0-91.2 0-104 0-58.4-47.5-106-106-106-4.9 0-9.1 0-14 0v30z" fill="#b5dbff"/><path id="XMLID_1451_" d="m90 45v120l100.6 75 4.4-15 10-89.5-10-90.5c-28.3 0-88.5 0-105 0z" fill="#edf5ff"/><path id="XMLID_1448_" d="m285 121c0-41.9-34.1-76-76-76-4.9 0-9.1 0-14 0v180l45 15 45-15-10-8.8 10-6.8c0-31.1 0-51.8 0-88.4z" fill="#d5e8fe"/><path id="XMLID_1446_" d="m285 225c0-5.4 0-10.1 0-15.5-13.1-10.7-28.1-22.9-41.2-33.5 3.4-6.7 6.3-12.5 9.6-19.2-9.4-4.7-17.4-8.7-26.8-13.4-4.1 8.1-13.8 27.6-20.4 40.8 5.3 4.3 45.1 36.7 50.4 41l14.2 10z" fill="#ea8b86"/><path id="XMLID_267_" d="m405 390h30l10-45-10-45c-10.5 0-19.5 0-30 0l-10 45z" fill="#4a5f77"/><path id="XMLID_489_" d="m510 465c-20.2 0-63.2 0-75 0 0-17.4 0-296.6 0-314h30v284h45z" fill="#36485b"/><path id="XMLID_1449_" d="m186.2 225c-7.3-7.3-52.7-52.7-60-60-15.3 0-126.2 0-126.2 0v60l10 15-10 15v30l10 15-10 15v106h195l10-98-10-98c-.4 0-9 0-8.8 0z" fill="#ffe666"/><path id="XMLID_1447_" d="m405 285c0-33.1-26.9-60-60-60-15.4 0-130.7 0-150 0v196h210c0-16.5 0-119.4 0-136z" fill="#ffba54"/><circle id="XMLID_427_" cx="120" cy="435" fill="#4a5f77" r="60"/><circle id="XMLID_444_" cx="315" cy="420" fill="#4a5f77" r="75"/><g fill="#ffba54"><path id="XMLID_351_" d="m90 255c-10.9 0-90 0-90 0v-30h90z"/><path id="XMLID_288_" d="m120 315c-14.5 0-120 0-120 0v-30h120z"/></g></g><path d="m300 405h30v30h-30z" fill="#36485b"/></g></svg>