<svg id="Capa_1" enable-background="new 0 0 510 510" height="512" viewBox="0 0 510 510" width="512" xmlns="http://www.w3.org/2000/svg"><g><path d="m195 90v270l10 16.25-10 13.75v30l10 15-10 15v60h60l10-210-10-210-30-10z" fill="#edf5ff"/><path d="m315 90-30-10-30 10v420h60c0-57.358 0-376.881 0-420z" fill="#d5e8fe"/><path d="m209.999 0c-1.598 1.598 2.152-2.152-29.999 30-10.889 0-79.04 0-90 0v60h165l10-45-10-45c-14.305 0-30.695 0-45.001 0z" fill="#6f7f8f"/><path d="m420 30c-14.516-3.629-105.388-26.347-120-30-14.981 0-30.019 0-45 0v90h165c0-7.259 0-52.693 0-60z" fill="#4a5f77"/><path d="m195 420h45v30h-45z" fill="#b5dbff"/><path d="m195 360h45v30h-45z" fill="#b5dbff"/><path d="m90 180v60l45 15v45h90v-120z" fill="#6f7f8f"/><path d="m285 300h90c0-14.981 0-30.019 0-45 14.318-4.773 30.682-10.227 45-15 0-7.259 0-52.693 0-60-16.333 0-118.559 0-135 0z" fill="#4a5f77"/></g></svg>