<svg id="Capa_1" enable-background="new 0 0 510 510" height="512" viewBox="0 0 510 510" width="512" xmlns="http://www.w3.org/2000/svg"><g><path d="m150 0-10 90 10 75h105l10-20.5-10-24.5-75-120z" fill="#5ad0f4"/><path d="m360 0h-30l-75 120v45h105l10-75z" fill="#4994ff"/><path d="m180 0v120h75l10-25.7-10-34.3-15-60c-20.8 0-39.2 0-60 0z" fill="#edf5ff"/><path d="m330 0c-20.8 0-39.2 0-60 0l-15 60v60h75c0-14.5 0-105.4 0-120z" fill="#d5e8fe"/><path d="m240 0v60h15l10-30-10-30c-5.2 0-9.8 0-15 0z" fill="#f93"/><path d="m270 0c-5.2 0-9.8 0-15 0v60h15c0-7.3 0-52.7 0-60z" fill="#f37445"/><path d="m120 210v90c-7.3 0-52.7 0-60 0v90c-7.3 0-52.7 0-60 0v120h255l10-150-10-150c-14.9 0-121.1 0-135 0z" fill="#ea8b86"/><path d="m510 510c0-31.1 0-270.1 0-300-84.8 0-170.2 0-255 0v300z" fill="#d35e59"/><path d="m330 330v60h90c0-7.3 0-52.7 0-60-28.7 0-62.7 0-90 0z" fill="#b0473e"/><path d="m210 330v60h45l10-30-10-30c-25.3 0-19.5 0-45 0z" fill="#d35e59"/><path d="m300 390c0-7.3 0-52.7 0-60-15.7 0-29.1 0-45 0v60z" fill="#b0473e"/><path d="m270 300h90c0-7.3 0-52.7 0-60-10.9 0-79 0-90 0z" fill="#b0473e"/><g fill="#d35e59"><path d="m150 240h90v60c-11.2 0-80.2 0-90 0z"/><path d="m90 330h90v60c-11.2 0-80.2 0-90 0z"/><path d="m120 480h-90v-60h90z"/><path d="m240 480h-90v-60h90z"/></g><path d="m270 420v60h90c0-7.3 0-52.7 0-60-26.6 0-59.9 0-90 0z" fill="#b0473e"/><path d="m390 420v60h90c0-7.3 0-52.7 0-60-10.2 0-80 0-90 0z" fill="#b0473e"/><path d="m390 300h90c0-7.3 0-52.7 0-60-10.9 0-79 0-90 0z" fill="#b0473e"/><path d="m150 165h-150v-165h150z" fill="#4994ff"/><path d="m510 165c0-16.7 0-144.8 0-165-10.1 0-139.9 0-150 0v165z" fill="#545adc"/><path d="m60 67.5h30v30h-30z" fill="#ffe666"/><path d="m420 67.5h30v30h-30z" fill="#ffba54"/><path d="m450 390h30c0-7.3 0-52.7 0-60-10.5 0-19.5 0-30 0z" fill="#b0473e"/></g></svg>