<svg id="Capa_1" enable-background="new 0 0 510 510" height="512" viewBox="0 0 510 510" width="512" xmlns="http://www.w3.org/2000/svg"><g><path d="m360.192 0v76.893l7.498 13.107 7.499-15 10-40-10-35c-5.245 0-9.752 0-14.997 0z" fill="#d5e8fe"/><path d="m375.189 0v75l7.503 15 7.5-13.108c0-37.649 0-53.704 0-76.892-.164 0-15.749 0-15.003 0z" fill="#b5dbff"/><path d="m480.574 509.363c-17.18-74.677-57.451-249.723-74.314-323.022l7.68-16.175 16.509-11.746c3.239 14.05 76.134 330.214 79.362 344.216-22.435 5.163-7.178 1.652-29.237 6.727z" fill="#b5dbff"/><path d="m269.81 509.363c-7.155-1.647 5.221 1.201-29.236-6.727 3.955-17.153 74.722-324.087 79.362-344.216l14.503 11.517 9.687 16.402c-15.108 65.67-57.268 248.922-74.316 323.024z" fill="#d5e8fe"/><path d="m.189 0v60l10 15-10 15v30l10 15-10 15v30l10 15-10 15v30l10 15-10 15v30l10 14.333-10 15.667v30l10 15-10 15v30l10 15-10 15v60h120l10-255-10-255c-14.517 0-105.386 0-120 0z" fill="#5ad0f4"/><g fill="#4994ff"><path d="m120.189 0v510h75c0-14.385 0-495.615 0-510-20.194 0-63.236 0-75 0z"/><path d="m.189 60v30h75c0-10.492 0-19.508 0-30-20.194 0-63.236 0-75 0z"/><path d="m60.189 120c-7.259 0-52.693 0-60 0v30h60c0-10.492 0-19.508 0-30z"/><path d="m.189 210h75c0-10.492 0-19.508 0-30-20.194 0-63.236 0-75 0 0 10.492 0 19.508 0 30z"/><path d="m60.189 240c-7.259 0-52.693 0-60 0v30h60c0-10.492 0-19.508 0-30z"/><path d="m.189 330h75c0-10.492 0-19.508 0-30-20.194 0-63.236 0-75 0 0 10.492 0 19.508 0 30z"/><path d="m60.189 360c-7.259 0-52.693 0-60 0v30h60c0-10.492 0-19.508 0-30z"/><path d="m.189 450h75c0-10.492 0-19.508 0-30-20.194 0-63.236 0-75 0 0 10.492 0 19.508 0 30z"/></g><path d="m319.745 112.033c-12.678 30.572 1.872 65.721 32.479 78.414 7.074 2.933 14.83 4.553 22.965 4.553l10-60-10-60c-24.52 0-46.239 14.836-55.444 37.033z" fill="#ffba54"/><path d="m417.619 92.573c-19.081-19.077-41.84-17.381-42.43-17.573v120c.573-.188 23.428 1.425 42.43-17.573 23.308-23.313 23.565-61.285 0-84.854z" fill="#f93"/><path d="m495.192 330c-36.541 0-68.459 0-105 0l-10-15 10-15h105z" fill="#d5e8fe"/><path d="m360.192 330c-20.976 0-81.029 0-105 0 0-10.285 0-19.715 0-30h105l10 15z" fill="#edf5ff"/><path d="m360.192 375h14.997l10-52.5-10-52.5c-5.245 0-9.752 0-14.997 0z" fill="#d5e8fe"/><path d="m390.192 375c0-24.263 0-83.627 0-105-8.261 0-6.776 0-15.003 0v105z" fill="#b5dbff"/></g></svg>