<svg id="Capa_1" enable-background="new 0 0 507.807 507.807" height="512" viewBox="0 0 507.807 507.807" width="512" xmlns="http://www.w3.org/2000/svg"><g id="XMLID_9_"><g id="XMLID_241_"><path id="XMLID_245_" d="m303.139 310.634-17.678 3.535-3.535 17.678 63.178 77.32 77.32 63.178 21.213-21.213c-7.798-7.798-132.701-132.7-140.498-140.498z" fill="#d5e8fe"/><path id="XMLID_242_" d="m260.713 353.06c7.813 7.814 132.523 132.524 140.295 140.296l21.214-21.214c-7.788-7.788-132.487-132.487-140.296-140.296l-17.88 3.334z" fill="#b5dbff"/></g><g id="XMLID_222_"><path id="XMLID_238_" d="m127.378 49.25c-7.604 1.084-66.647 9.504-74.377 10.606 8.511 8.532 40.246 40.345 52.902 53.032-.182 14.847-.338 27.569-.52 42.416l59.874 74.018 74.242 60.099 18.331-4.398 3.289-17.222c-11.131-11.138-80.122-80.17-91.217-91.272 0-10.313 0-74.512 0-84.854-5.164-5.153-37.341-37.254-42.524-42.425z" fill="#d5e8fe"/><path id="XMLID_225_" d="m63.639 154.786c-6.418-6.386-46.572-46.34-53.032-52.769-1.085 7.595-9.505 66.576-10.607 74.296 4.471 4.476 38.024 38.067 42.426 42.474h84.852c10.58 10.591 80.737 80.813 91.386 91.471l17.252-3.584 3.584-17.252c-7.446-7.446-126.665-126.665-134.116-134.116-.842-.012-37.489-.467-41.745-.52z" fill="#b5dbff"/></g><path id="XMLID_209_" d="m334.583 194.338c-7.251 7.251-250.219 250.218-257.486 257.485l21.214 21.214 134.76-122.719 122.72-134.761 2.311-23.771z" fill="#ea8b86"/><path id="XMLID_207_" d="m355.797 215.551c-7.259 7.259-250.228 250.227-257.486 257.486 7.419 7.419 13.794 13.794 21.213 21.213 7.251-7.251 250.212-250.211 257.479-257.479l5.98-27.32z" fill="#d35e59"/><path id="XMLID_101_" d="m365.754 13.557c-7.153 7.17-98.686 98.917-105.84 106.088 10.913 10.917 84.874 84.9 95.87 95.9l59.996-46.322 45.914-59.588c-10.917-10.933-84.929-85.052-95.94-96.078z" fill="#4a5f77"/><path id="XMLID_46_" d="m507.807 261.97c0-12.897 0-93.219 0-106.157-3.571-3.576-41.748-41.808-46.112-46.178-7.158 7.158-98.751 98.751-105.91 105.91 3.734 3.736 41.824 41.838 46.409 46.425z" fill="#36485b"/></g></svg>