<svg id="Capa_1" enable-background="new 0 0 510 510" height="512" viewBox="0 0 510 510" width="512" xmlns="http://www.w3.org/2000/svg"><g><g id="XMLID_539_"><path id="XMLID_588_" d="m195 69.4v440.6h60l15-255-15-255c-6.7 7.8-53.4 61.7-60 69.4z" fill="#ea8b86"/><path id="XMLID_587_" d="m315 69.4c-6.7-7.7-53.4-61.7-60-69.3v509.9h60c0-12.5 0-428.2 0-440.6z" fill="#d35e59"/><path id="XMLID_585_" d="m165 510c-14.5 0-105.4 0-120 0 0-12.4 0-428.2 0-440.6 6.7-7.8 53.4-61.7 60-69.4 6.7 7.7 53.4 61.7 60 69.3z" fill="#d35e59"/><path id="XMLID_581_" d="m465 510c-14.5 0-105.4 0-120 0 0-12.4 0-428.2 0-440.6 6.7-7.7 53.4-61.7 60-69.3 6.7 7.7 53.4 61.7 60 69.3z" fill="#b0473e"/><path id="XMLID_579_" d="m255 255c-7.2 0-247.8 0-255 0 0-14.5 0-105.4 0-120h255l15 60z" fill="#b0473e"/><path id="XMLID_572_" d="m510 255c-7.2 0-247.8 0-255 0 0-14.5 0-105.4 0-120h255z" fill="#9d4936"/><path id="XMLID_567_" d="m255 210c-5.2 0-9.8 0-15 0 0-10.5 0-19.5 0-30h15l6 15z" fill="#ea8b86"/><path id="XMLID_561_" d="m255 435c-7.2 0-247.8 0-255 0 0-14.5 0-105.4 0-120h255l15 60z" fill="#b0473e"/><path id="XMLID_557_" d="m510 435c-7.2 0-247.8 0-255 0 0-14.5 0-105.4 0-120h255z" fill="#9d4936"/><path id="XMLID_555_" d="m120 390c-10.5 0-19.5 0-30 0 0-10.5 0-19.5 0-30h30v15z" fill="#ea8b86"/><path id="XMLID_541_" d="m255 390c-5.2 0-9.8 0-15 0 0-10.5 0-19.5 0-30h15l5 15z" fill="#ea8b86"/><g fill="#d35e59"><path id="XMLID_5_" d="m255 180h15v30c-5.2 0-9.8 0-15 0z"/><path id="XMLID_4_" d="m255 360h15v30c-5.2 0-9.8 0-15 0z"/></g></g><path id="XMLID_1_" d="m120 210c-10.5 0-19.5 0-30 0 0-10.5 0-19.5 0-30h30v15z" fill="#ea8b86"/><g fill="#d35e59"><path id="XMLID_3_" d="m420 390c-10.5 0-19.5 0-30 0 0-10.5 0-19.5 0-30h30v15z"/><path id="XMLID_2_" d="m420 210c-10.5 0-19.5 0-30 0 0-10.5 0-19.5 0-30h30v15z"/></g></g></svg>