<svg id="Capa_1" enable-background="new 0 0 510 510" height="512" viewBox="0 0 510 510" width="512" xmlns="http://www.w3.org/2000/svg"><g><path d="m136.362 292.424c-7.323 7.324-128.747 128.748-136.361 136.362 0 9.177-.001 72.119-.001 81.214l90.612-76.47 76.47-90.612-9.295-33.972z" fill="#edf5ff"/><path d="m314.397 154.826-21.973-18.463c7.576-7.576 128.781-128.782 136.363-136.363h81.212l-77.178 89.907-89.907 77.178z" fill="#edf5ff"/><path d="m342.914 167.085c7.948-7.948 158.646-158.646 167.085-167.085h.001v81.214c-7.324 7.324-128.748 128.748-136.363 136.362l-19.395-20.023z" fill="#d5e8fe"/><path d="m167.081 342.918c-20.315 20.315-146.725 146.726-167.081 167.082h81.214c7.566-7.566 128.796-128.797 136.362-136.363l-20.024-19.392z" fill="#d5e8fe"/><path d="m382.279 127.721c-7.022-7.021-56.697-56.697-63.64-63.64 7.071-7.071 45.962-45.961 53.033-53.032 7.456 7.455 56.225 56.225 63.639 63.639l-19.445 33.588z" fill="#6f7f8f"/><path d="m445.918 191.36c-7.022-7.021-56.697-56.697-63.64-63.64 7.071-7.071 45.962-45.962 53.033-53.033 7.456 7.455 56.226 56.227 63.64 63.641-7.071 7.071-45.961 45.961-53.033 53.032z" fill="#4a5f77"/><path d="m74.688 435.313c-7.021-7.022-56.697-56.696-63.64-63.64 14.28-14.279 44.715-44.715 53.033-53.033 7.517 7.518 56.073 56.073 63.639 63.64l-19.445 33.588z" fill="#6f7f8f"/><path d="m138.327 498.952c-7.021-7.021-56.697-56.696-63.64-63.64l53.033-53.033c7.021 7.022 56.697 56.696 63.64 63.64-7.071 7.071-45.962 45.962-53.033 53.033z" fill="#4a5f77"/><path d="m342.918 167.082c-48.522-48.521-127.085-48.751-175.836 0-48.635 48.635-48.624 127.211 0 175.836l94.989-80.848z" fill="#ffe666"/><path d="m167.081 342.918c48.76 48.76 127.332 48.506 175.836 0 48.604-48.603 48.663-127.175 0-175.836-7.415 7.416-13.788 13.787-21.203 21.203-4.367 4.368-139.403 139.404-154.633 154.633z" fill="#ffba54"/><path d="m165.669 254.175-4.171-12.122c5.731-41.645 38.804-74.814 80.536-80.549l13.017 2.571 12.889-2.572c20.274 2.786 39.146 12.179 53.757 26.789l-59.634 73.776-73.776 59.634c-14.582-14.582-24.025-33.489-26.782-53.76z" fill="#edf5ff"/><path d="m255.942 345.451 12.012 3.042c41.691-5.747 74.786-38.833 80.538-80.532l-3.049-13.337 3.055-12.544c-2.855-20.755-12.499-39.491-26.793-53.785-7.406 7.406-126.004 126.004-133.41 133.41h.001c14.462 14.462 33.264 23.971 53.775 26.791z" fill="#d5e8fe"/><g><g fill="#f37445"><path d="m289.168 255.024 8.934 12.942h50.381c1.185-8.6 1.235-17.039.016-25.89-3.406 0 15.126-.002-50.393.006z"/><path d="m267.954 348.494c0-17.672 0-34.242 0-50.38l-12.942-8.935-12.942 8.924v50.394c8.98 1.238 17.324 1.178 25.884-.003z"/></g></g><g><g fill="#f93"><path d="m220.844 255-8.944-12.941c-3.353 0 15.009.002-50.403-.006-1.161 8.426-1.179 17.278.008 25.89 1.016 0 50.066-.001 50.393-.001z"/><path d="m254.999 220.845 12.942-8.95c0-16.215 0-34.816 0-50.389-8.555-1.18-17.304-1.182-25.904.005.001 3.409-.006-15.135.02 50.384z"/></g></g><path d="m223.195 223.195c-17.603 17.603-17.581 46.026-.001 63.609l38.876-24.733 24.734-38.876c-17.587-17.585-46.003-17.605-63.609 0z" fill="#ffe666"/><path d="m286.804 223.195c-7.731 7.732-55.858 55.858-63.609 63.609 17.586 17.583 46.003 17.607 63.61 0 17.622-17.621 17.565-46.042-.001-63.609z" fill="#ffba54"/></g></svg>