<svg id="Capa_1" enable-background="new 0 0 510 510" height="512" viewBox="0 0 510 510" width="512" xmlns="http://www.w3.org/2000/svg"><g><path d="m240 270v210l7.5 10 7.5-10 10-105-10-105-7.5-10z" fill="#ea8b86"/><path d="m270 270-7.5-10-7.5 10v210l7.5 10 7.5-10c0-11.7 0-198.3 0-210z" fill="#d35e59"/><path d="m195 480v30h60l10-15-10-15c-7.3 0-52.7 0-60 0z" fill="#d35e59"/><path d="m315 480c-7.3 0-52.7 0-60 0v30h60c0-10.5 0-19.5 0-30z" fill="#b0473e"/><path d="m165 330 12.4 15h77.6l10-15-10-15c-17.9 0-61.3 0-77.6 0z" fill="#6f7f8f"/><path d="m332.6 315c-16.3 0-59.7 0-77.6 0v30h77.6l12.4-15z" fill="#4a5f77"/><path d="m343.2 298.2c-8.2 8.1-13.2 19.4-13.2 31.8 0 24.8 20.2 45 45 45 12.4 0 23.7-5 31.8-13.2 17.6-17.6 17.6-46 0-63.6s-46-17.6-63.6 0z" fill="#f37445"/><circle cx="135" cy="330" fill="#f93" r="45"/><path d="m188.8 0c-6.2 6.2-47.6 47.6-53.8 53.8v162.4c6.2 6.2 47.6 47.6 53.8 53.8h66.2l10-135-10-135c-18 0-55.7 0-66.2 0z" fill="#6f7f8f"/><path d="m375 216.2v-81.2-81.2c-6.5-6.5-47.2-47.2-53.8-53.8-18 0-55.7 0-66.2 0v270h66.2c6.5-6.5 47.3-47.2 53.8-53.8z" fill="#4a5f77"/><path d="m201.2 30c-4 4-32.2 32.2-36.2 36.2v137.6l36.2 36.2h53.8l10-105-10-105c-17.1 0-36.7 0-53.8 0z" fill="#edf5ff"/><path d="m345 203.8c0-16.6 0-120.8 0-137.6-11.5-11.5-24.7-24.7-36.2-36.2-17.1 0-36.7 0-53.8 0v210h53.8c11.5-11.5 24.7-24.7 36.2-36.2z" fill="#d5e8fe"/><path d="m240 180v30h15l10-15-10-15c-5.2 0-9.8 0-15 0z" fill="#f93"/><path d="m255 180v30h15c0-10.5 0-19.5 0-30-5.2 0-9.8 0-15 0z" fill="#f37445"/><path d="m240 60v90h15l10-45-10-45c-5.2 0-9.8 0-15 0z" fill="#f93"/><path d="m270 60c-5.2 0-9.8 0-15 0v90h15c0-10.9 0-79 0-90z" fill="#f37445"/></g></svg>