<svg id="Capa_1" enable-background="new 0 0 510 510" height="512" viewBox="0 0 510 510" width="512" xmlns="http://www.w3.org/2000/svg"><g><path d="m240 135v30l7.5 10 7.5-10 10-15-10-15-7.5-10z" fill="#6f7f8f"/><path d="m270 135-7.5-10-7.5 10v30l7.5 10 7.5-10c0-10.492 0-19.508 0-30z" fill="#4a5f77"/><path d="m158.787 75c6.579 6.579 53.496 53.497 59.999 60h36.214l10-30-10-30-48.106-10z" fill="#ffe666"/><path d="m351.213 75-48.107-10-48.106 10v60h36.213c7.293-7.293 52.687-52.687 60-60z" fill="#ffba54"/><path d="m120 45v30h135l10-15-10-15c-16.333 0-118.559 0-135 0z" fill="#f93"/><path d="m390 45c-16.333 0-118.559 0-135 0v30h135c0-10.492 0-19.508 0-30z" fill="#f37445"/><path d="m120 165-10 135 10 135h135l10-135-10-135c-16.333 0-118.559 0-135 0z" fill="#edf5ff"/><path d="m390 165c-16.333 0-118.559 0-135 0v270h135l10-135z" fill="#d5e8fe"/><path d="m150 225v150h105l10-75-10-75c-28.278 0-88.527 0-105 0z" fill="#d5e8fe"/><path d="m360 225c-28.278 0-88.527 0-105 0v150h105c0-10.128 0-139.871 0-150z" fill="#b5dbff"/><path d="m120 465h-120v-45l10-16.333-10-13.667v-37l10-15-10-15v-43l10-16-10-15v-39l10-15-10-15v-45h120v45l-10 15 10 15v39l-10 15 10 15v44l-10 15 10 15v37.5l-10 14.5 10 15z" fill="#6f7f8f"/><g fill="#4a5f77"><path d="m0 180h120v30h-120z"/><path d="m0 249h120v30h-120z"/><path d="m0 323h120v30h-120z"/><path d="m0 390h120v30h-120z"/><path d="m510 465h-120v-45l10-16.333-10-13.667v-37l10-15-10-15v-43l10-16-10-15v-39l10-15-10-15v-45h120v45l-10 15 10 15v39l-10 15 10 15v44l-10 15 10 15v37.5l-10 14.5 10 15z"/></g><path d="m390 180h120v30h-120z" fill="#36485b"/><path d="m390 249h120v30h-120z" fill="#36485b"/><path d="m390 323h120v30h-120z" fill="#36485b"/><path d="m390 390h120v30h-120z" fill="#36485b"/></g></svg>