<svg id="Capa_1" enable-background="new 0 0 510 510" height="512" viewBox="0 0 510 510" width="512" xmlns="http://www.w3.org/2000/svg"><g id="XMLID_259_"><path id="XMLID_1687_" d="m30 225v285h225l10-143-10-142-112.5-15z" fill="#6f7f8f"/><path id="XMLID_1686_" d="m480 225-112.5-15-112.5 15v285h225c0-15.788 0-269.105 0-285z" fill="#4a5f77"/><path id="XMLID_1616_" d="m333.015 375c-19.653 0-68.27 0-81.585 0l-10.43 15 10.43 15h81.59l12.98-15z" fill="#edf5ff"/><path id="XMLID_1649_" d="m209 435c-41.636 0-77.364 0-119 0 0-10.889 0-79.039 0-90h119c12.406 0 23.656 5.047 31.805 13.195 17.591 17.591 17.602 46.008 0 63.609-8.149 8.149-19.399 13.196-31.805 13.196z" fill="#5ad0f4"/><path id="XMLID_1510_" d="m359 360c-8.284 0-15.784 3.357-21.213 8.787-11.707 11.705-11.729 30.7 0 42.426 5.429 5.43 12.929 8.787 21.213 8.787h61c0-7.259 0-52.693 0-60-13.231 0-30.264 0-38 0z" fill="#b5dbff"/><path id="XMLID_1508_" d="m180 45.065c-24.963 1.299-45 22.01-45 47.435v27.5l-15 10-15-10c0-9.618 0-17.882 0-27.5 0-42.11 33.629-76.144 75.001-77.46l10 14.959z" fill="#d5e8fe"/><path id="XMLID_1548_" d="m330 15.04c41.441 1.319 75 35.424 75 77.46v27.5l-13.667 10-16.333-10c0-9.618 0-17.882 0-27.5 0-25.27-19.916-46.182-45.06-47.438l-9.97-15.312z" fill="#b5dbff"/><path id="XMLID_1541_" d="m180 0v60h75l10-30-10-30c-20.194 0-63.236 0-75 0z" fill="#4994ff"/><path id="XMLID_1511_" d="m330 0c-20.194 0-63.236 0-75 0v60h75c0-7.259 0-52.693 0-60z" fill="#545adc"/><path id="XMLID_1685_" d="m45 120c-24.812 0-45 20.186-45 45v60h255l10-52.5-10-52.5c-11.664 0-198.336 0-210 0z" fill="#4a5f77"/><path id="XMLID_1669_" d="m510 165c0-24.811-20.186-45-45-45-11.664 0-198.336 0-210 0v105h255c0-7.259 0-52.693 0-60z" fill="#36485b"/><path id="XMLID_1549_" d="m180 240c0 16.568-13.432 30-30 30-16.568 0-30-13.432-30-30 0-14.981 0-30.019 0-45h60v22.5z" fill="#ffe666"/><path id="XMLID_1612_" d="m330 240c0 16.566 13.43 30 30 30 16.568 0 30-13.432 30-30 0-14.981 0-30.019 0-45-7.259 0-52.693 0-60 0z" fill="#ffba54"/></g></svg>