<svg id="Capa_1" enable-background="new 0 0 509.979 509.979" height="512" viewBox="0 0 509.979 509.979" width="512" xmlns="http://www.w3.org/2000/svg"><g><path d="m480.81 140.556c-9.237-9.236-34.396-34.396-45.066-45.066l-17.835 3.378-3.4 17.813c8.984 8.984 35.462 35.461 45.043 45.042 5.848 5.851 5.456 15.757-.392 21.604-10.629 10.629-146.65 146.65-157.28 157.28-5.862 5.861-15.378 5.837-21.168.046-10.027-10.03-35.443-35.455-45.102-45.118l-17.354 3.574-3.671 17.454c4.841 4.883 40.005 40.351 44.869 45.257 17.62 17.622 46.082 17.56 63.64 0 10.628-10.628 146.65-146.649 157.28-157.279 17.595-17.599 17.885-46.536.436-63.985z" fill="#ffba54"/><path d="m193.236 253.146c-4.186 4.149-20.688 20.507-20.943 20.76 1.738 1.754 18.506 18.667 21.167 21.351l15.662-5.281 5.278-15.658c-1.591-1.592-18.578-18.585-21.164-21.172z" fill="#ffe666"/><path d="m372.014 74.187c1.75 1.75 18.574 18.573 21.281 21.28l15.375-6.336 5.86-14.854c-6.915-6.915-14.5-14.5-21.212-21.212-.428.424-19.14 18.976-21.304 21.122z" fill="#ffe666"/><path d="m431.953 56.894c-73.191 73.042-60.24 60.117-61.788 61.662-12.443 4.146-23.136 7.711-35.579 11.857-3.709 11.129-6.897 20.691-10.606 31.82-2.497.832-28.753 9.584-31.819 10.607-.504 1.513.754-2.262-10.607 31.821-11.129 3.709-20.691 6.896-31.82 10.605-4.148 12.443-7.713 23.137-11.861 35.58-7.38 7.38-58.607 58.607-65.376 65.376l1.12 9.55 9.55 1.12 132.904-131.136 126.49-128.258 2.202-12.808z" fill="#edf5ff"/><path d="m305.27 228.378c.564-1.693-.754 2.262 10.607-31.821 2.497-.832 28.753-9.584 31.819-10.607 3.709-11.128 6.897-20.69 10.606-31.818 2.879-.959-10.391 3.463 28.054-9.35.124-.124 66.692-66.559 66.81-66.676l2.191-12.799-12.799 2.191c-14.191 14.192-245.218 245.221-259.393 259.395l1.764 8.779 8.779 1.764c4.679-4.679 65.584-65.583 70.384-70.383 3.272-9.816 6.085-18.252 9.357-28.068 2.498-.833 28.754-9.585 31.821-10.607z" fill="#d5e8fe"/><path d="m128.847 315c-11.602 11.603-110.291 110.291-115.074 115.074-18.286 18.284-18.314 47.895-.001 66.212l91.768-77.626 56.413-70.555-9.279-23.421z" fill="#ea8b86"/><path d="m186.082 358.093-24.129-9.987c-9.445 9.444-146.327 146.327-148.181 148.181h.001l.001.001c18.215 18.215 47.917 18.296 66.213 0 4.753-4.754 103.51-103.51 115.074-115.074z" fill="#d35e59"/><path d="m235.666 379.394c-5.672-5.672-46.901-46.901-52.501-52.501-7.419 7.419-13.794 13.794-21.213 21.213 5.672 5.673 46.901 46.901 52.501 52.501z" fill="#b0473e"/><path d="m130.666 274.394c-7.419 7.419-13.794 13.794-21.213 21.213 5.672 5.673 46.899 46.899 52.499 52.499 7.419-7.419 13.794-13.794 21.213-21.213-5.672-5.672-46.899-46.9-52.499-52.499z" fill="#d35e59"/><path d="m465.06 0c-10.492 0-19.508 0-30 0-1.038 18.963-2.076 37.936-3.113 56.887.156.155 10.483 10.483 10.612 10.612l18.321-4.18 4.18-18.321c0-14.306 0-30.692 0-44.998z" fill="#6f7f8f"/><path d="m509.931 75c0-10.492 0-19.508 0-30-14.964 0-29.917 0-44.871 0v-.001-.001c-.457.457-20.201 20.201-22.501 22.501 1.088 1.088-3.927-3.927 10.601 10.601 18.923-1.034 37.858-2.068 56.771-3.1z" fill="#4a5f77"/></g></svg>