<svg id="Capa_1" enable-background="new 0 0 510 510" height="512" viewBox="0 0 510 510" width="512" xmlns="http://www.w3.org/2000/svg"><g><path d="m227.2 68.2c3.4-7.2 16.9-35.6 17.1-36.1-.1-.1-27-12.8-27.1-12.9-1.7 3.6-26.1 55-29.3 61.9-8.6 4.2-16.9 9.1-25.3 15.4 0-2.5.2 10.7-.8-40-10.5.2-19.5.4-30 .6.1 7.6 1.1 60.8 1.3 68.4-5.9 7.7-11.3 16.1-15.8 25.1-3.7-7.1-18.3-35.1-18.5-35.5-9.3 4.8-17.3 9-26.6 13.9 3.5 6.8 28.2 54 31.7 60.8-2 9.9-3 20.3-3 31l77 15 77-15 11-77.5-11-77.5c-9.3-.1-18.6.7-27.7 2.4z" fill="#edf5ff"/><path d="m398.7 164.5c13.5 3.6 25.2 6.6 38.7 10.2 2.7-10.1 5-18.9 7.6-29-17.9-4.7-55.6-14.6-66.2-17.4-5.9-8-12.5-15.3-19.8-22 3.1-.6 35.3-7.3 39.1-8.1-.4-2.1 1.8 8.8-6.1-29.4-2.3.5-64.2 13.3-67 13.9-8.8-4.5-18-8.2-27.5-10.9 2.6-2 28.5-22.4 31.5-24.8-6.5-8.2-12.1-15.3-18.5-23.6l-26.9 21.1s-28.3 21.1-28.6 21.1v155l77 14 77-14c.1-19.1-3.4-38.2-10.3-56.1z" fill="#d5e8fe"/><path d="m180 220.7 37.5 10 37.5-10 10-38-10-38c-41.3.1-75.5 33.8-75 76z" fill="#d5e8fe"/><path d="m255 144.8v76l37.5 10 37.5-10c.5-42-33.4-76-75-76z" fill="#b5dbff"/><path d="m375 490.7h90c0-14.5 0-105.4 0-120l-45-10-45 10z" fill="#b0473e"/><path d="m135 490.7h-90v-120l45-10 45 10z" fill="#d35e59"/><path d="m0 220.7v60l10 15-10 15v60h255l10-75-10-75c-7.2 0-247.8 0-255 0z" fill="#ea8b86"/><path d="m0 280.7v30h255l10-15-10-15c-7.2 0-247.8 0-255 0z" fill="#d35e59"/><path d="m255 220.7h255v150h-255z" fill="#d35e59"/><path d="m390 280.7c-16.3 0-118.6 0-135 0v30h135c0-10.5 0-19.5 0-30z" fill="#b0473e"/></g></svg>