<svg id="Capa_1" enable-background="new 0 0 510 510" height="512" viewBox="0 0 510 510" width="512" xmlns="http://www.w3.org/2000/svg"><g><path d="m45 210v210l105 10 105-10 10-210-10-210c-115.79 0-210 94.202-210 210z" fill="#5ad0f4"/><path d="m465 210c0-115.79-94.202-210-210-210v420l105 10 105-10c0-11.664 0-198.336 0-210z" fill="#4994ff"/><path d="m124.091 205.909v214.091l65.455 10 65.454-10 10-172.5-10-172.5c-72.181 0-130.909 58.724-130.909 130.909z" fill="#d5e8fe"/><path d="m385.909 205.909c0-72.182-58.724-130.909-130.909-130.909v345l65.455 10 65.454-10c0-25.998 0-188.036 0-214.091z" fill="#b5dbff"/><path d="m105 210v210l15 10 15-10c0-10.889 0-79.039 0-90h105v90l7.5 10 7.5-10 10-180-10-180c-82.708 0-150 67.287-150 150zm135 90c-28.278 0-88.527 0-105 0 0-10.889 0-79.039 0-90h105zm-101.203-120c12.224-47.321 52.442-82.956 101.203-89.064v89.064c-27.523 0-85.144 0-101.203 0z" fill="#edf5ff"/><path d="m270 330h105v90l15 10 15-10c0-11.664 0-198.336 0-210 0-82.709-67.287-150-150-150v360l7.5 10 7.5-10c0-10.889 0-79.039 0-90zm0-239.064c48.701 6.101 88.963 41.684 101.203 89.064-27.522 0-85.143 0-101.203 0 0-10.773 0-78.221 0-89.064zm0 119.064h105v90c-28.278 0-88.527 0-105 0 0-10.889 0-79.039 0-90z" fill="#d5e8fe"/><path d="m0 420v90h255l10-45-10-45c-7.193 0-247.807 0-255 0z" fill="#6f7f8f"/><path d="m510 420c-7.193 0-247.807 0-255 0v90h255c0-10.889 0-79.039 0-90z" fill="#4a5f77"/></g></svg>