<svg id="Capa_1" enable-background="new 0 0 510 510" height="512" viewBox="0 0 510 510" width="512" xmlns="http://www.w3.org/2000/svg"><g><path d="m0 420v90h255l10-45-10-45-127.5-10z" fill="#6f7f8f"/><path d="m510 420-127.5-10-127.5 10v90h255c0-10.9 0-79 0-90z" fill="#4a5f77"/><path d="m0 0v420h255l10-210-10-210c-7.2 0-247.8 0-255 0z" fill="#ffe666"/><path d="m255 0v420h255c0-11.8 0-408.2 0-420-7.2 0-247.8 0-255 0z" fill="#ffba54"/><path d="m60 60v360h195l10-180-10-180c-10.3 0-187.5 0-195 0z" fill="#5ad0f4"/><path d="m450 420c0-10.2 0-349.8 0-360-22.5 0-170.3 0-195 0v360z" fill="#4994ff"/><path d="m270 420h150c0-18.3 0-311.7 0-330-10.1 0-139.9 0-150 0z" fill="#545adc"/><path d="m90 90h150v330h-150z" fill="#4994ff"/><path d="m120 225v60h135l10-30-10-30c-15.7 0-111.5 0-135 0z" fill="#edf5ff"/><path d="m390 285c0-7.3 0-52.7 0-60-14 0-119.9 0-135 0v60z" fill="#d5e8fe"/></g></svg>