<svg id="Capa_1" enable-background="new 0 0 510 510" height="512" viewBox="0 0 510 510" width="512" xmlns="http://www.w3.org/2000/svg"><g><path d="m195 0c-10.889 0-79.039 0-90 0v105c0 33.083-26.915 60-60 60-5.246 0-9.754 0-15 0v345h225l10-172.5-10-172.5z" fill="#ffe666"/><path d="m255 165v345h225c0-19.177 0-325.823 0-345-5.246 0-9.754 0-15 0-33.082 0-60-26.915-60-60 0-28.278 0-88.527 0-105-10.889 0-79.039 0-90 0z" fill="#ffba54"/><path d="m195 0v105c0 16.568 6.716 31.568 17.573 42.427 18.96 18.958 41.79 17.438 42.427 17.573l10-74.984-10-74.984c-13.43-.001-30.721-2.402-60-15.032z" fill="#ffba54"/><path d="m315 105c0-28.278 0-105 0-105-20.422 10.463-46.506 15.03-60 15.031v149.969c33.137 0 60-26.862 60-60z" fill="#f93"/><path d="m210 240-10 15 10 15h45l10-15-10-15c-14.981 0-30.019 0-45 0z" fill="#edf5ff"/><path d="m300 240c-14.981 0-30.019 0-45 0v30h45l10-15z" fill="#d5e8fe"/><path d="m300 300h90c0-10.889 0-79.039 0-90-10.889 0-79.039 0-90 0z" fill="#f37445"/><path d="m210 300h-90v-90h90z" fill="#f93"/><path d="m300 390c0 16.542 6.729 31.542 17.594 42.406 23.45 23.452 61.345 23.47 84.813 0 10.865-10.864 17.593-25.864 17.593-42.406 0-7.259 0-52.693 0-60-14.518 0-105.387 0-120 0z" fill="#b0473e"/><path d="m150 450c-33.084 0-60-26.916-60-60v-60h120v60c0 33.084-26.916 60-60 60z" fill="#d35e59"/></g></svg>