<svg id="Capa_1" enable-background="new 0 0 510.001 510.001" height="512" viewBox="0 0 510.001 510.001" width="512" xmlns="http://www.w3.org/2000/svg"><g><path d="m105.001 375c0 66.272 53.724 120 120 120l10-120-10-120c-66.271.001-120 53.724-120 120z" fill="#ea8b86"/><path d="m225.001 255.001v240c66.271 0 120-53.724 120-120 0-66.272-53.724-120-120-120z" fill="#d35e59"/><path d="m375.001.001-15 90 15 90h135c0-10 0-170 0-180-16.333 0-118.559 0-135 0zm82.5 120.884c-10.492 0-19.508 0-30 0 0-7.259 0-52.693 0-60h30z" fill="#545adc"/><path d="m180.926 470.289c1.173-1.173-1.754 1.755 24.681-24.682-7.419-7.419-13.794-13.794-21.213-21.213-2.917 2.918-26.217 26.217-29.077 29.077-26.153-23.25-39.339-58.021-34.24-93.471h35.896c9.533 14.299 20.467 30.701 30 45h38.027l11-15-11-15c-7.685 0-14.288 0-21.973 0-9.533-14.299-20.467-30.701-30-45-15 0-27.883 0-42.883 0 16.927-35.537 53.152-60 94.856-60l11-15-11-15c-74.437 0-135 60.559-135 135 0 74.438 60.559 135 135 135l10-15-10-15c-15.322 0-30.285-3.308-44.074-9.711z" fill="#d35e59"/><path d="m225.001 240.001v30c8.445 0 16.822 1.012 24.968 3.008-7.843 11.765-14.605 21.907-22.448 33.672 8.73 5.82 16.231 10.82 24.961 16.641 2.718-4.077 23.147-34.721 25.83-38.745 15.305 9.058 28.092 21.868 37.115 37.114-9.552 6.368-70.454 46.969-79.967 53.31-3.658 0-6.8 0-10.458 0v30h19.542c1.591-1.06 18.604-12.402 20.547-13.698 4.454 4.454 40.519 40.52 45.061 45.061-19.629 27.16-51.039 43.636-85.151 43.636v30c74.438 0 135-60.559 135-135 0-74.438-60.559-134.999-135-134.999zm65.544 134.331c11.58-7.72 24.868-16.579 36.448-24.299 4.605 18.814 4.02 39.133-2.425 58.322-2.142-2.143 9.611 9.61-34.023-34.023z" fill="#b0473e"/><path d="m0 77.803c.002 26.14.006 81.067.008 96.469 14.298 7.147 30.709 15.352 45.007 22.5 10.487-5.246 19.498-9.754 29.985-15 10.492 5.245 19.507 9.753 29.999 14.998 10.499-5.246 19.519-9.754 30.018-15 2.37 1.185 27.091 13.545 30.003 15.001 2.369-1.185 27.087-13.544 29.997-14.999.333.167 28.419 14.211 29.984 14.994l15-82.822-15-82.822c-12.492 2.591-212.509 44.089-225.001 46.681z" fill="#edf5ff"/><path d="m225.001 31.122v165.645l.006.002.006.004c10.49-5.246 19.503-9.754 29.993-15 10.49 5.246 19.504 9.754 29.994 15 2.37-1.185 27.09-13.545 30.001-15.001l30 15c2.379-1.33 27.076-15.136 30-16.77 0-10 0-170 0-180-8.328 1.726-141.672 29.392-150 31.12z" fill="#d5e8fe"/></g></svg>