<svg id="Capa_1" enable-background="new 0 0 509.332 509.332" height="512" viewBox="0 0 509.332 509.332" width="512" xmlns="http://www.w3.org/2000/svg"><g><path d="m191.133 318.2-12.374 1.768 1.768-12.375c4.24-4.239 20.955-20.955 21.213-21.213l12.374-1.768-1.768 12.375-3.536 17.678z" fill="#6f7f8f"/><path d="m201.739 328.807-12.374 1.768 1.768-12.374c4.24-4.24 20.955-20.955 21.213-21.214l12.375-1.767-1.768 12.374c-4.24 4.239-20.955 20.954-21.214 21.213z" fill="#4a5f77"/><path d="m212.346 296.987c-5.321-5.321-41.264-41.264-48.64-48.641l-.001-29.999 76.066-76.066 32.678-18.536 18.536-32.678 76.066-76.065h30c4.86 4.859 44.212 44.212 48.64 48.64l-109.601 123.744z" fill="#edf5ff"/><path d="m260.986 345.626c-4.434-4.434-44.316-44.316-48.64-48.64 12.93-12.93 220.387-220.387 233.345-233.345 4.917 4.917 41.768 41.769 48.641 48.641l-.001 29.999-76.549 76.55-32.195 18.052-18.535 32.678-76.066 76.065z" fill="#d5e8fe"/><path d="m290.986 142.281h76.066l22.071-7.929 7.929-22.072c0-26.361 0-81.75 0-97.278-5.246-5.246-9.754-9.754-15-15-1.539 1.539 5.556-5.556-15 14.999v97.28c-9.199 0-66.807 0-76.066 0 0-7.419 0-13.794 0-21.214-56.816 56.816-45.479 45.479-51.213 51.214h21.213v76.066c-26.357 0-81.747 0-97.28 0-1.539 1.539 5.556-5.556-14.999 14.999l15 15h97.279l22.071-7.929 7.929-22.071c0-9.198 0-66.806 0-76.065z" fill="#d5e8fe"/><path d="m509.331 127.281c-5.246-5.246-9.754-9.754-15-15-26.361 0-81.75 0-97.28 0v-.001c-2.965 2.966-26.977 26.979-30 30.001v76.066c-9.199 0-66.807 0-76.066 0v-.001c-10.499 10.498-19.501 19.502-30 30v97.28c.494.494 13.162 13.161 15 14.999 1.511-1.511 13.519-13.518 15-14.999 0-26.362 0-81.751 0-97.28h76.066v21.214c19.431-19.431 32.449-32.449 51.213-51.213-7.419 0-13.794 0-21.213 0 0-9.198 0-66.808 0-76.066h97.28c5.246-5.246 9.754-9.754 15-15z" fill="#b5dbff"/><path d="m42.427 466.906c-5.133-5.133-37.26-37.26-42.427-42.427 8.051-8.051 140.405-140.405 148.706-148.706 4.482 4.483 38.034 38.034 42.427 42.427l-67.282 81.424z" fill="#f93"/><path d="m84.854 509.332c-4.482-4.482-38.034-38.034-42.427-42.427 8.211-8.21 140.441-140.44 148.706-148.705 5.133 5.133 37.26 37.259 42.427 42.426-8.051 8.051-140.405 140.405-148.706 148.706z" fill="#f37445"/></g></svg>