<svg id="Capa_1" enable-background="new 0 0 510 510" height="512" viewBox="0 0 510 510" width="512" xmlns="http://www.w3.org/2000/svg"><g><path d="m225 0c-99.25 0-180 80.745-180 180v75h60l10-15-10-15c-10.492 0-19.508 0-30 0 0-14.981 0-30.019 0-45 0-82.709 67.287-150 150-150h30l15-15-15-15h-15z" fill="#d5e8fe"/><path d="m435 180v45c-10.492 0-19.508 0-30 0l-10 15 10 15h60c0-20.194 0-63.236 0-75 0-99.25-80.745-180-180-180-10.492 0-19.508 0-30 0v30h30c82.709 0 150 67.287 150 150z" fill="#b5dbff"/><path d="m180 180c-20.194 0-63.236 0-75 0v330h150l10-93.75-10-93.75z" fill="#d35e59"/><path d="m255 285v225h150c0-18.326 0-311.674 0-330-10.889 0-79.039 0-90 0z" fill="#b0473e"/><path d="m265 217.5-10-37.5c-20.194 0-63.236 0-75 0v142.5c0 20.711 16.789 37.5 37.5 37.5 20.71 0 37.5-16.789 37.5-37.5 0-13.115 0-24.385 0-37.5z" fill="#ffe666"/><path d="m255 285c0 8.284 3.357 15.784 8.787 21.213 11.705 11.707 30.7 11.729 42.426 0 5.43-5.429 8.787-12.929 8.787-21.213 0-28.278 0-88.527 0-105-7.259 0-52.693 0-60 0z" fill="#ffba54"/><path d="m165 420v30h90l10-15-10-15c-10.889 0-79.04 0-90 0z" fill="#ffe666"/><path d="m345 420c-10.889 0-79.039 0-90 0v30h90c0-10.492 0-19.508 0-30z" fill="#ffba54"/></g></svg>