<svg id="Capa_1" enable-background="new 0 0 510 510" height="512" viewBox="0 0 510 510" width="512" xmlns="http://www.w3.org/2000/svg"><g><g><path d="m277.5 90c-7.3 0-52.7 0-60 0l-10-15 10-15h60z" fill="#6f7f8f"/><path d="m172.5 150-7.5 10-7.5-10c0-10.5 0-19.5 0-30l7.5-10 7.5 10 10 15z" fill="#edf5ff"/><path d="m187.5 150-7.5 10-7.5-10c0-10.5 0-19.5 0-30l7.5-10 7.5 10z" fill="#d5e8fe"/><path d="m172.5 120c-15 0-30 0-45 0 0-28.3 0-88.5 0-105h45l10 52.5z" fill="#d5e8fe"/><path d="m217.5 120c-15 0-30 0-45 0 0-28.3 0-88.5 0-105h45z" fill="#b5dbff"/><path d="m172.5 435-60 10-60-10c0-11.7 0-198.3 0-210l60-10 60 10 10 105z" fill="#f93"/><path d="m172.5 225c-14.5 0-105.4 0-120 0 0-20.2 0-63.2 0-75h120l10 37.5z" fill="#5ad0f4"/><path d="m292.5 435-60 10-60-10c0-11.7 0-198.3 0-210l60-10 60 10z" fill="#f37445"/><path d="m292.5 225c-14.5 0-105.4 0-120 0 0-20.2 0-63.2 0-75h120z" fill="#4994ff"/><path d="m172.5 510c-14.5 0-105.4 0-120 0 0-20.2 0-63.2 0-75h120l10 37.5z" fill="#5ad0f4"/><path d="m292.5 510c-14.5 0-105.4 0-120 0 0-20.2 0-63.2 0-75h120z" fill="#4994ff"/><path d="m130.1 372.4c10.9 10.9 25.9 17.6 42.4 17.6l10-60-10-60c-16.5 0-31.5 6.7-42.4 17.6-23.5 23.4-23.5 61.3 0 84.8z" fill="#ffe666"/><path d="m172.5 270v120c16.5 0 31.5-6.7 42.4-17.6 23.5-23.5 23.5-61.3 0-84.8-10.9-10.9-25.9-17.6-42.4-17.6z" fill="#ffba54"/></g><g fill="#ffba54"><path d="m427.5 0h30v30h-30z"/><path d="m427.5 60h30v30h-30z"/><path d="m427.5 120h30v30h-30z"/><path d="m367.5 90h30v30h-30z"/><path d="m367.5 30h30v30h-30z"/><path d="m307.5 60h30v30h-30z"/></g></g></svg>