<svg id="Capa_1" enable-background="new 0 0 510 510" height="512" viewBox="0 0 510 510" width="512" xmlns="http://www.w3.org/2000/svg"><g><path d="m135 510c-14.981 0-30.019 0-45 0 0-15 0-255 0-270l22.5-10 22.5 10 10 135z" fill="#ea8b86"/><path d="m180 510c-14.981 0-30.019 0-45 0 0-15 0-255 0-270l22.5-10 22.5 10z" fill="#d35e59"/><path d="m135 90-22.5 10-22.5-10c0-7.259 0-52.693 0-60h45l10 30z" fill="#ea8b86"/><path d="m180 90-22.5 10-22.5-10c0-7.259 0-52.693 0-60h45z" fill="#d35e59"/><path d="m254.948 255c18.738 14.074 30.052 36.105 30.052 60v15h15c90.979 0 165-74.017 165-165 0-90.979-74.017-165-165-165-5.246 0-9.754 0-15 0v15c0 23.832-11.262 45.889-30.053 60z" fill="#d5e8fe"/><path d="m300 75c-15.025 0-30.038 0-45.053 0-8.955 6.726-19.063 12.781-29.947 15l-10 75 10 75c10.881 2.218 20.985 8.27 29.948 15h45.052c49.705 0 90-40.293 90-90 0-49.705-40.293-90-90-90z" fill="#edf5ff"/><path d="m135 240c-10.889 0-79.039 0-90 0 0-10.128 0-139.871 0-150h90l10 75z" fill="#6f7f8f"/><path d="m225 240c-10.889 0-79.039 0-90 0 0-10.128 0-139.871 0-150h90z" fill="#4a5f77"/></g></svg>