<svg id="Capa_1" enable-background="new 0 0 512.003 512.003" height="512" viewBox="0 0 512.003 512.003" width="512" xmlns="http://www.w3.org/2000/svg"><g><g><path d="m512.003 63.222v385.56h-255.998l-79.17-188.929 79.17-113.447-26.979-17.452.485-22.293 26.553-9.191c0-17.646 9.832-34.248 29.47-34.248h226.469z" fill="#ffd322"/><path d="m256.065 97.47-.06 48.936-18.282 24.596h-225.702l-12.018-24.596c-.4-30.476 35.259-48.936 62.024-48.936z" fill="#edbe00"/><path d="m.003 146.406h256.002v302.376h-256.002z" fill="#fd5"/></g><g><path d="m512.003 63.222v385.56h-255.998l-79.17-188.929 79.17-113.447-26.979-17.452.485-22.293 26.553-9.191c0-17.646 9.832-34.248 29.47-34.248h226.469z" fill="#ffd322"/><path d="m256.065 97.47-.06 48.936-18.282 24.596h-225.702l-12.018-24.596c-.4-30.476 35.259-48.936 62.024-48.936z" fill="#edbe00"/><path d="m.003 146.406h256.002v302.376h-256.002z" fill="#fd5"/></g></g></svg>