<svg id="Capa_1" enable-background="new 0 0 512.003 512.003" height="512" viewBox="0 0 512.003 512.003" width="512" xmlns="http://www.w3.org/2000/svg"><g><g><path d="m512.003 63.222v385.56h-256l-79.17-188.929 79.17-113.447-26.979-17.452.485-22.293 26.493-9.191c0-17.646 9.892-34.248 29.53-34.248h226.471z" fill="#ffd322"/><path d="m256.003 97.47v48.936l-18.282 24.596h-225.702l-12.016-24.596c-.4-30.476 35.258-48.936 62.022-48.936z" fill="#edbe00"/><path d="m256.003 146.406v302.376h-256v-302.376h62.034l14.881 24.596h106.468l10.641-24.596z" fill="#fd5"/></g><g><path d="m194.027 146.406v248.21l-66-51.12-32.995-106.257 32.995-90.833z" fill="#005fe0"/><path d="m128.027 146.406v197.09l-65.99 51.12v-248.21z" fill="#2681ff"/></g></g></svg>