<svg id="Capa_1" enable-background="new 0 0 512 512" height="512" viewBox="0 0 512 512" width="512" xmlns="http://www.w3.org/2000/svg"><g><g><g><path d="m512 12.751v373.53h-248.012l-83.065-187.41 83.065-105.531-25.667-19.038v-19.467l25.725-8.905c0-17.098 9.532-33.18 28.551-33.18h219.403z" fill="#ffd322"/><path d="m264.046 45.93-.058 47.409-17.711 23.828h-218.661l-11.641-23.827c-.398-29.525 34.161-47.41 60.087-47.41z" fill="#edbe00"/><path d="m15.975 93.34h248.012v292.941h-248.012z" fill="#fd5"/></g></g><g><g><path d="m201.164 332.854c0 50.25-40.714 90.98-90.964 90.98l-36.28-94.98 36.28-86.98c50.25 0 90.964 40.73 90.964 90.98z" fill="#e9e4f0"/><path d="m110.2 241.874v181.96c-50.24 0-90.98-40.73-90.98-90.98s40.74-90.98 90.98-90.98z" fill="#fbf4f4"/></g><g><g><g><path d="m226.323 499.249-57.885-75.68 1.115-13.323 9.575-8.626 12.383 2.736 58.64 76.667z" fill="#005fe0"/></g></g><g><g><g><path d="m220.4 330.046c0 60.77-49.43 110.2-110.2 110.2l-14.817-12.328 14.817-17.672c44.23 0 80.2-35.98 80.2-80.2s-35.97-80.2-80.2-80.2l-14.817-15.204 14.817-14.796c60.77 0 110.2 49.43 110.2 110.2z" fill="#002659"/></g><g><path d="m30 330.046c0 44.22 35.98 80.2 80.2 80.2v30c-60.76 0-110.2-49.43-110.2-110.2s49.44-110.2 110.2-110.2v30c-44.22 0-80.2 35.98-80.2 80.2z" fill="#00429c"/></g></g></g></g></g></g></svg>