<svg id="Capa_1" enable-background="new 0 0 512 512" height="512" viewBox="0 0 512 512" width="512" xmlns="http://www.w3.org/2000/svg"><g><g><g><path d="m512 12.852v373.53h-248.012l-83.065-187.41 83.065-105.531-25.667-19.038v-19.466l25.725-8.905c0-17.098 9.532-33.18 28.551-33.18z" fill="#ffd322"/><path d="m264.046 46.032-.058 47.409-17.711 23.828h-218.661l-11.641-23.828c-.398-29.524 34.161-47.409 60.087-47.409z" fill="#edbe00"/><path d="m15.975 93.441h248.012v292.941h-248.012z" fill="#fd5"/></g></g><g><g><path d="m208.729 312.572h-16.483s-5.61-17.191-5.681-18.514c-2.141-40.139-33.177-72.089-71.03-72.089l-14.246-14.714 14.246-15.916c53.561 0 97.383 45.686 99.549 102.722.05 1.324-6.355 18.511-6.355 18.511z" fill="#e9e4f0"/><path d="m115.535 191.339v30.63c-37.853 0-68.898 31.95-71.039 72.089-.071 1.323-4.494 20.076-4.494 20.076h-19.152s-4.924-18.714-4.875-20.022c2.141-57.059 45.982-102.773 99.56-102.773z" fill="#fbf4f4"/></g><g><path d="m231.05 294.057v205.091h-115.52l-52.47-110.852 52.47-94.239z" fill="#5a5f64"/><path d="m0 294.057h115.53v205.09h-115.53z" fill="#7d8186"/></g><g><path d="m130.53 388.298v50.279h-15l-7.5-22.557 7.5-27.722z" fill="#2d2d2d"/><g><path d="m100.53 388.298h15v50.28h-15z" fill="#373c41"/></g></g></g></g></svg>