<svg id="Capa_1" enable-background="new 0 0 512 512" height="512" viewBox="0 0 512 512" width="512" xmlns="http://www.w3.org/2000/svg"><g><g><g><path d="m512 23.788v373.53h-248.012l-83.065-187.41 83.065-105.531-25.667-19.038v-19.467l25.725-8.905c0-17.098 9.532-33.18 28.551-33.18h219.403z" fill="#ffd322"/><path d="m264.046 56.967-.058 47.409-17.711 23.828h-218.661l-11.641-23.828c-.398-29.524 34.161-47.409 60.087-47.409z" fill="#edbe00"/><path d="m15.975 104.376h248.012v292.941h-248.012z" fill="#fd5"/></g></g><g><path d="m197.908 397.411 15.573 90.801-81.539-42.866-36.627-79.572 36.627-128.521 40.77 82.613 91.162 13.245z" fill="#ff9e22"/><path d="m131.942 237.253v208.093l-81.549 42.866 15.573-90.801-65.966-64.3 91.172-13.245z" fill="#ffb555"/></g></g></svg>