<svg id="Capa_1" enable-background="new 0 0 512 512" height="512" viewBox="0 0 512 512" width="512" xmlns="http://www.w3.org/2000/svg"><g><g><g><path d="m512 34.202v373.53h-248.012l-83.065-187.41 83.065-105.531-25.667-19.038v-19.466l25.725-8.905c0-17.098 9.532-33.18 28.551-33.18z" fill="#ffd322"/><path d="m264.046 67.382-.058 47.409-17.711 23.828h-218.661l-11.641-23.828c-.398-29.524 34.161-47.409 60.087-47.409z" fill="#edbe00"/><path d="m15.975 114.791h248.012v292.941h-248.012z" fill="#fd5"/></g></g><g><path d="m296.81 405.987c0 39.66-32.15 71.81-71.81 71.81h-76.6l-46.719-99.406 46.719-124.493c45.17 0 81.95 35.83 83.52 80.62 18.2 1.74 34.43 10.28 46.1 23.04 11.67 12.77 18.79 29.77 18.79 48.429z" fill="#005fe0"/><path d="m148.4 253.898v223.9h-76.59c-19.83 0-37.78-8.04-50.78-21.03-12.99-13-21.03-30.95-21.03-50.781 0-37.32 28.48-67.99 64.89-71.47 1.57-44.79 38.35-80.619 83.51-80.619z" fill="#2681ff"/></g></g></svg>