<svg id="Capa_1" enable-background="new 0 0 512 512" height="512" viewBox="0 0 512 512" width="512" xmlns="http://www.w3.org/2000/svg"><g><g><g><path d="m512 12.852v373.53h-248.012l-83.065-187.41 83.065-105.531-25.667-19.038v-19.466l25.725-8.905c0-17.098 9.532-33.18 28.551-33.18z" fill="#ffd322"/><path d="m264.046 46.032-.058 47.409-17.711 23.828h-218.661l-11.641-23.828c-.398-29.524 34.161-47.409 60.087-47.409z" fill="#edbe00"/><path d="m15.975 93.441h248.012v292.941h-248.012z" fill="#fd5"/></g></g><g><g><g><path d="m240.16 230.387v139.831l-9.16 24.889-71.28 36.571-26.52-6.341-4.46 1.49-5.61-2.549-3.05-15.49-46.74-88.681 46.74-89.72z" fill="#00ccb2"/><g><g><path d="m120.08 230.387v178.401l-32.42 11.014-72.66-30.884-15-31.861v-126.67z" fill="#00eecf"/></g></g></g><g><path d="m234.65 370.728c-40.67 4.5-76.59 24.79-101.45 54.61l-3.434 23.448 13.532 41.872 16.412 8.489h80.45v-128.93c-1.85.14-3.68.311-5.51.511z" fill="#00959a"/><g><path d="m159.71 499.148h-39.63l-25.293-40.404 25.293-49.956c4.79 5.27 9.17 10.81 13.12 16.55 14.84 21.57 24.63 47.58 26.51 73.81z" fill="#007579"/><path d="m120.08 408.788v90.36h-120.08v-142.09c48.59-1.82 91.47 20.189 120.08 51.73z" fill="#00c6cd"/></g></g></g><g><path d="m179.17 261.701h30v30h-30z" fill="#e9e4f0"/></g></g></g></svg>