<svg id="Capa_1" enable-background="new 0 0 512 512" height="512" viewBox="0 0 512 512" width="512" xmlns="http://www.w3.org/2000/svg"><g><g><g><path d="m512 12.852v373.53h-248.012l-83.065-187.41 83.065-105.531-25.667-19.038v-19.466l25.725-8.905c0-17.098 9.532-33.18 28.551-33.18z" fill="#ffd322"/><path d="m264.046 46.032-.058 47.409-17.711 23.828h-218.661l-11.641-23.828c-.398-29.524 34.161-47.409 60.087-47.409z" fill="#edbe00"/><path d="m15.975 93.441h248.012v292.941h-248.012z" fill="#fd5"/></g></g><g><g><path d="m250 374.148c0 69.04-55.96 125-125 125l-59.574-112.766 59.574-137.234c69.04 0 125 55.959 125 125z" fill="#b30042"/><path d="m125 249.148v250c-69.04 0-125-55.96-125-125s55.96-125 125-125z" fill="#d00050"/></g><g><path d="m146.21 374.148 50.06 50.05-21.22 21.22-50.05-50.061-13.447-21.209 13.447-21.21 50.05-50.06 21.22 21.219z" fill="#e9e4f0"/><path d="m125 352.938v42.419l-50.05 50.061-21.22-21.22 50.06-50.05-50.06-50.051 21.22-21.219z" fill="#fbf4f4"/></g></g></g></svg>