<svg id="Capa_1" enable-background="new 0 0 512 512" height="512" viewBox="0 0 512 512" width="512" xmlns="http://www.w3.org/2000/svg"><g><g><g><path d="m512 12.852v373.53h-248.012l-83.065-187.41 83.065-105.531-25.667-19.038v-19.466l25.725-8.905c0-17.098 9.532-33.18 28.551-33.18z" fill="#ffd322"/><path d="m264.046 46.032-.058 47.409-17.711 23.828h-218.661l-11.641-23.828c-.398-29.524 34.161-47.409 60.087-47.409z" fill="#edbe00"/><path d="m15.975 93.441h248.012v292.941h-248.012z" fill="#fd5"/></g></g><g><path d="m127.429 282.438-46.09 94.263 46.09 122.447s107.29-107.35 108.35-108.58c26.52-30.13 25.39-76.08-3.37-104.85-14.98-14.98-34.61-22.48-54.23-22.48-18.13 0-36.27 6.4-50.75 19.2z" fill="#b30042"/><path d="m127.429 282.438v216.71s-107.29-107.35-108.35-108.58c-26.52-30.13-25.39-76.08 3.37-104.85 14.98-14.98 34.61-22.48 54.23-22.48 18.13 0 36.27 6.4 50.75 19.2z" fill="#d00050"/></g></g></svg>