<svg id="Capa_1" enable-background="new 0 0 512 512" height="512" viewBox="0 0 512 512" width="512" xmlns="http://www.w3.org/2000/svg"><g><g><g><path d="m512 12.852v373.53h-248.012l-83.065-187.41 83.065-105.531-25.667-19.038v-19.466l25.725-8.905c0-17.098 9.532-33.18 28.551-33.18z" fill="#ffd322"/><path d="m264.046 46.032-.058 47.409-17.711 23.828h-218.661l-11.641-23.828c-.398-29.524 34.161-47.409 60.087-47.409z" fill="#edbe00"/><path d="m15.975 93.441h248.012v292.941h-248.012z" fill="#fd5"/></g></g><g><g><path d="m153.83 191.637c-2.86 0-5.49-1.44-6.69-3.66-6.86-12.62-20.03-20.46-34.39-20.46-9.03 0-17.35 3.08-23.97 8.23l-9.908 41.804 9.908 26.766 3.05 7.192h9.606l2.203-7.035h.001v-37.837c0-5.03 4.09-9.12 9.11-9.12 3.35 0 6.42 1.84 8.03 4.78 6.48 11.93 19.14 19.34 33.05 19.34h37.39v-30z" fill="#002659"/><path d="m73.64 206.637v37.85l3.732 7.022h8.011l3.397-7.192v-68.57c-9.21 6.911-15.14 18.351-15.14 30.89z" fill="#00429c"/></g><g><g><path d="m177.55 323.178v97.11c0 43.55-35.31 78.86-78.86 78.86h-9.91l-32.376-114.788 32.376-140.043h9.91c43.55 0 78.86 35.311 78.86 78.861z" fill="#005fe0"/><path d="m88.78 244.317v254.83h-9.92c-43.55 0-78.86-35.31-78.86-78.86v-97.11c0-43.55 35.31-78.86 78.86-78.86z" fill="#2681ff"/></g><g><path d="m103.78 308.318v53.62h-15l-7.5-26.81 7.5-26.81z" fill="#e9e4f0"/><path d="m73.78 308.318h15v53.62h-15z" fill="#fbf4f4"/></g></g></g></g></svg>