<svg id="Capa_1" enable-background="new 0 0 512 512" height="512" viewBox="0 0 512 512" width="512" xmlns="http://www.w3.org/2000/svg"><g><g><g><path d="m512 41.958v373.53h-248.012l-83.065-187.41 83.065-105.531-25.667-19.038v-19.466l25.725-8.905c0-17.098 9.532-33.18 28.551-33.18z" fill="#ffd322"/><path d="m264.046 75.138-.058 47.409-17.711 23.828h-218.661l-11.641-23.828c-.398-29.524 34.161-47.409 60.087-47.409z" fill="#edbe00"/><path d="m15.975 122.547h248.012v292.941h-248.012z" fill="#fd5"/></g></g><g><g><path d="m302.164 371.954c-25.772 57.805-83.72 98.088-151.082 98.088l-66.548-98.088 66.548-98.079c67.362 0 125.309 40.283 151.082 98.079z" fill="#e9e4f0"/><path d="m151.082 273.875v196.167c-67.372 0-125.319-40.283-151.082-98.088 25.763-57.796 83.71-98.079 151.082-98.079z" fill="#fbf4f4"/></g><g><g><path d="m234.76 371.952c0 46.216-37.461 83.689-83.677 83.689l-46.813-83.683 46.813-83.683c46.216.001 83.677 37.462 83.677 83.677z" fill="#005fe0"/><path d="m151.083 288.276v167.365c-46.216 0-83.689-37.473-83.689-83.689 0-46.215 37.473-83.676 83.689-83.676z" fill="#2681ff"/></g><g><path d="m172.629 350.651v42.605h-21.544l-12.242-21.303 12.242-21.302z" fill="#002659"/><path d="m130.024 350.651h21.061v42.605h-21.061z" fill="#00429c"/></g></g></g></g></svg>