<svg id="Capa_1" enable-background="new 0 0 512 512" height="512" viewBox="0 0 512 512" width="512" xmlns="http://www.w3.org/2000/svg"><g><g><g><path d="m512 12.852v373.53h-248.012l-83.065-187.41 83.065-105.531-25.667-19.038v-19.466l25.725-8.905c0-17.098 9.532-33.18 28.551-33.18z" fill="#ffd322"/><path d="m264.046 46.032-.058 47.409-17.711 23.828h-218.661l-11.641-23.828c-.398-29.524 34.161-47.409 60.087-47.409z" fill="#edbe00"/><path d="m15.975 93.441h248.012v292.941h-248.012z" fill="#fd5"/></g></g><g><g><path d="m235.36 327.245c0 32.663-13.311 62.219-34.807 83.54-11.219 11.127-19.619 24.572-24.838 39.196l-13.674 23.08h-36.134l-8.228-23.08-49.7-108.663 49.701-131.743c64.988 0 117.68 52.682 117.68 117.67z" fill="#e9e4f0"/><path d="m0 327.245c0 32.663 13.311 62.219 34.807 83.54 11.219 11.127 19.619 24.572 24.838 39.196l13.674 23.08h36.134l8.228-23.08v-240.406c-64.989 0-117.681 52.682-117.681 117.67z" fill="#fbf4f4"/></g><g><path d="m175.716 449.981c-4.082 11.465-6.215 23.659-6.215 36.048v13.119h-51.82l-13.567-10.376 13.567-38.79h58.035z" fill="#5a5f64"/><path d="m59.645 449.981c4.082 11.465 6.215 23.659 6.215 36.048v13.119h51.82v-49.167z" fill="#7d8186"/></g></g></g></svg>