<svg id="Capa_1" enable-background="new 0 0 512 512" height="512" viewBox="0 0 512 512" width="512" xmlns="http://www.w3.org/2000/svg"><g><g><g><path d="m512 12.852v373.53h-248.012l-83.065-187.41 83.065-105.531-25.667-19.038v-19.466l25.725-8.905c0-17.098 9.532-33.18 28.551-33.18z" fill="#ffd322"/><path d="m264.046 46.032-.058 47.409-17.711 23.828h-218.661l-11.641-23.828c-.398-29.524 34.161-47.409 60.087-47.409z" fill="#edbe00"/><path d="m15.975 93.441h248.012v292.941h-248.012z" fill="#fd5"/></g></g><g><path d="m302.393 385.801c0 20.317-16.472 36.789-36.789 36.789h-18.877c-11.468 0-20.755 9.287-20.755 20.755v55.802h-76.314v-36.049c0-20.053-16.456-37.529-36.74-37.529l-33.898-39.763 33.898-39.763c19.957-.039 36.74-16.725 36.74-36.789v-36.789h76.314v55.792c0 11.458 9.287 20.755 20.755 20.755h18.877c20.317 0 36.789 16.472 36.789 36.789z" fill="#00959a"/><path d="m112.918 346.043v79.526c-20.006-.01-36.838 16.686-36.838 36.789v36.789h-76.08v-226.682h76.08v36.049c0 20.137 16.508 37.529 36.838 37.529z" fill="#00c6cd"/></g></g></svg>