<svg id="Capa_1" enable-background="new 0 0 512 512" height="512" viewBox="0 0 512 512" width="512" xmlns="http://www.w3.org/2000/svg"><g><g><g><path d="m512 12.852v373.53h-248.012l-83.065-187.41 83.065-105.531-25.667-19.038v-19.466l25.725-8.905c0-17.098 9.532-33.18 28.551-33.18z" fill="#ffd322"/><path d="m264.046 46.032-.058 47.409-17.711 23.828h-218.661l-11.641-23.828c-.398-29.524 34.161-47.409 60.087-47.409z" fill="#edbe00"/><path d="m15.975 93.441h248.012v292.941h-248.012z" fill="#fd5"/></g></g><g><g><path d="m145.16 286.408-21.437 100.761 21.437 111.979h37.86l3.747-18.277h21.191l5.062 18.277h37.86v-212.74l-19.605-16.431h-71.543z" fill="#5a5f64"/><path d="m145.16 286.408v212.74h-37.86l-3.747-18.277h-21.191l-5.062 18.277h-37.86v-212.74l19.605-16.431h71.543z" fill="#7d8186"/></g><g><path d="m145.16 211.178-8.032 24.587 8.032 20.643 4.947 13.569h6.893l3.16-13.569v-45.23z" fill="#e9e4f0"/><path d="m145.16 211.178v45.23l-4.947 13.569h-6.893l-3.16-13.569v-45.23z" fill="#fbf4f4"/></g><g><g><path d="m77.3 344.383h30v154.764h-30z" fill="#5a5f64"/></g><g><path d="m183.02 344.383h30v154.764h-30z" fill="#2d2d2d"/></g></g><g><path d="m145.16 256.408-5.179 17.782 5.179 12.218h145.16v-30z" fill="#002659"/><path d="m0 256.408h145.16v30h-145.16z" fill="#00429c"/></g></g></g></svg>