<svg id="Capa_1" enable-background="new 0 0 512 512" height="512" viewBox="0 0 512 512" width="512" xmlns="http://www.w3.org/2000/svg"><g><g><g><path d="m512 12.852v373.53h-248.012l-83.065-187.41 83.065-105.531-25.667-19.038v-19.466l25.725-8.905c0-17.098 9.532-33.18 28.551-33.18z" fill="#ffd322"/><path d="m264.046 46.032-.058 47.409-17.711 23.828h-218.661l-11.641-23.828c-.398-29.524 34.161-47.409 60.087-47.409z" fill="#edbe00"/><path d="m15.975 93.441h248.012v292.941h-248.012z" fill="#fd5"/></g></g><g><path d="m264.52 366.888c0 73.05-59.22 132.26-132.26 132.26l-18.834-17.681v-99.859l18.834-14.72-20.877-79.123 20.877-53.137c73.04-.001 132.26 59.22 132.26 132.26z" fill="#00959a"/><g><g><path d="m132.26 366.888v132.26c-73.05 0-132.26-59.21-132.26-132.26l12.66-24.314h110.298z" fill="#ffb555"/></g></g><path d="m132.26 234.627v132.26h-132.26c0-73.039 59.21-132.26 132.26-132.26z" fill="#00c6cd"/></g></g></svg>