<svg id="Capa_1" enable-background="new 0 0 512 512" height="512" viewBox="0 0 512 512" width="512" xmlns="http://www.w3.org/2000/svg"><g><g><g><path d="m512 12.852v373.53h-248.012l-83.065-187.41 83.065-105.531-25.667-19.038v-19.466l25.725-8.905c0-17.098 9.532-33.18 28.551-33.18z" fill="#ffd322"/><path d="m264.046 46.032-.058 47.409-17.711 23.828h-218.661l-11.641-23.828c-.398-29.524 34.161-47.409 60.087-47.409z" fill="#edbe00"/><path d="m15.975 93.441h248.012v292.941h-248.012z" fill="#fd5"/></g></g><g><g><path d="m131.99 429.348-10.309 40.204 10.309 29.596h59.96v-30h-44.96v-39.8l-5.031-11.881h-5.447z" fill="#005457"/><path d="m131.99 429.348v69.8h-59.96v-30h44.96v-39.8l5.031-11.881h5.447z" fill="#007579"/></g><g><path d="m131.99 395.718-14.054 11.536 14.054 22.094h131.99v-33.63l-11.043-24.89h-110.638z" fill="#002659"/><path d="m131.99 395.718v33.63h-131.99v-33.63l11.043-24.89h110.638z" fill="#00429c"/></g><g><path d="m131.99 235.178-39.586 77.438 39.586 83.102h131.99v-160.54z" fill="#e9e4f0"/><path d="m0 235.178h131.99v160.54h-131.99z" fill="#fbf4f4"/></g></g></g></svg>