<svg id="Capa_1" enable-background="new 0 0 512 512" height="512" viewBox="0 0 512 512" width="512" xmlns="http://www.w3.org/2000/svg"><g><g><g><path d="m512 12.852v373.53h-248.012l-83.065-187.41 83.065-105.531-25.667-19.038v-19.466l25.725-8.905c0-17.098 9.532-33.18 28.551-33.18z" fill="#ffd322"/><path d="m264.046 46.032-.058 47.409-17.711 23.828h-218.661l-11.641-23.828c-.398-29.524 34.161-47.409 60.087-47.409z" fill="#edbe00"/><path d="m15.975 93.441h248.012v292.941h-248.012z" fill="#fd5"/></g></g><g><g><path d="m217.39 363.938c0 45.57-36.94 82.51-82.51 82.51l-30.816-76.811 30.816-88.209c45.57-.001 82.51 36.939 82.51 82.51z" fill="#002659"/><path d="m134.88 281.427v165.02c-45.57 0-82.51-36.94-82.51-82.51s36.94-82.51 82.51-82.51z" fill="#00429c"/></g><g><path d="m134.88 228.377-23.752 33.6 23.752 38.64h.01c17.31 0 32.97 6.98 44.35 18.28l21.383 10.665 35.355-35.348-5.868-26.177c-24.39-24.4-58.05-39.519-95.23-39.66z" fill="#b30042"/><path d="m134.88 228.377v72.24h-.01c-17.31 0-32.97 6.98-44.35 18.28l-21.383 10.665-35.355-35.348 5.868-26.177c24.39-24.4 58.05-39.519 95.23-39.66z" fill="#d00050"/></g><path d="m134.88 426.528-23.752 34.599 23.752 38.021c37.18-.14 70.84-15.26 95.23-39.65l10.848-25.322-38.976-38.976-22.932 13.238c-11.36 11.18-26.95 18.09-44.16 18.09z" fill="#b30042"/><path d="m179.05 408.438 51.06 51.06c24.5-24.5 39.65-58.35 39.65-95.73s-15.15-71.23-39.65-95.73l-50.87 50.86c11.49 11.41 18.6 27.21 18.6 44.68 0 17.56-7.19 33.44-18.79 44.86z" fill="#e2e2eb"/><path d="m134.88 426.528v72.62c-37.18-.14-70.84-15.26-95.23-39.65l-10.848-25.322 38.976-38.976 22.932 13.238c11.36 11.18 26.95 18.09 44.16 18.09z" fill="#d00050"/><path d="m90.71 408.438-51.06 51.06c-24.5-24.501-39.65-58.35-39.65-95.73s15.15-71.23 39.65-95.73l50.87 50.86c-11.49 11.41-18.6 27.21-18.6 44.68 0 17.56 7.19 33.44 18.79 44.86z" fill="#fbf4f4"/></g></g></svg>