<svg id="Capa_1" enable-background="new 0 0 512 512" height="512" viewBox="0 0 512 512" width="512" xmlns="http://www.w3.org/2000/svg"><g><g><g><path d="m512 43.579v373.53h-248.012l-83.065-187.41 83.065-105.531-25.667-19.038v-19.466l25.725-8.905c0-17.098 9.532-33.18 28.551-33.18z" fill="#ffd322"/><path d="m264.046 76.759-.058 47.409-17.711 23.828h-218.661l-11.641-23.828c-.398-29.524 34.161-47.409 60.087-47.409z" fill="#edbe00"/><path d="m15.975 124.168h248.012v292.941h-248.012z" fill="#fd5"/></g></g><g><g><g><g><path d="m87.969 381.207-12.294 2.91-13.31-7.455-.732-9.825 37.319-66.627 8.558-7.346 19.743 11.058-2.801 12.151z" fill="#00429c"/></g></g><g><path d="m139.31 317.804c-.49.01-.97.02-1.45.02l-22.477-51.775 22.477-51.775c27.92-.01 50.96 22.23 51.75 50.32.81 28.58-21.71 52.41-50.3 53.21z" fill="#005fe0"/><path d="m137.86 214.274v103.55c-27.93.02-50.96-22.22-51.76-50.32-.805-28.748 22.998-53.23 51.76-53.23z" fill="#2681ff"/></g></g><g><g><path d="m175.285 402.104 5.875 4.387v21.064l-5.874 4.549h-37.426l-13.03-15 13.03-15z" fill="#002659"/><path d="m137.86 402.104v30h-37.464l-10.556-1.911v-25.191l10.553-2.898z" fill="#00429c"/></g><circle cx="51.311" cy="417.109" fill="#2681ff" r="51.311"/><circle cx="224.368" cy="417.109" fill="#005fe0" r="51.311"/></g></g></g></svg>