<svg id="Capa_1" enable-background="new 0 0 512 512" height="512" viewBox="0 0 512 512" width="512" xmlns="http://www.w3.org/2000/svg"><g><g><g><path d="m512 12.852v373.53h-248.012l-83.065-187.41 83.065-105.531-25.667-19.038v-19.466l25.725-8.905c0-17.098 9.532-33.18 28.551-33.18z" fill="#ffd322"/><path d="m264.046 46.032-.058 47.409-17.711 23.828h-218.661l-11.641-23.828c-.398-29.524 34.161-47.409 60.087-47.409z" fill="#edbe00"/><path d="m15.975 93.441h248.012v292.941h-248.012z" fill="#fd5"/></g></g><g><g><g><path d="m101.07 248.257-52.751 115.508 52.751 135.383h101.07v-250.891h-15.98l-5.786-10.62h-71.745z" fill="#002659"/><path d="m101.07 248.257v250.891h-101.07v-250.891h15.98l5.786-10.62h71.745z" fill="#00429c"/></g><g><g><path d="m101.07 402.943-14.964 30.89 14.964 27.57h57.26v-58.46l-6.211-13.791h-45.788z" fill="#00baa0"/><path d="m101.07 402.943v58.46h-57.26v-58.46l6.211-13.791h45.788z" fill="#00ccb2"/></g><g><path d="m101.07 344.473-14.964 26.807 14.964 31.663h57.26v-58.47l-4.679-13.023h-48.171z" fill="#00ccb2"/><path d="m101.07 344.473v58.47h-57.26v-58.47l4.679-13.023h48.171z" fill="#00eecf"/></g><g><path d="m101.07 286.003-14.964 24.766 14.964 33.704h57.26v-58.47z" fill="#00eecf"/><path d="m43.81 286.003h57.26v58.47h-57.26z" fill="#7affe6"/></g></g></g><g><path d="m101.07 198.848-14.964 27.044 14.964 22.365h85.095v-49.409z" fill="#005457"/><path d="m15.975 198.848h85.095v49.41h-85.095z" fill="#007579"/></g></g></g></svg>