<svg id="Capa_1" enable-background="new 0 0 512 512" height="512" viewBox="0 0 512 512" width="512" xmlns="http://www.w3.org/2000/svg"><g><g><g><path d="m512 12.852v373.53h-248.012l-83.065-187.41 83.065-105.531-25.667-19.038v-19.466l25.725-8.905c0-17.098 9.532-33.18 28.551-33.18z" fill="#ffd322"/><path d="m264.046 46.032-.058 47.409-17.711 23.828h-218.661l-11.641-23.828c-.398-29.524 34.161-47.409 60.087-47.409z" fill="#edbe00"/><path d="m15.975 93.441h248.012v292.941h-248.012z" fill="#fd5"/></g></g><g><path d="m131.95 499.148h64.831l14.119-14.873v-243.574l-14.119-10.029h-64.831l-27.886 155.71z" fill="#373c41"/><path d="m131.95 499.148h-64.831l-14.119-14.873v-243.574l14.119-10.029h64.831z" fill="#5a5f64"/><path d="m67.119 499.148h-67.119v-67.119l8.064-16.179h49.021l10.034 16.179z" fill="#5a5f64"/><path d="m67.119 432.029h-67.119v-67.119l9.085-16.465h47.489l10.545 16.465z" fill="#7d8186"/><path d="m67.119 364.91h-67.119v-67.119l8.234-21.175h51.745l7.14 21.175z" fill="#5a5f64"/><path d="m0 230.672h67.119v67.119h-67.119z" fill="#7d8186"/><path d="m196.781 499.148h67.119v-67.119l-8.064-16.179h-49.021l-10.034 16.179z" fill="#2d2d2d"/><path d="m196.781 432.029h67.119v-67.119l-9.085-16.465h-47.49l-10.544 16.465z" fill="#5a5f64"/><path d="m196.781 364.91h67.119v-67.119l-10.9-21.175h-39.489l-16.73 21.175z" fill="#2d2d2d"/><path d="m196.781 230.672h67.119v67.119h-67.119z" fill="#5a5f64"/></g></g></svg>