<svg id="Capa_1" enable-background="new 0 0 512 512" height="512" viewBox="0 0 512 512" width="512" xmlns="http://www.w3.org/2000/svg"><g><g><g><path d="m512 12.852v373.53h-248.012l-83.065-187.41 83.065-105.531-25.667-19.038v-19.466l25.725-8.905c0-17.098 9.532-33.18 28.551-33.18z" fill="#ffd322"/><path d="m264.046 46.032-.058 47.409-17.711 23.828h-218.661l-11.641-23.828c-.398-29.524 34.161-47.409 60.087-47.409z" fill="#edbe00"/><path d="m15.975 93.441h248.012v292.941h-248.012z" fill="#fd5"/></g></g><g><path d="m110.46 264.719-41.29 119.959 41.29 114.47 2.737-5.809h9.829l2.434 5.809h95.46v-134.37l-11.894-35.013-63.829-61.447z" fill="#e9e4f0"/><path d="m110.46 264.719v234.429l-2.737-5.809h-9.829l-2.434 5.809h-95.46v-134.37l11.894-35.013 63.829-61.447z" fill="#fbf4f4"/><g><path d="m125.46 426.861v72.287h-15l-7.5-28.182 7.5-44.105z" fill="#002659"/><path d="m95.46 426.861h15v72.287h-15z" fill="#00429c"/></g><path d="m197.09 302.729v-57.199h-30v30.016l-56.44-51.138-.19.18-12.609 22.964 12.609 17.167 110.46 100.059v-40.457z" fill="#002659"/><path d="m110.46 224.588-.19-.18-110.27 99.913v40.457l110.46-100.059z" fill="#00429c"/></g></g></svg>