<svg id="Capa_1" enable-background="new 0 0 512 512" height="512" viewBox="0 0 512 512" width="512" xmlns="http://www.w3.org/2000/svg"><g><g><g><path d="m512 35.692v373.53h-248.012l-83.065-187.41 83.065-105.531-25.667-19.038v-19.466l25.725-8.905c0-17.098 9.532-33.18 28.551-33.18z" fill="#ffd322"/><path d="m264.046 68.872-.058 47.409-17.711 23.828h-218.661l-11.641-23.828c-.398-29.524 34.161-47.409 60.087-47.409z" fill="#edbe00"/><path d="m15.975 116.281h248.012v292.941h-248.012z" fill="#fd5"/></g></g><g><g><path d="m282.971 474.337v1.97h-141.49l-45.587-69.937 45.586-73.503c77.099.001 141.491 64.344 141.491 141.47z" fill="#00959a"/><path d="m141.481 332.868v143.44h-141.48c-.227-77.857 62.994-143.44 141.48-143.44z" fill="#00c6cd"/></g><g><path d="m205.047 270.528c0 34.51-29.442 62.339-63.566 62.339l-25.444-58.63 25.444-66.06c35.114.001 63.566 27.912 63.566 62.351z" fill="#00959a"/><path d="m141.481 208.178v124.69c-34.121 0-63.566-27.833-63.566-62.339-.001-34.44 28.462-62.351 63.566-62.351z" fill="#00c6cd"/></g></g></g></svg>