<svg id="Capa_1" enable-background="new 0 0 511.978 511.978" height="512" viewBox="0 0 511.978 511.978" width="512" xmlns="http://www.w3.org/2000/svg"><g><g><g><path d="m511.978 16.465v373.53h-248.012l-83.065-187.41 83.065-105.531-25.667-19.038v-19.467l25.725-8.905c0-17.098 9.532-33.18 28.551-33.18h219.403z" fill="#ffd322"/><path d="m264.024 49.644-.058 47.409-17.712 23.828h-218.659l-11.641-23.828c-.398-29.524 34.161-47.409 60.087-47.409z" fill="#edbe00"/><path d="m15.954 97.053h248.012v292.941h-248.012z" fill="#fd5"/></g></g><g><g><g><path d="m263.72 389.994v105.52l-157.81-43.4-16.825-12.137-.022-37.809 16.717-12.174 79.645-33.762z" fill="#002659"/><path d="m263.719 284.074v105.92h-157.94l-16.703-10.182.008-42.778 16.825-9.55z" fill="#00429c"/></g><path d="m105.78 389.995v62.12h-105.78v-62.12l50.277-33.762z" fill="#e9e4f0"/></g><path d="m0 327.485h105.78v62.51h-105.78z" fill="#fbf4f4"/></g></g></svg>