<svg id="Capa_1" enable-background="new 0 0 512 512" height="512" viewBox="0 0 512 512" width="512" xmlns="http://www.w3.org/2000/svg"><g><g><g><path d="m512 50.183v373.53h-248.012l-83.065-187.41 83.065-105.531-25.667-19.038v-19.467l25.725-8.905c0-17.098 9.532-33.18 28.551-33.18h219.403z" fill="#ffd322"/><path d="m264.046 83.362-.058 47.409-17.712 23.829h-218.66l-11.641-23.828c-.398-29.524 34.161-47.409 60.087-47.409h187.984z" fill="#edbe00"/><path d="m15.975 130.771h248.012v292.941h-248.012z" fill="#fd5"/></g></g><g><g><g><path d="m144.441 310.35-9.128 1.851-3.323 8.477-9.869 35.538 9.869 29.262 2.557 10.255h10.383l2.06-10.255v-67.438z" fill="#e9e4f0"/><path d="m128.994 312.712-8.362-.99-3.642 6.317v67.439l1.472 10.255h11.404l2.124-10.255v-64.8z" fill="#fbf4f4"/></g><path d="m177.02 275.648c0 24.533-20.466 45.03-45.03 45.03l-18.379-36.945 18.379-53.115c24.87 0 45.03 20.16 45.03 45.03z" fill="#b30042"/><path d="m131.99 230.618v90.06c-24.562 0-45.03-20.498-45.03-45.03 0-24.87 20.16-45.03 45.03-45.03z" fill="#d00050"/></g><g><g><path d="m219.675 385.475-5.127 16.386h-19.064l-5.809-16.386v-29.259h30z" fill="#00959a"/></g></g><g><path d="m263.99 385.478v76.34h-132l-26.549-31.362 26.549-44.978z" fill="#002659"/><path d="m0 385.478h131.99v76.34h-131.99z" fill="#00429c"/></g></g></g></svg>