<svg id="Capa_1" enable-background="new 0 0 512 512" height="512" viewBox="0 0 512 512" width="512" xmlns="http://www.w3.org/2000/svg"><g><g><g><path d="m512 12.852v373.53h-248.012l-83.065-187.41 83.065-105.531-25.667-19.038v-19.466l25.725-8.905c0-17.098 9.532-33.18 28.551-33.18z" fill="#ffd322"/><path d="m264.046 46.032-.058 47.409-17.711 23.828h-218.661l-11.641-23.828c-.398-29.524 34.161-47.409 60.087-47.409z" fill="#edbe00"/><path d="m15.975 93.441h248.012v292.941h-248.012z" fill="#fd5"/></g></g><g><path d="m132.7 235.898h.63c59.29 0 109.42 39.19 125.89 93.08l-14.888 13.944h-56.17l-10.762-13.945-12.759-8.777-27.745-71.926-4.416-12.378h.22z" fill="#00eecf"/><path d="m177.4 328.977h81.82c3.73 12.19 5.74 25.13 5.74 38.54s-2.01 26.36-5.74 38.55l-8.834 12.548h-68.681l-4.305-12.548-10.206-16.346v-51.064z" fill="#00ccb2"/><path d="m132.48 499.148 5.778-14.787 22.128-68.085 17.014-10.208h81.82c-16.158 52.871-64.717 91.587-122.536 93.033l-.011.005-.219.002c-1.039.024-2.079.04-3.124.04h-.63c.023 0 .046-.002.069-.003z" fill="#00baa0"/><path d="m132.48 235.898-17.82 44.973 17.82 48.107 4.579 6.795h30.979l9.362-6.795c-5.86-53.7-23.64-92.81-44.7-93.08z" fill="#7affe6"/><path d="m132.48 406.068-21.529 29.829 21.529 63.251h.22c21.06-.27 38.84-39.38 44.7-93.08l-6.036-16.175h-32.426z" fill="#00ccb2"/><path d="m132.48 328.977-18.459 36.787 18.459 40.303h44.92c1.33-12.19 2.05-25.14 2.05-38.55s-.72-26.35-2.05-38.54z" fill="#00eecf"/><path d="m132.26 235.898h-.63c-59.29 0-109.42 39.19-125.89 93.08l11.83 13.944h56.851l13.139-13.944 12.759-8.777 27.745-71.926 4.416-12.378h-.22z" fill="#e1fff9"/><path d="m87.56 328.977h-81.82c-3.73 12.19-5.74 25.13-5.74 38.541 0 13.41 2.01 26.36 5.74 38.55l8.834 12.548h68.681l4.305-12.548 10.206-16.346v-51.064z" fill="#a9fff2"/><path d="m132.48 499.148-5.778-14.787-22.128-68.085-17.014-10.208h-81.82c16.158 52.871 64.717 91.587 122.536 93.033l.011.005.219.002c1.039.024 2.079.04 3.124.04h.63c-.023 0-.046-.002-.069-.003z" fill="#7affe6"/><path d="m132.48 235.898v93.08l-8.592 8.305h-26.358l-9.97-8.305c5.86-53.7 23.64-92.81 44.7-93.08z" fill="#a9fff2"/><path d="m132.48 406.068v93.08h-.22c-21.06-.27-38.84-39.38-44.7-93.08l6.036-16.175h32.426z" fill="#00eecf"/><path d="m132.48 328.977v77.09h-44.92c-1.33-12.19-2.05-25.14-2.05-38.55s.72-26.35 2.05-38.54z" fill="#7affe6"/></g></g></svg>