<svg id="Capa_1" enable-background="new 0 0 512 512" height="512" viewBox="0 0 512 512" width="512" xmlns="http://www.w3.org/2000/svg"><g><g><g><path d="m512 37.388v373.53h-248.012l-83.065-187.41 83.065-105.531-25.667-19.038v-19.467l25.725-8.905c0-17.098 9.532-33.18 28.551-33.18h219.403z" fill="#ffd322"/><path d="m264.046 70.567-.058 47.409-17.711 23.828h-218.661l-11.641-23.828c-.398-29.524 34.161-47.409 60.087-47.409z" fill="#edbe00"/><path d="m15.975 117.976h248.012v292.941h-248.012z" fill="#fd5"/></g></g><g><g><path d="m145.89 376.233-18.081 43.939 18.081 54.44h145.83v-196.77l-31.991 6.898-101.783 68.672z" fill="#002659"/><path d="m145.89 376.233v98.379h-145.89v-196.77l32.051 6.898 101.783 68.672z" fill="#00429c"/></g><g><path d="m145.89 277.842-18.081 49.196 18.081 49.195 145.83-98.391z" fill="#005fe0"/><path d="m145.89 277.842v98.391l-145.89-98.391z" fill="#2681ff"/></g></g></g></svg>