<svg id="Capa_1" enable-background="new 0 0 512 512" height="512" viewBox="0 0 512 512" width="512" xmlns="http://www.w3.org/2000/svg"><g><g><g><path d="m512 12.852v373.53h-248.012l-83.065-187.41 83.065-105.531-25.667-19.038v-19.466l25.725-8.905c0-17.098 9.532-33.18 28.551-33.18z" fill="#ffd322"/><path d="m264.046 46.032-.058 47.409-17.711 23.828h-218.661l-11.641-23.828c-.398-29.524 34.161-47.409 60.087-47.409z" fill="#edbe00"/><path d="m15.975 93.441h248.012v292.941h-248.012z" fill="#fd5"/></g></g><g><g><path d="m250 374.148c0 69.04-55.96 125-125 125l-59.574-112.766 59.574-137.234c69.04 0 125 55.959 125 125z" fill="#005457"/><path d="m125 249.148v250c-69.04 0-125-55.96-125-125s55.96-125 125-125z" fill="#007579"/></g><g><g><path d="m175.24 342.847c0 16.99-9.46 32.85-24.67 41.41l-10.57 5.94v5.5h-15l-7.5-14.125 7.5-17.355 10.87-6.11c5.78-3.25 9.37-9.1 9.37-15.26 0-10.974-9.275-20.24-20.24-20.24l-9.809-14.949 9.809-15.051c27.302 0 50.24 22.93 50.24 50.24z" fill="#e9e4f0"/><g fill="#fbf4f4"><path d="m125 292.607v30c-11.025 0-20.24 9.216-20.24 20.23h-30c0-13.81 5.78-27.16 15.85-36.62 9.43-8.86 21.54-13.63 34.39-13.61z"/><path d="m125 364.218v31.48h-15v-23.05z"/></g></g><g><path d="m139.58 425.698v30h-14.58l-8.532-14.125 8.532-15.875z" fill="#e9e4f0"/><path d="m109.58 425.698h15.42v30h-15.42z" fill="#fbf4f4"/></g></g></g></g></svg>