<svg id="Capa_1" enable-background="new 0 0 512 512" height="512" viewBox="0 0 512 512" width="512" xmlns="http://www.w3.org/2000/svg"><g><g><g><path d="m512 25.926v373.53h-248.012l-83.065-187.41 83.065-105.531-25.667-19.038v-19.466l25.725-8.905c0-17.098 9.532-33.18 28.551-33.18z" fill="#ffd322"/><path d="m264.046 59.106-.058 47.409-17.711 23.828h-218.661l-11.641-23.828c-.398-29.524 34.161-47.409 60.087-47.409z" fill="#edbe00"/><path d="m15.975 106.515h248.012v292.941h-248.012z" fill="#fd5"/></g></g><g><path d="m216.78 194.244v252.34l-14.844 19.745h-80.17l-13.376-19.745-27.22-110.041 27.22-165.099 5.546 20.503h35.745l5.709-20.503h38.6c12.59 0 22.79 10.209 22.79 22.8z" fill="#e9e4f0"/><path d="m108.39 171.444v275.14l-11.135 19.745h-82.301l-14.954-19.746v-252.34c0-12.59 10.2-22.8 22.79-22.8h38.6l5.567 20.844h35.745z" fill="#fbf4f4"/><path d="m155.39 171.444v42.48c0 9.67-7.85 17.52-17.52 17.52h-29.48l-7.22-32.688 7.22-27.312z" fill="#002659"/><path d="m108.39 171.444v60h-29.48c-9.67 0-17.52-7.85-17.52-17.52v-42.48z" fill="#00429c"/><g><path d="m216.78 446.583v16.7c0 12.58-10.2 22.79-22.79 22.79h-85.6l-7.901-16.595 7.901-22.895z" fill="#002659"/><path d="m108.39 446.583v39.49h-85.6c-12.59 0-22.79-10.21-22.79-22.79v-16.7z" fill="#00429c"/></g></g></g></svg>