<svg id="Capa_1" enable-background="new 0 0 512 512" height="512" viewBox="0 0 512 512" width="512" xmlns="http://www.w3.org/2000/svg"><g><g><g><path d="m512 12.852v373.53h-248.012l-83.065-187.41 83.065-105.531-25.667-19.038v-19.466l25.725-8.905c0-17.098 9.532-33.18 28.551-33.18z" fill="#ffd322"/><path d="m264.046 46.032-.058 47.409-17.711 23.828h-218.661l-11.641-23.828c-.398-29.524 34.161-47.409 60.087-47.409z" fill="#edbe00"/><path d="m15.975 93.441h248.012v292.941h-248.012z" fill="#fd5"/></g></g><g><path d="m131.815 217.236-79.666 142.443 79.666 139.468c122.96-101.715 131.815-92.753 131.815-251.475v-30.437h-131.815z" fill="#005fe0"/><path d="m131.815 217.236v281.911c-122.96-101.714-131.815-92.752-131.815-251.474v-30.437z" fill="#2681ff"/><path d="m131.815 268.727-37.49 69.506 37.49 90.854c69.943-57.858 74.98-52.761 74.98-143.046v-17.313h-74.98z" fill="#002659"/><path d="m131.815 268.727v160.36c-69.943-57.858-74.98-52.761-74.98-143.046v-17.313h74.98z" fill="#00429c"/></g></g></svg>