<svg id="Capa_1" enable-background="new 0 0 512 512" height="512" viewBox="0 0 512 512" width="512" xmlns="http://www.w3.org/2000/svg"><g><g><g><path d="m512 12.852v373.53h-248.012l-83.065-187.41 83.065-105.531-25.667-19.038v-19.466l25.725-8.905c0-17.098 9.532-33.18 28.551-33.18z" fill="#ffd322"/><path d="m264.046 46.032-.058 47.409-17.711 23.828h-218.661l-11.641-23.828c-.398-29.524 34.161-47.409 60.087-47.409z" fill="#edbe00"/><path d="m15.975 93.441h248.012v292.941h-248.012z" fill="#fd5"/></g></g><g><g><path d="m166.39 380.117c22.87 56-19.72 119.03-80 119.03-23.85 0-45.45-9.67-61.09-25.3l102.594-146.934 124.036-79.686 23.68 23.68z" fill="#e9e4f0"/><path d="m251.93 247.227-226.63 226.62c-15.63-15.639-25.3-37.24-25.3-61.089 0-60.28 63.03-102.87 119.03-80l17.46-17.46-48.62-52.38 22.07-20.33 47.78 51.48 31.7-31.7-23.95-23.94 21.22-21.22 23.94 23.95 17.61-17.62z" fill="#fbf4f4"/></g><path d="m101.31 397.837v30h-30l9.137-22.753z" fill="#002659"/><g><g><path d="m101.31 397.837-30 30v-30z" fill="#00429c"/></g></g></g></g></svg>