<svg id="Capa_1" enable-background="new 0 0 512 512" height="512" viewBox="0 0 512 512" width="512" xmlns="http://www.w3.org/2000/svg"><g><g><g><path d="m512 31.702v373.53h-248.012l-83.065-187.41 83.065-105.531-25.667-19.038v-19.466l25.725-8.905c0-17.098 9.532-33.18 28.551-33.18z" fill="#ffd322"/><path d="m264.046 64.882-.058 47.409-17.711 23.828h-218.661l-11.641-23.828c-.398-29.524 34.161-47.409 60.087-47.409z" fill="#edbe00"/><path d="m15.975 112.291h248.012v292.941h-248.012z" fill="#fd5"/></g></g><g><g><path d="m263.54 331.487v148.811h-131.86l-34.68-76.237 34.68-72.574z" fill="#00959a"/><path d="m0 331.487h131.68v148.81h-131.68z" fill="#00c6cd"/></g><g><g><path d="m56.679 390.891h30v30h-30z" fill="#fbf4f4"/></g><g><path d="m146.68 390.888v30h-15l-5.574-15.039 5.574-14.961z" fill="#e9e4f0"/><path d="m116.68 390.888h15v30h-15z" fill="#fbf4f4"/></g><g><path d="m176.679 390.891h30v30h-30z" fill="#e9e4f0"/></g></g></g></g></svg>