<svg id="Capa_1" enable-background="new 0 0 512 512" height="512" viewBox="0 0 512 512" width="512" xmlns="http://www.w3.org/2000/svg"><g><g><g><path d="m512 18.353v373.53h-248.012l-83.065-187.41 83.065-105.531-25.667-19.038v-19.467l25.725-8.905c0-17.098 9.532-33.18 28.551-33.18h219.403z" fill="#ffd322"/><path d="m264.046 51.532-.058 47.409-17.711 23.828h-218.661l-11.641-23.828c-.398-29.524 34.161-47.409 60.087-47.409z" fill="#edbe00"/><path d="m15.975 98.941h248.012v292.941h-248.012z" fill="#fd5"/></g></g><g><g><path d="m223.47 339.198c0 38.04-30.83 68.88-68.87 68.88l-27.983-68.875 27.983-68.875c38.04-.001 68.87 30.83 68.87 68.87z" fill="#e9e4f0"/><path d="m154.6 270.327v137.75c-38.04 0-68.87-30.84-68.87-68.88 0-38.039 30.83-68.87 68.87-68.87z" fill="#fbf4f4"/></g><g><path d="m154.6 493.647-22.196-52.298 22.196-60.192c24.09 0 43.62-19.53 43.62-43.62s-19.53-43.61-43.62-43.61l-37.77-46.62 37.77-65.78h39.13l-.1 43.13c14.43 4.98 27.94 12.73 39.67 23l37.3-21.42 38.6 67.22-37.3 21.42c2.96 15.31 2.84 30.89-.13 45.86l37.22 21.61-38.91 67.04-37.21-21.6c-11.64 10.07-25.21 17.86-39.78 22.84l-.1 43.02z" fill="#002659"/><path d="m154.6 493.647v-112.49c-24.09 0-43.62-19.53-43.62-43.62s19.53-43.61 43.62-43.61v-112.4h-39.13l.1 43.13c-14.43 4.98-27.94 12.73-39.67 23l-37.3-21.42-38.6 67.221 37.3 21.42c-2.96 15.31-2.84 30.89.13 45.86l-37.22 21.61 38.91 67.04 37.21-21.6c11.64 10.07 25.21 17.86 39.78 22.84l.1 43.02h38.39z" fill="#00429c"/></g></g></g></svg>