<svg id="Capa_1" enable-background="new 0 0 512 512" height="512" viewBox="0 0 512 512" width="512" xmlns="http://www.w3.org/2000/svg"><g><g><g><path d="m512 37.857v373.53h-248.012l-83.065-187.41 83.065-105.531-25.667-19.038v-19.467l25.725-8.905c0-17.098 9.532-33.18 28.551-33.18h219.403z" fill="#ffd322"/><path d="m264.046 71.036-.058 47.409-17.711 23.828h-218.661l-11.641-23.828c-.398-29.524 34.161-47.409 60.087-47.409z" fill="#edbe00"/><path d="m15.975 118.446h248.012v292.941h-248.012z" fill="#fd5"/></g></g><g><path d="m271.024 474.143s-148.293 0-149.012 0h-.195l-53.19-119.804 53.189-124.209h.195c67.383 0 122.001 54.618 122.001 122.001 0 23.671-6.753 45.768-18.418 64.475z" fill="#00959a"/><path d="m121.816 230.131v244.013c-67.291-.104-121.816-54.691-121.816-122.012s54.525-121.899 121.816-122.001z" fill="#00c6cd"/></g></g></svg>