<svg id="Capa_1" enable-background="new 0 0 512 512" height="512" viewBox="0 0 512 512" width="512" xmlns="http://www.w3.org/2000/svg"><g><g><g><path d="m512 12.852v373.53h-248.012l-83.065-187.41 83.065-105.531-25.667-19.038v-19.466l25.725-8.905c0-17.098 9.532-33.18 28.551-33.18z" fill="#ffd322"/><path d="m264.046 46.032-.058 47.409-17.711 23.828h-218.661l-11.641-23.828c-.398-29.524 34.161-47.409 60.087-47.409z" fill="#edbe00"/><path d="m15.975 93.441h248.012v292.941h-248.012z" fill="#fd5"/></g></g><g><g><path d="m263.836 203.941v244.046l-41.794 51.161h-90.026l-45.656-147.604 45.656-147.603z" fill="#e9e4f0"/><path d="m0 203.941h132.016v295.206h-132.016z" fill="#fbf4f4"/></g><g><path d="m213.666 264.337v63.381h-30v-33.381h-36.65v108.301h33.42v30h-48.42l-12.899-100.533 12.899-67.768z" fill="#002659"/><path d="m132.016 264.337v168.301h-48.24v-30h33.24v-108.301h-36.65v33.381h-30v-63.381z" fill="#00429c"/></g></g></g></svg>