<svg id="Capa_1" enable-background="new 0 0 512 512" height="512" viewBox="0 0 512 512" width="512" xmlns="http://www.w3.org/2000/svg"><g><g><g><path d="m512 5.852v373.53h-248.012l-83.065-187.41 83.065-105.531-25.667-19.038v-19.466l25.725-8.905c0-17.098 9.532-33.18 28.551-33.18z" fill="#ffd322"/><path d="m264.046 39.032-.058 47.409-17.711 23.828h-218.661l-11.641-23.828c-.398-29.524 34.161-47.409 60.087-47.409z" fill="#edbe00"/><path d="m15.975 86.441h248.012v292.941h-248.012z" fill="#fd5"/></g></g><g><path d="m211.255 226.691c49.937 48.074 51.734 127.53 5.252 178.952l-91.281 100.505-49.642-154.91 49.772-159.293c34.212.029 63.912 13.579 85.899 34.746z" fill="#b30042"/><path d="m125.356 191.944-.131 314.203-91.881-101.994c-42.088-46.632-44.857-117.261-5.317-166.073 23.749-29.319 59.648-46.136 97.329-46.136z" fill="#d00050"/><g><path d="m110.356 289.91h15v30h-15z" fill="#fbf4f4"/><path d="m125.356 289.91h15v30h-15z" fill="#e9e4f0"/></g></g></g></svg>