<svg id="Capa_1" enable-background="new 0 0 512 512" height="512" viewBox="0 0 512 512" width="512" xmlns="http://www.w3.org/2000/svg"><g><g><g><path d="m512 32.398v373.53h-248.012l-83.065-187.41 83.065-105.531-25.667-19.038v-19.467l25.725-8.905c0-17.098 9.532-33.18 28.551-33.18h219.403z" fill="#ffd322"/><path d="m264.046 65.577-.058 47.409-17.711 23.828h-218.661l-11.641-23.828c-.398-29.524 34.161-47.409 60.087-47.409z" fill="#edbe00"/><path d="m15.975 112.986h248.012v292.941h-248.012z" fill="#fd5"/></g></g><g><g><path d="m131.99 208.443-10.82 14.697 10.82 15.303h30.04c5.6 0 10.14 4.55 10.14 10.14v22.98l6.895 18.13h15.66l7.445-18.13v-22.98c0-22.14-18-40.14-40.14-40.14z" fill="#e9e4f0"/><path d="m131.99 208.443v30h-30.04c-5.6 0-10.14 4.55-10.14 10.14v22.98l-6.895 18.13h-15.66l-7.445-18.13v-22.98c0-22.14 18-40.14 40.14-40.14z" fill="#fbf4f4"/></g><path d="m142.64 352.331 111.276-55.17 10.064 3.191v179.25h-131.99l-23.416-63.441 23.416-46.368z" fill="#005457"/><g><g><path d="m121.34 352.331-111.276-55.17-10.064 3.191v179.25h131.99v-109.809z" fill="#007579"/></g></g><g><path d="m131.99 271.563-23.416 43.662 23.416 54.568h62.55c38.35 0 69.44-31.09 69.44-69.44v-28.79z" fill="#00959a"/><path d="m131.99 271.563v98.23h-62.55c-38.35 0-69.44-31.09-69.44-69.44v-28.79z" fill="#00c6cd"/></g><g><g><path d="m58.956 333.267h30v72.66h-30z" fill="#fbf4f4"/></g><g><path d="m175.024 333.267h30v72.66h-30z" fill="#e9e4f0"/></g></g></g></g></svg>