<svg id="Capa_1" enable-background="new 0 0 512 512" height="512" viewBox="0 0 512 512" width="512" xmlns="http://www.w3.org/2000/svg"><g><path d="m53.37 463.33c.02.04.03.09.04.13l-.07-.08z" fill="#fbf4f4"/><path d="m97.64 463.34-.02.05v-.06z" fill="#fbf4f4"/><g><g><g><path d="m512 22.177v373.53h-248.012l-83.065-187.41 83.065-105.531-25.667-19.038v-19.466l25.725-8.905c0-17.098 9.532-33.18 28.551-33.18z" fill="#ffd322"/><path d="m264.046 55.357-.058 47.409-17.711 23.828h-218.661l-11.641-23.828c-.398-29.524 34.161-47.409 60.087-47.409z" fill="#edbe00"/><path d="m15.975 102.766h248.012v292.941h-248.012z" fill="#fd5"/></g></g><g><g><g><g><path d="m186.519 266.808h-88.895v-30h88.895l11.247 5.225v19.137z" fill="#00959a"/></g></g><path d="m186.519 218.651h66.312v66.312h-66.312z" fill="#002659"/></g><g><g><path d="m97.62 344.803-36.96 50.905 36.96 64.155 5.6 14.93h25.66l12.95-14.86c.01-.04.02-.09.04-.13 8.26-28.03 27.81-51.23 53.37-64.35l-82.62-134.29-4.98 5.88v67.79l4.98 9.97-4.31-5.12h-8.17z" fill="#e9e4f0"/><path d="m97.62 344.803v115.06l-5.6 14.93h-25.66l-12.95-14.86c-.01-.04-.02-.09-.04-.13-8.26-28.03-27.81-51.23-53.37-64.35l82.62-134.29 4.98 5.88v67.79l-4.98 9.97 4.31-5.12h8.17z" fill="#fbf4f4"/></g><g><path d="m97.62 236.783-10.024 51.285 10.024 56.735h15v-83.641z" fill="#002659"/><path d="m97.62 236.783v108.02h-15v-83.641z" fill="#00429c"/></g><g><g><g><path d="m176.77 459.823v30h-79.15l-10.492-15 10.492-15z" fill="#002659"/></g><g><path d="m18.47 459.823h79.15v30h-79.15z" fill="#00429c"/></g></g></g></g></g></g></g></svg>