<svg id="Capa_1" enable-background="new 0 0 512 512" height="512" viewBox="0 0 512 512" width="512" xmlns="http://www.w3.org/2000/svg"><g><g><g><path d="m512 12.852v373.53h-248.012l-83.065-187.41 83.065-105.531-25.667-19.038v-19.466l25.725-8.905c0-17.098 9.532-33.18 28.551-33.18z" fill="#ffd322"/><path d="m264.046 46.032-.058 47.409-17.711 23.828h-218.661l-11.641-23.828c-.398-29.524 34.161-47.409 60.087-47.409z" fill="#edbe00"/><path d="m15.975 93.441h248.012v292.941h-248.012z" fill="#fd5"/></g></g><g><g><g><path d="m250 374.148c0 69.04-55.96 125-125 125l-59.574-112.766 59.574-137.234c69.04 0 125 55.959 125 125z" fill="#002659"/><path d="m125 249.148v250c-69.04 0-125-55.96-125-125s55.96-125 125-125z" fill="#00429c"/></g></g><g><path d="m208.23 376.337c0 45.97-37.26 83.24-83.23 83.24l-37.957-83.45 37.957-83.02c45.97 0 83.23 37.26 83.23 83.23z" fill="#e9e4f0"/><path d="m125 293.107v166.47c-45.97 0-83.23-37.27-83.23-83.24s37.26-83.23 83.23-83.23z" fill="#fbf4f4"/></g><g><path d="m223.51 376.128c0 54.32-44.19 98.51-98.51 98.51l-11.915-14.447 11.915-15.553c37.78 0 68.51-30.74 68.51-68.51 0-13.47-3.92-26.03-10.66-36.64l-57.85 57.849-10.638-18.85 10.638-23.579 36.63-36.63c-10.6-6.74-23.16-10.66-36.63-10.66l-9.106-15.427 9.106-14.574c54.32 0 98.51 44.19 98.51 98.511z" fill="#b30042"/><path d="m56.49 376.128c0 13.47 3.92 26.03 10.66 36.63l57.85-57.85v42.43l-36.63 36.63c10.6 6.74 23.16 10.67 36.63 10.67v30c-54.32 0-98.51-44.19-98.51-98.51s44.19-98.51 98.51-98.51v30c-37.78-.001-68.51 30.729-68.51 68.51z" fill="#d00050"/></g></g></g></svg>