<svg id="Capa_1" enable-background="new 0 0 512 512" height="512" viewBox="0 0 512 512" width="512" xmlns="http://www.w3.org/2000/svg"><g><g><g><path d="m512 12.852v373.53h-248.012l-83.065-187.41 83.065-105.531-25.667-19.038v-19.466l25.725-8.905c0-17.098 9.532-33.18 28.551-33.18z" fill="#ffd322"/><path d="m264.046 46.032-.058 47.409-17.711 23.828h-218.661l-11.641-23.828c-.398-29.524 34.161-47.409 60.087-47.409z" fill="#edbe00"/><path d="m15.975 93.441h248.012v292.941h-248.012z" fill="#fd5"/></g></g><g><g><path d="m263.836 203.941v244.046l-41.794 51.161h-90.026l-45.656-147.604 45.656-147.603z" fill="#e9e4f0"/><path d="m0 203.941h132.016v295.206h-132.016z" fill="#fbf4f4"/></g><g><path d="m132.016 438.959-23.09-39.207 23.091-39.055.014-98.025h30v19.02c0 8.28 6.73 15 15 15 3.09 0 6.05-.93 8.57-2.68l17.18 24.59c-7.58 5.3-16.48 8.09-25.75 8.09-5.26 0-10.31-.91-15-2.58v78.41c-1.18 17.491-13.625 32.028-30.015 36.437z" fill="#002659"/><path d="m132.017 360.699-.001 78.26c-3.34.9-6.889 1.38-10.509 1.38-22.38 0-40.51-18.14-40.51-40.51s18.13-40.51 40.51-40.51c3.62 0 7.17.5 10.51 1.38z" fill="#00429c"/></g></g></g></svg>