<svg id="Capa_1" enable-background="new 0 0 512.003 512.003" height="512" viewBox="0 0 512.003 512.003" width="512" xmlns="http://www.w3.org/2000/svg"><g><g><path d="m512.003 63.222v385.56h-255.998l-79.17-188.929 79.17-113.447-26.979-17.452.485-22.293 26.553-9.191c0-17.646 9.832-34.248 29.47-34.248h226.469z" fill="#ffd322"/><path d="m256.065 97.47-.06 48.936-18.282 24.596h-225.702l-12.018-24.596c-.4-30.476 35.259-48.936 62.024-48.936z" fill="#edbe00"/><path d="m256.005 146.406v302.376h-256.002v-302.376h112.99l5.865 4.92h22.468l1.684-4.92z" fill="#fd5"/></g><g><g><g><g><g><path d="m384.151 388.782h97.851v30h-97.851z" fill="#005457"/></g></g><g><g><path d="m384.151 324.59h97.851v30h-97.851z" fill="#005457"/></g></g></g></g><g><g><path d="m199.682 380.452h-71.68l-35.84-79.493 35.84-85.827h71.68z" fill="#005fe0"/><path d="m56.322 215.132h71.68v165.32h-71.68z" fill="#2681ff"/></g><g><path d="m143.01 237.154h-15.008l-7.505-45.374 7.505-45.374h15.008z" fill="#002659"/><path d="m112.993 146.406h15.009v90.748h-15.009z" fill="#00429c"/></g></g></g></g></svg>