<svg id="Capa_1" enable-background="new 0 0 512.003 512.003" height="512" viewBox="0 0 512.003 512.003" width="512" xmlns="http://www.w3.org/2000/svg"><g><g><path d="m512.003 0v250.95l-63.6-21.38-64.17 26.73-64.17-26.73-64.06 26.69-30.489-106.523 30.489-66.558-26.49-19.91v-19.829l26.55-9.19c0-17.647 9.831-34.25 29.47-34.25z" fill="#ffd322"/><path d="m256.063 34.25-.051 48.936-18.28 24.595h-225.712l-12.017-24.597c-.401-30.476 35.257-48.936 62.022-48.936z" fill="#edbe00"/><path d="m256.003 83.18v173.08l-.1.04-64.17-26.73-64.17 26.73-64.16-26.73-63.4 21.38v-167.77z" fill="#fd5"/></g><g><path d="m512.003 297.77v87.79h-256l-27.425-44.844 27.425-37.636 64.06-26.7 64.17 26.74 64.17-26.74z" fill="#ffd322"/><path d="m256.003 303.08v82.48h-256v-87.79l63.4-21.39 64.16 26.74 64.17-26.74 64.17 26.74z" fill="#fd5"/></g></g></svg>