<svg height="512pt" viewBox="0 -46 512 512" width="512pt" xmlns="http://www.w3.org/2000/svg"><path d="m447 0h-382c-19.300781 0-35 15.699219-35 35v270h166c5.511719 0 10 4.488281 10 10v20h100v-20c0-5.511719 4.488281-10 10-10h166v-270c0-19.300781-15.699219-35-35-35zm0 0" fill="#7280f8"/><path d="m447 0h-191v335h50v-20c0-2.238281.75-4.308594 1.988281-5.980469.582031-.769531 1.261719-1.449219 2.03125-2.03125 1.671875-1.238281 3.742188-1.988281 5.980469-1.988281h166v-270c0-19.300781-15.699219-35-35-35zm0 0" fill="#434af2"/><path d="m452 50v255h-136c-5.5 0-10 4.5-10 10v20h-100v-20c0-5.5-4.5-10-10-10h-136v-255c0-11.046875 8.953125-20 20-20h352c11.046875 0 20 8.953125 20 20zm0 0" fill="#d6f3fe"/><path d="m452 50v255h-136c-2.238281 0-4.308594.75-5.980469 1.988281-.769531.582031-1.449219 1.261719-2.03125 2.03125-1.238281 1.671875-1.988281 3.742188-1.988281 5.980469v20h-50v-305h176c11.050781 0 20 8.949219 20 20zm0 0" fill="#bdecfc"/><path d="m226 210h-121c-8.285156 0-15-6.714844-15-15v-120c0-8.285156 6.714844-15 15-15h121c8.285156 0 15 6.714844 15 15v120c0 8.285156-6.714844 15-15 15zm0 0" fill="#eebb2c"/><g fill="#4f84cf"><path d="m407 90h-121c-8.285156 0-15-6.714844-15-15s6.714844-15 15-15h121c8.285156 0 15 6.714844 15 15s-6.714844 15-15 15zm0 0"/><path d="m407 150h-121c-8.285156 0-15-6.714844-15-15s6.714844-15 15-15h121c8.285156 0 15 6.714844 15 15s-6.714844 15-15 15zm0 0"/><path d="m409 210h-123c-8.285156 0-15-6.714844-15-15s6.714844-15 15-15h123c8.285156 0 15 6.714844 15 15s-6.714844 15-15 15zm0 0"/></g><path d="m409 270h-302c-8.285156 0-15-6.714844-15-15s6.714844-15 15-15h302c8.285156 0 15 6.714844 15 15s-6.714844 15-15 15zm0 0" fill="#66a9df"/><path d="m424 255c0 8.28125-6.71875 15-15 15h-153v-30h153c8.28125 0 15 6.71875 15 15zm0 0" fill="#4f84cf"/><path d="m477 420h-442c-19.300781 0-35-15.699219-35-35v-70c0-8.285156 6.714844-15 15-15h181c8.285156 0 15 6.714844 15 15v15h90v-15c0-8.285156 6.714844-15 15-15h181c8.285156 0 15 6.714844 15 15v70c0 19.300781-15.699219 35-35 35zm0 0" fill="#7280f8"/><path d="m497 300h-181c-8.28125 0-15 6.71875-15 15v15h-45v90h221c19.300781 0 35-15.699219 35-35v-70c0-8.28125-6.71875-15-15-15zm0 0" fill="#434af2"/></svg>