<svg height="512pt" viewBox="0 0 512 512" width="512pt" xmlns="http://www.w3.org/2000/svg"><path d="m512 385.769531v71.152344c0 30.367187-24.710938 55.078125-55.078125 55.078125h-280.613281v-63.660156l202.480468-117.648438h78.132813c30.367187 0 55.078125 24.707032 55.078125 55.078125zm0 0" fill="#75cc5b"/><path d="m458.878906 289.03125c-298.933594 172.582031-287.925781 168.464844-296.617187 166.027344l176.207031-305.867188 29.75-17.179687c26.292969-15.191407 60.050781-6.152344 75.242188 20.160156l35.578124 61.617187c15.179688 26.300782 6.132813 60.050782-20.160156 75.242188zm0 0" fill="#434af2"/><path d="m358 121.78125c-191.429688 331.558594-179.03125 310.816406-181.691406 313.179688v-361.121094l24.660156-42.710938c15.203125-26.351562 48.878906-35.390625 75.242188-20.160156l61.617187 35.570312c26.300781 15.191407 35.34375 48.941407 20.171875 75.242188zm0 0" fill="#d8333c"/><path d="m126.230469 0h-71.148438c-30.421875 0-55.082031 24.660156-55.082031 55.082031v381.792969c0 41.492188 33.632812 75.125 75.125 75.125h106.1875v-456.917969c0-30.421875-24.660156-55.082031-55.082031-55.082031zm0 0" fill="#eebb2c"/><path d="m181.308594 55.078125v456.921875h-90.308594v-512h35.230469c30.417969 0 55.078125 24.660156 55.078125 55.078125zm0 0" fill="#e79b34"/><path d="m106 421c0 8.285156-6.714844 15-15 15s-15-6.714844-15-15 6.714844-15 15-15 15 6.714844 15 15zm0 0" fill="#d6f3fe"/><path d="m106 421c0 8.28125-6.71875 15-15 15v-30c8.28125 0 15 6.71875 15 15zm0 0" fill="#bdecfc"/></svg>