<svg height="512pt" viewBox="0 0 512.001 512" width="512pt" xmlns="http://www.w3.org/2000/svg"><path d="m240.941406 206.402344h30.117188v160.3125h-30.117188zm0 0" fill="#7280f8"/><path d="m451.765625 286.558594v80.160156h-30.117187v-65.128906h-331.296876v65.128906h-30.117187v-80.160156c0-8.292969 6.746094-15.027344 15.058594-15.027344h361.414062c8.3125 0 15.058594 6.730469 15.058594 15.027344zm0 0" fill="#7280f8"/><path d="m256 206.402344h15.058594v160.316406h-15.058594zm0 0" fill="#434af2"/><path d="m451.761719 286.558594v80.160156h-30.113281v-65.128906h-165.648438v-30.058594h180.710938c8.308593 0 15.050781 6.730469 15.050781 15.027344zm0 0" fill="#434af2"/><path d="m180.707031 116.226562v80.15625c0 8.296876 6.746094 15.03125 15.058594 15.03125h120.46875c8.316406 0 15.0625-6.734374 15.0625-15.03125v-80.15625zm0 0" fill="#d6f3fe"/><path d="m256 116.230469v95.179687h60.238281c8.3125 0 15.050781-6.730468 15.050781-15.03125v-80.148437zm0 0" fill="#bdecfc"/><path d="m135.527344 512h-120.46875c-8.316406 0-15.058594-6.726562-15.058594-15.027344v-120.234375c0-8.300781 6.742188-15.03125 15.058594-15.03125h120.472656c8.316406 0 15.058594 6.730469 15.058594 15.03125v120.234375c0 8.300782-6.742188 15.027344-15.0625 15.027344zm0 0" fill="#d6f3fe"/><path d="m496.941406 512h-120.46875c-8.320312 0-15.0625-6.726562-15.0625-15.027344v-120.234375c0-8.300781 6.742188-15.03125 15.0625-15.03125h120.46875c8.316406 0 15.058594 6.730469 15.058594 15.03125v120.234375c0 8.300782-6.742188 15.027344-15.058594 15.027344zm0 0" fill="#bdecfc"/><path d="m346.351562 121.238281h-180.703124c-6.078126 0-11.558594-3.644531-13.898438-9.238281-2.339844-5.597656-1.082031-12.046875 3.191406-16.359375l90.351563-91.179687c2.828125-2.855469 6.683593-4.460938 10.707031-4.460938s7.878906 1.605469 10.707031 4.460938l90.351563 91.179687c4.273437 4.308594 5.53125 10.761719 3.191406 16.355469-2.339844 5.597656-7.820312 9.242187-13.898438 9.242187zm0 0" fill="#7280f8"/><path d="m357.058594 95.640625-90.347656-91.179687c-2.832032-2.851563-6.691407-4.460938-10.710938-4.460938v121.242188h90.351562c6.078126 0 11.558594-3.652344 13.898438-9.242188 2.339844-5.597656 1.078125-12.050781-3.191406-16.359375zm0 0" fill="#434af2"/><path d="m316.234375 512h-120.46875c-8.316406 0-15.058594-6.726562-15.058594-15.027344v-120.234375c0-8.300781 6.742188-15.03125 15.058594-15.03125h120.46875c8.320313 0 15.0625 6.730469 15.0625 15.03125v120.234375c-.003906 8.300782-6.746094 15.027344-15.0625 15.027344zm0 0" fill="#d6f3fe"/><path d="m316.238281 361.710938h-60.238281v150.289062h60.238281c8.3125 0 15.050781-6.730469 15.050781-15.03125v-120.226562c0-8.300782-6.738281-15.03125-15.050781-15.03125zm0 0" fill="#bdecfc"/></svg>