<svg height="512pt" viewBox="-61 0 512 512" width="512pt" xmlns="http://www.w3.org/2000/svg"><path d="m375 512h-360c-8.285156 0-15-6.714844-15-15v-482c0-8.285156 6.714844-15 15-15h360c8.285156 0 15 6.714844 15 15v482c0 8.285156-6.714844 15-15 15zm0 0" fill="#d6f3fe"/><path d="m375 0h-180v512h180c8.28125 0 15-6.71875 15-15v-482c0-8.28125-6.71875-15-15-15zm0 0" fill="#bdecfc"/><path d="m315 331h-240c-8.285156 0-15-6.714844-15-15v-180c0-8.285156 6.714844-15 15-15h240c8.285156 0 15 6.714844 15 15v180c0 8.285156-6.714844 15-15 15zm0 0" fill="#eebb2c"/><path d="m315 121h-120v210h120c8.28125 0 15-6.71875 15-15v-180c0-8.28125-6.71875-15-15-15zm0 0" fill="#e79b34"/><g fill="#b6d2e0"><path d="m165 451h-90c-8.285156 0-15-6.714844-15-15s6.714844-15 15-15h90c8.285156 0 15 6.714844 15 15s-6.714844 15-15 15zm0 0"/><path d="m165 391h-90c-8.285156 0-15-6.714844-15-15s6.714844-15 15-15h90c8.285156 0 15 6.714844 15 15s-6.714844 15-15 15zm0 0"/><path d="m315 91h-240c-8.285156 0-15-6.714844-15-15s6.714844-15 15-15h240c8.285156 0 15 6.714844 15 15s-6.714844 15-15 15zm0 0"/></g><path d="m330 76c0 8.28125-6.71875 15-15 15h-120v-30h120c8.28125 0 15 6.71875 15 15zm0 0" fill="#aac3ce"/><path d="m315 391h-90c-8.285156 0-15-6.714844-15-15s6.714844-15 15-15h90c8.285156 0 15 6.714844 15 15s-6.714844 15-15 15zm0 0" fill="#aac3ce"/><path d="m225 196-60 60-30-30-75 75v15c0 8.285156 6.714844 15 15 15h240c8.285156 0 15-6.714844 15-15v-15zm0 0" fill="#dd5c60"/><path d="m330 301v15c0 8.28125-6.71875 15-15 15h-120v-105l30-30zm0 0" fill="#d8333c"/><path d="m315 451h-90c-8.285156 0-15-6.714844-15-15s6.714844-15 15-15h90c8.285156 0 15 6.714844 15 15s-6.714844 15-15 15zm0 0" fill="#aac3ce"/></svg>