<svg height="512pt" viewBox="-31 0 512 512.00005" width="512pt" xmlns="http://www.w3.org/2000/svg"><path d="m448.675781 232.101562c-237.9375 124.496094-222.382812 117.550782-225.859375 115.738282l-162.679687-85.609375-58.941407-31.019531c-2.1875-5.230469-1.519531-11.664063 3.222657-16.402344l55.71875-55.800782 98.761719-98.894531 55.636718-55.71875c5.851563-5.859375 15.351563-5.859375 21.203125 0l55.640625 55.71875 98.757813 98.894531 55.71875 55.800782c4.992187 5 5.460937 11.902344 2.820312 17.292968zm0 0" fill="#dd5c60"/><path d="m450.25 225.441406.003906.457032c-.082031 2.160156-.632812 4.28125-1.570312 6.203124-142.3125 74.457032-193.941406 101.898438-213.203125 111.546876l-.1875.089843c-5.730469 2.863281-8.539063 4.121094-10.039063 4.582031-.042968.007813-.082031.03125-.121094.039063-1.699218.5-1.5625-.128906-2.3125-.519531l-7.96875-4.199219c6.019532 3.03125 8.808594 4.269531 10.28125 4.648437v-348.289062c3.839844-.0117188 7.679688 1.460938 10.609376 4.398438l55.640624 55.722656 98.757813 98.890625 55.722656 55.796875c3.082031 3.085937 4.425781 6.898437 4.386719 10.632812zm0 0" fill="#d8333c"/><path d="m375.136719 60.113281h-300c-8.28125 0-15 6.734375-15 15.03125v187.085938c172.96875 91.023437 163.960937 87.359375 167.320312 85.609375l162.679688-85.109375v-187.585938c0-8.296875-6.71875-15.03125-15-15.03125zm0 0" fill="#d6f3fe"/><path d="m375.140625 60.121094h-150.007813v288.167968c1.625.40625-10.75 6.402344 165.007813-85.558593v-187.589844c0-8.289063-6.71875-15.019531-15-15.019531zm0 0" fill="#bdecfc"/><path d="m435.257812 512h-420.242187c-8.277344 0-15-6.730469-15-15.027344v-271.535156l225.121094 117.957031 225.121093-117.957031v271.53125c0 8.296875-6.71875 15.03125-15 15.03125zm0 0" fill="#eebb2c"/><path d="m450.253906 225.898438v-.457032l-60.113281 31.5-165 86.457032-.007813-.007813v168.609375h210.128907c8.28125 0 15-6.730469 15-15.03125zm0 0" fill="#e79b34"/><path d="m315.136719 150.292969h-180c-8.285157 0-15-6.730469-15-15.03125 0-8.296875 6.714843-15.027344 15-15.027344h180c8.285156 0 15 6.730469 15 15.027344 0 8.300781-6.714844 15.03125-15 15.03125zm0 0" fill="#b6d2e0"/><path d="m330.140625 135.261719c0 8.296875-6.71875 15.027343-15 15.027343h-90.007813v-30.058593h90.007813c8.28125 0 15 6.730469 15 15.03125zm0 0" fill="#aac3ce"/><path d="m315.136719 210.410156h-180c-8.285157 0-15-6.730468-15-15.027344 0-8.300781 6.714843-15.03125 15-15.03125h180c8.285156 0 15 6.730469 15 15.03125 0 8.296876-6.714844 15.027344-15 15.027344zm0 0" fill="#b6d2e0"/><path d="m330.140625 195.378906c0 8.300782-6.71875 15.03125-15 15.03125h-90.007813v-30.058594h90.007813c8.28125 0 15 6.726563 15 15.027344zm0 0" fill="#aac3ce"/><path d="m255.136719 271.527344h-60c-8.285157 0-15-6.726563-15-15.027344s6.714843-15.027344 15-15.027344h60c8.285156 0 15 6.726563 15 15.027344s-6.714844 15.027344-15 15.027344zm0 0" fill="#b6d2e0"/><path d="m270.140625 256.5c0 8.300781-6.71875 15.03125-15 15.03125h-30.007813v-30.0625h30.007813c8.28125 0 15 6.730469 15 15.03125zm0 0" fill="#aac3ce"/></svg>