<svg height="512pt" viewBox="0 -31 512 512" width="512pt" xmlns="http://www.w3.org/2000/svg"><path d="m466.824219 150h-20.078125v90h20.078125c24.90625 0 45.175781-20.191406 45.175781-45s-20.269531-45-45.175781-45zm0 0" fill="#66a9df"/><path d="m446.75 195v45h20.070312c24.910157 0 45.179688-20.191406 45.179688-45zm0 0" fill="#4f84cf"/><path d="m368.691406 31.769531-179.582031 59c-1.214844.402344-2.339844.929688-3.382813 1.589844v205.28125c1.042969.660156 2.167969 1.1875 3.382813 1.589844l179.582031 59c-1.488281-4.140625-2.28125-8.601563-2.28125-13.230469 0-325.460938-.984375-304.121094 2.28125-313.230469zm0 0" fill="#d6f3fe"/><path d="m366.410156 345c0-61.550781-.039062-110.699219-.070312-150h-180.609375v102.640625c1.039062.660156 2.160156 1.1875 3.378906 1.589844l1.640625.539062 172.109375 56.550781 5.832031 1.910157c-1.492187-4.140625-2.28125-8.601563-2.28125-13.230469zm0 0" fill="#bdecfc"/><path d="m406.589844 390c-24.914063 0-45.179688-20.1875-45.179688-45v-300c0-24.8125 20.269532-45 45.179688-45s45.175781 20.1875 45.175781 45v300c0 24.8125-20.265625 45-45.175781 45zm0 0" fill="#eebb2c"/><path d="m361.410156 195v150c0 3.910156.5 7.699219 1.449219 11.320312 5.050781 19.351563 22.742187 33.679688 43.730469 33.679688 24.910156 0 45.171875-20.191406 45.171875-45v-150zm0 0" fill="#e79b34"/><path d="m203.464844 396.871094-20.449219-101.871094h-90.957031l23.957031 119.289062c4.15625 20.691407 22.546875 35.710938 43.730469 35.710938 28.109375 0 49.242187-25.617188 43.71875-53.128906zm0 0" fill="#bdecfc"/><path d="m0 195c0 37.960938 28.472656 69.429688 65.253906 74.328125v-148.65625c-36.78125 4.898437-65.253906 36.367187-65.253906 74.328125zm0 0" fill="#66a9df"/><path d="m0 195c0 36.21875 25.921875 66.53125 60.238281 73.488281 1.652344.332031 3.320313.621094 5.011719.839844v-74.328125zm0 0" fill="#4f84cf"/><path d="m75.292969 90c-8.3125 0-15.058594 6.71875-15.058594 15v180c0 8.28125 6.746094 15 15.058594 15h115.453125v-210zm0 0" fill="#eebb2c"/><path d="m60.238281 195v90c0 8.28125 6.742188 15 15.050781 15h115.460938v-105zm0 0" fill="#e79b34"/></svg>