<svg height="512pt" viewBox="-61 0 512 512.00001" width="512pt" xmlns="http://www.w3.org/2000/svg"><path d="m81.050781 213c-.96875.613281 3.636719-3.058594-75.480469 61.121094-3.519531 2.859375-5.570312 7.160156-5.570312 11.699218v61.199219c0 8.308594 6.71875 15.039063 15 15.039063h87.839844c-16.878906-52.738282-24.199219-102.789063-21.789063-149.058594zm0 0" fill="#dd5c60"/><path d="m384.128906 274.070312c-.402344-.324218-75.1875-60.363281-75.617187-60.648437 2.289062 46.128906-5.101563 96.046875-21.980469 148.636719h88.230469c8.277343 0 15-6.730469 15-15.039063v-61.199219c0-4.570312-2.070313-8.890624-5.632813-11.75zm0 0" fill="#d8333c"/><path d="m271.207031 391.152344h-153.066406c-6.339844 0-11.996094-4-14.128906-9.988282-34.308594-96.445312-42.949219-200.160156 4.613281-289.859374 32.261719-60.84375 76.53125-88.027344 78.402344-89.152344 4.746094-2.863282 10.679687-2.871094 15.429687-.015625 1.871094 1.121093 46.207031 28.214843 78.480469 89.023437 47.777344 90.019532 38.625 194.03125 4.390625 290.015625-2.132813 5.984375-7.785156 9.976563-14.121094 9.976563zm0 0" fill="#eebb2c"/><path d="m287.890625 105.25c-21.269531-46.441406-56.28125-84.921875-84.890625-102.78125l-.539062-.328125c-2.339844-1.410156-4.960938-2.1210938-7.582032-2.140625v391.148438h76.332032c6.328124 0 11.988281-3.988282 14.117187-9.96875 32.460937-91.019532 42.371094-189.257813 2.5625-275.929688zm0 0" fill="#e79b34"/><path d="m194.757812 285.820312c-24.8125 0-45-20.25-45-45.144531 0-24.890625 20.1875-45.144531 45-45.144531s45 20.253906 45 45.144531c0 24.894531-20.1875 45.144531-45 45.144531zm0 0" fill="#dd5c60"/><path d="m194.878906 195.53125v90.289062c24.761719-.070312 44.882813-20.289062 44.882813-45.140624 0-24.859376-20.121094-45.078126-44.882813-45.148438zm0 0" fill="#d8333c"/><path d="m202.460938 2.136719c-4.753907-2.855469-10.6875-2.847657-15.433594.015625-20.433594 12.320312-60.007813 47.992187-85.28125 103.09375h186.140625c-24.195313-52.808594-62.785157-89.519532-85.425781-103.109375zm0 0" fill="#dd5c60"/><path d="m287.890625 105.25h-93.011719v-105.25c2.621094.0195312 5.242188.730469 7.582032 2.140625l.539062.328125c27.332031 16.679688 63.363281 55.777344 84.890625 102.78125zm0 0" fill="#d8333c"/><path d="m189.996094 511.222656c-1.449219-.488281-14.554688-5.078125-27.855469-16.042968-18.6875-15.410157-28.5625-35.769532-28.5625-58.878907 0-8.3125 6.714844-15.050781 15-15.050781h92.359375c8.304688 0 15.03125 6.777344 15 15.109375-.09375 23.078125-9.992188 43.414063-28.621094 58.8125-13.277344 10.964844-26.335937 15.558594-27.78125 16.042969-3.023437 1.019531-6.371094 1.070312-9.539062.007812zm0 0" fill="#dd5c60"/><path d="m240.941406 421.25h-46.0625v90.75c1.589844-.011719 3.160156-.269531 4.652344-.78125 1.449219-.488281 14.507812-5.078125 27.789062-16.046875 18.628907-15.390625 28.519532-35.730469 28.621094-58.8125.027344-8.328125-6.703125-15.109375-15-15.109375zm0 0" fill="#d8333c"/></svg>