<svg height="511pt" viewBox="0 0 511 511.99983" width="511pt" xmlns="http://www.w3.org/2000/svg"><path d="m90.5 496.988281v-104.996093h-55c-19.300781 0-35-15.703126-35-35v-321.992188c0-19.300781 15.699219-35 35-35h440c19.300781 0 35 15.699219 35 35v321.992188c0 19.296874-15.699219 34.996093-35 34.996093h-243.785156l-115.609375 115.605469c-9.410157 9.414062-25.605469 2.75-25.605469-10.605469zm0 0" fill="#7280f8"/><path d="m475.5 0h-220v391.992188h220c19.300781 0 35-15.703126 35-35v-321.992188c0-19.300781-15.699219-35-35-35zm0 0" fill="#434af2"/><path d="m326.4375 329.113281-70.9375-37.292969-70.9375 37.292969c-10.980469 5.773438-23.863281-3.574219-21.765625-15.8125l13.546875-78.988281-57.390625-55.941406c-8.882813-8.660156-3.972656-23.800782 8.3125-25.585938l79.3125-11.523437 35.472656-71.867188c5.492188-11.128906 21.40625-11.132812 26.902344 0l35.46875 71.867188 79.3125 11.523437c12.277344 1.785156 17.203125 16.917969 8.3125 25.585938l-57.390625 55.941406 13.546875 78.988281c2.09375 12.210938-10.761719 21.59375-21.765625 15.8125zm0 0" fill="#eebb2c"/><path d="m383.730469 152.785156-79.3125-11.527344-35.46875-71.871093c-2.738281-5.558594-8.097657-8.339844-13.449219-8.339844v230.777344l70.941406 37.289062c11 5.777344 23.859375-3.601562 21.757813-15.8125l-13.539063-78.988281 57.390625-55.949219c8.890625-8.65625 3.960938-23.796875-8.320312-25.578125zm0 0" fill="#e79b34"/></svg>