<svg height="511pt" viewBox="1 1 511.99978 511" width="511pt" xmlns="http://www.w3.org/2000/svg"><path d="m427.007812 480.984375h-372.015624c-30.320313 0-54.992188-24.648437-54.992188-54.941406v-370.601563c0-30.292968 24.671875-54.941406 54.992188-54.941406h372.015624c30.320313 0 54.992188 24.648438 54.992188 54.941406v370.601563c0 30.292969-24.671875 54.941406-54.992188 54.941406zm0 0" fill="#b6d2e0"/><path d="m427.007812.5h-186.007812v480.484375h186.007812c30.320313 0 54.992188-24.644531 54.992188-54.941406v-370.601563c0-30.296875-24.671875-54.941406-54.992188-54.941406zm0 0" fill="#aac3ce"/><path d="m54.992188 451.015625c-13.78125 0-24.992188-11.203125-24.992188-24.972656v-370.601563c0-13.769531 11.210938-24.972656 24.992188-24.972656h372.015624c13.78125 0 24.992188 11.203125 24.992188 24.972656v370.601563c0 13.769531-11.210938 24.972656-24.992188 24.972656zm0 0" fill="#d6f3fe"/><path d="m452 55.441406v370.601563c0 13.773437-11.210938 24.972656-24.992188 24.972656h-186.007812v-420.546875h186.007812c13.78125 0 24.992188 11.195312 24.992188 24.972656zm0 0" fill="#bdecfc"/><path d="m482 55.441406c0-30.292968-24.671875-54.941406-54.992188-54.941406h-372.015624c-30.320313 0-54.992188 24.648438-54.992188 54.941406v80.914063h482zm0 0" fill="#b6d2e0"/><path d="m482 55.441406v80.914063h-241v-135.855469h186.007812c30.320313 0 54.992188 24.644531 54.992188 54.941406zm0 0" fill="#aac3ce"/><g fill="#bdecfc"><path d="m420.972656 76.417969c0-8.273438-6.714844-14.984375-14.996094-14.984375-8.285156 0-15 6.710937-15 14.984375 0 8.277343 6.714844 14.984375 15 14.984375 8.28125 0 14.996094-6.707032 14.996094-14.984375zm0 0"/><path d="m360.980469 76.417969c0-8.273438-6.714844-14.984375-14.996094-14.984375-8.285156 0-15 6.710937-15 14.984375 0 8.277343 6.714844 14.984375 15 14.984375 8.28125 0 14.996094-6.707032 14.996094-14.984375zm0 0"/><path d="m300.988281 76.417969c0-8.273438-6.714843-14.984375-14.996093-14.984375-8.285157 0-15 6.710937-15 14.984375 0 8.277343 6.714843 14.984375 15 14.984375 8.28125 0 14.996093-6.707032 14.996093-14.984375zm0 0"/></g><path d="m405.953125 271.207031h-328.65625c-8.28125 0-15-6.707031-15-14.984375v-59.886718c0-8.273438 6.71875-14.980469 15-14.980469h328.652344c8.285156 0 15 6.707031 15 14.980469v59.886718c.003906 8.277344-6.714844 14.984375-14.996094 14.984375zm0 0" fill="#66a9df"/><path d="m405.949219 181.355469h-164.949219v89.851562h164.949219c8.289062 0 15-6.710937 15-14.984375v-59.882812c0-8.28125-6.710938-14.984375-15-14.984375zm0 0" fill="#4f84cf"/><path d="m497 421.707031h-53.71875l-6.207031-6.214843.039062-16.855469 6.222657-6.195313s52.609374.058594 52.609374.058594c8.289063 0 15-6.722656 15-14.984375 0-42.09375-40.039062-76.339844-89.253906-76.339844-43.582031 0-78.488281 26.421875-86.972656 59.9375h-96.273438c-8.566406-33.828125-43.765624-59.9375-86.972656-59.9375-49.21875 0-89.257812 34.246094-89.257812 76.339844 0 8.148437 6.550781 14.949219 15.015625 14.984375l52.597656-.058594 6.21875 6.195313.039063 16.855469-6.207032 6.214843h-53.71875c-8.34375 0-15.085937 6.808594-15 15.136719.4375 42.894531 41.253906 75.65625 89.207032 75.65625 44.011718 0 78.609374-26.796875 86.984374-59.988281l98.355469-.390625c8.585938 34.917968 44.710938 60.378906 87.085938 60.378906 47.972656 0 88.769531-32.78125 89.207031-75.65625.082031-8.332031-6.660156-15.136719-15-15.136719zm0 0" fill="#eebb2c"/><path d="m512 436.839844c-.433594 42.863281-41.214844 75.660156-89.210938 75.660156-44.351562 0-78.925781-27.171875-87.078124-60.375l-98.363282.390625c-8.484375 33.621094-43.476562 59.984375-86.976562 59.984375-47.988282 0-88.777344-32.792969-89.210938-75.660156-.085937-8.335938 6.667969-15.132813 15-15.132813h53.71875l6.199219-6.214843-.007813-8.429688h301.019532l-.019532 8.429688 6.207032 6.214843h53.722656c8.3125 0 15.082031 6.78125 15 15.132813zm0 0" fill="#e79b34"/></svg>