<svg height="512pt" viewBox="-1 0 512 512" width="512pt" xmlns="http://www.w3.org/2000/svg"><path d="m455 422h-400c-30.328125 0-55-24.671875-55-55v-312c0-30.328125 24.671875-55 55-55h400c30.328125 0 55 24.671875 55 55v312c0 30.328125-24.671875 55-55 55zm0 0" fill="#d6f3fe"/><path d="m455 0h-200v422h200c30.328125 0 55-24.671875 55-55v-312c0-30.328125-24.671875-55-55-55zm0 0" fill="#bdecfc"/><path d="m180 417v70h150v-70zm0 0" fill="#66a9df"/><path d="m255 417v70h75v-70zm0 0" fill="#4f84cf"/><path d="m0 317v50c0 30.328125 24.671875 55 55 55h400c30.328125 0 55-24.671875 55-55v-50zm0 0" fill="#b6d2e0"/><path d="m510 317v50c0 30.328125-24.671875 55-55 55h-200v-105zm0 0" fill="#aac3ce"/><path d="m375 512h-240c-8.285156 0-15-6.714844-15-15s6.714844-15 15-15h240c8.285156 0 15 6.714844 15 15s-6.714844 15-15 15zm0 0" fill="#b6d2e0"/><path d="m390 497c0 8.28125-6.71875 15-15 15h-120v-30h120c8.28125 0 15 6.71875 15 15zm0 0" fill="#aac3ce"/><path d="m141.480469 209.601562c-4.25-9.421874-12.039063-16.910156-21.671875-20.75l37.203125-40.0625c.019531-.019531.039062-.039062.058593-.058593 3.351563 9.941406 10.503907 18.148437 19.726563 22.882812zm0 0" fill="#eebb2c"/><path d="m283.339844 164.480469 4.671875 2.019531c-7.480469 6.847656-12.355469 16.5-12.953125 27.269531-.1875-.070312-.378906-.160156-.570313-.25l-50.308593-24.230469-3.808594-2.390624c7.703125-6.328126 13-15.476563 14.308594-25.847657zm0 0" fill="#eebb2c"/><path d="m288.011719 166.5c-7.011719 6.5-12.355469 16.5-12.953125 27.269531-.1875-.070312-.378906-.160156-.570313-.25l-19.488281-9.390625v-33.300781l28.339844 13.652344zm0 0" fill="#e79b34"/><path d="m389.429688 142.851562-37.308594 38.238282c-3.898438-9.65625-11.445313-17.449219-20.929688-21.664063l37-37.777343c4.058594 9.523437 11.707032 17.160156 21.238282 21.203124zm0 0" fill="#e79b34"/><path d="m105 271c-24.8125 0-45-20.1875-45-45s20.1875-45 45-45 45 20.1875 45 45-20.1875 45-45 45zm0 0" fill="#dd5c60"/><path d="m315 241c-24.8125 0-45-20.1875-45-45s20.1875-45 45-45 45 20.1875 45 45-20.1875 45-45 45zm0 0" fill="#d8333c"/><path d="m405 151c-24.8125 0-45-20.1875-45-45s20.1875-45 45-45 45 20.1875 45 45-20.1875 45-45 45zm0 0" fill="#d8333c"/><path d="m195 181c-24.8125 0-45-20.1875-45-45s20.1875-45 45-45 45 20.1875 45 45-20.1875 45-45 45zm0 0" fill="#dd5c60"/></svg>