<svg height="512pt" viewBox="0 0 512 512" width="512pt" xmlns="http://www.w3.org/2000/svg"><path d="m349.683594 512h-184.359375l.101562-.570312c6.300781-1.785157 10.917969-7.585938 10.917969-14.457032v-41.140625c49.195312 28.464844 109.695312 28 158.308594-.542969v41.683594c0 8.292969 6.734375 15.027344 15.03125 15.027344zm0 0" fill="#d6f3fe"/><path d="m349.683594 512h-94.183594v-35.058594c27.421875-.089844 54.785156-7.34375 79.152344-21.652344v41.683594c0 8.292969 6.734375 15.027344 15.03125 15.027344zm0 0" fill="#bdecfc"/><path d="m511.757812 494.304688-34.628906-192.375c-2.226562-12.371094-17.804687-16.699219-26.101562-7.222657l-38.695313 44.246094c-6.765625 48.785156-35.878906 92.925781-80.683593 118.058594v39.960937c0 8.292969 6.730468 15.027344 15.027343 15.027344h150.292969c9.34375 0 16.453125-8.460938 14.789062-17.695312zm0 0" fill="#d8333c"/><path d="m97.382812 336.335938-36.410156-41.628907c-8.285156-9.460937-23.875-5.167969-26.101562 7.222657l-34.628906 192.375c-1.664063 9.234374 5.445312 17.695312 14.789062 17.695312h150.292969c8.296875 0 15.027343-6.734375 15.027343-15.027344v-38.886718c-44.585937-24.066407-76.539062-68.984376-82.96875-121.75zm0 0" fill="#dd5c60"/><path d="m418.9375 214.789062c-335.78125 101.726563-313.273438 95.386719-318.136719 95.386719-3.417969 0-6.636719-.53125-9.632812-1.574219v8.015626c0 91.160156 73.503906 165.324218 163.851562 165.324218 73.222657 0 135.214844-48.699218 156.160157-115.222656 10.269531-31.976562 8.179687-53.230469 7.757812-151.929688zm0 0" fill="#f2d2ad"/><path d="m418.9375 214.789062c-1.003906.304688-77.785156 23.566407-163.4375 49.558594v217.585938c69.769531-.171875 135.410156-45.46875 157.242188-120.328125 8.296874-28.722657 6.734374-51.984375 6.195312-146.816407zm0 0" fill="#eebf92"/><path d="m256.402344 60.636719c-95.53125.0625-176.609375 69.816406-192.835938 163.230469-3.335937 18.328124-5.515625 63.476562 14.027344 82.109374 7.210938 6.875 16.847656 10.347657 28.355469 8.867188l341.203125-103.371094c-20.910156-87.550781-98.617188-150.835937-190.75-150.835937zm0 0" fill="#dd5c60"/><path d="m255.5 60.636719v208.898437c.003906 0 191.652344-58.0625 191.652344-58.0625-20.523438-85.925781-96.625-150.835937-191.652344-150.835937zm0 0" fill="#d8333c"/><path d="m411.183594 366.714844c-3.4375 10.917968-7.679688 20.515625-12.886719 30.058594h-143.800781c-8.296875 0-15.027344-6.730469-15.027344-15.027344s6.730469-15.027344 15.027344-15.027344h156.6875zm0 0" fill="#7280f8"/><path d="m411.183594 366.714844c-3.183594 10.074218-7.253906 19.746094-12.886719 30.058594h-142.796875v-30.058594zm0 0" fill="#434af2"/><path d="m256.5 0c-154.734375 0-255.496094 137.558594-255.496094 226.625v120.050781c0 8.296875 6.722656 15.023438 15.015625 15.03125.003907 0 90.1875.070313 90.1875.070313 8.308594 0 15.03125-6.742188 15.03125-15.03125v-120.121094c0-8.300781-6.730469-15.027344-15.03125-15.027344h-71.6875c21.003907-104.617187 113.574219-181.539062 221.980469-181.539062 108.378906 0 200.949219 76.902344 221.972656 181.484375h-74.675781c-8.324219 0-15.066406 6.773437-15.03125 15.09375l.519531 120.007812c.039063 8.273438 6.753906 14.964844 15.03125 14.964844h92.652344c8.300781 0 15.027344-6.730469 15.027344-15.03125v-120.007813c0-82.433593-94.394532-226.570312-255.496094-226.570312zm0 0" fill="#7280f8"/><path d="m511.996094 226.574219v120.003906c0 8.304687-6.730469 15.027344-15.027344 15.027344h-92.652344c-8.273437 0-15.285156-6.683594-15.316406-14.957031-.5625-129.421876-.34375-120.804688.007812-122.792969 1.28125-6.992188 7.402344-12.3125 14.789063-12.3125h74.675781c-20.640625-102.683594-111.28125-181.484375-222.972656-181.484375v-30.0468752c.328125-.0117188.667969-.0117188 1-.0117188 161.105469 0 255.496094 144.132812 255.496094 226.574219zm0 0" fill="#434af2"/></svg>