<svg height="512pt" viewBox="0 0 512 512" width="512pt" xmlns="http://www.w3.org/2000/svg"><path d="m457.007812 512h-402.015624c-30.320313 0-54.992188-24.671875-54.992188-55v-402c0-30.328125 24.671875-55 54.992188-55h402.015624c30.320313 0 54.992188 24.671875 54.992188 55v402c0 30.328125-24.671875 55-54.992188 55zm0 0" fill="#b6d2e0"/><path d="m457.011719 0h-201.011719v512h201.011719c30.316406 0 54.988281-24.671875 54.988281-55v-402c0-30.328125-24.671875-55-54.988281-55zm0 0" fill="#aac3ce"/><path d="m54.992188 482c-13.78125 0-24.992188-11.214844-24.992188-25v-402c0-13.785156 11.210938-25 24.992188-25h402.015624c13.78125 0 24.992188 11.214844 24.992188 25v402c0 13.785156-11.210938 25-24.992188 25zm0 0" fill="#d6f3fe"/><path d="m482 55v402c0 13.789062-11.210938 25-24.988281 25h-201.011719v-452h201.011719c13.777343 0 24.988281 11.210938 24.988281 25zm0 0" fill="#bdecfc"/><path d="m512 55c0-30.328125-24.671875-55-54.992188-55h-402.015624c-30.320313 0-54.992188 24.671875-54.992188 55v81h512zm0 0" fill="#b6d2e0"/><path d="m512 55v81h-256v-136h201.011719c30.316406 0 54.988281 24.671875 54.988281 55zm0 0" fill="#aac3ce"/><g fill="#bdecfc"><path d="m450.976562 76c0 8.285156-6.714843 15-15 15-8.285156 0-15-6.714844-15-15s6.714844-15 15-15c8.285157 0 15 6.714844 15 15zm0 0"/><path d="m390.984375 76c0 8.285156-6.714844 15-15 15s-15-6.714844-15-15 6.714844-15 15-15 15 6.714844 15 15zm0 0"/><path d="m330.992188 76c0 8.285156-6.714844 15-15 15-8.285157 0-15-6.714844-15-15s6.714843-15 15-15c8.285156 0 15 6.714844 15 15zm0 0"/></g><path d="m286 451h-60c-8.285156 0-15-6.714844-15-15v-16.078125c0-11.539063-12.480469-18.769531-22.5-12.988281-13.933594 8.042968-17.75 11.558594-25.304688 9.535156-3.84375-1.027344-7.121093-3.542969-9.109374-6.988281l-30-51.960938c-4.140626-7.171875-1.683594-16.347656 5.492187-20.492187l13.921875-8.039063c9.992188-5.765625 10.019531-20.195312 0-25.980469-14.101562-8.140624-18.886719-9.597656-20.910156-17.144531-1.03125-3.84375-.492188-7.9375 1.496094-11.382812l30-51.960938c4.140624-7.167969 13.316406-9.632812 20.492187-5.492187l13.921875 8.039062c10.011719 5.78125 22.5-1.441406 22.5-12.988281v-16.078125c0-8.285156 6.714844-15 15-15h60c8.285156 0 15 6.714844 15 15v16.078125c0 11.5625 12.5 18.761719 22.5 12.988281l13.921875-8.039062c7.171875-4.140625 16.347656-1.683594 20.492187 5.492187l30 51.960938c1.988282 3.445312 2.527344 7.539062 1.496094 11.382812-4.027344 15.023438-28.410156 12.5-28.410156 30.136719 0 17.472656 24.425781 15.265625 28.410156 30.136719 1.03125 3.84375.492188 7.9375-1.496094 11.382812l-30 51.960938c-4.140624 7.167969-13.320312 9.632812-20.492187 5.492187l-13.921875-8.039062c-10.011719-5.78125-22.5 1.445312-22.5 12.988281v16.078125c0 8.285156-6.714844 15-15 15zm0 0" fill="#dd5c60"/><path d="m361 316c0-17.640625 24.378906-15.109375 28.410156-30.140625 1.03125-3.839844.488282-7.929687-1.5-11.378906l-30-51.960938c-4.140625-7.167969-13.320312-9.628906-20.488281-5.488281l-13.921875 8.039062c-10 5.769532-22.5-1.429687-22.5-12.992187v-16.078125c0-8.28125-6.71875-15-15-15h-30v270h30c8.28125 0 15-6.71875 15-15v-16.078125c0-11.542969 12.488281-18.773437 22.5-12.992187l13.921875 8.039062c7.179687 4.140625 16.359375 1.679688 20.488281-5.488281l30-51.960938c1.988282-3.449219 2.53125-7.539062 1.5-11.378906-3.988281-14.878906-28.410156-12.671875-28.410156-30.140625zm0 0" fill="#d8333c"/><path d="m256 361c-24.8125 0-45-20.1875-45-45s20.1875-45 45-45 45 20.1875 45 45-20.1875 45-45 45zm0 0" fill="#d6f3fe"/><path d="m256 271v90c24.808594 0 45-20.191406 45-45s-20.191406-45-45-45zm0 0" fill="#bdecfc"/></svg>