<svg height="512pt" viewBox="0 -28 512 512" width="512pt" xmlns="http://www.w3.org/2000/svg"><path d="m415.625 0h-351.375c-19.375 0-35.136719 15.761719-35.136719 35.136719v243.953125h136.535157c4.324218 0 8.152343 2.761718 9.527343 6.867187l6.605469 19.816407c.679688 2.050781 2.597656 3.433593 4.757812 3.433593h119.65625v-161.628906c0-27.679687 22.519532-50.199219 50.195313-50.199219h94.371094v-62.242187c0-19.375-15.761719-35.136719-35.136719-35.136719zm0 0" fill="#66a9df"/><path d="m415.625 0h-175.6875v309.207031h66.257812v-161.628906c0-27.679687 22.519532-50.199219 50.195313-50.199219h94.371094v-62.242187c0-19.375-15.761719-35.136719-35.136719-35.136719zm0 0" fill="#4f84cf"/><path d="m420.644531 35.136719v62.242187h-64.253906c-27.675781 0-50.195313 22.519532-50.195313 50.199219v161.628906h-119.65625c-2.160156 0-4.078124-1.382812-4.757812-3.433593l-6.605469-19.816407c-1.375-4.105469-5.203125-6.867187-9.527343-6.867187h-106.417969v-243.953125c0-2.769531 2.25-5.019531 5.019531-5.019531h351.375c2.769531 0 5.019531 2.25 5.019531 5.019531zm0 0" fill="#d6f3fe"/><path d="m420.644531 35.136719v62.242187h-64.253906c-27.675781 0-50.195313 22.519532-50.195313 50.199219v161.628906h-66.257812v-279.089843h175.6875c2.769531 0 5.019531 2.25 5.019531 5.019531zm0 0" fill="#bdecfc"/><path d="m186.539062 304.1875-6.605468-19.816406c-2.046875-6.15625-7.800782-10.300782-14.285156-10.300782h-150.589844c-8.3125 0-15.058594 6.746094-15.058594 15.058594v70.273438c0 19.378906 15.761719 35.140625 35.136719 35.140625h271.058593v-90.355469zm0 0" fill="#66a9df"/><path d="m239.9375 304.1875v90.355469h66.257812v-90.355469zm0 0" fill="#4f84cf"/><path d="m456.785156 92.359375h-100.394531c-30.445313 0-55.214844 24.769531-55.214844 55.21875v252.988281c0 30.445313 24.769531 55.214844 55.214844 55.214844h100.394531c30.445313 0 55.214844-24.769531 55.214844-55.214844 0-10.246094 0-236.625 0-252.988281 0-30.449219-24.769531-55.21875-55.214844-55.21875zm0 0" fill="#eebb2c"/><path d="m512 147.578125v252.988281c0 30.445313-24.765625 55.214844-55.214844 55.214844h-50.195312v-363.421875h50.195312c30.449219 0 55.214844 24.769531 55.214844 55.21875zm0 0" fill="#e79b34"/><path d="m331.292969 176.691406h150.589843v192.75h-150.589843zm0 0" fill="#d6f3fe"/><path d="m406.589844 176.691406h75.292968v192.75h-75.292968zm0 0" fill="#bdecfc"/></svg>