<svg height="512pt" viewBox="-76 0 512 512" width="512pt" xmlns="http://www.w3.org/2000/svg"><path d="m256 0h-241c-8.28125 0-15 6.71875-15 15v482c0 8.28125 6.71875 15 15 15h330c8.25 0 14.949219-6.660156 15-14.910156v-392.089844zm0 0" fill="#d6f3fe"/><path d="m360 105v392.089844c-.050781 8.25-6.75 14.910156-15 14.910156h-165v-512h76zm0 0" fill="#bdecfc"/><path d="m360 105-104-105v90c0 8.285156 6.714844 15 15 15zm0 0" fill="#aac3ce"/><path d="m150 225v82h-30v-82c0-8.28125 6.71875-15 15-15s15 6.71875 15 15zm0 0" fill="#eebb2c"/><path d="m210 195v112h-30v-112c0-8.28125 6.71875-15 15-15s15 6.71875 15 15zm0 0" fill="#e79b34"/><path d="m270 225v82h-30v-82c0-8.28125 6.71875-15 15-15s15 6.71875 15 15zm0 0" fill="#e79b34"/><path d="m285 392h-210c-8.285156 0-15-6.714844-15-15s6.714844-15 15-15h210c8.285156 0 15 6.714844 15 15s-6.714844 15-15 15zm0 0" fill="#66a9df"/><path d="m300 377c0 8.28125-6.71875 15-15 15h-105v-30h105c8.28125 0 15 6.71875 15 15zm0 0" fill="#4f84cf"/><path d="m285 452h-210c-8.285156 0-15-6.714844-15-15s6.714844-15 15-15h210c8.285156 0 15 6.714844 15 15s-6.714844 15-15 15zm0 0" fill="#66a9df"/><path d="m300 437c0 8.28125-6.71875 15-15 15h-105v-30h105c8.28125 0 15 6.71875 15 15zm0 0" fill="#4f84cf"/><path d="m195 150h-120c-8.285156 0-15-6.714844-15-15s6.714844-15 15-15h120c8.285156 0 15 6.714844 15 15s-6.714844 15-15 15zm0 0" fill="#66a9df"/><path d="m210 135c0 8.28125-6.71875 15-15 15h-15v-30h15c8.28125 0 15 6.71875 15 15zm0 0" fill="#4f84cf"/><path d="m285 332h-210c-8.285156 0-15-6.714844-15-15v-122c0-8.285156 6.714844-15 15-15s15 6.714844 15 15v107h195c8.285156 0 15 6.714844 15 15s-6.714844 15-15 15zm0 0" fill="#dd5c60"/><path d="m300 317c0 8.28125-6.71875 15-15 15h-105v-30h105c8.28125 0 15 6.71875 15 15zm0 0" fill="#d8333c"/></svg>