<svg height="512pt" viewBox="-1 0 512 512" width="512pt" xmlns="http://www.w3.org/2000/svg"><path d="m325 451h-290c-19.328125 0-35-15.671875-35-35v-381c0-19.328125 15.671875-35 35-35h290c19.328125 0 35 15.671875 35 35v381c0 19.328125-15.671875 35-35 35zm0 0" fill="#eebb2c"/><path d="m325 0h-145v451h145c19.328125 0 35-15.671875 35-35v-381c0-19.328125-15.671875-35-35-35zm0 0" fill="#e79b34"/><g fill="#dd5c60"><path d="m285 121h-150c-8.285156 0-15-6.714844-15-15s6.714844-15 15-15h150c8.285156 0 15 6.714844 15 15s-6.714844 15-15 15zm0 0"/><path d="m285 181h-150c-8.285156 0-15-6.714844-15-15s6.714844-15 15-15h150c8.285156 0 15 6.714844 15 15s-6.714844 15-15 15zm0 0"/><path d="m285 241h-150c-8.285156 0-15-6.714844-15-15s6.714844-15 15-15h150c8.285156 0 15 6.714844 15 15s-6.714844 15-15 15zm0 0"/><path d="m285 301h-150c-8.285156 0-15-6.714844-15-15s6.714844-15 15-15h150c8.285156 0 15 6.714844 15 15s-6.714844 15-15 15zm0 0"/><path d="m90 106c0 8.285156-6.714844 15-15 15s-15-6.714844-15-15 6.714844-15 15-15 15 6.714844 15 15zm0 0"/><path d="m90 166c0 8.285156-6.714844 15-15 15s-15-6.714844-15-15 6.714844-15 15-15 15 6.714844 15 15zm0 0"/><path d="m90 226c0 8.285156-6.714844 15-15 15s-15-6.714844-15-15 6.714844-15 15-15 15 6.714844 15 15zm0 0"/><path d="m90 286c0 8.285156-6.714844 15-15 15s-15-6.714844-15-15 6.714844-15 15-15 15 6.714844 15 15zm0 0"/><path d="m255 361h-120c-8.285156 0-15-6.714844-15-15s6.714844-15 15-15h120c8.285156 0 15 6.714844 15 15s-6.714844 15-15 15zm0 0"/></g><path d="m300 106c0 8.28125-6.71875 15-15 15h-105v-30h105c8.28125 0 15 6.71875 15 15zm0 0" fill="#d8333c"/><path d="m300 166c0 8.28125-6.71875 15-15 15h-105v-30h105c8.28125 0 15 6.71875 15 15zm0 0" fill="#d8333c"/><path d="m300 226c0 8.28125-6.71875 15-15 15h-105v-30h105c8.28125 0 15 6.71875 15 15zm0 0" fill="#d8333c"/><path d="m300 286c0 8.28125-6.71875 15-15 15h-105v-30h105c8.28125 0 15 6.71875 15 15zm0 0" fill="#d8333c"/><path d="m270 346c0 8.28125-6.71875 15-15 15h-75v-30h75c8.28125 0 15 6.71875 15 15zm0 0" fill="#d8333c"/><path d="m90 346c0 8.285156-6.714844 15-15 15s-15-6.714844-15-15 6.714844-15 15-15 15 6.714844 15 15zm0 0" fill="#dd5c60"/><path d="m375 512c-74.4375 0-135-60.5625-135-135s60.5625-135 135-135 135 60.5625 135 135-60.5625 135-135 135zm0 0" fill="#7280f8"/><path d="m375 242v270c74.441406 0 135-60.558594 135-135s-60.558594-135-135-135zm0 0" fill="#434af2"/><path d="m375 482c-57.898438 0-105-47.101562-105-105s47.101562-105 105-105 105 47.101562 105 105-47.101562 105-105 105zm0 0" fill="#d6f3fe"/><path d="m480 377c0 57.898438-47.101562 105-105 105v-210c57.898438 0 105 47.101562 105 105zm0 0" fill="#bdecfc"/><path d="m375 401h-45c-8.285156 0-15-6.714844-15-15s6.714844-15 15-15h30v-45c0-8.285156 6.714844-15 15-15s15 6.714844 15 15v60c0 8.285156-6.714844 15-15 15zm0 0" fill="#7280f8"/><path d="m390 326v60c0 8.28125-6.71875 15-15 15v-90c8.28125 0 15 6.71875 15 15zm0 0" fill="#434af2"/></svg>