<svg height="512pt" viewBox="0 0 512 512" width="512pt" xmlns="http://www.w3.org/2000/svg"><path d="m457.007812 512h-402.015624c-30.320313 0-54.992188-24.671875-54.992188-55v-402c0-30.328125 24.671875-55 54.992188-55h402.015624c30.320313 0 54.992188 24.671875 54.992188 55v402c0 30.328125-24.671875 55-54.992188 55zm0 0" fill="#b6d2e0"/><path d="m457.011719 0h-201.011719v512h201.011719c30.316406 0 54.988281-24.671875 54.988281-55v-402c0-30.328125-24.671875-55-54.988281-55zm0 0" fill="#aac3ce"/><path d="m54.992188 482c-13.78125 0-24.992188-11.214844-24.992188-25v-402c0-13.785156 11.210938-25 24.992188-25h402.015624c13.78125 0 24.992188 11.214844 24.992188 25v402c0 13.785156-11.210938 25-24.992188 25zm0 0" fill="#d6f3fe"/><path d="m482 55v402c0 13.789062-11.210938 25-24.988281 25h-201.011719v-452h201.011719c13.777343 0 24.988281 11.210938 24.988281 25zm0 0" fill="#bdecfc"/><path d="m512 55c0-30.328125-24.671875-55-54.992188-55h-402.015624c-30.320313 0-54.992188 24.671875-54.992188 55v81h512zm0 0" fill="#b6d2e0"/><path d="m512 55v81h-256v-136h201.011719c30.316406 0 54.988281 24.671875 54.988281 55zm0 0" fill="#aac3ce"/><g fill="#bdecfc"><path d="m450.976562 76c0 8.285156-6.714843 15-15 15-8.285156 0-15-6.714844-15-15s6.714844-15 15-15c8.285157 0 15 6.714844 15 15zm0 0"/><path d="m390.984375 76c0 8.285156-6.714844 15-15 15s-15-6.714844-15-15 6.714844-15 15-15 15 6.714844 15 15zm0 0"/><path d="m330.992188 76c0 8.285156-6.714844 15-15 15-8.285157 0-15-6.714844-15-15s6.714843-15 15-15c8.285156 0 15 6.714844 15 15zm0 0"/></g><path d="m166 451h-60c-8.285156 0-15-6.714844-15-15v-150c0-8.285156 6.714844-15 15-15h60c8.285156 0 15 6.714844 15 15v150c0 8.285156-6.714844 15-15 15zm0 0" fill="#dd5c60"/><path d="m286 451h-60c-8.285156 0-15-6.714844-15-15v-240c0-8.285156 6.714844-15 15-15h60c8.285156 0 15 6.714844 15 15v240c0 8.285156-6.714844 15-15 15zm0 0" fill="#eebb2c"/><path d="m286 181h-30v270h30c8.28125 0 15-6.71875 15-15v-240c0-8.28125-6.71875-15-15-15zm0 0" fill="#e79b34"/><path d="m406 451h-60c-8.285156 0-15-6.714844-15-15v-180c0-8.285156 6.714844-15 15-15h60c8.285156 0 15 6.714844 15 15v180c0 8.285156-6.714844 15-15 15zm0 0" fill="#75cc5b"/></svg>