<svg height="512pt" viewBox="1 0 511 512" width="512pt" xmlns="http://www.w3.org/2000/svg"><path d="m173.253906 7.101562c-2.730468-4.410156-7.558594-7.101562-12.75-7.101562h-144.988281c-11.761719 0-18.941406 12.972656-12.730469 22.9375l120.851563 194.0625c34.164062-39.613281 85.425781-63.617188 141.890625-60.78125-12.625-20.398438-2.03125-3.28125-92.273438-149.117188zm0 0" fill="#7280f8"/><path d="m497.484375 0h-144.992187c-5.191407 0-10.019532 2.691406-12.75 7.101562-89.386719 144.460938-79.191407 127.984376-92.273438 149.117188 55.519531-2.789062 107.097656 20.433594 141.890625 60.78125l120.855469-194.0625c6.21875-9.984375-.992188-22.9375-12.730469-22.9375zm0 0" fill="#7280f8"/><path d="m497.484375 0h-144.992187c-5.191407 0-10.019532 2.691406-12.75 7.101562-61.914063 100.070313-76.054688 122.910157-83.242188 134.519532v14.367187c52.054688.011719 99.953125 22.851563 132.859375 61.011719l2.761719-4.429688 118.089844-189.628906c6.222656-9.992187-.988282-22.941406-12.726563-22.941406zm0 0" fill="#434af2"/><path d="m256.5 512c-99.492188 0-180.433594-80.976562-180.433594-180.507812 0-99.535157 80.941406-180.511719 180.433594-180.511719 99.488281 0 180.429688 80.976562 180.429688 180.511719 0 99.53125-80.941407 180.507812-180.429688 180.507812zm0 0" fill="#eebb2c"/><path d="m392.121094 212.570312c-33.078125-37.730468-81.617188-61.589843-135.621094-61.589843v361.019531c99.492188 0 180.425781-80.980469 180.425781-180.511719 0-45.507812-16.917969-87.128906-44.804687-118.917969zm0 0" fill="#e79b34"/><path d="m306.59375 431.152344-50.09375-20.175782-50.09375 20.175782c-10.261719 4.132812-21.324219-3.914063-20.566406-14.945313l3.699218-53.898437-34.660156-41.425782c-7.097656-8.480468-2.871094-21.5 7.855469-24.1875l52.382813-13.132812 28.671874-45.78125c5.867188-9.371094 19.550782-9.375 25.417969 0l28.671875 45.78125 52.382813 13.132812c10.726562 2.6875 14.953125 15.707032 7.855469 24.1875l-34.660157 41.425782 3.703125 53.898437c.757813 11.101563-10.375 19.050781-20.566406 14.945313zm0 0" fill="#dd5c60"/><path d="m350.261719 296.691406-52.386719-13.132812-28.667969-45.777344c-2.929687-4.679688-7.816406-7.03125-12.707031-7.03125v180.230469l50.09375 20.167969c10.191406 4.113281 21.332031-3.839844 20.5625-14.9375l-3.703125-53.902344 34.667969-41.429688c7.089844-8.480468 2.871094-21.5-7.859375-24.1875zm0 0" fill="#d8333c"/></svg>