<svg height="512pt" viewBox="-1 0 512 512" width="512pt" xmlns="http://www.w3.org/2000/svg"><path d="m455 422h-400c-30.328125 0-55-24.671875-55-55v-312c0-30.328125 24.671875-55 55-55h400c30.328125 0 55 24.671875 55 55v312c0 30.328125-24.671875 55-55 55zm0 0" fill="#d6f3fe"/><path d="m455 0h-200v422h200c30.328125 0 55-24.671875 55-55v-312c0-30.328125-24.671875-55-55-55zm0 0" fill="#bdecfc"/><path d="m180 417v70h150v-70zm0 0" fill="#66a9df"/><path d="m255 417v70h75v-70zm0 0" fill="#4f84cf"/><path d="m0 317v50c0 30.328125 24.671875 55 55 55h400c30.328125 0 55-24.671875 55-55v-50zm0 0" fill="#b6d2e0"/><path d="m510 317v50c0 30.328125-24.671875 55-55 55h-200v-105zm0 0" fill="#aac3ce"/><path d="m375 512h-240c-8.285156 0-15-6.714844-15-15s6.714844-15 15-15h240c8.285156 0 15 6.714844 15 15s-6.714844 15-15 15zm0 0" fill="#b6d2e0"/><path d="m390 497c0 8.28125-6.71875 15-15 15h-120v-30h120c8.28125 0 15 6.71875 15 15zm0 0" fill="#aac3ce"/><path d="m317.171875 237.378906c-5.734375-5.980468-5.53125-15.476562.449219-21.207031l52.34375-50.171875-52.34375-50.171875c-5.980469-5.730469-6.183594-15.226563-.449219-21.207031 5.730469-5.980469 15.226563-6.179688 21.207031-.449219l63.640625 61c6.160157 5.902344 6.15625 15.753906 0 21.65625l-63.640625 61c-5.976562 5.730469-15.472656 5.535156-21.207031-.449219zm0 0" fill="#434af2"/><path d="m169.621094 237.828125-63.640625-61c-6.160157-5.902344-6.15625-15.753906 0-21.65625l63.640625-61c5.980468-5.730469 15.476562-5.53125 21.207031.449219 5.734375 5.980468 5.53125 15.476562-.449219 21.207031l-52.339844 50.171875 52.339844 50.171875c5.980469 5.730469 6.183594 15.226563.449219 21.207031-5.726563 5.976563-15.222656 6.1875-21.207031.449219zm0 0" fill="#7280f8"/><path d="m236.417969 241.566406c-8.042969-1.980468-12.960938-10.105468-10.984375-18.148437l30-122c1.976562-8.046875 10.101562-12.960938 18.148437-10.984375 8.042969 1.980468 12.960938 10.105468 10.984375 18.148437l-30 122c-1.976562 8.039063-10.097656 12.964844-18.148437 10.984375zm0 0" fill="#7280f8"/><path d="m284.570312 108.578125-29.570312 120.25c0-137.378906-.183594-124.90625.429688-127.40625 1.980468-8.050781 10.109374-12.960937 18.148437-10.992187 8.050781 1.980468 12.960937 10.109374 10.992187 18.148437zm0 0" fill="#434af2"/></svg>