<svg height="512pt" viewBox="0 0 512 512" width="512pt" xmlns="http://www.w3.org/2000/svg"><path d="m345 421h-180c-8.285156 0-15-6.714844-15-15v-209c0-8.285156 6.714844-15 15-15h180c8.285156 0 15 6.714844 15 15v209c0 8.285156-6.714844 15-15 15zm0 0" fill="#dd5c60"/><path d="m345 182h-90.5v239h90.5c8.28125 0 15-6.71875 15-15v-209c0-8.269531-6.710938-15-15-15zm0 0" fill="#d8333c"/><path d="m187.5 286c-53.761719 0-97.5-43.738281-97.5-97.5s43.738281-97.5 97.5-97.5 97.5 43.738281 97.5 97.5-43.738281 97.5-97.5 97.5zm0 0" fill="#eebb2c"/><path d="m254.5 117.738281v141.523438c40.535156-38.378907 40.789062-102.902344 0-141.523438zm0 0" fill="#e79b34"/><path d="m405 361h-149.675781c-12.695313 0-19.636719-14.84375-11.53125-24.589844l149.675781-180c8.949219-10.765625 26.53125-4.410156 26.53125 9.589844v180c0 8.285156-6.714844 15-15 15zm0 0" fill="#7edc87"/><path d="m393.46875 156.410156c-42.246094 50.804688-138.152344 166.140625-138.96875 167.121094v37.4375c.628906.046875-7.976562.03125 150.5.03125 8.28125 0 15-6.71875 15-15v-180c0-14.007812-17.578125-20.359375-26.53125-9.589844zm0 0" fill="#75cc5b"/><path d="m85 30h341v30h-341zm0 0" fill="#b6d2e0"/><path d="m254.5 30h171.5v30h-171.5zm0 0" fill="#aac3ce"/><path d="m451 85h30v342h-30zm0 0" fill="#aac3ce"/><path d="m85 452h341v30h-341zm0 0" fill="#b6d2e0"/><path d="m254.5 452h171.5v30h-171.5zm0 0" fill="#aac3ce"/><path d="m30 85h30v342h-30zm0 0" fill="#b6d2e0"/><path d="m75 512h-60c-8.285156 0-15-6.714844-15-15v-60c0-8.285156 6.714844-15 15-15h60c8.285156 0 15 6.714844 15 15v60c0 8.285156-6.714844 15-15 15zm-45-30h30v-30h-30zm0 0" fill="#7280f8"/><path d="m496 512h-60c-8.285156 0-15-6.714844-15-15v-60c0-8.285156 6.714844-15 15-15h60c8.285156 0 15 6.714844 15 15v60c0 8.285156-6.714844 15-15 15zm-45-30h30v-30h-30zm0 0" fill="#434af2"/><path d="m496 90h-60c-8.285156 0-15-6.714844-15-15v-60c0-8.285156 6.714844-15 15-15h60c8.285156 0 15 6.714844 15 15v60c0 8.285156-6.714844 15-15 15zm-45-30h30v-30h-30zm0 0" fill="#434af2"/><path d="m75 90h-60c-8.285156 0-15-6.714844-15-15v-60c0-8.285156 6.714844-15 15-15h60c8.285156 0 15 6.714844 15 15v60c0 8.285156-6.714844 15-15 15zm-45-30h30v-30h-30zm0 0" fill="#7280f8"/></svg>