<svg height="512pt" viewBox="0 0 512 512" width="512pt" xmlns="http://www.w3.org/2000/svg"><path d="m256 0c-8.285156 0-15 6.714844-15 15v31c0 8.285156 6.714844 15 15 15s15-6.714844 15-15v-31c0-8.285156-6.714844-15-15-15zm0 0" fill="#eebb2c"/><path d="m271 15v31c0 8.28125-6.71875 15-15 15v-61c8.28125 0 15 6.71875 15 15zm0 0" fill="#e79b34"/><g fill="#eebb2c"><path d="m96.195312 74.980469c-5.859374-5.859375-15.355468-5.859375-21.214843 0-5.859375 5.855469-5.859375 15.355469 0 21.210937l21.921875 21.921875c5.855468 5.859375 15.351562 5.859375 21.210937 0 5.859375-5.855469 5.859375-15.355469 0-21.210937zm0 0"/><path d="m46 241h-31c-8.285156 0-15 6.714844-15 15s6.714844 15 15 15h31c8.285156 0 15-6.714844 15-15s-6.714844-15-15-15zm0 0"/><path d="m95.902344 393.886719-21.921875 21.921875c-5.855469 5.855468-5.855469 15.351562 0 21.210937 5.859375 5.859375 15.355469 5.859375 21.214843 0l21.917969-21.921875c5.859375-5.855468 5.859375-15.355468 0-21.210937-5.855469-5.859375-15.355469-5.859375-21.210937 0zm0 0"/></g><path d="m416.097656 393.886719c-5.855468-5.859375-15.355468-5.859375-21.210937 0-5.859375 5.855469-5.859375 15.355469 0 21.210937l21.917969 21.921875c5.859374 5.859375 15.355468 5.859375 21.214843 0 5.859375-5.855469 5.859375-15.355469 0-21.210937zm0 0" fill="#e79b34"/><path d="m497 241h-31c-8.285156 0-15 6.714844-15 15s6.714844 15 15 15h31c8.285156 0 15-6.714844 15-15s-6.714844-15-15-15zm0 0" fill="#e79b34"/><path d="m415.097656 118.113281 21.921875-21.921875c5.855469-5.855468 5.855469-15.351562 0-21.210937-5.859375-5.859375-15.355469-5.859375-21.214843 0l-21.917969 21.921875c-5.859375 5.855468-5.859375 15.355468 0 21.210937 5.855469 5.859375 15.351562 5.859375 21.210937 0zm0 0" fill="#e79b34"/><path d="m256 91c-90.980469 0-165 74.019531-165 165 0 53.542969 25.578125 101.644531 65.984375 132 2.597656 1.949219 5.757813 3.007812 9.007813 3.007812h180.015624c3.25 0 6.410157-1.058593 9.007813-3.007812 20.035156-15.050781 36.636719-34.773438 48.007813-57.03125 55.816406-109.265625-23.90625-239.96875-147.023438-239.96875zm0 0" fill="#eebb2c"/><path d="m403.019531 330.96875c-10.21875 20-24.660156 37.960938-42.019531 52.3125-1.949219 1.617188-3.949219 3.199219-5.980469 4.71875-2.597656 1.949219-5.757812 3.011719-9.007812 3.011719h-90.011719v-300.011719c123.121094 0 202.839844 130.699219 147.019531 239.96875zm0 0" fill="#e79b34"/><path d="m326.605469 245.394531-30-30c-5.855469-5.859375-15.355469-5.859375-21.210938 0l-19.394531 19.390625-19.394531-19.390625c-5.855469-5.859375-15.355469-5.859375-21.210938 0l-30 30c-4.566406 4.5625-5.699219 11.539063-2.8125 17.3125l60 120c5.515625 11.03125 21.3125 11.042969 26.832031 0l60-120c2.890626-5.773437 1.757813-12.746093-2.808593-17.3125zm-70.605469 97.066407-41.75-83.5 11.75-11.746094 19.394531 19.390625c5.855469 5.859375 15.355469 5.859375 21.210938 0l19.394531-19.390625 11.75 11.746094zm0 0" fill="#dd5c60"/><path d="m326.609375 245.390625-30-30c-5.859375-5.851563-15.359375-5.851563-21.21875 0l-19.390625 19.398437v36.210938c3.839844 0 7.679688-1.460938 10.609375-4.390625l19.390625-19.398437 11.75 11.75-41.75 83.5v48.527343c5.238281 0 10.46875-2.660156 13.261719-7.988281.058593-.101562.109375-.191406.160156-.289062l60-120c2.878906-5.78125 1.75-12.75-2.8125-17.320313zm0 0" fill="#d8333c"/><path d="m361 383v74c0 30.328125-24.671875 55-55 55h-100c-30.328125 0-55-24.671875-55-55v-74zm0 0" fill="#b6d2e0"/><path d="m361 383v74c0 .671875-.011719 1.328125-.039062 2-1.050782 29.410156-25.300782 53-54.960938 53h-50v-129zm0 0" fill="#aac3ce"/><path d="m151 429h210v30h-210zm0 0" fill="#d6f3fe"/><path d="m256 429h105v30h-105zm0 0" fill="#bdecfc"/></svg>