<svg height="512pt" viewBox="0 0 512 512" width="512pt" xmlns="http://www.w3.org/2000/svg"><path d="m457.003906 512h-402.007812c-30.324219 0-54.996094-24.671875-54.996094-54.996094v-372.007812c0-30.324219 24.671875-54.996094 54.996094-54.996094h402.007812c30.324219 0 54.996094 24.671875 54.996094 54.996094v372.007812c0 30.324219-24.671875 54.996094-54.996094 54.996094zm0 0" fill="#d6f3fe"/><path d="m457 30h-201v482h201c30.328125 0 55-24.671875 55-55v-372c0-30.328125-24.671875-55-55-55zm0 0" fill="#bdecfc"/><path d="m512 84.996094c0-30.324219-24.671875-54.996094-54.996094-54.996094h-402.007812c-30.324219 0-54.996094 24.671875-54.996094 54.996094v61.003906h512zm0 0" fill="#7280f8"/><path d="m512 85v61h-256v-116h201c30.328125 0 55 24.671875 55 55zm0 0" fill="#434af2"/><path d="m166 301h-60c-8.285156 0-15-6.714844-15-15v-60c0-8.285156 6.714844-15 15-15h60c8.285156 0 15 6.714844 15 15v60c0 8.285156-6.714844 15-15 15zm0 0" fill="#b6d2e0"/><path d="m256 301c-24.8125 0-45-20.1875-45-45s20.1875-45 45-45 45 20.1875 45 45-20.1875 45-45 45zm0 0" fill="#eebb2c"/><path d="m256 211v90c24.808594 0 45-20.191406 45-45s-20.191406-45-45-45zm0 0" fill="#e79b34"/><path d="m286 421h-60c-8.285156 0-15-6.714844-15-15v-60c0-8.285156 6.714844-15 15-15h60c8.285156 0 15 6.714844 15 15v60c0 8.285156-6.714844 15-15 15zm0 0" fill="#b6d2e0"/><path d="m286 331h-30v90h30c8.28125 0 15-6.71875 15-15v-60c0-8.28125-6.71875-15-15-15zm0 0" fill="#aac3ce"/><path d="m376 421c-24.8125 0-45-20.1875-45-45s20.1875-45 45-45 45 20.1875 45 45-20.1875 45-45 45zm0 0" fill="#e79b34"/><g fill="#b6d2e0"><path d="m76 91c-8.285156 0-15-6.714844-15-15v-61c0-8.285156 6.714844-15 15-15s15 6.714844 15 15v61c0 8.285156-6.714844 15-15 15zm0 0"/><path d="m166 91c-8.285156 0-15-6.714844-15-15v-61c0-8.285156 6.714844-15 15-15s15 6.714844 15 15v61c0 8.285156-6.714844 15-15 15zm0 0"/><path d="m256 91c-8.285156 0-15-6.714844-15-15v-61c0-8.285156 6.714844-15 15-15s15 6.714844 15 15v61c0 8.285156-6.714844 15-15 15zm0 0"/></g><path d="m271 15v61c0 8.28125-6.71875 15-15 15v-91c8.28125 0 15 6.71875 15 15zm0 0" fill="#aac3ce"/><path d="m346 91c-8.285156 0-15-6.714844-15-15v-61c0-8.285156 6.714844-15 15-15s15 6.714844 15 15v61c0 8.285156-6.714844 15-15 15zm0 0" fill="#aac3ce"/><path d="m436 91c-8.285156 0-15-6.714844-15-15v-61c0-8.285156 6.714844-15 15-15s15 6.714844 15 15v61c0 8.285156-6.714844 15-15 15zm0 0" fill="#aac3ce"/><path d="m397.214844 256 19.390625-19.394531c5.859375-5.855469 5.859375-15.355469 0-21.210938-5.855469-5.859375-15.351563-5.859375-21.210938 0l-19.394531 19.390625-19.394531-19.390625c-5.855469-5.859375-15.355469-5.859375-21.210938 0-5.859375 5.855469-5.859375 15.351563 0 21.210938l19.390625 19.394531-19.390625 19.394531c-5.859375 5.855469-5.859375 15.355469 0 21.210938 5.855469 5.859375 15.351563 5.859375 21.210938 0l19.394531-19.390625 19.394531 19.390625c5.859375 5.859375 15.355469 5.859375 21.210938 0 5.859375-5.855469 5.859375-15.351563 0-21.210938zm0 0" fill="#d8333c"/><path d="m157.214844 376 19.390625-19.394531c5.859375-5.855469 5.859375-15.355469 0-21.210938-5.855469-5.859375-15.351563-5.859375-21.210938 0l-19.394531 19.390625-19.394531-19.390625c-5.855469-5.859375-15.355469-5.859375-21.210938 0-5.859375 5.855469-5.859375 15.351563 0 21.210938l19.390625 19.394531-19.390625 19.394531c-5.859375 5.855469-5.859375 15.355469 0 21.210938 5.855469 5.859375 15.351563 5.859375 21.210938 0l19.394531-19.390625 19.394531 19.390625c5.859375 5.859375 15.355469 5.859375 21.210938 0 5.859375-5.855469 5.859375-15.351563 0-21.210938zm0 0" fill="#dd5c60"/></svg>