<svg height="512pt" viewBox="-1 0 512 512" width="512pt" xmlns="http://www.w3.org/2000/svg"><path d="m509.71875 99.96875c-11.367188 15.53125-29.789062 25.03125-49.917969 25.03125h-69.800781v-50c0-8.28125 6.71875-15 15-15h60c23.109375 0 42.210938 17.519531 44.71875 39.96875zm0 0" fill="#aac3ce"/><path d="m120 75v50h-69.800781c-20.128907 0-38.550781-9.5-49.917969-25.03125 2.507812-22.449219 21.609375-39.96875 44.71875-39.96875h60c8.28125 0 15 6.71875 15 15zm0 0" fill="#b6d2e0"/><path d="m510 105v352c0 30.328125-24.671875 55-55 55h-400c-30.328125 0-55-24.671875-55-55v-352c0-6.761719 1.5-13.191406 4.191406-18.949219 8.277344 19.910157 27.929688 33.949219 50.808594 33.949219h400c22.878906 0 42.53125-14.039062 50.808594-33.949219 2.691406 5.757813 4.191406 12.1875 4.191406 18.949219zm0 0" fill="#d6f3fe"/><path d="m510 105v352c0 30.328125-24.671875 55-55 55h-200v-392h200c22.878906 0 42.53125-14.039062 50.808594-33.949219 2.691406 5.757813 4.191406 12.1875 4.191406 18.949219zm0 0" fill="#bdecfc"/><path d="m390 317c0 74.558594-60.441406 135-135 135s-135-60.441406-135-135 60.441406-135 135-135 135 60.441406 135 135zm0 0" fill="#7edc87"/><path d="m390 317c0 74.558594-60.441406 135-135 135v-270c74.410156 0 135 60.300781 135 135zm0 0" fill="#75cc5b"/><path d="m255 422c-57.898438 0-105-47.101562-105-105s47.101562-105 105-105 105 47.101562 105 105-47.101562 105-105 105zm0 0" fill="#d6f3fe"/><path d="m360 317c0 57.898438-47.101562 105-105 105v-210c57.832031 0 105 47.066406 105 105zm0 0" fill="#bdecfc"/><path d="m180 104.730469c0 194.449219-1.097656 185.167969 2.519531 190.589843l60 90c5.933594 8.898438 19.035157 8.894532 24.960938 0 62.964843-94.449218 62.519531-92.097656 62.519531-98.320312v-182.269531zm0 0" fill="#f2d2ad"/><path d="m330 104.730469c0 192.269531 1.011719 185.367187-2.519531 190.589843l-60 90c-2.78125 4.167969-7.460938 6.679688-12.480469 6.679688v-287.269531zm0 0" fill="#f2d2ad"/><path d="m180 95h150v192h-150zm0 0" fill="#7280f8"/><path d="m255 95h75v192h-75zm0 0" fill="#434af2"/><path d="m330 75c0-41.359375-33.640625-75-75-75s-75 33.640625-75 75v29.730469h150zm0 0" fill="#dd5c60"/><path d="m330 75v29.730469h-75v-104.730469c41.359375 0 75 33.640625 75 75zm0 0" fill="#d8333c"/><path d="m180 90h150v30h-150zm0 0" fill="#eebb2c"/><path d="m255 90h75v30h-75zm0 0" fill="#e79b34"/></svg>