<svg height="512pt" viewBox="0 -1 512 512" width="512pt" xmlns="http://www.w3.org/2000/svg"><path d="m82.078125 30c3.894531 9.582031 3.898437 20.398438 0 30h132.921875v-30zm0 0" fill="#eebb2c"/><path d="m429.921875 30h-131.589844v30h131.589844c-3.894531-9.582031-3.898437-20.398438 0-30zm0 0" fill="#e79b34"/><path d="m388.859375 291.160156c-.742187-1.015625-117.640625-161.242187-120.390625-165-6.007812-8.210937-18.25-8.199218-24.238281 0-4.816407 6.621094-111.242188 152.457032-120.390625 165-3.167969 4.339844-3.769532 10.039063-1.578125 14.949219l53.019531 118.890625h162.148438l53.011718-118.890625c2.1875-4.910156 1.589844-10.609375-1.582031-14.949219zm0 0" fill="#d6f3fe"/><path d="m388.859375 291.160156c-8.574219-11.753906-115.90625-158.847656-120.390625-165-2.757812-3.769531-7.109375-6.050781-11.769531-6.148437v304.988281h80.730469c3.828124-8.585938 50.363281-112.949219 53.011718-118.890625 2.1875-4.910156 1.589844-10.609375-1.582031-14.949219zm0 0" fill="#bdecfc"/><path d="m34.289062 216.460938c9.855469-2.746094 20.632813-1.636719 29.871094 3.429687 14.042969-77.429687 73.386719-138.75 150.171875-155.421875v-30.601562c-92.648437 17.339843-164.238281 90.859374-180.042969 182.59375zm0 0" fill="#eebb2c"/><path d="m298.332031 33.984375v30.628906c76.261719 16.84375 135.269531 77.84375 149.417969 154.796875 9.375-4.824218 20.167969-5.667968 30.011719-2.652344-15.808594-92.300781-87.363281-165.238281-179.429688-182.773437zm0 0" fill="#e79b34"/><path d="m346 510h-180c-8.285156 0-15-6.714844-15-15v-60c0-8.285156 6.714844-15 15-15h180c8.285156 0 15 6.714844 15 15v60c0 8.285156-6.714844 15-15 15zm0 0" fill="#7280f8"/><path d="m346 420h-89.300781v90h89.300781c8.28125 0 15-6.71875 15-15v-60c0-8.28125-6.71875-15-15-15zm0 0" fill="#434af2"/><path d="m271.300781 278.050781c-9.378906-3.921875-20.101562-4.160156-29.910156-.28125-.0625-1.148437-.039063 9.660157-.039063-147.648437 1.476563-2.042969 2.476563-3.410156 2.878907-3.960938 5.988281-8.199218 18.230469-8.210937 24.238281 0 .300781.410156 1.292969 1.769532 2.882812 3.941406 0 156.320313.027344 146.789063-.050781 147.949219zm0 0" fill="#66a9df"/><path d="m271.300781 278.050781c-4.628906-1.941406-9.589843-2.980469-14.601562-3.0625v-154.96875c4.441406.101563 8.851562 2.152344 11.769531 6.140625.300781.410156 1.292969 1.769532 2.882812 3.941406 0 156.320313.027344 146.789063-.050781 147.949219zm0 0" fill="#4f84cf"/><path d="m256 360c-24.8125 0-45-20.1875-45-45s20.1875-45 45-45 45 20.1875 45 45-20.1875 45-45 45zm0 0" fill="#66a9df"/><path d="m256.699219 270.011719v89.976562c24.492187-.367187 44.300781-20.410156 44.300781-44.988281 0-24.773438-20.054688-44.660156-44.300781-44.988281zm0 0" fill="#4f84cf"/><path d="m256 330c-8.269531 0-15-6.730469-15-15s6.730469-15 15-15 15 6.730469 15 15-6.730469 15-15 15zm0 0" fill="#d6f3fe"/><path d="m271 315c0 8.039062-6.351562 14.621094-14.300781 14.980469v-29.960938c7.949219.359375 14.300781 6.941407 14.300781 14.980469zm0 0" fill="#d6f3fe"/><path d="m466 210c-24.8125 0-45 20.1875-45 45s20.1875 45 45 45 45-20.1875 45-45-20.1875-45-45-45zm0 60c-8.269531 0-15-6.730469-15-15s6.730469-15 15-15 15 6.730469 15 15-6.730469 15-15 15zm0 0" fill="#d8333c"/><path d="m286 0h-60c-8.285156 0-15 6.714844-15 15v60c0 8.285156 6.714844 15 15 15h60c8.285156 0 15-6.714844 15-15v-60c0-8.285156-6.714844-15-15-15zm-15 60h-30v-30h30zm0 0" fill="#dd5c60"/><path d="m286 0h-29.300781v30h14.300781v30h-14.300781v30h29.300781c8.28125 0 15-6.71875 15-15v-60c0-8.28125-6.71875-15-15-15zm0 0" fill="#d8333c"/><path d="m45 210c-24.8125 0-45 20.1875-45 45s20.1875 45 45 45 45-20.1875 45-45-20.1875-45-45-45zm0 60c-8.269531 0-15-6.730469-15-15s6.730469-15 15-15 15 6.730469 15 15-6.730469 15-15 15zm0 0" fill="#dd5c60"/><path d="m467 0c-24.8125 0-45 20.1875-45 45s20.1875 45 45 45 45-20.1875 45-45-20.1875-45-45-45zm0 60c-8.269531 0-15-6.730469-15-15s6.730469-15 15-15 15 6.730469 15 15-6.730469 15-15 15zm0 0" fill="#434af2"/><path d="m45 0c-24.8125 0-45 20.1875-45 45s20.1875 45 45 45 45-20.1875 45-45-20.1875-45-45-45zm0 60c-8.269531 0-15-6.730469-15-15s6.730469-15 15-15 15 6.730469 15 15-6.730469 15-15 15zm0 0" fill="#7280f8"/></svg>