<svg height="512pt" viewBox="0 0 512 512" width="512pt" xmlns="http://www.w3.org/2000/svg"><path d="m256 512c-141.488281 0-256-114.496094-256-256 0-141.488281 114.496094-256 256-256 141.523438 0 256 114.984375 256 256 0 141.488281-114.496094 256-256 256zm0 0" fill="#dd5c60"/><path d="m256 0v512c141.5 0 256-114.511719 256-256 0-141.019531-114.480469-256-256-256zm0 0" fill="#d8333c"/><path d="m256 421.113281c-91.042969 0-165.113281-74.070312-165.113281-165.113281 0-99.046875 89.925781-162.386719 164.566406-165.105469 85.75-3.125 168.6875 76.058594 165.652344 165.613281-2.433594 71.679688-64.386719 164.605469-165.105469 164.605469zm0 0" fill="#d6f3fe"/><path d="m256 90.878906v330.230469c100.71875 0 162.671875-92.917969 165.101562-164.597656 3.027344-89.363281-79.550781-168.402344-165.101562-165.632813zm0 0" fill="#bdecfc"/><path d="m256 331c-41.355469 0-75-33.644531-75-75s33.644531-75 75-75 75 33.644531 75 75-33.644531 75-75 75zm0 0" fill="#dd5c60"/><path d="m256 181v150c41.359375 0 75-33.640625 75-75s-33.640625-75-75-75zm0 0" fill="#d8333c"/><path d="m496 91h-75v-75c0-13.363281-16.199219-20.019531-25.609375-10.609375l-90 90c-2.8125 2.820313-4.390625 6.628906-4.390625 10.609375v90c0 8.28125 6.71875 15 15 15h90c3.980469 0 7.789062-1.578125 10.609375-4.390625l90-90c9.410156-9.410156 2.75-25.609375-10.609375-25.609375zm0 0" fill="#7edc87"/><path d="m496 91h-75l-115.601562 115.601562c2.710937 2.71875 6.460937 4.398438 10.601562 4.398438h90c3.980469 0 7.789062-1.578125 10.609375-4.390625l90-90c9.410156-9.410156 2.75-25.609375-10.609375-25.609375zm0 0" fill="#75cc5b"/><path d="m442.21875 91-175.609375 175.609375c-5.835937 5.835937-15.347656 5.871094-21.21875 0-5.851563-5.859375-5.851563-15.359375 0-21.21875 6.628906-6.628906 168.996094-168.996094 175.609375-175.609375v21.21875zm0 0" fill="#eebb2c"/><path d="m442.21875 91-175.609375 175.609375c-5.839844 5.839844-15.347656 5.871094-21.21875 0l175.609375-175.609375zm0 0" fill="#e79b34"/></svg>