<svg height="512pt" viewBox="0 -91 512.0015 512" width="512pt" xmlns="http://www.w3.org/2000/svg"><path d="m256 330c-99.1875 0-200.5-82.960938-253.175781-156.242188-3.765625-5.230468-3.765625-12.28125 0-17.515624 52.003906-72.34375 153.054687-156.242188 253.175781-156.242188 99.191406 0 200.5 82.964844 253.179688 156.242188 3.761718 5.230468 3.761718 12.285156 0 17.515624-52.003907 72.34375-153.058594 156.242188-253.179688 156.242188zm0 0" fill="#d6f3fe"/><path d="m509.179688 156.242188c-52.679688-73.28125-153.988282-156.242188-253.179688-156.242188v330c100.121094 0 201.171875-83.898438 253.179688-156.238281 3.761718-5.230469 3.761718-12.289063 0-17.519531zm0 0" fill="#bdecfc"/><path d="m256 270c-57.894531 0-105-47.101562-105-105 0-57.894531 47.105469-105 105-105 57.898438 0 105 47.105469 105 105 0 57.898438-47.101562 105-105 105zm0 0" fill="#7edc87"/><path d="m256 60v210c57.902344 0 105-47.097656 105-105 0-57.898438-47.097656-105-105-105zm0 0" fill="#75cc5b"/><path d="m256 210c-24.8125 0-45-20.1875-45-45s20.1875-45 45-45 45 20.1875 45 45-20.183594 45-45 45zm0 0" fill="#66a9df"/><path d="m256 120v90c24.8125 0 45-20.1875 45-45 0-24.808594-20.1875-45-45-45zm0 0" fill="#4f84cf"/><g fill="#d6f3fe"><path d="m256 180c-8.269531 0-15-6.726562-15-15 0-8.269531 6.730469-15 15-15 8.273438 0 15 6.730469 15 15 0 8.273438-6.726562 15-15 15zm0 0"/><path d="m256 150v30c8.269531 0 15-6.730469 15-15s-6.730469-15-15-15zm0 0"/></g></svg>