<svg height="512pt" viewBox="-1 0 512 512" width="512pt" xmlns="http://www.w3.org/2000/svg"><path d="m455 422h-400c-30.328125 0-55-24.671875-55-55v-312c0-30.328125 24.671875-55 55-55h400c30.328125 0 55 24.671875 55 55v312c0 30.328125-24.671875 55-55 55zm0 0" fill="#d6f3fe"/><path d="m455 0h-200v422h200c30.328125 0 55-24.671875 55-55v-312c0-30.328125-24.671875-55-55-55zm0 0" fill="#bdecfc"/><path d="m180 417v70h150v-70zm0 0" fill="#66a9df"/><path d="m255 417v70h75v-70zm0 0" fill="#4f84cf"/><path d="m0 317v50c0 30.328125 24.671875 55 55 55h400c30.328125 0 55-24.671875 55-55v-50zm0 0" fill="#b6d2e0"/><path d="m510 317v50c0 30.328125-24.671875 55-55 55h-200v-105zm0 0" fill="#aac3ce"/><path d="m375 512h-240c-8.285156 0-15-6.714844-15-15s6.714844-15 15-15h240c8.285156 0 15 6.714844 15 15s-6.714844 15-15 15zm0 0" fill="#b6d2e0"/><path d="m390 497c0 8.28125-6.71875 15-15 15h-120v-30h120c8.28125 0 15 6.71875 15 15zm0 0" fill="#aac3ce"/><path d="m315 211h-120c-6.882812 0-12.882812-4.683594-14.550781-11.363281l-27.160157-108.636719h-18.289062c-8.285156 0-15-6.714844-15-15s6.714844-15 15-15h30c6.882812 0 12.882812 4.683594 14.550781 11.363281l4.660157 18.636719h150.789062c9.585938 0 16.726562 8.886719 14.644531 18.253906l-20 90c-1.527343 6.863282-7.613281 11.746094-14.644531 11.746094zm0 0" fill="#eebb2c"/><path d="m335 91h-80v120h60c7.03125 0 13.121094-4.878906 14.640625-11.75l20-90c2.078125-9.359375-5.0625-18.25-14.640625-18.25zm0 0" fill="#e79b34"/><path d="m240 256c0 8.285156-6.714844 15-15 15s-15-6.714844-15-15 6.714844-15 15-15 15 6.714844 15 15zm0 0" fill="#dd5c60"/><path d="m300 256c0 8.285156-6.714844 15-15 15s-15-6.714844-15-15 6.714844-15 15-15 15 6.714844 15 15zm0 0" fill="#d8333c"/></svg>