<svg height="512pt" viewBox="0 0 512 512" width="512pt" xmlns="http://www.w3.org/2000/svg"><path d="m427.835938 481.929688h-372.738282c-30.378906 0-55.097656-24.71875-55.097656-55.105469v-371.71875c0-30.382813 24.71875-55.105469 55.097656-55.105469h372.738282c30.378906 0 55.097656 24.722656 55.097656 55.105469v371.71875c0 30.386719-24.71875 55.105469-55.097656 55.105469zm0 0" fill="#b6d2e0"/><path d="m427.835938 0h-186.367188v481.929688h186.367188c30.378906 0 55.097656-24.71875 55.097656-55.105469v-371.71875c0-30.386719-24.71875-55.105469-55.097656-55.105469zm0 0" fill="#aac3ce"/><path d="m55.101562 451.871094c-13.808593 0-25.042968-11.238282-25.042968-25.046875v-371.71875c0-13.8125 11.234375-25.046875 25.042968-25.046875h372.734376c13.804687 0 25.039062 11.238281 25.039062 25.046875v371.71875c0 13.8125-11.234375 25.046875-25.039062 25.046875zm0 0" fill="#d6f3fe"/><path d="m452.875 55.105469v371.71875c0 13.816406-11.230469 25.046875-25.039062 25.046875h-186.367188v-421.8125h186.367188c13.808593 0 25.039062 11.230468 25.039062 25.046875zm0 0" fill="#bdecfc"/><path d="m482.933594 55.105469c0-30.382813-24.71875-55.105469-55.097656-55.105469h-372.738282c-30.378906 0-55.097656 24.722656-55.097656 55.105469v81.15625h482.933594zm0 0" fill="#b6d2e0"/><path d="m482.933594 55.105469v81.15625h-241.464844v-136.261719h186.367188c30.378906 0 55.097656 24.71875 55.097656 55.105469zm0 0" fill="#aac3ce"/><g fill="#bdecfc"><path d="m421.789062 76.148438c0 8.296874-6.726562 15.027343-15.027343 15.027343-8.296875 0-15.027344-6.730469-15.027344-15.027343 0-8.300782 6.730469-15.03125 15.027344-15.03125 8.300781 0 15.027343 6.730468 15.027343 15.03125zm0 0"/><path d="m361.683594 76.148438c0 8.296874-6.730469 15.027343-15.027344 15.027343-8.300781 0-15.027344-6.730469-15.027344-15.027343 0-8.300782 6.726563-15.03125 15.027344-15.03125 8.296875 0 15.027344 6.730468 15.027344 15.03125zm0 0"/><path d="m301.574219 76.148438c0 8.296874-6.726563 15.027343-15.027344 15.027343s-15.027344-6.730469-15.027344-15.027343c0-8.300782 6.726563-15.03125 15.027344-15.03125s15.027344 6.730468 15.027344 15.03125zm0 0"/></g><path d="m225.4375 210.40625h-150.292969c-8.300781 0-15.027343-6.730469-15.027343-15.027344 0-8.300781 6.726562-15.03125 15.027343-15.03125h150.292969c8.296875 0 15.027344 6.730469 15.027344 15.03125 0 8.296875-6.730469 15.027344-15.027344 15.027344zm0 0" fill="#dd5c60"/><path d="m165.320312 270.523438h-90.175781c-8.300781 0-15.027343-6.730469-15.027343-15.03125 0-8.300782 6.726562-15.027344 15.027343-15.027344h90.175781c8.296876 0 15.027344 6.726562 15.027344 15.027344 0 8.300781-6.726562 15.03125-15.027344 15.03125zm0 0" fill="#eebb2c"/><path d="m165.320312 330.636719h-90.175781c-8.300781 0-15.027343-6.726563-15.027343-15.027344s6.726562-15.03125 15.027343-15.03125h90.175781c8.296876 0 15.027344 6.730469 15.027344 15.03125s-6.726562 15.027344-15.027344 15.027344zm0 0" fill="#dd5c60"/><path d="m165.320312 390.753906h-90.175781c-8.300781 0-15.027343-6.730468-15.027343-15.027344 0-8.300781 6.726562-15.03125 15.027343-15.03125h90.175781c8.296876 0 15.027344 6.730469 15.027344 15.03125 0 8.296876-6.726562 15.027344-15.027344 15.027344zm0 0" fill="#eebb2c"/><path d="m498.78125 435.019531-87.304688-87.304687c-9.9375 30.039062-33.722656 53.824218-63.761718 63.761718l87.304687 87.304688c17.621094 17.621094 46.140625 17.625 63.761719 0 17.621094-17.621094 17.625-46.140625 0-63.761719zm0 0" fill="#eebb2c"/><path d="m498.785156 498.78125c-17.625 17.625-46.148437 17.625-63.765625 0l-87.308593-87.308594c15.019531-4.96875 28.476562-13.394531 39.425781-24.335937zm0 0" fill="#e79b34"/><path d="m316.324219 421.527344c-58.007813 0-105.203125-47.195313-105.203125-105.203125 0-58.011719 47.195312-105.203125 105.203125-105.203125 58.011719 0 105.203125 47.191406 105.203125 105.203125 0 58.007812-47.191406 105.203125-105.203125 105.203125zm0 0" fill="#7280f8"/><path d="m241.96875 241.96875c-19.046875 19.054688-30.851562 45.34375-30.851562 74.351562 0 58.011719 47.203124 105.203126 105.203124 105.203126 12.382813 0 24.289063-2.15625 35.328126-6.113282 14.820312-5.289062 28.113281-13.816406 39.027343-24.738281zm0 0" fill="#434af2"/><path d="m316.324219 391.46875c-41.433594 0-75.144531-33.710938-75.144531-75.144531 0-41.4375 33.710937-75.144531 75.144531-75.144531 41.4375 0 75.144531 33.707031 75.144531 75.144531 0 41.433593-33.707031 75.144531-75.144531 75.144531zm0 0" fill="#d6f3fe"/><path d="m369.433594 369.433594c-13.605469 13.605468-32.394532 22.03125-53.113282 22.03125-41.429687 0-75.144531-33.703125-75.144531-75.144532 0-20.710937 8.425781-39.507812 22.035157-53.113281zm0 0" fill="#bdecfc"/></svg>