<svg height="512pt" viewBox="-30 0 512 512.0006" width="512pt" xmlns="http://www.w3.org/2000/svg"><path d="m397.203125 452.3125h-342.207031c-30.324219 0-54.996094-24.6875-54.996094-55.035156v-342.242188c0-30.347656 24.671875-55.035156 54.996094-55.035156h342.007812c30.324219 0 54.996094 24.6875 54.996094 55.035156l.203125 342.210938c.015625 30.429687-24.585937 55.066406-55 55.066406zm0 0" fill="#b6d2e0"/><path d="m452.050781 136.09375-.050781-81.054688c0-30.351562-24.667969-55.039062-55-55.039062h-170.898438v452.3125h171.097657c30.421875 0 55.019531-24.636719 55-55.066406zm0 0" fill="#aac3ce"/><path d="m54.996094 422.292969c-13.78125 0-24.996094-11.222657-24.996094-25.015625v-342.242188c0-13.792968 11.214844-25.015625 24.996094-25.015625h342.007812c13.78125 0 24.996094 11.222657 24.996094 25.015625l.203125 342.226563c.007813 13.828125-11.171875 25.03125-25 25.03125zm0 0" fill="#d6f3fe"/><path d="m422.199219 397.265625c.011719 13.828125-11.167969 25.027344-25 25.027344h-171.097657v-392.273438h170.898438c13.789062 0 25 11.21875 25 25.019531l.050781 81.054688zm0 0" fill="#bdecfc"/><path d="m452 55.035156c0-30.347656-24.671875-55.035156-54.996094-55.035156h-342.007812c-30.324219 0-54.996094 24.6875-54.996094 55.035156v81.058594h452.046875zm0 0" fill="#b6d2e0"/><path d="m452.050781 136.09375h-225.949219v-136.09375h170.898438c30.332031 0 55 24.6875 55 55.039062zm0 0" fill="#aac3ce"/><g fill="#bdecfc"><path d="m391 76.054688c0-8.292969-6.714844-15.011719-15-15.011719s-15 6.71875-15 15.011719c0 8.289062 6.714844 15.007812 15 15.007812s15-6.71875 15-15.007812zm0 0"/><path d="m331 76.054688c0-8.292969-6.714844-15.011719-15-15.011719s-15 6.71875-15 15.011719c0 8.289062 6.714844 15.007812 15 15.007812s15-6.71875 15-15.007812zm0 0"/><path d="m271 76.054688c0-8.292969-6.714844-15.011719-15-15.011719s-15 6.71875-15 15.011719c0 8.289062 6.714844 15.007812 15 15.007812s15-6.71875 15-15.007812zm0 0"/></g><path d="m61.007812 255.359375c0-8.292969 6.714844-15.011719 15-15.011719 54.746094 0 89.179688-14.066406 108.425782-25.871094 19.839844-12.164062 28.039062-24.484374 28.667968-25.457031 4.6875-8.234375 16.253907-10.257812 23.566407-2.828125.105469.109375 13.851562 13.820313 37.96875 27.289063 31.921875 17.828125 66.003906 26.867187 101.308593 26.867187 8.285157 0 15 6.71875 15 15.011719 0 177.527344-95.789062 249.492187-163.410156 256.59375-13.015625 1.351563-166.527344-25.886719-166.527344-256.59375zm0 0" fill="#7edc87"/><path d="m375.941406 240.347656c-35.300781 0-69.382812-9.039062-101.300781-26.871094-24.121094-13.46875-37.859375-27.175781-37.96875-27.289062-3.050781-3.089844-6.839844-4.550781-10.570313-4.59375v330.398438c.589844.011718 1.070313 0 1.4375-.039063 67.621094-7.105469 163.402344-79.0625 163.402344-256.597656 0-8.285157-6.710937-15.007813-15-15.007813zm0 0" fill="#75cc5b"/><path d="m199.261719 398.328125-35.410157-35.433594c-5.859374-5.863281-5.859374-15.367187 0-21.230469 5.855469-5.859374 15.355469-5.859374 21.210938 0l24.804688 24.820313 57.019531-57.058594c5.859375-5.859375 15.355469-5.859375 21.214843 0 5.859376 5.863281 5.859376 15.367188 0 21.230469l-67.625 67.671875c-5.859374 5.863281-15.359374 5.859375-21.214843 0zm0 0" fill="#d6f3fe"/><path d="m288.101562 330.660156-62 62.03125v-42.449218l40.789063-40.816407c5.851563-5.855469 15.351563-5.855469 21.210937 0 5.859376 5.863281 5.859376 15.371094 0 21.234375zm0 0" fill="#bdecfc"/></svg>