<svg height="512pt" viewBox="0 -16 512 512" width="512pt" xmlns="http://www.w3.org/2000/svg"><path d="m378.519531 438.519531c-72.324219 55.285157-173.019531 55.503907-245.578125.351563 8.671875-4.90625 16.957032-11.648438 23.757813-19.792969 60.597656 42.558594 140.207031 40.457031 198.230469-.457031 6.476562 7.878906 14.582031 14.753906 23.589843 19.898437zm0 0" fill="#7280f8"/><path d="m378.519531 438.519531c-36.25 27.71875-79.621093 41.589844-123.019531 41.589844v-29.949219c35.160156-.070312 70.070312-10.832031 99.429688-31.539062 6.480468 7.878906 14.582031 14.757812 23.589843 19.898437zm0 0" fill="#434af2"/><path d="m457.738281 286.671875c-9.386719-4.429687-19.492187-7.105469-29.808593-7.890625 1.964843-56.917969-31.304688-122.148438-93.667969-154.109375 4.109375-9.476563 6.453125-19.585937 6.917969-30 75.882812 35.40625 120.390624 112.832031 116.558593 192zm0 0" fill="#434af2"/><path d="m83.058594 278.859375c-10.242188.917969-20.273438 3.640625-29.789063 8.289063-3.949219-80.621094 41.441407-157.449219 116.539063-192.476563.46875 10.453125 2.816406 20.566406 6.921875 30.007813-61.75 31.632812-95.539063 96.347656-93.671875 154.179687zm0 0" fill="#7280f8"/><path d="m255.496094 181.394531c-49.140625 0-90.785156-39.855469-90.785156-90.695312 0-50.007813 40.726562-90.69531275 90.785156-90.69531275s90.785156 40.68749975 90.785156 90.69531275c0 50.707031-41.53125 90.695312-90.785156 90.695312zm0 0" fill="#eebb2c"/><path d="m255.5 0v181.390625c49.25 0 90.78125-39.980469 90.78125-90.691406 0-50.007813-40.730469-90.699219-90.78125-90.699219zm0 0" fill="#e79b34"/><path d="m421.214844 454.902344c-49.65625 0-90.785156-40.140625-90.785156-90.691406 0-50.011719 40.726562-90.695313 90.785156-90.695313 49.972656 0 90.785156 40.457031 90.785156 90.695313 0 50.007812-40.726562 90.691406-90.785156 90.691406zm0 0" fill="#d8333c"/><path d="m90.785156 454.902344c-50.058594 0-90.785156-40.683594-90.785156-90.691406 0-50.71875 41.339844-90.695313 90.785156-90.695313 50.0625 0 90.785156 40.683594 90.785156 90.695313 0 50.464843-40.9375 90.691406-90.785156 90.691406zm0 0" fill="#7edc87"/></svg>