<svg height="512pt" viewBox="-23 0 512 512" width="512pt" xmlns="http://www.w3.org/2000/svg"><path d="m335.160156 165.394531-155.550781 90.226563-4.648437-2.714844c-.941407-31.453125-18.992188-58.675781-45.121094-72.625l160.210937-92.929688c-1.058593 33.230469 17.003907 63.042969 45.109375 78.042969zm0 0" fill="#eebb2c"/><path d="m335.160156 165.394531-102.160156 59.253907v-104.203126l57.050781-33.09375c-1.0625 33.234376 17 63.042969 45.109375 78.042969zm0 0" fill="#e79b34"/><path d="m290.039062 424.417969-160.390624-93.601563c26.171874-13.878906 44.28125-41.058594 45.300781-72.492187l4.660156-2.707031 155.742187 90.890624c-29.015624 15.390626-46.421874 46-45.3125 77.910157zm0 0" fill="#eebb2c"/><path d="m290.039062 424.417969-57.039062-33.285157v-104.351562l102.351562 59.726562c-29.011718 15.390626-46.421874 46-45.3125 77.910157zm0 0" fill="#e79b34"/><path d="m90 165.324219c-49.625 0-90 40.453125-90 90.175781s40.375 90.175781 90 90.175781 90-40.453125 90-90.175781-40.375-90.175781-90-90.175781zm0 0" fill="#dd5c60"/><g fill="#d8333c"><path d="m375 0c-49.625 0-90 40.453125-90 90.175781 0 49.722657 40.375 90.175781 90 90.175781s90-40.453124 90-90.175781c0-49.722656-40.375-90.175781-90-90.175781zm0 0"/><path d="m375 331.648438c-49.625 0-90 40.453124-90 90.175781 0 49.722656 40.375 90.175781 90 90.175781s90-40.453125 90-90.175781c0-49.722657-40.375-90.175781-90-90.175781zm0 0"/></g></svg>