<svg height="512pt" viewBox="-31 0 512 512" width="512pt" xmlns="http://www.w3.org/2000/svg"><path d="m241 385v43.878906c-9.441406-3.789062-20.28125-3.898437-30 0v-43.878906zm0 0" fill="#b6d2e0"/><path d="m241 385v43.878906c-4.75-1.910156-9.859375-2.878906-15-2.878906v-41zm0 0" fill="#aac3ce"/><path d="m188.589844 451c-3.898438 9.359375-4.191406 20.160156-.410156 30h-112.179688c-8.28125 0-15-6.71875-15-15s6.71875-15 15-15zm0 0" fill="#b6d2e0"/><path d="m391 466c0 8.28125-6.71875 15-15 15h-112.179688c3.578126-9.304688 3.707032-20.109375-.410156-30h112.589844c8.28125 0 15 6.71875 15 15zm0 0" fill="#aac3ce"/><path d="m226 512c-25.089844 0-45.5-20.410156-45.5-45.5s20.410156-45.5 45.5-45.5 45.5 20.410156 45.5 45.5-20.410156 45.5-45.5 45.5zm0 0" fill="#66a9df"/><path d="m241 423.539062c-4.699219-1.648437-9.75-2.539062-15-2.539062v91c25.089844 0 45.5-20.410156 45.5-45.5 0-19.839844-12.761719-36.75-30.5-42.960938zm0 0" fill="#4f84cf"/><path d="m395 390h-340c-30.328125 0-55-24.671875-55-55v-280c0-30.328125 24.671875-55 55-55h340c30.328125 0 55 24.671875 55 55v280c0 30.328125-24.671875 55-55 55zm0 0" fill="#d6f3fe"/><path d="m395 0h-169v390h169c30.328125 0 55-24.671875 55-55v-280c0-30.328125-24.671875-55-55-55zm0 0" fill="#bdecfc"/><path d="m450 55c0-30.328125-24.671875-55-55-55h-340c-30.328125 0-55 24.671875-55 55v80h450zm0 0" fill="#66a9df"/><path d="m450 55v80h-224v-135h169c30.328125 0 55 24.671875 55 55zm0 0" fill="#4f84cf"/><path d="m0 255v80c0 30.328125 24.671875 55 55 55h340c30.328125 0 55-24.671875 55-55v-80zm0 0" fill="#66a9df"/><path d="m450 255v80c0 30.328125-24.671875 55-55 55h-169v-135zm0 0" fill="#4f84cf"/><path d="m196 91h-120c-8.285156 0-15-6.714844-15-15s6.714844-15 15-15h120c8.285156 0 15 6.714844 15 15s-6.714844 15-15 15zm0 0" fill="#d6f3fe"/><path d="m196 211h-120c-8.285156 0-15-6.714844-15-15s6.714844-15 15-15h120c8.285156 0 15 6.714844 15 15s-6.714844 15-15 15zm0 0" fill="#66a9df"/><path d="m196 331h-120c-8.285156 0-15-6.714844-15-15s6.714844-15 15-15h120c8.285156 0 15 6.714844 15 15s-6.714844 15-15 15zm0 0" fill="#d6f3fe"/><path d="m392 76c0 8.285156-6.714844 15-15 15s-15-6.714844-15-15 6.714844-15 15-15 15 6.714844 15 15zm0 0" fill="#d8333c"/><path d="m332 76c0 8.285156-6.714844 15-15 15s-15-6.714844-15-15 6.714844-15 15-15 15 6.714844 15 15zm0 0" fill="#eebb2c"/><path d="m392 196c0 8.285156-6.714844 15-15 15s-15-6.714844-15-15 6.714844-15 15-15 15 6.714844 15 15zm0 0" fill="#d8333c"/><path d="m332 196c0 8.285156-6.714844 15-15 15s-15-6.714844-15-15 6.714844-15 15-15 15 6.714844 15 15zm0 0" fill="#eebb2c"/><path d="m392 316c0 8.285156-6.714844 15-15 15s-15-6.714844-15-15 6.714844-15 15-15 15 6.714844 15 15zm0 0" fill="#d8333c"/><path d="m332 316c0 8.285156-6.714844 15-15 15s-15-6.714844-15-15 6.714844-15 15-15 15 6.714844 15 15zm0 0" fill="#eebb2c"/></svg>