<svg height="511pt" viewBox="0 0 511.99971 511" width="511pt" xmlns="http://www.w3.org/2000/svg"><path d="m451.984375 95.460938c-.011719-3.972657-1.589844-7.761719-4.390625-10.570313l-79.996094-80c-2.820312-2.8125-6.628906-4.390625-10.609375-4.390625h-301.992187c-30.375 0-54.996094 24.625-54.996094 55v341c0 30.375 24.621094 55 54.996094 55h342.835937c30.433594 0 55.082031-24.71875 54.996094-55.152344zm0 0" fill="#7280f8"/><path d="m451.984375 95.460938c-.011719-3.972657-1.589844-7.761719-4.390625-10.570313l-79.996094-80c-2.820312-2.8125-6.628906-4.390625-10.609375-4.390625h-130.078125v451h170.925782c30.429687 0 55.078124-24.71875 55-55.148438zm0 0" fill="#434af2"/><path d="m286.988281 180.5h-180.992187c-8.285156 0-15-6.714844-15-15v-165h210.992187v165c0 8.285156-6.714843 15-15 15zm0 0" fill="#d6f3fe"/><path d="m226.910156.5v180h60.078125c8.28125 0 15-6.71875 15-15v-165zm0 0" fill="#bdecfc"/><path d="m361.988281 451.5h-270.992187v-196c0-8.285156 6.714844-15 15-15h240.992187c8.285157 0 15 6.714844 15 15zm0 0" fill="#d6f3fe"/><path d="m346.988281 240.5h-120.078125v211h135.078125v-196c0-8.28125-6.71875-15-15-15zm0 0" fill="#bdecfc"/><path d="m270.992188 330.5h-104c-8.28125 0-14.996094-6.714844-14.996094-15s6.714844-15 14.996094-15h103.996093c8.285157 0 15 6.714844 15 15s-6.714843 15-14.996093 15zm0 0" fill="#7280f8"/><path d="m285.988281 315.5c0 8.28125-6.71875 15-14.996093 15h-44.082032v-30h44.082032c8.277343 0 14.996093 6.71875 14.996093 15zm0 0" fill="#434af2"/><path d="m241.992188 390.5h-74.996094c-8.285156 0-15-6.714844-15-15s6.714844-15 15-15h74.996094c8.285156 0 15 6.714844 15 15s-6.714844 15-15 15zm0 0" fill="#7280f8"/><path d="m256.992188 375.5c0 8.28125-6.722657 15-15 15h-15.082032v-30h15.082032c8.277343 0 15 6.71875 15 15zm0 0" fill="#434af2"/><path d="m226.992188 120.5c-8.285157 0-15-6.714844-15-15v-30c0-8.285156 6.71875-15 15-15s15 6.714844 15 15v30c0 8.285156-6.714844 15-15 15zm0 0" fill="#7280f8"/><path d="m241.992188 75.5v30c0 8.28125-6.71875 15-15 15h-.078126v-60h.078126c8.28125 0 15 6.71875 15 15zm0 0" fill="#434af2"/><path d="m451.984375 510.5h-119.996094c-8.285156 0-15-6.714844-15-15v-105h-30c-12.871093 0-19.746093-15.207031-11.289062-24.878906l104.996093-120c5.980469-6.828125 16.609376-6.820313 22.578126 0l104.996093 120c8.472657 9.683594 1.570313 24.878906-11.289062 24.878906h-30v105c.003906 8.285156-6.710938 15-14.996094 15zm0 0" fill="#7edc87"/><path d="m508.273438 365.621094-104.996094-120c-2.992188-3.410156-7.140625-5.121094-11.292969-5.121094v270h60c8.28125 0 15-6.71875 15-15v-105h29.996094c12.863281 0 19.761719-15.191406 11.292969-24.878906zm0 0" fill="#75cc5b"/></svg>