<svg height="512pt" viewBox="-32 0 512 512" width="512pt" xmlns="http://www.w3.org/2000/svg"><path d="m436.554688 404.683594-137.394532-205.773438v-168.910156h15c8.285156 0 15-6.714844 15-15s-6.714844-15-15-15c-7.144531 0-172.847656 0-180 0-8.285156 0-15 6.714844-15 15s6.714844 15 15 15h15v168.910156l-137.398437 205.773438c-30.664063 45.929687 2.199219 107.316406 57.386719 107.316406h310.023437c55.226563 0 88.027344-61.421875 57.382813-107.316406zm0 0" fill="#d6f3fe"/><path d="m425.417969 494.359375c-.816407.75-1.660157 1.46875-2.519531 2.179687-.859376.710938-1.730469 1.390626-2.628907 2.0625-.449219.328126-.898437.660157-1.359375.976563-.910156.652344-1.839844 1.273437-2.789062 1.871094-3.320313 2.109375-6.863282 3.941406-10.582032 5.460937-1.058593.441406-2.140624.851563-3.238281 1.230469-7.121093 2.488281-14.871093 3.859375-23.132812 3.859375h-155.007813v-512h90c8.28125 0 15 6.71875 15 15s-6.71875 15-15 15h-15v168.910156l77.800782 116.519532 59.597656 89.25c20.421875 30.609374 12.660156 68.089843-11.140625 89.679687zm0 0" fill="#bdecfc"/><path d="m436.558594 404.679688-59.597656-89.25c-88.441407 3.449218-118.269532-19.429688-182.800782-19.429688-67.363281 0-110.800781 22.332031-130.539062 31.011719l-51.863282 77.667969c-30.652343 45.949218 2.203126 107.320312 57.390626 107.320312h310.019531c55.226562 0 88.027343-61.398438 57.390625-107.320312zm0 0" fill="#eebb2c"/><path d="m436.558594 404.679688-59.597656-89.25c-73.601563 2.871093-106.609376-12.488282-152.800782-17.730469v214.300781h155.007813c8.261719 0 16.011719-1.371094 23.132812-3.859375 1.097657-.378906 2.179688-.789063 3.238281-1.230469 3.71875-1.519531 7.261719-3.351562 10.582032-5.460937.949218-.597657 1.878906-1.21875 2.789062-1.871094.460938-.316406.910156-.648437 1.359375-.976563.898438-.671874 1.769531-1.351562 2.628907-2.0625.859374-.710937 1.703124-1.429687 2.519531-2.179687 23.800781-21.589844 31.5625-59.070313 11.140625-89.679687zm0 0" fill="#e79b34"/></svg>