<?xml version="1.0" encoding="iso-8859-1"?>
<!-- Generator: Adobe Illustrator 19.0.0, SVG Export Plug-In . SVG Version: 6.00 Build 0)  -->
<svg version="1.1" id="Capa_1" xmlns="http://www.w3.org/2000/svg" xmlns:xlink="http://www.w3.org/1999/xlink" x="0px" y="0px"
	 viewBox="0 0 512 512" style="enable-background:new 0 0 512 512;" xml:space="preserve">
<path style="fill:#DCE4EC;" d="M256,96.57l-20.016,275.088L512,351.642V192.251C512,192.251,451.464,96.57,256,96.57z"/>
<path style="fill:#F7F7F8;" d="M256,96.57c-195.464,0-256,95.68-256,95.68v159.392l256,20.016V96.57z"/>
<polygon style="fill:#BDC4CB;" points="256,415.43 512,415.43 512,351.642 256,351.642 235.984,383.536 "/>
<rect y="351.638" style="fill:#DCE4EC;" width="255.996" height="63.788"/>
<path style="fill:#009E2A;" d="M256,180.374l-20.016,95.642L256,371.659c52.738,0,95.642-42.905,95.642-95.642
	C351.642,223.278,308.738,180.374,256,180.374z"/>
<path style="fill:#00DC3B;" d="M160.358,276.016c0,52.737,42.905,95.642,95.642,95.642V180.374
	C203.262,180.374,160.358,223.278,160.358,276.016z"/>
<polygon style="fill:#DCE4EC;" points="271,261.016 271,228.176 256,228.176 245.992,276.016 256,323.857 271,323.857 271,291.017 
	303.84,291.017 303.84,261.016 "/>
<polygon style="fill:#F7F7F8;" points="241,228.176 241,261.016 208.16,261.016 208.16,291.017 241,291.017 241,323.857 
	256,323.857 256,228.176 "/>
<g>
</g>
<g>
</g>
<g>
</g>
<g>
</g>
<g>
</g>
<g>
</g>
<g>
</g>
<g>
</g>
<g>
</g>
<g>
</g>
<g>
</g>
<g>
</g>
<g>
</g>
<g>
</g>
<g>
</g>
</svg>
