<?xml version="1.0" encoding="iso-8859-1"?>
<!-- Generator: Adobe Illustrator 19.0.0, SVG Export Plug-In . SVG Version: 6.00 Build 0)  -->
<svg version="1.1" id="Capa_1" xmlns="http://www.w3.org/2000/svg" xmlns:xlink="http://www.w3.org/1999/xlink" x="0px" y="0px"
	 viewBox="0 0 512.001 512.001" style="enable-background:new 0 0 512.001 512.001;" xml:space="preserve">
<path style="fill:#DCE4EC;" d="M409.429,336.042c-16.242-46.321-52.869-83.054-99.121-99.446V15h-74.323v352.58
	C307.001,367.58,409.429,381,409.429,336.042z"/>
<path style="fill:#F7F7F8;" d="M201.694,15v221.596c-38.49,13.642-70.314,41.369-89.272,76.986l0.01,0.021
	c0,43.397,83.569,53.977,143.569,53.977V15H201.694z"/>
<path style="fill:#00B9ED;" d="M409.429,336.042c-44.91-1.799-47.04-22.484-96.026-22.484c-29.698,0-42.175,7.602-57.402,13.99
	l-20.016,90.453L256.001,512h107.207c33.92-29.79,55.336-73.474,55.336-122.167C418.545,370.98,415.333,352.878,409.429,336.042z"/>
<path style="fill:#8AEEFF;" d="M210.977,336.167c-49.885,0-51.176-21.453-98.545-22.564l-0.01-0.021
	c-12.104,22.739-18.965,48.693-18.965,76.252c0,48.692,21.417,92.376,55.336,122.167h107.208V327.548
	C244.969,332.176,232.493,336.167,210.977,336.167z"/>
<polygon style="fill:#BDC4CB;" points="343.148,0 256.001,0 245.993,15 256.001,30 343.148,30 "/>
<rect x="168.851" style="fill:#DCE4EC;" width="87.15" height="30"/>
<g>
</g>
<g>
</g>
<g>
</g>
<g>
</g>
<g>
</g>
<g>
</g>
<g>
</g>
<g>
</g>
<g>
</g>
<g>
</g>
<g>
</g>
<g>
</g>
<g>
</g>
<g>
</g>
<g>
</g>
</svg>
