<?xml version="1.0" encoding="iso-8859-1"?>
<!-- Generator: Adobe Illustrator 19.0.0, SVG Export Plug-In . SVG Version: 6.00 Build 0)  -->
<svg version="1.1" id="Capa_1" xmlns="http://www.w3.org/2000/svg" xmlns:xlink="http://www.w3.org/1999/xlink" x="0px" y="0px"
	 viewBox="0 0 512 512" style="enable-background:new 0 0 512 512;" xml:space="preserve">
<polygon style="fill:#BDC4CB;" points="256,497 335.048,497 335.048,402.385 235.984,382.369 "/>
<polygon style="fill:#DCE4EC;" points="176.952,402.385 176.952,497 256,497 256,382.369 "/>
<polygon style="fill:#404A54;" points="512,0 256,0 235.984,329.526 512,309.51 "/>
<polygon style="fill:#788B9E;" points="0,0 0,309.51 256,329.526 256,0 "/>
<path style="fill:#DCE4EC;" d="M348.838,154.755c0-51.192-41.647-92.838-92.838-92.838l-20.016,92.838L256,247.593
	C307.192,247.593,348.838,205.946,348.838,154.755z"/>
<path style="fill:#F7F7F8;" d="M163.162,154.755c0,51.191,41.647,92.838,92.838,92.838V61.917
	C204.808,61.917,163.162,103.563,163.162,154.755z"/>
<g>
	<polygon style="fill:#DCE4EC;" points="512,309.51 256,309.51 235.984,355.947 256,402.385 512,402.385 	"/>
	<polygon style="fill:#DCE4EC;" points="381.486,512 381.486,482 256,482 245.992,497 256,512 	"/>
</g>
<rect x="130.51" y="482" style="fill:#F7F7F8;" width="125.49" height="30"/>
<polygon style="fill:#FF0019;" points="271,169.755 302.438,169.755 302.438,139.755 271,139.755 271,108.317 256,108.317 
	245.992,154.755 256,201.192 271,201.192 "/>
<polygon style="fill:#FF4E0A;" points="241,108.317 241,139.755 209.562,139.755 209.562,169.755 241,169.755 241,201.192 
	256,201.192 256,108.317 "/>
<rect y="309.51" style="fill:#F7F7F8;" width="256" height="92.87"/>
<g>
</g>
<g>
</g>
<g>
</g>
<g>
</g>
<g>
</g>
<g>
</g>
<g>
</g>
<g>
</g>
<g>
</g>
<g>
</g>
<g>
</g>
<g>
</g>
<g>
</g>
<g>
</g>
<g>
</g>
</svg>
