<?xml version="1.0" encoding="iso-8859-1"?>
<!-- Generator: Adobe Illustrator 19.0.0, SVG Export Plug-In . SVG Version: 6.00 Build 0)  -->
<svg version="1.1" id="Capa_1" xmlns="http://www.w3.org/2000/svg" xmlns:xlink="http://www.w3.org/1999/xlink" x="0px" y="0px"
	 viewBox="0 0 512 512" style="enable-background:new 0 0 512 512;" xml:space="preserve">
<polygon style="fill:#DCE4EC;" points="329.935,176.599 308.673,0 256,0 235.984,196.615 "/>
<polygon style="fill:#F7F7F8;" points="256,0 203.327,0 182.065,176.599 256,196.615 "/>
<polygon style="fill:#BDC4CB;" points="235.984,260.401 361.828,240.385 361.828,176.599 329.935,176.599 256,176.599 "/>
<polygon style="fill:#DCE4EC;" points="256,176.599 182.065,176.599 150.173,176.599 150.173,240.385 256,260.401 "/>
<polygon style="fill:#FF8E00;" points="393.72,240.385 361.828,240.385 256,240.385 235.984,379.673 256,512 393.72,512 "/>
<polygon style="fill:#FFCD00;" points="150.173,240.385 118.28,240.385 118.28,512 256,512 256,240.385 "/>
<g>
</g>
<g>
</g>
<g>
</g>
<g>
</g>
<g>
</g>
<g>
</g>
<g>
</g>
<g>
</g>
<g>
</g>
<g>
</g>
<g>
</g>
<g>
</g>
<g>
</g>
<g>
</g>
<g>
</g>
</svg>
