<?xml version="1.0" encoding="iso-8859-1"?>
<!-- Generator: Adobe Illustrator 19.0.0, SVG Export Plug-In . SVG Version: 6.00 Build 0)  -->
<svg version="1.1" id="Capa_1" xmlns="http://www.w3.org/2000/svg" xmlns:xlink="http://www.w3.org/1999/xlink" x="0px" y="0px"
	 viewBox="0 0 512 512" style="enable-background:new 0 0 512 512;" xml:space="preserve">
<path style="fill:#FFD69B;" d="M355.559,138.202c0-35.228-28.558-63.786-63.786-63.786h-3.88V31.893
	C287.893,14.279,273.614,0,256.001,0l0,0l0,0l-20.016,158.218L355.559,138.202z"/>
<path style="fill:#FFEFD9;" d="M256,0c-17.614,0-31.892,14.279-31.892,31.893v42.523h-3.881c-35.228,0-63.786,28.558-63.786,63.786
	L256,158.218V0z"/>
<polygon style="fill:#F3BE92;" points="355.559,138.202 256,138.202 235.984,222.003 387.451,201.987 387.451,138.202 "/>
<polygon style="fill:#FFD69B;" points="256,138.202 156.442,138.202 124.549,138.202 124.549,201.987 256,222.003 "/>
<polygon style="fill:#00B9ED;" points="256,512 387.451,512 387.451,435.779 377.443,420.78 387.451,405.78 387.451,371.987 
	377.443,356.992 387.451,341.988 387.451,308.207 377.443,293.212 387.451,278.21 387.451,201.987 256,201.987 235.984,356.994 "/>
<g>
	<rect x="298.84" y="278.21" style="fill:#0082AE;" width="88.61" height="30"/>
	<rect x="298.84" y="341.99" style="fill:#0082AE;" width="88.61" height="30"/>
	<rect x="298.84" y="405.78" style="fill:#0082AE;" width="88.61" height="30"/>
</g>
<rect x="124.55" y="201.99" style="fill:#8AEEFF;" width="131.45" height="310.01"/>
<g>
</g>
<g>
</g>
<g>
</g>
<g>
</g>
<g>
</g>
<g>
</g>
<g>
</g>
<g>
</g>
<g>
</g>
<g>
</g>
<g>
</g>
<g>
</g>
<g>
</g>
<g>
</g>
<g>
</g>
</svg>
