<?xml version="1.0" encoding="iso-8859-1"?>
<!-- Generator: Adobe Illustrator 19.0.0, SVG Export Plug-In . SVG Version: 6.00 Build 0)  -->
<svg version="1.1" id="Capa_1" xmlns="http://www.w3.org/2000/svg" xmlns:xlink="http://www.w3.org/1999/xlink" x="0px" y="0px"
	 viewBox="0 0 512 512" style="enable-background:new 0 0 512 512;" xml:space="preserve">
<polygon style="fill:#DCE4EC;" points="396.689,63.785 235.984,43.769 235.984,436.338 351.679,416.322 363.98,319.97 
	354.168,240.053 384.387,160.141 "/>
<polygon style="fill:#F7F7F8;" points="115.311,63.785 160.321,416.322 256,416.322 256,63.785 "/>
<polygon style="fill:#BDC4CB;" points="363.98,319.97 384.387,160.141 256,160.141 235.984,242.996 256,319.97 "/>
<rect x="224.11" y="160.14" style="fill:#DCE4EC;" width="31.893" height="159.83"/>
<polygon style="fill:#BDC4CB;" points="404.833,0 256,0 235.984,34.718 256,63.785 396.689,63.785 "/>
<polygon style="fill:#DCE4EC;" points="107.167,0 115.311,63.785 256,63.785 256,0 "/>
<polygon style="fill:#009E2A;" points="287.892,416.322 267.876,465.711 287.892,512 351.678,512 351.679,416.322 "/>
<polygon style="fill:#00DC3B;" points="287.892,512 287.892,416.322 256,416.322 235.984,464.161 256,512 "/>
<polygon style="fill:#009E2A;" points="224.107,512 256,512 256,416.322 224.107,416.322 204.091,465.711 "/>
<rect x="160.32" y="416.32" style="fill:#00DC3B;" width="63.785" height="95.68"/>
<g>
</g>
<g>
</g>
<g>
</g>
<g>
</g>
<g>
</g>
<g>
</g>
<g>
</g>
<g>
</g>
<g>
</g>
<g>
</g>
<g>
</g>
<g>
</g>
<g>
</g>
<g>
</g>
<g>
</g>
</svg>
