<?xml version="1.0" encoding="iso-8859-1"?>
<!-- Generator: Adobe Illustrator 19.0.0, SVG Export Plug-In . SVG Version: 6.00 Build 0)  -->
<svg version="1.1" id="Capa_1" xmlns="http://www.w3.org/2000/svg" xmlns:xlink="http://www.w3.org/1999/xlink" x="0px" y="0px"
	 viewBox="0 0 512.004 512.004" style="enable-background:new 0 0 512.004 512.004;" xml:space="preserve">
<polygon style="fill:#DCE4EC;" points="91.859,400.131 177.454,465.711 384.08,259.085 395.653,162.644 465.713,92.585 
	442.567,49.423 "/>
<polygon style="fill:#F7F7F8;" points="419.422,46.293 349.362,116.353 252.922,127.926 46.295,334.552 101.867,410.139 
	452.575,59.431 "/>
<polygon style="fill:#BDC4CB;" points="512.004,46.293 488.858,23.148 455.705,36.285 442.567,69.439 465.713,92.585 "/>
<rect x="421.398" y="18.356" transform="matrix(-0.7071 0.7071 -0.7071 -0.7071 799.8049 -261.8456)" style="fill:#DCE4EC;" width="65.469" height="32.733"/>
<polygon style="fill:#00B9ED;" points="131.163,512.002 177.454,465.711 111.875,400.131 78.996,412.994 65.583,446.423 "/>
<rect x="9.566" y="357.754" transform="matrix(0.7071 0.7071 -0.7071 0.7071 292.5003 74.8194)" style="fill:#8AEEFF;" width="92.739" height="65.469"/>
<g>
	<polygon style="fill:#BDC4CB;" points="225.313,307.906 271.604,261.615 260.997,251.009 229.176,268.819 214.706,297.3 	"/>
	<polygon style="fill:#BDC4CB;" points="179.022,354.197 202.167,331.052 191.561,320.445 173.463,325.533 168.415,343.591 	"/>
</g>
<g>
	
		<rect x="167.189" y="310.348" transform="matrix(0.7071 0.7071 -0.7071 0.7071 282.1871 -27.8315)" style="fill:#DCE4EC;" width="15" height="32.733"/>
	
		<rect x="225.053" y="236.121" transform="matrix(0.7071 0.7071 -0.7071 0.7071 258.2224 -85.6936)" style="fill:#DCE4EC;" width="15" height="65.469"/>
</g>
<g>
</g>
<g>
</g>
<g>
</g>
<g>
</g>
<g>
</g>
<g>
</g>
<g>
</g>
<g>
</g>
<g>
</g>
<g>
</g>
<g>
</g>
<g>
</g>
<g>
</g>
<g>
</g>
<g>
</g>
</svg>
