<?xml version="1.0" encoding="iso-8859-1"?>
<!-- Generator: Adobe Illustrator 19.0.0, SVG Export Plug-In . SVG Version: 6.00 Build 0)  -->
<svg version="1.1" id="Capa_1" xmlns="http://www.w3.org/2000/svg" xmlns:xlink="http://www.w3.org/1999/xlink" x="0px" y="0px"
	 viewBox="0 0 512 512" style="enable-background:new 0 0 512 512;" xml:space="preserve">
<rect x="235.98" y="60.23" style="fill:#788B9E;" width="52.5" height="129.93"/>
<g>
	<rect x="223.52" y="60.23" style="fill:#BDC4CB;" width="32.483" height="129.93"/>
	<polygon style="fill:#BDC4CB;" points="426.319,157.68 256,157.68 235.984,313 256,484.25 512,484.25 	"/>
</g>
<g>
	<polygon style="fill:#DCE4EC;" points="85.681,157.68 0,484.25 256,484.25 256,157.68 	"/>
	<path style="fill:#DCE4EC;" d="M256,222.592L245.992,409.33c5.099,0,20.116,9.618,25.008,8.867
		c47.15-7.244,83.375-48.087,83.375-97.232C354.375,266.721,310.244,222.592,256,222.592z"/>
</g>
<path style="fill:#F7F7F8;" d="M157.625,320.964c0,49.145,36.225,89.989,83.375,97.232c4.892,0.751,9.901-8.867,15-8.867V222.592
	C201.756,222.592,157.625,266.721,157.625,320.964z"/>
<path style="fill:#DCE4EC;" d="M256,27.75l-20.016,32.481L256,92.714h151.411c35.879,0,64.964-29.086,64.964-64.965l0,0L256,27.75
	L256,27.75z"/>
<path style="fill:#F7F7F8;" d="M39.624,27.75L39.624,27.75c0,35.879,29.086,64.965,64.964,64.965H256V27.75H39.624z"/>
<path style="fill:#788B9E;" d="M271,418.197v-97.231h-15v98.373C261.099,419.339,266.108,418.947,271,418.197z"/>
<path style="fill:#BDC4CB;" d="M241,418.197c4.892,0.752,9.901,1.142,15,1.142v-98.373h-15V418.197z"/>
<g>
</g>
<g>
</g>
<g>
</g>
<g>
</g>
<g>
</g>
<g>
</g>
<g>
</g>
<g>
</g>
<g>
</g>
<g>
</g>
<g>
</g>
<g>
</g>
<g>
</g>
<g>
</g>
<g>
</g>
</svg>
