<?xml version="1.0" encoding="iso-8859-1"?>
<!-- Generator: Adobe Illustrator 19.0.0, SVG Export Plug-In . SVG Version: 6.00 Build 0)  -->
<svg version="1.1" id="Capa_1" xmlns="http://www.w3.org/2000/svg" xmlns:xlink="http://www.w3.org/1999/xlink" x="0px" y="0px"
	 viewBox="0 0 512 512" style="enable-background:new 0 0 512 512;" xml:space="preserve">
<path style="fill:#009E2A;" d="M313.167,311.206c85.947,0,155.841-70.042,155.602-156.043C468.53,69.151,397.672,0,311.661,0
	H209.259l-20.017,30.936l20.017,30.936h103.909c51.99,0,94.229,42.549,93.725,94.653c-0.5,51.6-43.317,92.805-94.92,92.805H209.259
	v61.873h103.908V311.206z"/>
<polygon style="fill:#BDC4CB;" points="311.34,481.999 224.259,481.999 224.259,435.05 199.25,425.042 209.259,512 311.34,512 "/>
<polygon style="fill:#DCE4EC;" points="194.258,435.05 194.258,481.999 107.177,481.999 107.177,512 209.259,512 209.259,425.042 
	"/>
<path style="fill:#00DC3B;" d="M169.076,0c-17.086,0-30.936,13.851-30.936,30.936l0,0c0,17.086,13.851,30.936,30.936,30.936h40.183
	V0H169.076z"/>
<polygon style="fill:#BDC4CB;" points="224.259,194.985 199.25,194.985 199.25,383.186 224.259,373.177 "/>
<path style="fill:#009E2A;" d="M301.944,435.051c34.172,0,61.873-27.701,61.873-61.873l0,0H209.259l-20.017,30.936l20.017,30.936
	H301.944z"/>
<polygon style="fill:#DCE4EC;" points="194.258,194.985 194.258,249.333 184.25,279.925 194.258,311.206 194.258,373.177 
	209.259,383.186 209.259,194.985 "/>
<path style="fill:#00DC3B;" d="M105.119,341.253c0.5-16.853,14.771-30.047,31.631-30.047h57.507v-61.873H136.09
	c-51.508,0-93.355,42.155-92.855,93.776c0.496,51.12,42.916,91.942,94.039,91.942h71.983v-61.873H136.09
	C118.693,373.177,104.599,358.766,105.119,341.253z"/>
<path style="fill:#DCE4EC;" d="M209.259,93.745l-20.017,58.571l20.017,66.157l0,0c56.378,0,102.081-45.703,102.081-102.081V93.745
	H209.259z"/>
<path style="fill:#F7F7F8;" d="M107.177,93.745v22.647c0,56.378,45.703,102.081,102.081,102.081l0,0V93.745H107.177z"/>
<g>
</g>
<g>
</g>
<g>
</g>
<g>
</g>
<g>
</g>
<g>
</g>
<g>
</g>
<g>
</g>
<g>
</g>
<g>
</g>
<g>
</g>
<g>
</g>
<g>
</g>
<g>
</g>
<g>
</g>
</svg>
