<?xml version="1.0" encoding="iso-8859-1"?>
<!-- Generator: Adobe Illustrator 19.0.0, SVG Export Plug-In . SVG Version: 6.00 Build 0)  -->
<svg version="1.1" id="Capa_1" xmlns="http://www.w3.org/2000/svg" xmlns:xlink="http://www.w3.org/1999/xlink" x="0px" y="0px"
	 viewBox="0 0 512 512" style="enable-background:new 0 0 512 512;" xml:space="preserve">
<polygon style="fill:#DCE4EC;" points="512,346.349 339.134,281.4 235.984,281.4 256,512 512,512 "/>
<polygon style="fill:#F7F7F8;" points="172.867,281.4 0,346.349 0,512 256,512 256,281.4 "/>
<path style="fill:#FFD69B;" d="M375.971,122.888c-16.946-29.623-83.172-59.803-141.127-61.268L256,346.333l0,0
	c66.258,0,119.97-53.712,119.97-119.97L375.971,122.888L375.971,122.888z"/>
<path style="fill:#FFEFD9;" d="M137.993,98.314L137.993,98.314c-1.287,7.026-1.964,14.263-1.964,21.656v106.393
	c0,66.258,53.713,119.97,119.97,119.97l0,0V61.619C220.357,60.718,179.845,70.67,137.993,98.314z"/>
<path style="fill:#FF8E00;" d="M256,0l-21.157,44.745L256,115.078c15.799-6.028,30.04-15.212,41.947-26.787
	c20.438,19.868,47.746,32.706,78.024,34.597l0,0v-2.918C375.971,53.819,322.152,0,256,0z"/>
<path style="fill:#FFCD00;" d="M137.992,98.314L137.992,98.314c20.625,15.578,46.305,24.816,74.143,24.816
	c15.454,0,30.239-2.853,43.865-8.052V0C197.24,0,148.216,42.464,137.992,98.314z"/>
<g>
</g>
<g>
</g>
<g>
</g>
<g>
</g>
<g>
</g>
<g>
</g>
<g>
</g>
<g>
</g>
<g>
</g>
<g>
</g>
<g>
</g>
<g>
</g>
<g>
</g>
<g>
</g>
<g>
</g>
</svg>
