<?xml version="1.0" encoding="iso-8859-1"?>
<!-- Generator: Adobe Illustrator 19.0.0, SVG Export Plug-In . SVG Version: 6.00 Build 0)  -->
<svg version="1.1" id="Capa_1" xmlns="http://www.w3.org/2000/svg" xmlns:xlink="http://www.w3.org/1999/xlink" x="0px" y="0px"
	 viewBox="0 0 512 512" style="enable-background:new 0 0 512 512;" xml:space="preserve">
<path style="fill:#FF8E00;" d="M417.538,161.537C417.538,72.466,345.072,0,256,0l0,0l-20.016,329.27h181.554V161.537z"/>
<path style="fill:#FFCD00;" d="M94.462,161.537V329.27H256V0C166.928,0,94.462,72.466,94.462,161.537z"/>
<polygon style="fill:#DCE4EC;" points="512,364.761 339.134,299.812 235.984,299.812 256,512 512,512 "/>
<polygon style="fill:#F7F7F8;" points="172.867,299.812 0,364.761 0,512 256,512 256,299.812 "/>
<path style="fill:#FFD69B;" d="M351.674,141.174c-5.876,1.071-11.929,1.635-18.114,1.635c-31.248,0-59.159-14.286-77.56-36.682l0,0
	L235.984,219L256,346.075l0,0c54.015,0,97.803-43.788,97.803-97.803v-86.734C353.803,154.554,353.066,147.743,351.674,141.174z"/>
<path style="fill:#FFEFD9;" d="M178.44,142.809c-6.185,0-12.238-0.563-18.114-1.635c-1.391,6.569-2.129,13.38-2.129,20.364v86.734
	c0,54.015,43.788,97.803,97.803,97.803V106.127C237.598,128.522,209.688,142.809,178.44,142.809z"/>
<g>
</g>
<g>
</g>
<g>
</g>
<g>
</g>
<g>
</g>
<g>
</g>
<g>
</g>
<g>
</g>
<g>
</g>
<g>
</g>
<g>
</g>
<g>
</g>
<g>
</g>
<g>
</g>
<g>
</g>
</svg>
