<?xml version="1.0" encoding="iso-8859-1"?>
<!-- Generator: Adobe Illustrator 19.0.0, SVG Export Plug-In . SVG Version: 6.00 Build 0)  -->
<svg version="1.1" id="Capa_1" xmlns="http://www.w3.org/2000/svg" xmlns:xlink="http://www.w3.org/1999/xlink" x="0px" y="0px"
	 viewBox="0 0 512 512" style="enable-background:new 0 0 512 512;" xml:space="preserve">
<polygon style="fill:#BDC4CB;" points="135.108,15 85.068,15 105.084,97.788 135.108,97.788 "/>
<g>
	<rect x="75.06" y="15" style="fill:#DCE4EC;" width="30.02" height="82.79"/>
	<polygon style="fill:#DCE4EC;" points="210.168,0 105.084,0 95.076,15 105.084,30 210.168,30 	"/>
</g>
<rect style="fill:#F7F7F8;" width="105.08" height="30"/>
<polygon style="fill:#DCE4EC;" points="165.132,315.24 165.132,270.192 155.124,255.192 165.132,240.192 165.132,210.144 
	155.124,195.144 165.132,180.144 165.132,150.096 155.124,135.096 165.132,120.096 165.132,75.048 105.084,75.048 85.068,335.256 
	"/>
<g>
	<rect x="85.07" y="120.1" style="fill:#BDC4CB;" width="80.06" height="30"/>
	<rect x="85.07" y="180.14" style="fill:#BDC4CB;" width="80.06" height="30"/>
	<rect x="85.07" y="240.19" style="fill:#BDC4CB;" width="80.06" height="30"/>
	<polygon style="fill:#BDC4CB;" points="120.084,512 120.084,375.288 95.076,365.28 105.084,512 	"/>
</g>
<polygon style="fill:#DCE4EC;" points="90.084,512 105.084,512 105.084,365.28 90.084,375.288 "/>
<polygon style="fill:#F7F7F8;" points="45.036,315.24 105.084,335.256 105.084,75.048 45.036,75.048 "/>
<path style="fill:#DCE4EC;" d="M356.074,140.1l20.016,136.602c44.052,0,135.91,7.458,135.91-30.031v-86.555L356.074,140.1z"/>
<path style="fill:#F7F7F8;" d="M376.09,276.702V140.1l-135.91,20.016v66.555C240.18,276.702,332.568,276.702,376.09,276.702z"/>
<path style="fill:#BDC4CB;" d="M376.09,236.67L356.074,327l20.016,114.957H512V246.671c-45.304,0-45.304-20-90.608-20
	C398.741,226.671,387.415,231.67,376.09,236.67z"/>
<path style="fill:#DCE4EC;" d="M330.784,246.671c-45.302,0-45.302-20-90.604-20v215.285h135.91V236.67
	C364.763,241.67,353.437,246.671,330.784,246.671z"/>
<polygon style="fill:#FF0019;" points="512,70.044 444.045,70.044 424.029,115.08 444.045,160.116 512,160.116 "/>
<polygon style="fill:#FF4E0A;" points="376.09,70.044 356.074,115.08 376.09,160.116 444.045,160.116 444.045,70.044 "/>
<polygon style="fill:#FF0019;" points="308.135,70.044 288.119,115.08 308.135,160.116 376.09,160.116 376.09,70.044 "/>
<rect x="240.18" y="70.04" style="fill:#FF4E0A;" width="67.955" height="90.07"/>
<polygon style="fill:#FF0019;" points="105.084,375.288 165.132,375.288 165.132,315.24 105.084,315.24 85.068,345.264 "/>
<rect x="45.04" y="315.24" style="fill:#FF4E0A;" width="60.05" height="60.05"/>
<g>
</g>
<g>
</g>
<g>
</g>
<g>
</g>
<g>
</g>
<g>
</g>
<g>
</g>
<g>
</g>
<g>
</g>
<g>
</g>
<g>
</g>
<g>
</g>
<g>
</g>
<g>
</g>
<g>
</g>
</svg>
