<?xml version="1.0" encoding="iso-8859-1"?>
<!-- Generator: Adobe Illustrator 19.0.0, SVG Export Plug-In . SVG Version: 6.00 Build 0)  -->
<svg version="1.1" id="Capa_1" xmlns="http://www.w3.org/2000/svg" xmlns:xlink="http://www.w3.org/1999/xlink" x="0px" y="0px"
	 viewBox="0 0 512 512" style="enable-background:new 0 0 512 512;" xml:space="preserve">
<polygon style="fill:#00B9ED;" points="60.024,468.988 30.024,468.988 30.024,423.952 60.024,413.944 "/>
<polygon style="fill:#0082AE;" points="481.976,468.988 451.976,468.988 451.976,413.944 481.976,423.952 "/>
<polygon style="fill:#00B9ED;" points="481.976,243.808 346.353,243.808 235.984,243.808 256,423.952 481.976,423.952 "/>
<path style="fill:#DCE4EC;" d="M346.353,243.808v-32.433c0-40.702-26.914-75.119-63.916-86.424L256,125.018l-20.016,118.79H346.353z
	"/>
<path style="fill:#F7F7F8;" d="M256,125.018l-26.868,0.067c-36.78,11.44-63.485,45.746-63.485,86.291v32.433H256V125.018z"/>
<polygon style="fill:#8AEEFF;" points="165.647,243.808 30.024,243.808 30.024,423.952 256,423.952 256,243.808 "/>
<path style="fill:#FFEFD9;" d="M206.229,92.783c0,27.488,22.283,49.771,49.771,49.771V43.012
	C228.512,43.012,206.229,65.295,206.229,92.783z"/>
<path style="fill:#FFD69B;" d="M305.771,92.783c0-27.488-22.283-49.771-49.771-49.771v99.543
	C283.488,142.555,305.771,120.271,305.771,92.783z"/>
<polygon style="fill:#FF0019;" points="271,378.916 271,348.88 301.036,348.88 301.036,318.88 271,318.88 271,288.844 256,288.844 
	245.992,333.88 256,378.916 "/>
<polygon style="fill:#FF4E0A;" points="241,318.88 210.964,318.88 210.964,348.88 241,348.88 241,378.916 256,378.916 256,288.844 
	241,288.844 "/>
<polygon style="fill:#0082AE;" points="512,228.807 256,228.807 245.992,243.807 256,258.807 512,258.807 "/>
<rect y="228.81" style="fill:#00B9ED;" width="256" height="30"/>
<g>
</g>
<g>
</g>
<g>
</g>
<g>
</g>
<g>
</g>
<g>
</g>
<g>
</g>
<g>
</g>
<g>
</g>
<g>
</g>
<g>
</g>
<g>
</g>
<g>
</g>
<g>
</g>
<g>
</g>
</svg>
