<?xml version="1.0" encoding="iso-8859-1"?>
<!-- Generator: Adobe Illustrator 19.0.0, SVG Export Plug-In . SVG Version: 6.00 Build 0)  -->
<svg version="1.1" id="Capa_1" xmlns="http://www.w3.org/2000/svg" xmlns:xlink="http://www.w3.org/1999/xlink" x="0px" y="0px"
	 viewBox="0 0 512 512" style="enable-background:new 0 0 512 512;" xml:space="preserve">
<polygon style="fill:#FFD69B;" points="466.821,0 255.999,0 235.983,277.885 255.999,512 466.821,512 "/>
<rect x="45.179" style="fill:#FFEFD9;" width="210.82" height="512"/>
<polygon style="fill:#FF4E0A;" points="125.855,143.518 155.855,143.518 155.855,110.678 188.695,110.678 188.695,80.678 
	155.855,80.678 155.855,47.839 125.855,47.839 125.855,80.678 93.017,80.678 93.017,110.678 125.855,110.678 "/>
<g>
	<polygon style="fill:#A96458;" points="335.191,461.498 335.191,431.498 255.999,431.498 245.991,446.498 255.999,461.498 	"/>
	<polygon style="fill:#A96458;" points="418.981,80.678 255.999,80.678 245.991,95.678 255.999,110.678 418.981,110.678 	"/>
	<polygon style="fill:#A96458;" points="418.981,206.356 418.981,176.356 255.999,176.356 245.991,191.356 255.999,206.356 	"/>
	<polygon style="fill:#A96458;" points="418.981,270.142 418.981,240.142 255.999,240.142 245.991,255.142 255.999,270.142 	"/>
	<polygon style="fill:#A96458;" points="418.981,333.927 418.981,303.927 255.999,303.927 245.991,318.927 255.999,333.927 	"/>
	<polygon style="fill:#A96458;" points="418.981,397.712 418.981,367.712 255.999,367.712 245.991,382.712 255.999,397.712 	"/>
</g>
<g>
	<rect x="220.589" y="80.68" style="fill:#F3BE92;" width="35.412" height="30"/>
	<rect x="93.019" y="176.36" style="fill:#F3BE92;" width="162.98" height="30"/>
	<rect x="93.019" y="240.14" style="fill:#F3BE92;" width="162.98" height="30"/>
	<rect x="93.019" y="303.93" style="fill:#F3BE92;" width="162.98" height="30"/>
	<rect x="93.019" y="367.71" style="fill:#F3BE92;" width="162.98" height="30"/>
	<rect x="176.809" y="431.5" style="fill:#F3BE92;" width="79.19" height="30"/>
</g>
<g>
</g>
<g>
</g>
<g>
</g>
<g>
</g>
<g>
</g>
<g>
</g>
<g>
</g>
<g>
</g>
<g>
</g>
<g>
</g>
<g>
</g>
<g>
</g>
<g>
</g>
<g>
</g>
<g>
</g>
</svg>
