<?xml version="1.0" encoding="iso-8859-1"?>
<!-- Generator: Adobe Illustrator 19.0.0, SVG Export Plug-In . SVG Version: 6.00 Build 0)  -->
<svg version="1.1" id="Capa_1" xmlns="http://www.w3.org/2000/svg" xmlns:xlink="http://www.w3.org/1999/xlink" x="0px" y="0px"
	 viewBox="0 0 512 512" style="enable-background:new 0 0 512 512;" xml:space="preserve">
<polygon style="fill:#DCE4EC;" points="256,512 451.237,512 451.237,431.392 235.984,411.376 "/>
<polygon style="fill:#F7F7F8;" points="60.763,431.392 60.763,512 256,512 256,411.376 "/>
<polygon style="fill:#009E2A;" points="256,431.392 451.237,431.392 451.237,208.178 235.984,188.162 "/>
<polygon style="fill:#00DC3B;" points="256,188.162 60.763,208.178 60.763,431.392 256,431.392 "/>
<polygon style="fill:#BDC4CB;" points="235.984,43.769 235.984,147.587 408.713,127.571 408.713,63.785 "/>
<polygon style="fill:#DCE4EC;" points="256,43.769 103.287,63.785 103.287,127.571 256,147.587 "/>
<polygon style="fill:#009E2A;" points="408.713,63.785 451.237,63.785 451.237,0 256,0 235.984,31.893 256,63.785 "/>
<polygon style="fill:#00DC3B;" points="256,0 60.763,0 60.763,63.785 103.287,63.785 256,63.785 "/>
<polygon style="fill:#DCE4EC;" points="256,208.178 451.237,208.178 451.237,127.571 408.713,127.571 256,127.571 235.984,167.875 
	"/>
<polygon style="fill:#F7F7F8;" points="256,127.571 103.287,127.571 60.763,127.571 60.763,208.178 256,208.178 "/>
<polygon style="fill:#DCE4EC;" points="271,304.785 271,256.018 256,256.018 245.992,319.786 256,383.554 271,383.554 271,334.785 
	319.768,334.785 319.768,304.785 "/>
<polygon style="fill:#F7F7F8;" points="241,256.018 241,304.785 192.232,304.785 192.232,334.785 241,334.785 241,383.554 
	256,383.554 256,256.018 "/>
<g>
</g>
<g>
</g>
<g>
</g>
<g>
</g>
<g>
</g>
<g>
</g>
<g>
</g>
<g>
</g>
<g>
</g>
<g>
</g>
<g>
</g>
<g>
</g>
<g>
</g>
<g>
</g>
<g>
</g>
</svg>
