<?xml version="1.0" encoding="iso-8859-1"?>
<!-- Generator: Adobe Illustrator 19.0.0, SVG Export Plug-In . SVG Version: 6.00 Build 0)  -->
<svg version="1.1" id="Capa_1" xmlns="http://www.w3.org/2000/svg" xmlns:xlink="http://www.w3.org/1999/xlink" x="0px" y="0px"
	 viewBox="0 0 512.003 512.003" style="enable-background:new 0 0 512.003 512.003;" xml:space="preserve">
<polygon style="fill:#FFD69B;" points="445.892,31.893 256,31.893 235.984,271.946 256,512 445.892,512 "/>
<rect x="66.11" y="31.893" style="fill:#FFEFD9;" width="189.89" height="480.11"/>
<polygon style="fill:#BDC4CB;" points="382.107,0 256,0 235.984,31.893 256,63.785 382.107,63.785 "/>
<rect x="129.891" style="fill:#DCE4EC;" width="126.11" height="63.785"/>
<g>
	<polygon style="fill:#A96458;" points="398.053,144.464 256,144.464 245.992,159.464 256,174.464 398.053,174.464 	"/>
	<polygon style="fill:#A96458;" points="398.053,218.88 256,218.88 245.992,233.88 256,248.88 398.053,248.88 	"/>
	<polygon style="fill:#A96458;" points="398.053,293.296 256,293.296 245.992,308.296 256,323.296 398.053,323.296 	"/>
	<polygon style="fill:#A96458;" points="398.053,367.712 256,367.712 245.992,382.712 256,397.712 398.053,397.712 	"/>
</g>
<g>
	<rect x="113.95" y="144.46" style="fill:#F3BE92;" width="31.893" height="30"/>
	<rect x="113.95" y="218.88" style="fill:#F3BE92;" width="31.893" height="30"/>
	<rect x="113.95" y="293.3" style="fill:#F3BE92;" width="31.893" height="30"/>
	<rect x="113.95" y="367.71" style="fill:#F3BE92;" width="31.893" height="30"/>
	<rect x="177.73" y="144.46" style="fill:#F3BE92;" width="78.27" height="30"/>
	<rect x="177.73" y="218.88" style="fill:#F3BE92;" width="78.27" height="30"/>
	<rect x="177.73" y="293.3" style="fill:#F3BE92;" width="78.27" height="30"/>
	<rect x="177.73" y="367.71" style="fill:#F3BE92;" width="78.27" height="30"/>
</g>
<g>
</g>
<g>
</g>
<g>
</g>
<g>
</g>
<g>
</g>
<g>
</g>
<g>
</g>
<g>
</g>
<g>
</g>
<g>
</g>
<g>
</g>
<g>
</g>
<g>
</g>
<g>
</g>
<g>
</g>
</svg>
