<?xml version="1.0" encoding="iso-8859-1"?>
<!-- Generator: Adobe Illustrator 19.0.0, SVG Export Plug-In . SVG Version: 6.00 Build 0)  -->
<svg version="1.1" id="Capa_1" xmlns="http://www.w3.org/2000/svg" xmlns:xlink="http://www.w3.org/1999/xlink" x="0px" y="0px"
	 viewBox="0 0 512 512" style="enable-background:new 0 0 512 512;" xml:space="preserve">
<path style="fill:#F7F7F8;" d="M501.394,10.606L490.787,0l-66.021,66.021h-92.269l-43.053,43.053l-0.154,20.171l-21.06,1.043
	l-22.558,22.558l-0.483,20.5l-20.731,0.714l-22.558,22.558l-1.079,21.096l-20.135,0.118l-22.558,22.558l-0.339,20.356l-20.875,0.858
	l-22.558,22.558l-0.4,20.417l-20.813,0.797l-22.558,22.558l-1.531,21.548l-19.682-0.335l-25.871,25.869
	c-31.337,31.337-31.337,82.146,0,113.483l0,0L268.65,284.58L501.394,10.606z"/>
<g>
	
		<rect x="46.151" y="356.905" transform="matrix(-0.7071 -0.7071 0.7071 -0.7071 -103.6232 700.889)" style="fill:#BDC4CB;" width="94.393" height="30.001"/>
	
		<rect x="89.922" y="313.135" transform="matrix(-0.7071 -0.7071 0.7071 -0.7071 2.0493 657.1187)" style="fill:#BDC4CB;" width="94.393" height="30.001"/>
	
		<rect x="133.702" y="269.367" transform="matrix(-0.7071 -0.7071 0.7071 -0.7071 107.7425 613.3641)" style="fill:#BDC4CB;" width="94.403" height="30.001"/>
	
		<rect x="177.464" y="225.593" transform="matrix(-0.7071 -0.7071 0.7071 -0.7071 213.3944 569.5782)" style="fill:#BDC4CB;" width="94.393" height="30.001"/>
	
		<rect x="221.236" y="181.822" transform="matrix(-0.7071 -0.7071 0.7071 -0.7071 319.0677 525.8063)" style="fill:#BDC4CB;" width="94.393" height="30.001"/>
	
		<rect x="265.015" y="138.054" transform="matrix(-0.7071 -0.7071 0.7071 -0.7071 424.7615 482.0499)" style="fill:#BDC4CB;" width="94.403" height="30.001"/>
</g>
<path style="fill:#DCE4EC;" d="M512,21.214l-10.606-10.606L23.503,488.497l0,0c31.337,31.337,82.146,31.337,113.483,0
	L445.98,179.504V87.234L512,21.214z"/>
<g>
</g>
<g>
</g>
<g>
</g>
<g>
</g>
<g>
</g>
<g>
</g>
<g>
</g>
<g>
</g>
<g>
</g>
<g>
</g>
<g>
</g>
<g>
</g>
<g>
</g>
<g>
</g>
<g>
</g>
</svg>
