<?xml version="1.0" encoding="iso-8859-1"?>
<!-- Generator: Adobe Illustrator 19.0.0, SVG Export Plug-In . SVG Version: 6.00 Build 0)  -->
<svg version="1.1" id="Capa_1" xmlns="http://www.w3.org/2000/svg" xmlns:xlink="http://www.w3.org/1999/xlink" x="0px" y="0px"
	 viewBox="0 0 512 512" style="enable-background:new 0 0 512 512;" xml:space="preserve">
<polygon style="fill:#DCE4EC;" points="256,512 406.705,512 406.705,416.322 235.984,396.306 "/>
<polygon style="fill:#F7F7F8;" points="105.295,416.322 105.295,512 256,512 256,396.306 "/>
<polygon style="fill:#BDC4CB;" points="256,416.322 406.705,416.322 406.705,255.142 235.984,235.126 "/>
<g>
	<polygon style="fill:#DCE4EC;" points="256,235.126 105.295,255.142 105.295,416.322 256,416.322 	"/>
	<polygon style="fill:#DCE4EC;" points="331.394,159.464 331.394,95.678 235.984,75.662 256,255.142 406.705,255.142 
		406.705,159.464 	"/>
</g>
<polygon style="fill:#F7F7F8;" points="256,75.662 180.606,95.678 180.606,159.464 105.295,159.464 105.295,255.142 256,255.142 "/>
<polygon style="fill:#FF0019;" points="331.394,95.678 363.286,95.678 363.286,0 256,0 235.984,47.839 256,95.678 "/>
<polygon style="fill:#FF4E0A;" points="256,0 148.714,0 148.714,95.678 180.606,95.678 256,95.678 "/>
<g>
</g>
<g>
</g>
<g>
</g>
<g>
</g>
<g>
</g>
<g>
</g>
<g>
</g>
<g>
</g>
<g>
</g>
<g>
</g>
<g>
</g>
<g>
</g>
<g>
</g>
<g>
</g>
<g>
</g>
</svg>
