<?xml version="1.0" encoding="iso-8859-1"?>
<!-- Generator: Adobe Illustrator 19.0.0, SVG Export Plug-In . SVG Version: 6.00 Build 0)  -->
<svg version="1.1" id="Capa_1" xmlns="http://www.w3.org/2000/svg" xmlns:xlink="http://www.w3.org/1999/xlink" x="0px" y="0px"
	 viewBox="0 0 512 512" style="enable-background:new 0 0 512 512;" xml:space="preserve">
<polygon style="fill:#404A54;" points="345.357,122.803 345.357,34.01 256,34.01 245.992,48.828 256,64.01 315.357,64.01 
	315.357,122.803 "/>
<polygon style="fill:#788B9E;" points="166.643,34.01 166.643,122.803 196.643,122.803 196.643,64.01 256,64.01 256,34.01 "/>
<polygon style="fill:#0082AE;" points="512,102.787 256,102.787 235.984,290.389 256,477.99 512,477.99 "/>
<path style="fill:#DCE4EC;" d="M256,166.521l-20.016,123.867L256,414.256c68.3,0,123.867-55.567,123.867-123.868
	C379.867,222.088,324.3,166.521,256,166.521z"/>
<rect y="102.79" style="fill:#00B9ED;" width="256" height="375.2"/>
<path style="fill:#F7F7F8;" d="M132.133,290.388c0,68.301,55.567,123.868,123.867,123.868V166.521
	C187.7,166.521,132.133,222.088,132.133,290.388z"/>
<polygon style="fill:#FF0019;" points="271,356.248 271,305.388 321.859,305.388 321.859,275.388 271,275.388 271,224.53 
	256,224.53 245.992,290.389 256,356.248 "/>
<polygon style="fill:#FF4E0A;" points="241,275.388 190.141,275.388 190.141,305.388 241,305.388 241,356.248 256,356.248 
	256,224.53 241,224.53 "/>
<g>
</g>
<g>
</g>
<g>
</g>
<g>
</g>
<g>
</g>
<g>
</g>
<g>
</g>
<g>
</g>
<g>
</g>
<g>
</g>
<g>
</g>
<g>
</g>
<g>
</g>
<g>
</g>
<g>
</g>
</svg>
