<?xml version="1.0" encoding="iso-8859-1"?>
<!-- Generator: Adobe Illustrator 19.0.0, SVG Export Plug-In . SVG Version: 6.00 Build 0)  -->
<svg version="1.1" id="Capa_1" xmlns="http://www.w3.org/2000/svg" xmlns:xlink="http://www.w3.org/1999/xlink" x="0px" y="0px"
	 viewBox="0 0 512 512" style="enable-background:new 0 0 512 512;" xml:space="preserve">
<polygon style="fill:#DCE4EC;" points="375.5,0 256,0 235.984,245 256,512 375.5,512 "/>
<rect x="136.5" style="fill:#F7F7F8;" width="119.5" height="512"/>
<path style="fill:#FF0019;" d="M287.893,346.827V95.678c0-17.614-14.279-31.893-31.893-31.893l0,0l-20.016,178.548L256,448.2
	c30.769-0.002,55.715-24.931,55.715-55.701C311.715,373.595,302.291,356.9,287.893,346.827z"/>
<path style="fill:#FF4E0A;" d="M256,63.785c-17.614,0-31.893,14.279-31.893,31.893v251.149
	c-15.203,10.636-24.861,28.656-23.733,48.865c1.588,28.454,24.917,51.366,53.393,52.479c0.749,0.029,1.49,0.029,2.232,0.029V63.785
	H256z"/>
<g>
</g>
<g>
</g>
<g>
</g>
<g>
</g>
<g>
</g>
<g>
</g>
<g>
</g>
<g>
</g>
<g>
</g>
<g>
</g>
<g>
</g>
<g>
</g>
<g>
</g>
<g>
</g>
<g>
</g>
</svg>
