<?xml version="1.0" encoding="iso-8859-1"?>
<!-- Generator: Adobe Illustrator 19.0.0, SVG Export Plug-In . SVG Version: 6.00 Build 0)  -->
<svg version="1.1" id="Capa_1" xmlns="http://www.w3.org/2000/svg" xmlns:xlink="http://www.w3.org/1999/xlink" x="0px" y="0px"
	 viewBox="0 0 512 512" style="enable-background:new 0 0 512 512;" xml:space="preserve">
<path style="fill:#DCE4EC;" d="M256,0L256,0l-20.016,256L256,512l0,0c141.385,0,256-114.615,256-256l0,0
	C512,114.615,397.385,0,256,0z"/>
<path style="fill:#F7F7F8;" d="M256,0C114.615,0,0,114.615,0,256l0,0c0,141.385,114.615,256,256,256l0,0V0L256,0z"/>
<polygon style="fill:#009E2A;" points="421.653,215.041 374.298,133.019 303.355,173.978 303.355,92.061 256,92.061 235.984,256 
	256,419.939 303.355,419.939 303.355,338.022 374.298,378.981 421.653,296.958 350.711,256 "/>
<polygon style="fill:#00DC3B;" points="208.645,92.061 208.645,173.978 137.702,133.019 90.347,215.041 161.289,256 90.347,296.958 
	137.702,378.981 208.645,338.022 208.645,419.939 256,419.939 256,92.061 "/>
<g>
</g>
<g>
</g>
<g>
</g>
<g>
</g>
<g>
</g>
<g>
</g>
<g>
</g>
<g>
</g>
<g>
</g>
<g>
</g>
<g>
</g>
<g>
</g>
<g>
</g>
<g>
</g>
<g>
</g>
</svg>
