<?xml version="1.0" encoding="iso-8859-1"?>
<!-- Generator: Adobe Illustrator 19.0.0, SVG Export Plug-In . SVG Version: 6.00 Build 0)  -->
<svg version="1.1" id="Capa_1" xmlns="http://www.w3.org/2000/svg" xmlns:xlink="http://www.w3.org/1999/xlink" x="0px" y="0px"
	 viewBox="0 0 512 512" style="enable-background:new 0 0 512 512;" xml:space="preserve">
<polygon style="fill:#FF0019;" points="415.466,0 335.734,0 315.718,158.218 415.466,138.202 "/>
<polygon style="fill:#FF4E0A;" points="256.002,0 235.986,158.218 335.734,138.202 335.734,0 "/>
<polygon style="fill:#FF0019;" points="176.27,0 156.254,158.218 256.002,138.202 256.002,0 "/>
<polygon style="fill:#FF4E0A;" points="96.538,0 96.538,138.202 136.404,158.218 176.27,138.202 176.27,0 "/>
<polygon style="fill:#DCE4EC;" points="447.358,138.202 256.002,138.202 235.986,277.207 256.002,512 447.358,512 "/>
<rect x="64.642" y="138.2" style="fill:#F7F7F8;" width="191.36" height="373.8"/>
<path style="fill:#FF0019;" d="M342.762,244.576c-23.051-23.051-60.425-23.051-83.475,0l-3.285,3.285l-20.016,52.269l20.016,114.683
	l86.761-86.761C365.814,305.001,365.813,267.628,342.762,244.576z"/>
<path style="fill:#FF4E0A;" d="M252.717,244.576c-23.051-23.051-60.424-23.051-83.475,0s-23.051,60.425,0,83.476l86.76,86.761
	V247.861L252.717,244.576z"/>
<g>
</g>
<g>
</g>
<g>
</g>
<g>
</g>
<g>
</g>
<g>
</g>
<g>
</g>
<g>
</g>
<g>
</g>
<g>
</g>
<g>
</g>
<g>
</g>
<g>
</g>
<g>
</g>
<g>
</g>
</svg>
