<?xml version="1.0" encoding="iso-8859-1"?>
<!-- Generator: Adobe Illustrator 19.0.0, SVG Export Plug-In . SVG Version: 6.00 Build 0)  -->
<svg version="1.1" id="Capa_1" xmlns="http://www.w3.org/2000/svg" xmlns:xlink="http://www.w3.org/1999/xlink" x="0px" y="0px"
	 viewBox="0 0 512 512" style="enable-background:new 0 0 512 512;" xml:space="preserve">
<path style="fill:#DCE4EC;" d="M74.951,242.519L176.863,256v104.829c0,48.839-39.592,88.431-88.431,88.431l0,0L74.951,242.519z"/>
<path style="fill:#F7F7F8;" d="M0,256v104.829c0,48.839,39.592,88.431,88.431,88.431l0,0V235.047L0,256z"/>
<path style="fill:#00B9ED;" d="M88.432,62.739L67.478,168.893L88.432,256h88.432V151.171
	C176.863,102.332,137.271,62.739,88.432,62.739L88.432,62.739z"/>
<path style="fill:#8AEEFF;" d="M88.432,62.739L88.432,62.739C39.592,62.739,0,102.332,0,151.171V256h88.432V62.739z"/>
<path style="fill:#DCE4EC;" d="M365.815,248.704l99.314-26.545l40.116,96.85c18.69,45.122-2.737,96.851-47.859,115.541l0,0
	L365.815,248.704z"/>
<path style="fill:#F7F7F8;" d="M301.729,289.841l40.116,96.85c18.69,45.122,70.42,66.549,115.541,47.859l0,0L375.41,236.641
	L301.729,289.841z"/>
<path style="fill:#FF0019;" d="M309.471,77.45l21.265,106.092L383.429,256l81.7-33.841l-40.116-96.85
	C406.323,80.188,354.593,58.76,309.471,77.45L309.471,77.45z"/>
<path style="fill:#FF4E0A;" d="M309.471,77.45L309.471,77.45c-45.122,18.69-66.549,70.42-47.859,115.541l40.116,96.85l81.7-33.841
	L309.471,77.45z"/>
<g>
</g>
<g>
</g>
<g>
</g>
<g>
</g>
<g>
</g>
<g>
</g>
<g>
</g>
<g>
</g>
<g>
</g>
<g>
</g>
<g>
</g>
<g>
</g>
<g>
</g>
<g>
</g>
<g>
</g>
</svg>
