<?xml version="1.0" encoding="iso-8859-1"?>
<!-- Generator: Adobe Illustrator 19.0.0, SVG Export Plug-In . SVG Version: 6.00 Build 0)  -->
<svg version="1.1" id="Capa_1" xmlns="http://www.w3.org/2000/svg" xmlns:xlink="http://www.w3.org/1999/xlink" x="0px" y="0px"
	 viewBox="0 0 512.001 512.001" style="enable-background:new 0 0 512.001 512.001;" xml:space="preserve">
<polygon style="fill:#DCE4EC;" points="271.001,105.848 256.001,105.848 245.993,261.21 271.001,261.21 "/>
<rect x="128.658" y="306.185" transform="matrix(-0.5 -0.866 0.866 -0.5 -111.9608 691.5776)" style="fill:#F7F7F8;" width="29.999" height="143.847"/>
<rect x="299.493" y="363.118" transform="matrix(-0.866 -0.5 0.5 -0.866 498.2697 889.7487)" style="fill:#DCE4EC;" width="137.697" height="29.999"/>
<path style="fill:#FFCD00;" d="M107.65,398.905c15.907,27.551,6.433,62.906-21.118,78.813S23.626,484.151,7.719,456.6
	s-6.433-62.906,21.118-78.813S91.744,371.354,107.65,398.905z"/>
<path style="fill:#FF8E00;" d="M404.352,398.905c15.907-27.551,51.262-37.025,78.813-21.118s37.025,51.262,21.118,78.813
	c-15.907,27.551-51.262,37.025-78.813,21.118S388.445,426.456,404.352,398.905z"/>
<rect x="241.001" y="105.85" style="fill:#F7F7F8;" width="15" height="155.36"/>
<g>
	<path style="fill:#FF8E00;" d="M256.001,225.104l-20.016,88.15l20.016,88.151c48.684,0,88.15-39.466,88.15-88.15
		C344.151,264.57,304.685,225.104,256.001,225.104z"/>
	<path style="fill:#FF8E00;" d="M313.696,84.259c0-31.813-25.882-57.695-57.695-57.695l-20.016,57.695l20.016,57.695
		C287.814,141.954,313.696,116.072,313.696,84.259z"/>
</g>
<g>
	<path style="fill:#FFCD00;" d="M167.851,313.255c0,48.684,39.466,88.15,88.15,88.15V225.104
		C207.317,225.104,167.851,264.57,167.851,313.255z"/>
	<path style="fill:#FFCD00;" d="M198.306,84.259c0,31.813,25.882,57.695,57.695,57.695V26.564
		C224.188,26.564,198.306,52.445,198.306,84.259z"/>
</g>
<g>
</g>
<g>
</g>
<g>
</g>
<g>
</g>
<g>
</g>
<g>
</g>
<g>
</g>
<g>
</g>
<g>
</g>
<g>
</g>
<g>
</g>
<g>
</g>
<g>
</g>
<g>
</g>
<g>
</g>
</svg>
