<?xml version="1.0" encoding="iso-8859-1"?>
<!-- Generator: Adobe Illustrator 19.0.0, SVG Export Plug-In . SVG Version: 6.00 Build 0)  -->
<svg version="1.1" id="Capa_1" xmlns="http://www.w3.org/2000/svg" xmlns:xlink="http://www.w3.org/1999/xlink" x="0px" y="0px"
	 viewBox="0 0 512.001 512.001" style="enable-background:new 0 0 512.001 512.001;" xml:space="preserve">
<polygon style="fill:#FF8E00;" points="287.006,0.024 223.227,0.024 203.212,132.626 287.006,112.611 "/>
<polygon style="fill:#FFCD00;" points="159.448,0.024 139.433,132.626 223.227,112.611 223.227,0.024 "/>
<polygon style="fill:#FF8E00;" points="95.669,0.024 75.654,132.626 159.448,112.611 159.448,0.024 "/>
<polygon style="fill:#FFCD00;" points="31.89,0.024 31.89,112.611 63.722,132.626 95.669,112.611 95.669,0.024 "/>
<polygon style="fill:#DCE4EC;" points="318.896,112.611 159.448,112.611 139.433,312.292 159.448,511.974 318.896,511.974 "/>
<rect y="112.612" style="fill:#F7F7F8;" width="159.45" height="399.365"/>
<polygon style="fill:#FF8E00;" points="159.448,400.804 255.168,400.804 255.168,223.781 159.448,223.781 139.433,312.292 "/>
<rect x="63.728" y="223.785" style="fill:#FFCD00;" width="95.724" height="177.019"/>
<path style="fill:#DCE4EC;" d="M447.767,65.06L447.767,65.06l-20.015,90.945l20.015,290.933h31.89V248.711
	c19.32-11.075,32.344-31.885,32.344-55.75v-63.669C512,93.818,483.242,65.06,447.767,65.06z"/>
<path style="fill:#F7F7F8;" d="M447.766,65.06c-35.476,0-64.234,28.758-64.234,64.234v63.669c0,23.866,13.025,44.674,32.344,55.75
	v198.227h31.89V65.06L447.766,65.06z"/>
<g>
</g>
<g>
</g>
<g>
</g>
<g>
</g>
<g>
</g>
<g>
</g>
<g>
</g>
<g>
</g>
<g>
</g>
<g>
</g>
<g>
</g>
<g>
</g>
<g>
</g>
<g>
</g>
<g>
</g>
</svg>
