<?xml version="1.0" encoding="iso-8859-1"?>
<!-- Generator: Adobe Illustrator 19.0.0, SVG Export Plug-In . SVG Version: 6.00 Build 0)  -->
<svg version="1.1" id="Capa_1" xmlns="http://www.w3.org/2000/svg" xmlns:xlink="http://www.w3.org/1999/xlink" x="0px" y="0px"
	 viewBox="0 0 511.999 511.999" style="enable-background:new 0 0 511.999 511.999;" xml:space="preserve">
<polygon style="fill:#BDC4CB;" points="338.082,163.91 358.694,174.515 511.999,21.211 501.394,10.606 "/>
<g>
	<polygon style="fill:#DCE4EC;" points="490.789,0 337.484,153.304 338.082,173.917 501.394,10.606 	"/>
	<polygon style="fill:#DCE4EC;" points="89.058,422.941 135.67,469.553 256.728,348.494 257.317,327.89 277.939,327.283 
		299.184,306.038 300.709,284.499 320.394,284.827 341.64,263.582 342.635,242.574 362.85,242.372 394.7,210.521 348.089,163.91 
		199.078,276.091 	"/>
</g>
<g>
	
		<rect x="198.995" y="294.576" transform="matrix(-0.7071 -0.7071 0.7071 -0.7071 189.1486 697.4955)" style="fill:#BDC4CB;" width="80.07" height="29.996"/>
	
		<rect x="241.447" y="252.12" transform="matrix(-0.7071 -0.7071 0.7071 -0.7071 291.6396 655.038)" style="fill:#BDC4CB;" width="80.07" height="29.996"/>
	
		<rect x="283.9" y="209.665" transform="matrix(-0.7071 -0.7071 0.7071 -0.7071 394.1306 612.5805)" style="fill:#BDC4CB;" width="80.07" height="29.996"/>
</g>
<rect x="12.103" y="237.164" transform="matrix(-0.7071 0.7071 -0.7071 -0.7071 524.3461 323.0543)" style="fill:#F7F7F8;" width="366.326" height="65.918"/>
<g>
	<polygon style="fill:#BDC4CB;" points="156.906,511.999 178.117,490.789 99.664,412.336 79.051,412.934 78.453,433.547 	"/>
	<polygon style="fill:#BDC4CB;" points="246.115,422.791 267.324,401.58 188.872,323.127 168.109,323.876 167.661,344.338 	"/>
</g>
<g>
	
		<rect x="83.561" y="279.511" transform="matrix(0.7071 0.7071 -0.7071 0.7071 248.9718 -12.0522)" style="fill:#DCE4EC;" width="110.947" height="29.996"/>
	
		<rect x="-5.642" y="368.714" transform="matrix(0.7071 0.7071 -0.7071 0.7071 285.9203 77.1508)" style="fill:#DCE4EC;" width="110.947" height="29.996"/>
</g>
<g>
</g>
<g>
</g>
<g>
</g>
<g>
</g>
<g>
</g>
<g>
</g>
<g>
</g>
<g>
</g>
<g>
</g>
<g>
</g>
<g>
</g>
<g>
</g>
<g>
</g>
<g>
</g>
<g>
</g>
</svg>
