<?xml version="1.0" encoding="iso-8859-1"?>
<!-- Generator: Adobe Illustrator 19.0.0, SVG Export Plug-In . SVG Version: 6.00 Build 0)  -->
<svg version="1.1" id="Capa_1" xmlns="http://www.w3.org/2000/svg" xmlns:xlink="http://www.w3.org/1999/xlink" x="0px" y="0px"
	 viewBox="0 0 512.001 512.001" style="enable-background:new 0 0 512.001 512.001;" xml:space="preserve">
<g>
	<path style="fill:#F3BE92;" d="M481.148,30.854L275.106,206.872l104.51,74.486l101.532-101.532
		C522.284,138.689,522.284,71.992,481.148,30.854L481.148,30.854z"/>
	<path style="fill:#F3BE92;" d="M30.854,481.147L30.854,481.147c41.138,41.138,107.835,41.138,148.972,0l101.532-101.532
		l-74.486-104.51L30.854,481.147z"/>
</g>
<g>
	<path style="fill:#FFEBB5;" d="M132.386,230.644L30.854,332.175c-41.137,41.137-41.137,107.834,0,148.972l0,0l193.254-193.254
		L132.386,230.644z"/>
	<path style="fill:#FFEBB5;" d="M481.148,30.854L481.148,30.854c-41.138-41.138-107.835-41.138-148.972,0L230.644,132.385
		l57.25,91.722L481.148,30.854z"/>
</g>
<rect x="365.298" y="70.647" transform="matrix(-0.7071 -0.7071 0.7071 -0.7071 587.9792 416.735)" style="fill:#F3BE92;" width="30" height="31.893"/>
<rect x="410.398" y="115.747" transform="matrix(-0.7071 -0.7071 0.7071 -0.7071 633.0789 525.6167)" style="fill:#A96458;" width="30" height="31.893"/>
<rect x="320.188" y="115.757" transform="matrix(-0.7071 -0.7071 0.7071 -0.7071 479.0733 461.8447)" style="fill:#F3BE92;" width="30" height="31.893"/>
<rect x="365.301" y="160.854" transform="matrix(-0.7071 -0.7071 0.7071 -0.7071 524.1972 570.7305)" style="fill:#A96458;" width="30" height="31.893"/>
<rect x="116.708" y="319.247" transform="matrix(-0.7071 -0.7071 0.7071 -0.7071 -12.1774 665.342)" style="fill:#F3BE92;" width="30" height="31.893"/>
<rect x="161.798" y="364.343" transform="matrix(-0.7071 -0.7071 0.7071 -0.7071 32.9081 774.2098)" style="fill:#A96458;" width="30" height="31.893"/>
<rect x="71.608" y="364.347" transform="matrix(-0.7071 -0.7071 0.7071 -0.7071 -121.0591 710.4417)" style="fill:#F3BE92;" width="30" height="31.893"/>
<g>
	
		<rect x="116.701" y="409.457" transform="matrix(-0.7071 -0.7071 0.7071 -0.7071 -75.9786 819.3356)" style="fill:#A96458;" width="30" height="31.893"/>
	<polygon style="fill:#A96458;" points="206.872,305.129 281.358,379.615 379.616,281.357 305.13,206.872 234.334,230.644 	"/>
</g>
<rect x="166.091" y="149.282" transform="matrix(-0.7071 -0.7071 0.7071 -0.7071 218.7603 528.1352)" style="fill:#F3BE92;" width="105.339" height="138.959"/>
<g>
</g>
<g>
</g>
<g>
</g>
<g>
</g>
<g>
</g>
<g>
</g>
<g>
</g>
<g>
</g>
<g>
</g>
<g>
</g>
<g>
</g>
<g>
</g>
<g>
</g>
<g>
</g>
<g>
</g>
</svg>
