<?xml version="1.0" encoding="iso-8859-1"?>
<!-- Generator: Adobe Illustrator 19.0.0, SVG Export Plug-In . SVG Version: 6.00 Build 0)  -->
<svg version="1.1" id="Capa_1" xmlns="http://www.w3.org/2000/svg" xmlns:xlink="http://www.w3.org/1999/xlink" x="0px" y="0px"
	 viewBox="0 0 512 512" style="enable-background:new 0 0 512 512;" xml:space="preserve">
<path style="fill:#00B9ED;" d="M112.054,287.893L92.038,399.946L112.054,512c61.786,0,112.054-50.267,112.054-112.054
	S173.839,287.893,112.054,287.893z"/>
<path style="fill:#8AEEFF;" d="M0,399.946C0,461.733,50.268,512,112.054,512V287.893C50.268,287.893,0,338.16,0,399.946z"/>
<path style="fill:#00B9ED;" d="M112.054,224.107c61.786,0,112.054-50.267,112.054-112.054L112.054,92.038L0,112.054
	C0,173.84,50.268,224.107,112.054,224.107z"/>
<path style="fill:#8AEEFF;" d="M112.054,0C50.268,0,0,50.267,0,112.054h224.107C224.107,50.267,173.839,0,112.054,0z"/>
<path style="fill:#00B9ED;" d="M399.946,224.107c30.893,0,58.906-12.567,79.197-32.857l-54.81-104.917L320.75,32.857
	c-20.29,20.29-32.857,48.303-32.857,79.197C287.893,173.84,338.161,224.107,399.946,224.107z"/>
<path style="fill:#8AEEFF;" d="M512,112.054C512,50.267,461.732,0,399.946,0c-30.893,0-58.906,12.567-79.197,32.857L479.143,191.25
	C499.433,170.96,512,142.947,512,112.054z"/>
<path style="fill:#00B9ED;" d="M320.75,479.143C341.04,499.433,369.053,512,399.946,512C461.732,512,512,461.733,512,399.946
	c0-30.893-12.567-58.907-32.857-79.197l-98.81,62.883L320.75,479.143z"/>
<path style="fill:#8AEEFF;" d="M399.946,287.893c-61.786,0-112.054,50.267-112.054,112.054c0,30.893,12.567,58.907,32.857,79.197
	L479.143,320.75C458.853,300.46,430.839,287.893,399.946,287.893z"/>
<g>
</g>
<g>
</g>
<g>
</g>
<g>
</g>
<g>
</g>
<g>
</g>
<g>
</g>
<g>
</g>
<g>
</g>
<g>
</g>
<g>
</g>
<g>
</g>
<g>
</g>
<g>
</g>
<g>
</g>
</svg>
