<?xml version="1.0" encoding="iso-8859-1"?>
<!-- Generator: Adobe Illustrator 19.0.0, SVG Export Plug-In . SVG Version: 6.00 Build 0)  -->
<svg version="1.1" id="Capa_1" xmlns="http://www.w3.org/2000/svg" xmlns:xlink="http://www.w3.org/1999/xlink" x="0px" y="0px"
	 viewBox="0 0 512 512" style="enable-background:new 0 0 512 512;" xml:space="preserve">
<polygon style="fill:#BDC4CB;" points="512,256 235.984,235.984 256,512 512,512 "/>
<g>
	<polygon style="fill:#DCE4EC;" points="0,256 0,512 256,512 256,256 128.429,235.984 	"/>
	<polygon style="fill:#DCE4EC;" points="512,256 512,0 256,0 235.984,128 256,256 	"/>
</g>
<rect style="fill:#F7F7F8;" width="256" height="256"/>
<path style="fill:#FFCD00;" d="M128,192.266c-35.436,0-64.266-28.829-64.266-64.266S92.564,63.734,128,63.734
	s64.266,28.83,64.266,64.266S163.436,192.266,128,192.266z"/>
<path style="fill:#FF8E00;" d="M384.051,192.266c-35.436,0-64.266-28.829-64.266-64.266s28.83-64.266,64.266-64.266
	s64.266,28.83,64.266,64.266S419.487,192.266,384.051,192.266z"/>
<path style="fill:#FFCD00;" d="M128,448.317c-35.436,0-64.266-28.829-64.266-64.266s28.83-64.266,64.266-64.266
	s64.266,28.829,64.266,64.266S163.436,448.317,128,448.317z"/>
<path style="fill:#FF8E00;" d="M384.051,448.317c-35.436,0-64.266-28.829-64.266-64.266s28.83-64.266,64.266-64.266
	s64.266,28.829,64.266,64.266S419.487,448.317,384.051,448.317z"/>
<g>
</g>
<g>
</g>
<g>
</g>
<g>
</g>
<g>
</g>
<g>
</g>
<g>
</g>
<g>
</g>
<g>
</g>
<g>
</g>
<g>
</g>
<g>
</g>
<g>
</g>
<g>
</g>
<g>
</g>
</svg>
