<?xml version="1.0" encoding="iso-8859-1"?>
<!-- Generator: Adobe Illustrator 19.0.0, SVG Export Plug-In . SVG Version: 6.00 Build 0)  -->
<svg version="1.1" id="Capa_1" xmlns="http://www.w3.org/2000/svg" xmlns:xlink="http://www.w3.org/1999/xlink" x="0px" y="0px"
	 viewBox="0 0 512 512" style="enable-background:new 0 0 512 512;" xml:space="preserve">
<path style="fill:#00B9ED;" d="M40.79,471.21L40.79,471.21c54.386,54.386,142.564,54.386,196.95,0l116.735-116.735l-98.475-128.499
	L40.79,471.21z"/>
<path style="fill:#8AEEFF;" d="M157.524,157.525L40.79,274.26c-54.386,54.386-54.386,142.564,0,196.95l0,0l238.544-238.544
	L157.524,157.525z"/>
<path style="fill:#FF0019;" d="M471.21,40.79l-141.544,94.877L255.999,256l98.475,98.475L471.21,237.74
	C525.596,183.354,525.596,95.176,471.21,40.79L471.21,40.79z"/>
<path style="fill:#FF4E0A;" d="M471.21,40.79L471.21,40.79c-54.386-54.386-142.564-54.386-196.95,0L157.524,157.525L255.999,256
	L471.21,40.79z"/>
<g>
</g>
<g>
</g>
<g>
</g>
<g>
</g>
<g>
</g>
<g>
</g>
<g>
</g>
<g>
</g>
<g>
</g>
<g>
</g>
<g>
</g>
<g>
</g>
<g>
</g>
<g>
</g>
<g>
</g>
</svg>
