<?xml version="1.0" encoding="iso-8859-1"?>
<!-- Generator: Adobe Illustrator 19.0.0, SVG Export Plug-In . SVG Version: 6.00 Build 0)  -->
<svg version="1.1" id="Capa_1" xmlns="http://www.w3.org/2000/svg" xmlns:xlink="http://www.w3.org/1999/xlink" x="0px" y="0px"
	 viewBox="0 0 512 512" style="enable-background:new 0 0 512 512;" xml:space="preserve">
<path style="fill:#FFCD00;" d="M404.457,47.404C304.469-23.937,164.706-14.759,74.973,74.973l0,0L225.93,272.285L404.457,47.404z"/>
<path style="fill:#FFED94;" d="M74.973,74.973L74.973,74.973c-89.733,89.733-98.91,229.494-27.57,329.484l199.041-158.012
	L74.973,74.973z"/>
<path style="fill:#FFCD00;" d="M464.596,107.544L244.333,286.07l192.694,150.957l0,0
	C526.76,347.294,535.937,207.532,464.596,107.544z"/>
<path style="fill:#FFED94;" d="M107.544,464.596c99.988,71.341,239.751,62.163,329.482-27.569l0,0L265.334,265.334L107.544,464.596z
	"/>
<path style="fill:#FF8E00;" d="M286.07,286.07l178.526-178.526c-8.146-11.417-17.324-22.324-27.569-32.57l0,0
	c-10.245-10.245-21.153-19.424-32.57-27.569L225.93,225.931v55.071L286.07,286.07z"/>
<path style="fill:#FFCD00;" d="M225.93,225.931L47.404,404.457c8.146,11.417,17.324,22.324,27.569,32.57l0,0
	c10.245,10.245,21.153,19.424,32.57,27.569L286.07,286.07L225.93,225.931z"/>
<g>
</g>
<g>
</g>
<g>
</g>
<g>
</g>
<g>
</g>
<g>
</g>
<g>
</g>
<g>
</g>
<g>
</g>
<g>
</g>
<g>
</g>
<g>
</g>
<g>
</g>
<g>
</g>
<g>
</g>
</svg>
