<?xml version="1.0" encoding="iso-8859-1"?>
<!-- Generator: Adobe Illustrator 19.0.0, SVG Export Plug-In . SVG Version: 6.00 Build 0)  -->
<svg version="1.1" id="Capa_1" xmlns="http://www.w3.org/2000/svg" xmlns:xlink="http://www.w3.org/1999/xlink" x="0px" y="0px"
	 viewBox="0 0 512 512" style="enable-background:new 0 0 512 512;" xml:space="preserve">
<polygon style="fill:#BDC4CB;" points="512,59.617 482.197,29.814 373.99,104.059 447.691,143.799 "/>
<g>
	<polygon style="fill:#DCE4EC;" points="452.382,0 368.201,64.308 392.669,119.341 482.197,29.814 	"/>
	<polygon style="fill:#DCE4EC;" points="92.301,419.709 184.592,512 289.639,392.508 204.57,277.415 	"/>
</g>
<polygon style="fill:#F7F7F8;" points="119.492,222.36 0,327.408 92.301,419.709 222.333,289.678 "/>
<polygon style="fill:#DCE4EC;" points="415.923,248.861 479.937,176.044 407.951,104.059 289.639,172.474 "/>
<polygon style="fill:#F7F7F8;" points="263.14,96.078 313.627,198.384 407.951,104.059 335.956,32.064 "/>
<polygon style="fill:#FF0019;" points="204.57,307.44 289.639,392.508 415.923,248.861 339.536,172.474 242.995,218.337 "/>
<polygon style="fill:#FF4E0A;" points="339.536,172.474 263.14,96.078 119.492,222.36 204.57,307.44 "/>
<g>
</g>
<g>
</g>
<g>
</g>
<g>
</g>
<g>
</g>
<g>
</g>
<g>
</g>
<g>
</g>
<g>
</g>
<g>
</g>
<g>
</g>
<g>
</g>
<g>
</g>
<g>
</g>
<g>
</g>
</svg>
