<?xml version="1.0" encoding="iso-8859-1"?>
<!-- Generator: Adobe Illustrator 19.0.0, SVG Export Plug-In . SVG Version: 6.00 Build 0)  -->
<svg version="1.1" id="Capa_1" xmlns="http://www.w3.org/2000/svg" xmlns:xlink="http://www.w3.org/1999/xlink" x="0px" y="0px"
	 viewBox="0 0 512 512" style="enable-background:new 0 0 512 512;" xml:space="preserve">
<polygon style="fill:#DCE4EC;" points="287.893,0 256,0 235.984,106.204 298.524,86.188 "/>
<polygon style="fill:#F7F7F8;" points="224.107,0 213.476,86.188 256,106.204 256,0 "/>
<polygon style="fill:#BDC4CB;" points="351.678,206.246 330.416,86.188 256,86.188 235.984,226.262 "/>
<g>
	<polygon style="fill:#DCE4EC;" points="256,86.188 181.584,86.188 160.322,206.246 256,226.262 	"/>
	<polygon style="fill:#DCE4EC;" points="388.886,206.246 351.678,206.246 256,206.246 235.984,359.123 256,512 388.886,512 	"/>
</g>
<polygon style="fill:#F7F7F8;" points="160.322,206.246 123.114,206.246 123.114,512 256,512 256,206.246 "/>
<path style="fill:#00B9ED;" d="M256,308.05v102.147c38.192,0,69.152-51.073,69.152-51.073S294.192,308.05,256,308.05z"/>
<path style="fill:#8AEEFF;" d="M186.848,359.123c0,0,30.96,51.073,69.152,51.073V308.05
	C217.808,308.05,186.848,359.123,186.848,359.123z"/>
<g>
</g>
<g>
</g>
<g>
</g>
<g>
</g>
<g>
</g>
<g>
</g>
<g>
</g>
<g>
</g>
<g>
</g>
<g>
</g>
<g>
</g>
<g>
</g>
<g>
</g>
<g>
</g>
<g>
</g>
</svg>
