<?xml version="1.0" encoding="iso-8859-1"?>
<!-- Generator: Adobe Illustrator 19.0.0, SVG Export Plug-In . SVG Version: 6.00 Build 0)  -->
<svg version="1.1" id="Capa_1" xmlns="http://www.w3.org/2000/svg" xmlns:xlink="http://www.w3.org/1999/xlink" x="0px" y="0px"
	 viewBox="0 0 512 512" style="enable-background:new 0 0 512 512;" xml:space="preserve">
<polygon style="fill:#FF0019;" points="431.41,197.53 431.41,0 383.571,0 363.555,217.546 "/>
<polygon style="fill:#FF4E0A;" points="383.571,0 335.732,0 335.732,197.53 383.571,217.546 "/>
<polygon style="fill:#FF0019;" points="176.268,197.53 176.268,0 128.429,0 108.413,217.546 "/>
<polygon style="fill:#FF4E0A;" points="128.429,0 80.59,0 80.59,197.53 128.429,217.546 "/>
<polygon style="fill:#DCE4EC;" points="224.107,314.47 108.413,294.454 128.429,512 224.107,512 "/>
<polygon style="fill:#F7F7F8;" points="32.751,314.47 32.751,512 128.429,512 128.429,294.454 "/>
<path style="fill:#DCE4EC;" d="M383.571,512L383.571,512c26.421,0,47.839-21.418,47.839-47.839V314.47l-67.855-20.016L383.571,512z"
	/>
<path style="fill:#F7F7F8;" d="M335.732,314.47v149.691c0,26.421,21.418,47.839,47.839,47.839l0,0V294.454L335.732,314.47z"/>
<polygon style="fill:#788B9E;" points="224.107,197.53 160.322,197.53 140.306,256 160.322,314.47 224.107,314.47 "/>
<polygon style="fill:#BDC4CB;" points="128.429,314.47 160.322,314.47 160.322,197.53 128.429,197.53 108.413,256 "/>
<polygon style="fill:#DCE4EC;" points="128.429,197.53 96.537,197.53 76.521,256 96.537,314.47 128.429,314.47 "/>
<rect x="32.751" y="197.53" style="fill:#BDC4CB;" width="63.786" height="116.94"/>
<polygon style="fill:#788B9E;" points="479.249,197.53 415.464,197.53 395.448,256 415.464,314.47 479.249,314.47 "/>
<polygon style="fill:#BDC4CB;" points="383.571,314.47 415.464,314.47 415.464,197.53 383.571,197.53 363.555,256 "/>
<polygon style="fill:#DCE4EC;" points="383.571,197.53 351.678,197.53 331.662,256 351.678,314.47 383.571,314.47 "/>
<rect x="287.89" y="197.53" style="fill:#BDC4CB;" width="63.786" height="116.94"/>
<g>
</g>
<g>
</g>
<g>
</g>
<g>
</g>
<g>
</g>
<g>
</g>
<g>
</g>
<g>
</g>
<g>
</g>
<g>
</g>
<g>
</g>
<g>
</g>
<g>
</g>
<g>
</g>
<g>
</g>
</svg>
