<?xml version="1.0" encoding="iso-8859-1"?>
<!-- Generator: Adobe Illustrator 19.0.0, SVG Export Plug-In . SVG Version: 6.00 Build 0)  -->
<svg version="1.1" id="Capa_1" xmlns="http://www.w3.org/2000/svg" xmlns:xlink="http://www.w3.org/1999/xlink" x="0px" y="0px"
	 viewBox="0 0 512 512" style="enable-background:new 0 0 512 512;" xml:space="preserve">
<path style="fill:#DCE4EC;" d="M339.278,248.016l-32.757-67.603V15.453H256L235.984,153L256,287.59
	C297.639,287.59,339.278,268.667,339.278,248.016z"/>
<path style="fill:#F7F7F8;" d="M256,287.59V15.453h-50.521v164.961l-30.47,62.883C175.009,258,212,287.59,256,287.59z"/>
<rect x="458.34" style="fill:#788B9E;" width="30" height="470.16"/>
<polygon style="fill:#BDC4CB;" points="512,450.14 256,450.14 235.984,481.07 256,512 512,512 "/>
<rect y="450.14" style="fill:#DCE4EC;" width="256" height="61.86"/>
<polygon style="fill:#BDC4CB;" points="512,77.313 256,77.313 235.984,108.243 256,139.173 512,139.173 "/>
<rect x="143.62" y="77.31" style="fill:#DCE4EC;" width="112.38" height="61.86"/>
<path style="fill:#00B9ED;" d="M339.278,248.016c-10.183,5.736-20.942,11.145-41.234,11.145c-20.831,0-31.615-5.7-42.044-11.602
	l-20.016,60.05L256,367.659h141.252L339.278,248.016z"/>
<path style="fill:#8AEEFF;" d="M211.661,234.656c-17.294,0-27.663,3.929-36.653,8.641L114.747,367.66H256V247.558
	C244.806,241.223,234.022,234.656,211.661,234.656z"/>
<g>
</g>
<g>
</g>
<g>
</g>
<g>
</g>
<g>
</g>
<g>
</g>
<g>
</g>
<g>
</g>
<g>
</g>
<g>
</g>
<g>
</g>
<g>
</g>
<g>
</g>
<g>
</g>
<g>
</g>
</svg>
