<?xml version="1.0" encoding="iso-8859-1"?>
<!-- Generator: Adobe Illustrator 19.0.0, SVG Export Plug-In . SVG Version: 6.00 Build 0)  -->
<svg version="1.1" id="Capa_1" xmlns="http://www.w3.org/2000/svg" xmlns:xlink="http://www.w3.org/1999/xlink" x="0px" y="0px"
	 viewBox="0 0 512 512" style="enable-background:new 0 0 512 512;" xml:space="preserve">
<polygon style="fill:#DCE4EC;" points="447.358,116.94 235.986,96.924 256.002,512 447.358,512 "/>
<polygon style="fill:#F7F7F8;" points="64.646,116.94 64.646,512 256.002,512 256.002,96.924 "/>
<polygon style="fill:#FF0019;" points="309.106,261.341 309.106,201.387 256.002,201.387 235.986,314.47 256.002,427.553 
	309.106,427.553 309.106,367.599 369.059,367.599 369.059,261.341 "/>
<polygon style="fill:#FF4E0A;" points="202.848,201.387 202.848,261.341 142.894,261.341 142.894,367.599 202.848,367.599 
	202.848,427.553 256.002,427.553 256.002,201.387 "/>
<polygon style="fill:#FF0019;" points="447.358,0 383.573,0 363.557,58.47 383.573,116.94 447.358,116.94 "/>
<polygon style="fill:#FF4E0A;" points="319.788,0 299.772,58.47 319.788,116.94 383.573,116.94 383.573,0 "/>
<polygon style="fill:#FF0019;" points="256.002,0 235.986,58.47 256.002,116.94 319.788,116.94 319.788,0 "/>
<polygon style="fill:#FF4E0A;" points="192.217,0 172.201,58.47 192.217,116.94 256.002,116.94 256.002,0 "/>
<polygon style="fill:#FF0019;" points="128.431,0 108.415,58.47 128.431,116.94 192.217,116.94 192.217,0 "/>
<rect x="64.642" style="fill:#FF4E0A;" width="63.786" height="116.94"/>
<g>
</g>
<g>
</g>
<g>
</g>
<g>
</g>
<g>
</g>
<g>
</g>
<g>
</g>
<g>
</g>
<g>
</g>
<g>
</g>
<g>
</g>
<g>
</g>
<g>
</g>
<g>
</g>
<g>
</g>
</svg>
