<svg id="Capa_1" enable-background="new 0 0 512 512" height="512" viewBox="0 0 512 512" width="512" xmlns="http://www.w3.org/2000/svg"><g id="XMLID_45_"><path id="XMLID_367_" d="m452 293.488h-362c-49.626 0-90-40.374-90-90 0-56.764 52.328-99.764 108.323-88.13 5.485-22.848 17.608-43.663 35.132-59.904 59.664-55.294 156.469-36.348 190.601 37.901 60.923-31.135 134.273 15.018 132.925 82.025 25.857 6.672 45.02 30.194 45.02 58.107-.001 33.085-26.917 60.001-60.001 60.001z" fill="#2b4ca1"/><g><path d="m466.98 175.381c1.35-67.048-72.046-113.138-132.925-82.025-14.952-32.528-43.774-56.597-78.055-65.782v265.914h196c33.084 0 60-26.916 60-60 0-27.913-19.162-51.435-45.02-58.107z" fill="#213b82"/></g><g id="XMLID_46_"><path id="XMLID_365_" d="m241 167.883h30v185.605h-30z" fill="#e4f3ff"/></g><g id="XMLID_47_"><path id="XMLID_364_" d="m150 443.488h-75v-30h45v-195h30z" fill="#e4f3ff"/></g><g id="XMLID_48_"><path id="XMLID_363_" d="m437 458.488h-75v-240h30v210h45z" fill="#e0eaef"/></g><path id="XMLID_361_" d="m271 167.883h-15v185.606h15c0-22.618 0-159.578 0-185.606z" fill="#c3dafd"/><path id="XMLID_360_" d="m437 458.488v-30c-14.095 0-30.95 0-45 0 0-6.034 0-205.053 0-210h-30v240z" fill="#c3dafd"/><path id="XMLID_359_" d="m422 398.488h90v90h-90z" fill="#c21d75"/><path id="XMLID_358_" d="m211 338.488h90v90h-90z" fill="#dc4c69"/><path id="XMLID_357_" d="m256 338.488v90h45c0-13.864 0-79.049 0-90 0 0-30.905 0-45 0z" fill="#c21d75"/><path id="XMLID_356_" d="m0 383.488h90v90h-90z" fill="#dc4c69"/></g></svg>