<svg id="Capa_1" enable-background="new 0 0 512 512" height="512" viewBox="0 0 512 512" width="512" xmlns="http://www.w3.org/2000/svg"><g><path d="m200.294 435.965v28.234c0 26.397 21.404 47.801 47.801 47.801s47.801-21.404 47.801-47.801c0-6.14 0-22.513 0-28.234z" fill="#ecc443"/><path d="m422.026 233.172s-.005 0-.007 0c-6.858-55.352-39.825-104.025-88.388-131.234.002-.002.004-.004.004-.006-53.892-30.104-118.897-29.279-171.085 0 .002.002.003.004.004.007-48.45 27.146-81.513 75.75-88.386 131.233-.002 0-.006 0-.006 0-1.786 14.29-1.338 9.497-1.338 151.359h350.539c.001-142.428.446-136.734-1.337-151.359z" fill="#f4d844"/><path d="m423.364 384.531v-33.734h-350.539v33.734c-20.886 0-37.493 0-47.801 0v63.734h446.141v-63.734c-8.533 0-25.394 0-47.801 0z" fill="#f4d844"/><path d="m72.825 320.797h350.539v63.734h-350.539z" fill="#ecc443"/><circle cx="249.157" cy="39.834" fill="#ecc443" r="39.834"/><path d="m248.139 435.965v76.033c26.375-.023 47.757-21.418 47.757-47.799 0-6.14 0-22.513 0-28.234z" fill="#e39069"/><path d="m422.026 233.172s-.005 0-.007 0c-6.858-55.352-39.825-104.025-88.388-131.234.002-.002.004-.004.004-.006-26.738-14.936-56.211-22.248-85.497-22.26v341.125h175.226c0-184.05.469-172.803-1.338-187.625z" fill="#ecc443"/><path d="m471.032 448.266v-63.734c-6.233 0-216.665 0-222.894 0v63.734z" fill="#ecc443"/><path d="m423.364 320.797h-175.225v63.734h175.226c-.001-3.545-.001-33.488-.001-63.734z" fill="#e39069"/><path d="m288.991 39.834c0-22.075-18.053-40.332-40.853-39.809v79.616c22.536.583 40.853-17.541 40.853-39.807z" fill="#e39069"/><path d="m392.85 63.566c51.981 0 94.126 42.143 94.126 94.126 0 43.858-30.001 80.721-70.607 91.158 0 0 0 .013-.012 0-59.346 15.363-117.634-29.551-117.634-91.158 0-51.978 42.141-94.126 94.127-94.126z" fill="#dc4c69"/><path d="m416.368 248.85c40.607-10.436 70.607-47.299 70.607-91.158 0-51.958-42.104-94.083-94.05-94.124v188.249c4.423-.426 11.42.14 23.431-2.966.012.012.012-.001.012-.001z" fill="#c21d75"/><path d="m377.849 123.811h30v65h-30z" fill="#e4f3ff"/><path d="m392.926 123.811h15v65h-15z" fill="#c3dafd"/></g></svg>