<svg id="Capa_1" enable-background="new 0 0 512 512" height="512" viewBox="0 0 512 512" width="512" xmlns="http://www.w3.org/2000/svg"><g><g><path id="XMLID_429_" d="m346 105.789v167.361c0 49.411-40.374 89.61-90 89.61s-90-40.199-90-89.61c0-9.731 0-155.635 0-167.361l-67.5-20-67.5 20v182.306c0 124.125 100.861 223.905 225 223.905 124.162 0 225-99.803 225-223.905 0-21.112 0-162.683 0-182.306l-66.5-20z" fill="#dc4c69"/><path id="XMLID_432_" d="m481 288.095c0-6.56 0-181.46 0-192.306l-66.5-20-68.5 20v177.361c0 49.411-40.374 89.61-90 89.61v149.24c124.162 0 225-99.803 225-223.905z" fill="#c21d75"/></g><path id="XMLID_409_" d="m31 0v105.789h135c0-13 0-93.789 0-105.789z" fill="#e4f3ff"/><path id="XMLID_433_" d="m481 0h-135v105.789h135c0-13 0-93.789 0-105.789z" fill="#c3dafd"/><g id="XMLID_428_"><path id="XMLID_434_" d="m238.068 181.941-24.136-17.798 42.35-57.354h-59.948l72.586-98.646 24.16 17.799-37.414 50.847h60.052z" fill="#2b4ca1"/></g><g fill="#213b82"><path d="m256.282 106.789-.257.348v50.487l59.693-80.835h-59.693v30z"/><path d="m293.08 25.942-24.16-17.799-12.895 17.523v50.635z"/></g></g></svg>