<svg id="Capa_1" enable-background="new 0 0 512.006 512.006" height="512" viewBox="0 0 512.006 512.006" width="512" xmlns="http://www.w3.org/2000/svg"><g><path d="m252.022 82.318-53.82 98.965-79.983-181.283h96.664z" fill="#dc4c69"/><path d="m279.241 0h94.539l-79.977 181.283-49.395 21.246-46.207-21.246c7.3-15.845 73.925-165.836 81.04-181.283z" fill="#c21d75"/><path d="m.003 165.006h512v347h-512z" fill="#e4f3ff"/><path d="m257.003 165.006h255v347h-255z" fill="#c3dafd"/><g fill="#589cfb"><path d="m305.003 406.006h145v30h-145z"/><path d="m305.003 325.506h145v30h-145z"/><path d="m305.003 245.006h145v30h-145z"/></g><path d="m159.503 436.006h-97.5v-17.789c0-41.963 26.491-69.803 65.121-79.428-39.219-30.845-17.204-93.783 32.356-93.783z" fill="#9fe04d"/><path d="m257.003 418.217c0-41.368-25.85-69.663-65.131-79.435 39.181-30.8 17.312-93.752-32.369-93.775v191h97.5z" fill="#72c976"/></g></svg>