<svg id="Capa_1" enable-background="new 0 0 512 512" height="512" viewBox="0 0 512 512" width="512" xmlns="http://www.w3.org/2000/svg"><g id="XMLID_1011_"><path id="XMLID_1007_" d="m0 76v420h512v-420c-24.071 0-490.498 0-512 0z" fill="#e4f3ff"/><path id="XMLID_1006_" d="m257 76v420h255v-420c-4.277 0-251 0-255 0z" fill="#c3dafd"/><path id="XMLID_1266_" d="m97.5 16h45v135h-45z" fill="#2b4c9f"/><path id="XMLID_1263_" d="m368.5 16h45v135h-45z" fill="#2b4c9f"/><path id="XMLID_1260_" d="m75 196h90v90h-90z" fill="#ecc443"/><path id="XMLID_1257_" d="m212 196h90v90h-90z" fill="#ecc443"/><path id="XMLID_1254_" d="m345 196h90v90h-90z" fill="#e39069"/><path id="XMLID_1251_" d="m75 331h90v89h-90z" fill="#9fe04d"/><path id="XMLID_1248_" d="m212 331h90v89h-90z" fill="#ecc443"/><path id="XMLID_1009_" d="m257 196h45v90h-45z" fill="#e39069"/><path id="XMLID_1008_" d="m257 331h45v89h-45z" fill="#e39069"/><path id="XMLID_1245_" d="m345 331h90v89h-90z" fill="#c21d75"/></g></svg>