<svg id="Capa_1" enable-background="new 0 0 492 492" height="512" viewBox="0 0 492 492" width="512" xmlns="http://www.w3.org/2000/svg"><g><path id="XMLID_232_" d="m96 0v77h300v-77c-45.383 0-286.523 0-300 0z" fill="#c3dafd"/><path id="XMLID_230_" d="m396 77v-77c-14.848 0-132.967 0-150 0v77z" fill="#a1b8d8"/><path id="XMLID_227_" d="m36 62v374.158h420c0-12.242 0-344.62 0-374.158-13.185 0-410.707 0-420 0z" fill="#e4f3ff"/><path id="XMLID_289_" d="m36 330.158h119v30h-119z" fill="#9fe04d"/><path id="XMLID_288_" d="m246 62v374.158h210c0-16.756 0-341.381 0-374.158-6.545 0-203.424 0-210 0z" fill="#c3dafd"/><path id="XMLID_226_" d="m335 330.158h121v30h-121z" fill="#9fe04d"/><path id="XMLID_225_" d="m231 371.055h30v120.945h-30z" fill="#213b82"/><path id="XMLID_7_" d="m246 371.055h15v120.945h-15z" fill="#182b61"/><path id="XMLID_21_" d="m246 390.265-76.076 24.692 76.076-161.813z" fill="#2b4ca1"/><path id="XMLID_218_" d="m322.077 414.957c-.497-1.057-73.946-157.28-76.077-161.813v137.121c2.4.78 71.935 23.347 76.077 24.692z" fill="#213b82"/><g><path id="XMLID_207_" d="m54 210c-26.468 0-48-21.532-48-48v-100h96v100c0 26.468-21.533 48-48 48z" fill="#ecc443"/><path id="XMLID_11_" d="m150 210c-26.468 0-48-21.532-48-48v-100h96v100c0 26.468-21.533 48-48 48z" fill="#e39069"/><path id="XMLID_229_" d="m342 210c-26.468 0-48-21.532-48-48v-100h96v100c0 26.468-21.532 48-48 48z" fill="#dc4c69"/><path id="XMLID_282_" d="m438 210c-26.468 0-48-21.532-48-48v-100h96v100c0 26.468-21.532 48-48 48z" fill="#e39069"/></g><path id="XMLID_192_" d="m246 210c-26.468 0-48-21.532-48-48v-100h48l48 100c0 26.468-21.532 48-48 48z" fill="#ecc443"/><g><path d="m246 62v148c26.468 0 48-21.532 48-48v-100z" fill="#e39069"/></g></g></svg>