<svg id="Capa_1" enable-background="new 0 0 512 512" height="512" viewBox="0 0 512 512" width="512" xmlns="http://www.w3.org/2000/svg"><g id="XMLID_35_"><path id="XMLID_284_" d="m0 136.523h512v329.477h-512z" fill="#e4f3ff"/><path id="XMLID_280_" d="m256 136.105h256v329.895h-256z" fill="#c3dafd"/><path id="XMLID_277_" d="m0 46v119.999h512v-119.999c-2.031 0-30.033 0-72 0-21.794 0-75 15.07-75 15.07s-49.17-15.07-75-15.07c-133.697 0-280.037 0-290 0z" fill="#84d9f3"/><path id="XMLID_269_" d="m256 46v119.999h256c0-6.935 0-112.811 0-119.999-3.364 0-33.495 0-72 0l-75 30-75-30c-18.729 0-31.561 0-34 0z" fill="#77b0fb"/><g id="XMLID_285_"><path id="XMLID_302_" d="m60 91h30v30h-30z" fill="#fff"/></g><g id="XMLID_258_"><path id="XMLID_281_" d="m120 91h30v30h-30z" fill="#fff"/></g><g id="XMLID_85_"><path id="XMLID_241_" d="m180 91h30v30h-30z" fill="#fff"/></g><path id="XMLID_187_" d="m290 46.105v336.213l75-75v-261.213z" fill="#dc4c69"/><path id="XMLID_183_" d="m440 46.105h-75v261.213l75 75z" fill="#c21d75"/></g></svg>