<svg id="Capa_1" enable-background="new 0 0 512 512" height="512" viewBox="0 0 512 512" width="512" xmlns="http://www.w3.org/2000/svg"><g><path d="m196 304.793h120v207.207h-120z" fill="#213b82"/><path d="m256 304.793h60v207.207h-60z" fill="#182b61"/><path d="m0 0h512v332h-512z" fill="#e4f3ff"/><path d="m256 0h256v332h-256z" fill="#c3dafd"/><g fill="#9fe04d"><path d="m76 160h30v105h-30z"/><path d="m146 160h30v105h-30z"/><path d="m216 160h30v105h-30z"/></g><path d="m136 482h240v30h-240z" fill="#2b4ca1"/><path d="m256 482h120v30h-120z" fill="#213b82"/><path d="m286 235h150v30h-150z" fill="#5a9ffb"/><path d="m286 160h150v30h-150z" fill="#5a9ffb"/><path d="m136 77v-77h-30v77h-30v30h90v-30z" fill="#2b4ca1"/><path d="m271 77v-77h-30v77h-30v30h90v-30z" fill="#2b4ca1"/><path d="m271 77v-77h-15v107h45v-30z" fill="#213b82"/><path d="m406 77v-77h-30v77h-30v30h90v-30z" fill="#213b82"/></g></svg>