<svg id="Capa_1" enable-background="new 0 0 512 512" height="512" viewBox="0 0 512 512" width="512" xmlns="http://www.w3.org/2000/svg"><g id="XMLID_15_"><g><g><path d="m256 0c-66.168 0-120 53.832-120 120v115h45v-115c0-41.355 33.644-75 75-75 41.355 0 75 33.645 75 75v63h45v-63c0-66.168-53.832-120-120-120z" fill="#e4f3ff"/></g></g><g><g><path d="m256 0v45c41.355 0 75 33.645 75 75v63h45v-63c0-66.168-53.832-120-120-120z" fill="#c3dafd"/></g></g><path id="XMLID_40_" d="m61 225h390v287h-390z" fill="#9fe04d"/><path id="XMLID_27_" d="m256 225v287h195c0-11.63 0-137.361 0-287-21.681 0-174.001 0-195 0z" fill="#72c976"/><path id="XMLID_26_" d="m316 360c0-33.084-26.916-60-60-60s-60 26.916-60 60c0 27.906 19.15 51.424 45 58.102v93.898h30v-93.898c25.85-6.678 45-30.196 45-58.102z" fill="#2b4c9f"/><path id="XMLID_20_" d="m255.93 330c-16.541.039-29.968 13.527-29.93 30.07.039 16.541 13.527 29.969 30.07 29.93 16.541-.039 29.968-13.527 29.93-30.069s-13.527-29.969-30.07-29.931z" fill="#e4f3ff"/><path id="XMLID_19_" d="m286 359.931c-.038-16.52-13.49-29.931-30-29.931v60c16.545 0 30.038-13.474 30-30.069z" fill="#c3dafd"/><path id="XMLID_16_" d="m256 300v30.002c16.51 0 29.962 13.41 30 29.929.038 16.479-13.338 30.067-30 30.067v122.002h15v-93.898c25.85-6.678 45-30.195 45-58.102 0-33.084-26.916-60-60-60z" fill="#213b82"/></g></svg>