<svg id="Capa_1" enable-background="new 0 0 512 512" height="512" viewBox="0 0 512 512" width="512" xmlns="http://www.w3.org/2000/svg"><g id="XMLID_175_"><path id="XMLID_885_" d="m512 480.842h-180v-14.835c0-49.626 40.374-90 90-90s90 40.374 90 90z" fill="#84d9f3"/><path id="XMLID_883_" d="m422 376.007v104.835h90v-14.835c0-49.626-40.374-90-90-90z" fill="#77b0fb"/><circle id="XMLID_882_" cx="422" cy="346.007" fill="#ebcea5" r="60"/><path id="XMLID_880_" d="m482 346.007c0-33.084-26.916-60-60-60v120c33.084 0 60-26.916 60-60z" fill="#e7b889"/><path id="XMLID_879_" d="m467 255.842h-30v-120h-75v-30h105z" fill="#c3dafd"/><path id="XMLID_878_" d="m75 255.842h-30v-150h105v30h-75z" fill="#e4f3ff"/><g id="XMLID_174_"><path id="XMLID_25_" d="m90 480.842h-90v-14.835c0-49.626 40.374-90 90-90z" fill="#9fe04d"/><path id="XMLID_76_" d="m90 376.007v104.835h90v-14.835c0-49.626-40.374-90-90-90z" fill="#72c976"/><circle id="XMLID_921_" cx="90" cy="346.007" fill="#ebcea5" r="60"/><path id="XMLID_74_" d="m150 346.007c0-33.084-26.916-60-60-60v120c33.084 0 60-26.916 60-60z" fill="#e7b889"/></g><path id="XMLID_70_" d="m346 481.007h-180v-15c0-49.626 40.374-90 90-90s90 40.374 90 90z" fill="#dc4c69"/><path id="XMLID_69_" d="m256 376.007v105h90v-15c0-49.626-40.374-90-90-90z" fill="#c21d75"/><circle id="XMLID_68_" cx="256" cy="346.007" fill="#ebcea5" r="60"/><path id="XMLID_205_" d="m316 346.007c0-33.084-26.916-60-60-60v120c33.084 0 60-26.916 60-60z" fill="#e7b889"/><path id="XMLID_905_" d="m346 225.993h-180v-15c0-49.626 40.374-90 90-90s90 40.374 90 90z" fill="#2b4ca1"/><path id="XMLID_890_" d="m256 120.993v104.849h90v-14.849c0-49.626-40.374-90-90-90z" fill="#213b82"/><circle id="XMLID_870_" cx="256" cy="90.993" fill="#ebcea5" r="60"/><path id="XMLID_176_" d="m316 90.993c0-33.084-26.916-60-60-60v120c33.084 0 60-26.916 60-60z" fill="#e7b889"/></g></svg>