<svg id="Capa_1" enable-background="new 0 0 512 512" height="512" viewBox="0 0 512 512" width="512" xmlns="http://www.w3.org/2000/svg"><g id="XMLID_165_"><path id="XMLID_296_" d="m38.5 77.665v356.67h330c0-20.062 0-336.21 0-356.67z" fill="#e4f3ff"/><path id="XMLID_292_" d="m368.5 77.665h-165v356.67h165c0-20.063 0-336.21 0-356.67z" fill="#c3dafd"/><g id="XMLID_290_"><path id="XMLID_291_" d="m98.5 167h105v30h-105z" fill="#dc4c69"/></g><g id="XMLID_283_"><path id="XMLID_287_" d="m128.5 227h75v30h-75z" fill="#dc4c69"/></g><g id="XMLID_185_"><path id="XMLID_267_" d="m160.5 287h43v30h-43z" fill="#dc4c69"/></g><path id="XMLID_182_" d="m203.5 167h270v180h-270z" fill="#ecc443"/><path id="XMLID_180_" d="m203.5 167 135 123.75 135-123.75c-32.521 0-256.256 0-270 0z" fill="#e39069"/><path d="m338.5 166.831v180.169h135c0-5.114 0-175.492 0-180.169z" fill="#e39069"/><path id="XMLID_178_" d="m338.5 167v123.75l135-123.75c-16.561 0-115.042 0-135 0z" fill="#dc4c69"/><path id="XMLID_168_" d="m38.5 0h330v105h-330z" fill="#2b4c9f"/><path id="XMLID_228_" d="m38.5 407h330v105h-330z" fill="#2b4c9f"/><g fill="#213b82"><path id="XMLID_167_" d="m203.5 0h165v105h-165z"/><path id="XMLID_166_" d="m203.5 407h165v105h-165z"/></g></g></svg>