<svg id="Capa_1" enable-background="new 0 0 512 512" height="512" viewBox="0 0 512 512" width="512" xmlns="http://www.w3.org/2000/svg"><g><path id="XMLID_1303_" d="m361 131h-210v-100h210zm-180-30h150v-40h-150z" fill="#c3dafd"/><path id="XMLID_1300_" d="m361 31h-105v30h75v40h-75v30h105z" fill="#a1b8d8"/><path id="XMLID_1307_" d="m512 481h-89.998l-53.502-20-52.5 20h-120l-52.501-20-52.499 20h-91v-291.014h512z" fill="#213b80"/><path id="XMLID_1289_" d="m512 481h-91l-52.5-10-52.5 10h-60v-291.014h256z" fill="#182a61"/><path id="XMLID_1296_" d="m0 91h512v135h-512z" fill="#2b4c9f"/><path id="XMLID_1292_" d="m256 91h256v135h-256z" fill="#213b82"/><path id="XMLID_1301_" d="m91 226h105v255h-105z" fill="#ecc443"/><path id="XMLID_60_" d="m143.5 226h52.5v255h-52.5z" fill="#e39069"/><path id="XMLID_1298_" d="m316 226h105v255h-105z" fill="#ebc443"/><path id="XMLID_63_" d="m368.5 226h52.5v255h-52.5z" fill="#e39069"/></g></svg>