<svg id="Capa_1" enable-background="new 0 0 512 512" height="512" viewBox="0 0 512 512" width="512" xmlns="http://www.w3.org/2000/svg"><g><path d="m256 427.94.018-.011c-94.253.105-171.747-76.684-171.747-171.719 0-95.042 77.5-171.814 171.746-171.711l-.017-.018 8-30.442-8-54.039h-15v55.039c-99.232 7.329-178.728 86.757-186.158 185.961h-54.842v30h54.815c7.237 99.4 86.813 179.043 186.185 186.383v54.617h15l5-54.617z" fill="#dc4c69"/><path d="m457.158 241c-7.429-99.032-86.769-178.627-186.158-185.961v-55.039h-15v84.481c94.692 0 171.729 77.037 171.729 171.73s-77.037 171.729-171.729 171.729v84.06h15v-54.617c99.684-7.361 178.963-87.279 186.191-186.383h54.809v-30z" fill="#c21d75"/><path id="XMLID_31_" d="m256 343.493h-90.294v-15c0-49.788 40.506-90.294 90.294-90.294z" fill="#84d9f3"/><path d="m256 238.199v105.294h90.294v-15c0-49.788-40.506-90.294-90.294-90.294z" fill="#77b0fb"/><path id="XMLID_728_" d="m256 268.199c-33.182 0-60.177-26.995-60.177-60.177s26.995-60.177 60.177-60.177c33.181 0 60.175 26.995 60.175 60.177.001 33.182-26.993 60.177-60.175 60.177z" fill="#ebcea5"/><path id="XMLID_716_" d="m316.176 208.023c0-33.182-26.994-60.177-60.175-60.177v120.353c33.044 0 60.175-26.928 60.175-60.176z" fill="#e7b889"/></g></svg>