<svg id="Capa_1" enable-background="new 0 0 512 512" height="512" viewBox="0 0 512 512" width="512" xmlns="http://www.w3.org/2000/svg"><g><path d="m381.891 98.429h-251.782l-99.109 92.03v321.541l226-40 224 40v-321.541z" fill="#e4f3ff"/><path d="m351.872 456.966c0-17.476 0-434.661 0-456.966h-230.872v456.966z" fill="#7dd5f4"/><path d="m391 456.966c0-17.476 0-434.661 0-456.966h-135v456.966z" fill="#6ba7ff"/><path d="m181 72h150v30h-150z" fill="#e4f3ff"/><path d="m181 152h150v30h-150z" fill="#e4f3ff"/><g fill="#c3dafd"><path d="m256.02 72h74.98v30h-74.98z"/><path d="m256.02 152h74.98v30h-74.98z"/><path d="m31 190.459v321.541l144.967-70 20.026-94.993z"/></g><path d="m481 190.459v321.541l-134.967-70-30.026-94.993z" fill="#a1b8d8"/><path d="m481 512-164.993-164.993-60.007 60.007-60.007-60.007-164.993 164.993z" fill="#e4f3ff"/><path d="m481 512-164.993-164.993-60.007 60.007v104.986z" fill="#c3dafd"/></g></svg>