<svg id="Capa_1" enable-background="new 0 0 512 512" height="512" viewBox="0 0 512 512" width="512" xmlns="http://www.w3.org/2000/svg"><g><g><path id="XMLID_89_" d="m353.368 512h-194.685l-71.531-73.424c-57.477-57.517-87.152-133.582-87.152-210.213v-157.363h15.025c30.603 0 55.975-24.923 55.975-55.525v-15.475h371v15.475c0 30.602 24.423 55.525 55.025 55.525h14.975v157.363c0 76.551-29.374 152.44-87.107 210.213z" fill="#2c4da0"/><g><path d="m497.025 71c-30.602 0-55.025-24.923-55.025-55.525v-15.475h-186v512h97.368l71.524-73.424c57.677-57.715 87.108-133.578 87.108-210.213v-157.363z" fill="#213b85"/></g><g><ellipse cx="255.989" cy="255" fill="#e39069" rx="139.336" ry="139.338" transform="matrix(.987 -.16 .16 .987 -37.541 44.298)"/><path d="m255.988 115.662v278.676c76.17 0 139.338-62.383 139.338-139.338 0-76.945-63.168-139.338-139.338-139.338z" fill="#dc4c69"/></g></g><g><path d="m256.014 105.002c-82.709 0-150 67.289-150 150 0 82.709 67.291 150 150 150 82.711 0 150-67.291 150-150 0-82.711-67.289-150-150-150zm119.064 134.529h-44.422c-1.827-39.676-10.648-71.012-21.297-92.352 35.207 17.55 60.637 51.352 65.719 92.352zm-119.064 135.471c-9.316 0-20.32-11.973-28.719-30.867-8.938-20.107-14.439-46.603-15.885-74.603h89.207c-1.443 28-6.947 54.496-15.885 74.603-8.396 18.894-19.402 30.867-28.718 30.867zm-44.604-135.471c1.445-28 6.947-54.023 15.885-74.131 8.398-18.896 19.402-30.518 28.719-30.518s20.322 11.562 28.719 30.457c8.938 20.107 14.441 46.191 15.885 74.191h-89.208zm-8.742-92.232c-13.868 27.851-19.879 61.434-21.297 92.232h-44.422c5.084-41 30.512-74.685 65.719-92.232zm-65.719 122.232h44.422c1.451 31 7.744 65.291 21.297 92.467-35.207-17.547-60.635-51.467-65.719-92.467zm172.41 92.467c13.562-27.201 19.846-61.467 21.297-92.467h44.422c-5.082 41-30.512 74.918-65.719 92.467z" fill="#ecc443"/><path d="m256.014 105.002v29.881c9.316 0 20.322 11.562 28.719 30.457 8.938 20.107 14.441 46.191 15.885 74.191h-44.603v30h44.603c-1.443 28-6.947 54.496-15.885 74.603-8.396 18.895-19.402 30.867-28.719 30.867v30c82.711 0 150-67.291 150-150 0-82.71-67.289-149.999-150-149.999zm119.064 134.529h-44.422c-1.827-39.676-10.648-71.012-21.297-92.352 35.207 17.55 60.637 51.352 65.719 92.352zm-65.719 122.467c13.562-27.201 19.846-61.467 21.297-92.467h44.422c-5.082 41-30.512 74.918-65.719 92.467z" fill="#e39069"/></g></g></svg>