<svg id="Capa_1" enable-background="new 0 0 512 512" height="512" viewBox="0 0 512 512" width="512" xmlns="http://www.w3.org/2000/svg"><g id="XMLID_488_"><g id="XMLID_559_"><path id="XMLID_581_" d="m-27.011 128.605h204.022v30h-204.022z" fill="#e4f3ff" transform="matrix(.294 -.956 .956 .294 -84.311 173.059)"/></g><g id="XMLID_562_"><path id="XMLID_629_" d="m274.989 128.605h204.022v30h-204.022z" fill="#e4f3ff" transform="matrix(.294 -.956 .956 .294 128.879 461.705)"/></g><g id="XMLID_561_"><path id="XMLID_608_" d="m422 41.594h30v204.022h-30z" fill="#c3dafd" transform="matrix(.956 -.294 .294 .956 -22.908 134.866)"/></g><g id="XMLID_13_"><path id="XMLID_580_" d="m120 41.594h30v204.022h-30z" fill="#c3dafd" transform="matrix(.956 -.294 .294 .956 -36.263 46.052)"/></g><path d="m482 31c-24.458 0-436.577 0-452 0v30h211v345h30v-345h211z" fill="#2b4ca1"/><path d="m482 31.011c-9.508 0-218.041 0-226 0v375h15v-345h211z" fill="#213b82"/><path id="XMLID_12_" d="m407 346.105c-57.897 0-105-47.103-105-105v-15.105h210v15.105c0 57.898-47.103 105-105 105z" fill="#9fe04d"/><g><path d="m407 226v120.105c57.897 0 105-47.103 105-105v-15.105z" fill="#72c976"/></g><path id="XMLID_8_" d="m105 346.105c-57.896 0-105-47.103-105-105v-15.105h210v15.105c0 57.898-47.102 105-105 105z" fill="#9fe04d"/><g><path d="m105 226v120.105c57.898 0 105-47.103 105-105v-15.105z" fill="#72c976"/></g><path id="XMLID_675_" d="m166 391h180v76.334h-180z" fill="#213b82"/><path id="XMLID_564_" d="m256 391h90v76.334h-90z" fill="#182b61"/><g id="XMLID_39_"><path id="XMLID_568_" d="m136 451h240v30h-240z" fill="#2b4ca1"/></g><g id="XMLID_566_"><path id="XMLID_567_" d="m256 451h120v30h-120z" fill="#213b82"/></g></g></svg>