<svg id="Capa_1" enable-background="new 0 0 512 512" height="512" viewBox="0 0 512 512" width="512" xmlns="http://www.w3.org/2000/svg"><g><path d="m383.469 168.365v-19.336h-254.938v19.336h-96.664v281.9h448.266v-281.9z" fill="#e4f3ff"/><path d="m480.133 450.266v-281.9c-71.094 0-155.295 0-224.155 0v281.9z" fill="#c3dafd"/><path d="m128.531 279.9h254.938v31.867h-254.938z" fill="#77b0fb"/><path d="m128.531 343.635h254.938v31.867h-254.938z" fill="#77b0fb"/><path d="m255.977 279.9h127.462v31.867h-127.462z" fill="#5a9ffb"/><path d="m255.977 343.635h127.462v31.867h-127.462z" fill="#5a9ffb"/><path d="m128.531 9.029h254.938v159.336h-178.456l-76.481 47.801c-.001-9.967-.001-197.094-.001-207.137z" fill="#9fe04d"/><path d="m303.801 72.764h31.867v31.867h-31.867z" fill="#e0eaef"/><path d="m176.332 72.764h31.867v31.867h-31.867z" fill="#e4f3ff"/><path d="m383.439 9.029h-127.462v159.336h127.462z" fill="#72c976"/><path d="m303.801 72.764h31.867v31.867h-31.867z" fill="#c3dafd"/><path d="m240.066 72.764h31.867v31.867h-31.867z" fill="#e4f3ff"/><path d="m255.979 72.764h15.934v31.867h-15.934z" fill="#c3dafd"/><path d="m0 439.236c0 52.816 43.88 63.734 96.664 63.734h318.672c52.803 0 96.664-10.93 96.664-63.734-42.16 0-114.141 0-192.266 0l-63.757 20.883s-70.308-20.883-63.712-20.883c79.15 0-151.518 0-192.265 0z" fill="#2b4c9f"/><path d="m319.734 502.971h95.602c52.803 0 96.664-10.93 96.664-63.734-87.812 0-107.34 0-192.266 0z" fill="#213b82"/><path d="m192.266 439.236h127.469v63.734h-127.469z" fill="#f4d844"/><path d="m319.686 439.236c-20.838 0-42.271 0-63.709 0v63.734h63.709z" fill="#e39069"/></g></svg>