<svg id="Capa_1" enable-background="new 0 0 512 512" height="512" viewBox="0 0 512 512" width="512" xmlns="http://www.w3.org/2000/svg"><g id="XMLID_94_"><path id="XMLID_145_" d="m76 0h360v512h-360z" fill="#e4f3ff"/><path id="XMLID_144_" d="m256 0h180v512h-180z" fill="#c3dafd"/><path id="XMLID_143_" d="m376 450.369c-28.374 0-216.114 0-240 0 0-10.333 0-235.878 0-255h240z" fill="#2b4c9f"/><path id="XMLID_142_" d="m376 450.369c-14.186 0-108.057 0-120 0 0-10.333 0-235.878 0-255h120z" fill="#213b82"/><path id="XMLID_141_" d="m236 300.369h40v45h-40z" fill="#e4f3ff"/><path id="XMLID_140_" d="m306 420.369h40v-120h-40z" fill="#9fe04d"/><g fill="#e4f3ff"><path id="XMLID_139_" d="m236 225.369h40v45h-40z"/><path id="XMLID_137_" d="m166 225.369h40v45h-40z"/><path id="XMLID_132_" d="m236 375.369h40v45h-40z"/></g><path id="XMLID_129_" d="m256 300.369h20v45h-20z" fill="#c3dafd"/><path id="XMLID_126_" d="m256 225.369h20v45h-20z" fill="#c3dafd"/><path id="XMLID_1223_" d="m256 375.369h20v45h-20z" fill="#c3dafd"/><path id="XMLID_125_" d="m306 225.369h40v45h-40z" fill="#ebc443"/><path id="XMLID_124_" d="m136 60.369h240v94.631h-240z" fill="#2b4c9f"/><path id="XMLID_478_" d="m256 60.369h120v94.631h-120z" fill="#213b82"/><path id="XMLID_123_" d="m166 300.369h40v45h-40z" fill="#e4f3ff"/><path id="XMLID_122_" d="m166 375.369h40v45h-40z" fill="#e4f3ff"/></g></svg>