<svg id="Capa_1" enable-background="new 0 0 512 512" height="512" viewBox="0 0 512 512" width="512" xmlns="http://www.w3.org/2000/svg"><g id="XMLID_34_"><path id="XMLID_1045_" d="m256 480.345c-124.351 0-225-100.632-225-225 0-60.101 23.404-116.602 65.9-159.1 87.927-87.927 230.257-87.942 318.198 0 87.93 87.93 87.941 230.257 0 318.198-42.496 42.497-98.998 65.902-159.098 65.902z" fill="#dc4c69"/><path id="XMLID_10_" d="m256 480.345c124.08 0 225.025-100.947 225.025-225.025 0-124.08-100.945-225.025-225.025-225.025z" fill="#c21d75"/><g id="XMLID_987_"><path id="XMLID_108_" d="m241 0h30v120h-30z" fill="#e4f3ff"/></g><g id="XMLID_986_"><path id="XMLID_103_" d="m241 392h30v120h-30z" fill="#e4f3ff"/></g><g id="XMLID_984_"><path id="XMLID_101_" d="m0 241h120v30h-120z" fill="#e4f3ff"/></g><g fill="#c3dafd"><path id="XMLID_1035_" d="m271 0h-15v120h15c0-14 0-107 0-120z"/><path id="XMLID_1036_" d="m271 392h-15v120h15c0-6 0-113 0-120z"/><path id="XMLID_1037_" d="m392 241v30h120v-30c-24.806 0-95.168 0-120 0z"/></g><circle id="XMLID_1042_" cx="256" cy="255.345" fill="#e4f3ff" r="150"/><g><g><path d="m256 105.345v300c82.71 0 150-67.29 150-150 0-82.711-67.29-150-150-150z" fill="#c3dafd"/></g></g><circle id="XMLID_1039_" cx="256" cy="255.345" fill="#dc4c69" r="75"/><path id="XMLID_83_" d="m256 330.345c41.355 0 75-33.646 75-75 0-41.355-33.645-75-75-75z" fill="#c21d75"/><path id="XMLID_431_" d="m266.459 244.738-198.459-198.311v-46.427h-30v38h-38v30h47.082l198.238 198.131z" fill="#9fe04d"/></g></svg>