<svg id="Capa_1" enable-background="new 0 0 505.605 505.605" height="512" viewBox="0 0 505.605 505.605" width="512" xmlns="http://www.w3.org/2000/svg"><g id="XMLID_714_"><path id="XMLID_689_" d="m207.803 354h90v89h-90z" fill="#c3dafd"/><path id="XMLID_691_" d="m252.803 354h45v89h-45z" fill="#a1b8d8"/><path id="XMLID_688_" d="m87.803 0h330v360h-330z" fill="#e4f3ff"/><g id="XMLID_684_"><g><path id="XMLID_261_" d="m162.803 90h180v30h-180z" fill="#77b0fb"/></g></g><g id="XMLID_682_"><g><path id="XMLID_248_" d="m162.803 165h180v30h-180z" fill="#77b0fb"/></g></g><g id="XMLID_680_"><g><path id="XMLID_245_" d="m162.803 240h180v30h-180z" fill="#77b0fb"/></g></g><path d="m413.41 399.539-21.212 21.213 16.82 16.822h-312.43l16.822-16.822-21.212-21.213-53.034 53.035 53.034 53.031 21.212-21.212-16.82-16.819h312.426l-16.818 16.819 21.212 21.212 53.032-53.031z" fill="#dc4c69"/><path d="m413.41 399.539-21.212 21.213c1.632 1.632 9.358 9.359 16.82 16.822h-156.215v30h156.213c-5.321 5.322-10.924 10.924-16.818 16.818l21.212 21.213 53.032-53.031z" fill="#c21d75"/><path id="XMLID_674_" d="m252.803 360h165v-360h-165z" fill="#c3dafd"/><g fill="#5a9ffb"><path id="XMLID_694_" d="m252.803 90h90v30h-90z"/><path id="XMLID_695_" d="m252.803 165h90v30h-90z"/><path id="XMLID_696_" d="m252.803 240h90v30h-90z"/></g></g></svg>