<svg id="Capa_1" enable-background="new 0 0 512 512" height="512" viewBox="0 0 512 512" width="512" xmlns="http://www.w3.org/2000/svg"><g id="XMLID_475_"><g id="XMLID_198_"><path id="XMLID_216_" d="m195 376h122v120h-122z" fill="#c3dafd"/><path id="XMLID_215_" d="m256 376h61v120h-61z" fill="#a1b8d8"/><g id="XMLID_212_"><g><path id="XMLID_535_" d="m165 466h182v30h-182z" fill="#e4f3ff"/></g></g><g id="XMLID_210_"><g><path id="XMLID_531_" d="m256 466h91v30h-91z" fill="#c3dafd"/></g></g><path id="XMLID_209_" d="m0 16h512v390h-512z" fill="#e4f3ff"/><path id="XMLID_208_" d="m256 16h256v390h-256z" fill="#c3dafd"/><g id="XMLID_203_"><g><path id="XMLID_520_" d="m0 306h332v30h-332z" fill="#c3dafd"/></g></g><g id="XMLID_352_"><g><path id="XMLID_485_" d="m256 306h76v30h-76z" fill="#a1b8d8"/></g></g><g id="XMLID_201_"><g><path id="XMLID_482_" d="m362 306h30v30h-30z" fill="#a1b8d8"/></g></g><g id="XMLID_199_"><g><path id="XMLID_468_" d="m422 306h30v30h-30z" fill="#a1b8d8"/></g></g></g><g id="XMLID_1004_"><path id="XMLID_1005_" d="m181 223.587-45-22.5-45 22.5v-84.587h30v36.046l15-7.5 15 7.5v-36.046h30z" fill="#7dd5f4"/></g><g id="XMLID_1000_"><path id="XMLID_527_" d="m421 223.587-45-22.5-45 22.5v-84.587h30v36.046l15-7.5 15 7.5v-36.046h30z" fill="#77b0fb"/></g><g id="XMLID_1002_"><path id="XMLID_193_" d="m301 223.587-45-22.5-45 22.5v-84.587h30v36.046l15-7.5 15 7.5v-36.046h30z" fill="#7dd5f4"/></g><path id="XMLID_191_" d="m301 139h-30v36.046l-15-7.5v33.541l45 22.5z" fill="#77b0fb"/></g></svg>