<svg id="Capa_1" enable-background="new 0 0 512 512" height="512" viewBox="0 0 512 512" width="512" xmlns="http://www.w3.org/2000/svg"><g><path d="m105 115h-105v-62.5c0-28.948 23.551-52.5 52.5-52.5s52.5 23.552 52.5 52.5z" fill="#c3dafd"/><path d="m459.5 512c-28.949 0-52.5-23.552-52.5-52.5v-62.5h105v62.5c0 28.948-23.551 52.5-52.5 52.5z" fill="#a1b8d8"/><g><g><path d="m422 469.667c0-17.694 0-377.607 0-395.409 0-40.946-33.312-74.258-74.257-74.258h-295.059c19.718 0 37.316 25.197 37.316 42.916v394.826c0 40.947 33.312 74.258 74.257 74.258h294.24c-22.679 0-36.497-24.975-36.497-42.333z" fill="#e4f3ff"/></g></g><path d="m30 317.001v133.026l60-40 60 40v-133.026c-19.315 0-105.167 0-120 0z" fill="#9fe04d"/><path d="m90 317.001v93.026l60 40v-133.026c-5.738 0-53.062 0-60 0z" fill="#72c976"/><g><g><path d="m458.497 512c-22.679 0-36.497-24.975-36.497-42.333 0-17.694 0-377.607 0-395.409 0-40.946-33.312-74.258-74.257-74.258h-55.243v512z" fill="#c3dafd"/></g></g><g fill="#77b0fb"><path d="m225 90h135v30h-135z"/><path d="m225 167h135v30h-135z"/><path d="m225 242h135v30h-135z"/><path d="m225 317h135v30h-135z"/><path d="m225 392h135v30h-135z"/></g><path d="m292.5 90h67.5v30h-67.5z" fill="#5a9ffb"/><path d="m292.5 167h67.5v30h-67.5z" fill="#5a9ffb"/><path d="m292.5 242h67.5v30h-67.5z" fill="#5a9ffb"/><path d="m292.5 317h67.5v30h-67.5z" fill="#5a9ffb"/><path d="m292.5 392h67.5v30h-67.5z" fill="#5a9ffb"/><circle cx="90" cy="257" fill="#ecc443" r="90"/><g><path d="m90 167v180c49.626 0 90-40.374 90-90s-40.374-90-90-90z" fill="#e39069"/></g><circle cx="90" cy="257" fill="#dc4c69" r="60"/><g><path d="m90 197v120c33.084 0 60-26.916 60-60s-26.916-60-60-60z" fill="#c21d75"/></g></g></svg>