<svg id="Capa_1" enable-background="new 0 0 512 512" height="512" viewBox="0 0 512 512" width="512" xmlns="http://www.w3.org/2000/svg"><g><path d="m448.266 258.127c36.954 0 63.734-28.555 63.734-63.781 0-35.309-26.838-63.783-63.734-63.783h-15.934l-10.622 66.971 10.622 60.594h15.934z" fill="#e4f3ff"/><path d="m448.266 258.127h-15.934l-10.622-60.594.504-3.188h89.786c0 35.153-26.707 63.782-63.734 63.782z" fill="#c3dafd"/><path d="m65.859 258.127 10.622-56.873-10.622-70.692h-65.859v127.565z" fill="#2b4ca1"/><path d="m65.859 258.127h-65.859v-63.781h75.442l1.039 6.908z" fill="#213b82"/><path d="m251.751 433.525h-53.388l-.053-31.89h53.441z" fill="#dc4c69"/><path d="m230.506 509h-116.846v-203.037l32.22-10.631 36.825 10.631c1.563 6.637 46.349 196.873 47.801 203.037z" fill="#213b82"/><path d="m388.651 194.346c-.03-.251.898 7.559-20.319-170.904l-185.627 59.285-20.006 111.619 20.006 111.617 185.627 59.285c21.219-178.471 20.289-170.65 20.319-170.902z" fill="#e4f3ff"/><path d="m368.332 365.248-185.627-59.285-20.006-111.617h225.952c-.03.252.9-7.569-20.319 170.902z" fill="#c3dafd"/><path d="m432.332 3-64 20.441.266.818v340.168l-.266.82 64 20.441c0-16.518 0-367.444 0-382.688z" fill="#ecc443"/><path d="m432.332 385.69-64-20.441.266-.82v-170.083h63.734z" fill="#e39069"/><path d="m182.705 305.963v-223.236c-52.639 0-65.354 0-116.846 0v223.236z" fill="#ecc443"/><path d="m65.859 305.963c0-21.375 0-90.46 0-111.617h116.846v111.617z" fill="#e39069"/></g></svg>