<svg id="Capa_1" enable-background="new 0 0 512 512" height="512" viewBox="0 0 512 512" width="512" xmlns="http://www.w3.org/2000/svg"><g><path d="m311.322 512h-113.611l-20.773-92h158.127z" fill="#2b4c9f"/><path d="m256 420v92h55.322l23.743-92z" fill="#213b82"/><path d="m256 0c-115.793 0-210 94.206-210 210 0 75.494 39.998 144.359 105 181.882v58.118h210v-58.118c65.004-37.523 105-106.388 105-181.882 0-115.794-94.205-210-210-210z" fill="#ecc443"/><g><path d="m256 0v450h105v-58.118c65.004-37.523 105-106.388 105-181.882 0-115.794-94.205-210-210-210z" fill="#e39069"/></g><path d="m271 239h-30v-60h-90v90h60v181h30v-181h30v181h30v-181h60v-90h-90zm-60 0h-30v-30h30zm90-30h30v30h-30z" fill="#fbf4f4"/><path d="m271 179v60l-15 .042v30l15-.042v181h30v-181h60v-90zm60 60h-30v-30h30z" fill="#e2e9ee"/></g></svg>