<svg id="Capa_1" enable-background="new 0 0 512 512" height="512" viewBox="0 0 512 512" width="512" xmlns="http://www.w3.org/2000/svg"><g><g id="XMLID_59_"><g id="XMLID_238_"><path id="XMLID_265_" d="m241 362h30v90h-30z" fill="#2b4c9f"/></g><g id="XMLID_236_"><path id="XMLID_237_" d="m256 362h15v90h-15z" fill="#213b82"/></g><path id="XMLID_234_" d="m46 62h420v315h-420z" fill="#e4f3ff"/><path id="XMLID_86_" d="m256 62h210v315h-210z" fill="#c3dafd"/><path id="XMLID_84_" d="m0 0h512v92h-512z" fill="#9fe04d"/><path id="XMLID_128_" d="m256 0h256v92h-256z" fill="#72c976"/><g><path d="m256 219.5 7.833-45.815-7.833-51.685c-53.762 0-97.5 43.738-97.5 97.5s43.738 97.5 97.5 97.5 97.5-43.738 97.5-97.5l-58.501-10z" fill="#ecc443"/><g><path d="m256 317c53.762 0 97.5-43.738 97.5-97.5l-32.246-20-65.254 20z" fill="#e48f66"/></g><g><path d="m256 122.004v97.496h97.5c.025-53.538-43.552-97.496-97.5-97.496z" fill="#da4f69"/></g></g></g><circle id="XMLID_235_" cx="256" cy="467" fill="#9fe04d" r="45"/><g><path d="m256 422v90c24.814 0 45-20.186 45-45 0-24.812-20.186-45-45-45z" fill="#72c976"/></g></g></svg>