<svg id="Capa_1" enable-background="new 0 0 512 512" height="512" viewBox="0 0 512 512" width="512" xmlns="http://www.w3.org/2000/svg"><g><path id="XMLID_993_" d="m256 32.51-165 131.79v347.7h330v-347.7zm0 184.17c-24.814 0-45-20.165-45-44.952s20.186-44.952 45-44.952c24.813 0 45 20.165 45 44.952s-20.187 44.952-45 44.952z" fill="#84d9f3"/><path id="XMLID_991_" d="m421 164.3-165-131.79v94.266c24.813 0 45 20.165 45 44.952s-20.187 44.952-45 44.952v295.32h165z" fill="#77b0fb"/><g fill="#e4f3ff"><path id="XMLID_972_" d="m165 254.789h180v30h-180z"/><path id="XMLID_971_" d="m165 329.789h180v30h-180z"/><path id="XMLID_970_" d="m165 404.789h180v30h-180z"/><path id="XMLID_974_" d="m241 0h30v171.789h-30z"/></g><path id="XMLID_992_" d="m271 0h-15v171.789h15c0-34 0-132.789 0-171.789z" fill="#c3dafd"/><path id="XMLID_994_" d="m256 254.789h89v30h-89z" fill="#c3dafd"/><path id="XMLID_995_" d="m256 329.789h89v30h-89z" fill="#c3dafd"/><path id="XMLID_996_" d="m256 404.789h89v30h-89z" fill="#c3dafd"/></g></svg>